<?xml version="1.0" encoding="utf-8"?>
<!-- Generator: Adobe Illustrator 27.5.0, SVG Export Plug-In . SVG Version: 6.00 Build 0)  -->
<svg version="1.1" xmlns="http://www.w3.org/2000/svg" xmlns:xlink="http://www.w3.org/1999/xlink" x="0px" y="0px"
	 viewBox="0 0 500 500" style="enable-background:new 0 0 500 500;" xml:space="preserve">
<g id="BACKGROUND">
	<g>
		<circle style="fill:#DBFCFA;" cx="248.763" cy="237.73" r="218.675"/>
		<g>
			<path style="fill:#C4F4AB;" d="M474.249,437.679c0,26.901-100.953,48.709-225.485,48.709
				c-124.534,0-225.488-21.808-225.488-48.709c0-26.9,100.955-48.707,225.488-48.707
				C373.296,388.972,474.249,410.779,474.249,437.679z"/>
			<g>
				<path style="fill:#67CE67;" d="M53.973,425.758c0,0,0.215-16.35,2.38-25.375c2.165-9.026,6.925-17.884,5.411-18.053
					c-1.516-0.17-14.933,13.625-14.715,23.844c0.217,10.218,3.572,19.584,4.328,19.584
					C52.134,425.758,53.973,425.758,53.973,425.758z"/>
				<path style="fill:#67CE67;" d="M59.916,425.758c0,0,0.16-12.118,1.764-18.808c1.604-6.69,5.133-13.255,4.011-13.38
					c-1.124-0.126-11.068,10.099-10.907,17.672c0.161,7.573,2.647,14.516,3.208,14.516
					C58.552,425.758,59.916,425.758,59.916,425.758z"/>
			</g>
			<g>
				<path style="fill:#5D5D5D;" d="M367.732,463.823c0,2.398-5.719,4.343-12.773,4.343c-7.054,0-12.773-1.944-12.773-4.343
					c0-2.399,5.719-4.343,12.773-4.343C362.013,459.48,367.732,461.423,367.732,463.823z"/>
				<ellipse style="fill:#5D5D5D;" cx="378.204" cy="456.159" rx="6.896" ry="2.345"/>
				<path style="fill:#5D5D5D;" d="M110.992,462.035c0,2.398-5.719,4.343-12.773,4.343c-7.054,0-12.773-1.944-12.773-4.343
					c0-2.399,5.719-4.343,12.773-4.343C105.273,457.692,110.992,459.635,110.992,462.035z"/>
				<path style="fill:#5D5D5D;" d="M128.363,454.371c0,1.295-3.088,2.345-6.897,2.345c-3.809,0-6.897-1.05-6.897-2.345
					c0-1.295,3.088-2.345,6.897-2.345C125.275,452.026,128.363,453.076,128.363,454.371z"/>
				<path style="fill:#5D5D5D;" d="M78.293,435.977c0,1.296-3.089,2.346-6.897,2.346c-3.809,0-6.898-1.05-6.898-2.346
					c0-1.295,3.089-2.345,6.898-2.345C75.204,433.632,78.293,434.682,78.293,435.977z"/>
			</g>
			<g>
				<path style="fill:#67CE67;" d="M413.542,430.528c0,0-0.17-16.35-1.873-25.376c-1.703-9.025-5.45-17.883-4.258-18.053
					c1.192-0.17,11.752,13.625,11.581,23.844c-0.17,10.219-2.81,19.585-3.406,19.585S413.542,430.528,413.542,430.528z"/>
				<path style="fill:#67CE67;" d="M437.51,430.528c0,0,0.216-16.35,2.38-25.376c2.164-9.025,6.926-17.883,5.41-18.053
					c-1.516-0.17-14.932,13.625-14.715,23.844c0.217,10.219,3.572,19.585,4.328,19.585
					C435.671,430.528,437.51,430.528,437.51,430.528z"/>
				<path style="fill:#67CE67;" d="M443.452,430.528c0,0,0.16-12.119,1.765-18.809c1.604-6.69,5.133-13.254,4.01-13.38
					c-1.123-0.126-11.067,10.099-10.906,17.672c0.16,7.574,2.647,14.517,3.208,14.517
					C442.089,430.528,443.452,430.528,443.452,430.528z"/>
				<g>
					<path style="fill:#67CE67;" d="M467.529,344.863c0.855-0.155,2.555,20.948-8.686,29.805
						c-11.24,8.856-27.931,4.768-27.931,4.768s1.704-8.175,1.704-9.707C432.617,368.195,439.429,349.972,467.529,344.863z"/>
					<path style="fill:#47B547;" d="M432.617,369.728c0,1.532-1.704,9.707-1.704,9.707s16.69,4.089,27.931-4.768
						c0.673-0.53,1.295-1.106,1.878-1.716c-6.983-4.746-13.647-9.938-20.072-15.415C434.562,363.332,432.617,368.91,432.617,369.728
						z"/>
					<g>
						<path style="fill:#0C6817;" d="M419.83,430.67c0,0,0.404-1.677,1.112-4.61c0.368-1.459,0.762-3.251,1.239-5.296
							c0.46-2.049,0.979-4.36,1.546-6.883c0.281-1.26,0.575-2.573,0.879-3.933c0.275-1.364,0.56-2.775,0.852-4.226
							c0.293-1.45,0.593-2.94,0.899-4.462c0.279-1.526,0.563-3.085,0.854-4.671c0.287-1.586,0.578-3.197,0.873-4.83
							c0.302-1.631,0.491-3.294,0.755-4.963c0.246-1.67,0.494-3.353,0.742-5.044c0.251-1.689,0.331-3.395,0.514-5.094
							c0.164-1.7,0.329-3.4,0.492-5.094c0.025-1.602,0.117-3.422,0.081-5.059c-0.109-3.266-0.335-6.554-0.83-9.702
							c-0.12-0.787-0.239-1.567-0.357-2.341c-0.128-0.771-0.293-1.531-0.434-2.286c-0.147-0.754-0.294-1.499-0.439-2.236
							c-0.174-0.73-0.346-1.453-0.515-2.166c-0.668-2.854-1.461-5.517-2.243-7.958c-0.793-2.439-1.577-4.658-2.31-6.612
							c-0.741-1.951-1.438-3.634-2.031-5.011c-0.606-1.37-1.081-2.448-1.425-3.172c-0.346-0.715-0.531-1.097-0.531-1.097
							l-0.014-0.028c-0.174-0.359-0.023-0.791,0.335-0.966c0.344-0.166,0.754-0.034,0.942,0.291c0,0,0.219,0.382,0.63,1.098
							c0.396,0.717,0.977,1.766,1.655,3.131c0.675,1.366,1.471,3.037,2.328,4.98c0.849,1.945,1.774,4.158,2.644,6.627
							c0.877,2.465,1.773,5.16,2.552,8.063c0.197,0.726,0.397,1.461,0.599,2.206c0.173,0.752,0.348,1.514,0.524,2.284
							c0.167,0.773,0.369,1.547,0.51,2.343c0.135,0.797,0.272,1.601,0.409,2.412c0.553,3.243,0.882,6.636,1.006,10.165
							c0.042,1.76-0.033,3.368-0.058,5.205c-0.157,1.732-0.315,3.47-0.473,5.208c-0.182,1.734-0.286,3.485-0.547,5.197
							c-0.262,1.713-0.522,3.418-0.78,5.109c-0.273,1.689-0.479,3.379-0.817,5.018c-0.325,1.643-0.646,3.265-0.963,4.86
							c-0.326,1.594-0.604,3.17-0.953,4.694c-0.359,1.522-0.71,3.012-1.052,4.462c-0.342,1.449-0.674,2.858-0.995,4.222
							c-0.35,1.356-0.688,2.667-1.013,3.925c-0.638,2.518-1.251,4.818-1.854,6.842c-0.588,2.027-1.077,3.798-1.526,5.248
							c-0.876,2.906-1.423,4.543-1.423,4.543c-0.126,0.38-0.535,0.585-0.915,0.46C419.947,431.408,419.745,431.031,419.83,430.67z"
							/>
					</g>
					<g>
						<path d="M432.271,374.671c0,0,0.328-0.373,0.901-1.027c0.29-0.324,0.641-0.718,1.044-1.17c0.378-0.472,0.928-0.906,1.48-1.418
							c0.564-0.504,1.175-1.05,1.821-1.627c0.68-0.525,1.396-1.08,2.137-1.653c0.737-0.582,1.526-1.141,2.341-1.689
							c0.812-0.553,1.624-1.135,2.458-1.681c1.692-1.053,3.37-2.13,4.982-3.069c1.6-0.961,3.122-1.804,4.419-2.539
							c2.602-1.457,4.355-2.391,4.355-2.391c0.117-0.064,0.264-0.021,0.327,0.097c0.059,0.11,0.021,0.249-0.081,0.317
							c0,0-1.67,1.082-4.204,2.651c-1.266,0.783-2.742,1.696-4.324,2.676c-1.597,0.956-3.249,2.046-4.918,3.112
							c-0.822,0.549-1.645,1.099-2.454,1.639c-0.814,0.534-1.603,1.078-2.336,1.642c-0.747,0.547-1.47,1.074-2.154,1.575
							c-0.648,0.535-1.261,1.042-1.826,1.51c-0.555,0.484-1.111,0.866-1.524,1.317c-0.431,0.426-0.806,0.798-1.114,1.103
							c-0.623,0.607-0.978,0.955-0.978,0.955c-0.095,0.094-0.247,0.094-0.341-0.001
							C432.191,374.911,432.189,374.766,432.271,374.671z"/>
					</g>
					<path style="fill:#F36766;" d="M392.936,320.508c0.944-1.573-10.219,3.748-12.944-0.681c-2.725-4.429-3.746-26.569,5.45-27.932
						c9.196-1.362,13.625,5.11,13.966,3.407c0.34-1.703-8.103-6.79-7.153-9.878c2.725-8.855,28.61-11.921,29.974-7.493
						c1.363,4.428-3.405,17.029-2.043,17.029c1.361,0,3.406-15.327,10.899-13.283c7.493,2.043,13.624,17.712,11.581,21.8
						c-2.044,4.087-11.24,6.131-9.537,6.472c1.703,0.34,10.9-0.001,10.219,8.515c-0.682,8.517-13.285,18.395-18.054,17.713
						c-4.768-0.682-6.131-10.219-7.493-9.196c-1.361,1.022,4.77,8.175-2.384,13.283c-7.153,5.109-29.635-1.022-29.975-8.516
						C385.101,324.255,391.913,322.211,392.936,320.508z"/>
					<path style="fill:#E04646;" d="M433.128,309.95c-1.703-0.341,7.493-2.385,9.537-6.472c1.402-2.807-1.048-11.072-5.148-16.639
						c-2.515,12.198-8.188,23.468-19.718,27.538c-13.725,5.146-27.449-2.669-39.36-11.357c-0.909,6.709,0.065,14.391,1.552,16.807
						c2.725,4.429,13.889-0.893,12.944,0.681c-1.022,1.702-7.835,3.747-7.494,11.24c0.34,7.493,22.821,13.625,29.975,8.516
						c7.153-5.108,1.022-12.262,2.384-13.283c1.362-1.022,2.725,8.515,7.493,9.196c4.769,0.682,17.372-9.196,18.054-17.713
						C444.028,309.949,434.831,310.29,433.128,309.95z"/>
					<g>
						<path d="M386.464,304.258c0,0,0.327-0.016,0.897-0.044c0.57-0.026,1.386-0.065,2.382-0.004
							c0.494,0.026,1.038,0.026,1.598,0.086c0.563,0.048,1.156,0.097,1.77,0.165c0.613,0.06,1.24,0.172,1.881,0.258
							c0.64,0.096,1.293,0.176,1.936,0.31c1.289,0.253,2.575,0.523,3.768,0.838c1.201,0.272,2.288,0.668,3.23,0.956
							c0.945,0.279,1.691,0.654,2.23,0.85c0.53,0.222,0.833,0.349,0.833,0.349c0.123,0.052,0.181,0.192,0.129,0.315
							c-0.047,0.114-0.173,0.172-0.288,0.139l-0.017-0.005c0,0-0.313-0.09-0.859-0.248c-0.548-0.151-1.309-0.422-2.255-0.65
							c-0.471-0.121-0.98-0.252-1.52-0.391c-0.535-0.152-1.116-0.25-1.706-0.393c-1.181-0.288-2.453-0.531-3.729-0.758
							c-0.634-0.136-1.274-0.233-1.904-0.337c-0.63-0.097-1.247-0.22-1.851-0.29c-0.602-0.069-1.184-0.154-1.735-0.234
							c-0.553-0.091-1.069-0.12-1.551-0.174c-0.481-0.05-0.923-0.096-1.314-0.137c-0.397-0.022-0.744-0.042-1.029-0.058
							c-0.571-0.039-0.896-0.062-0.896-0.062c-0.134-0.009-0.234-0.123-0.227-0.256
							C386.243,304.362,386.344,304.265,386.464,304.258z"/>
					</g>
					<g>
						<path d="M398.51,333.686c0,0,0.572-1.354,1.491-3.355c0.465-0.997,1.008-2.161,1.589-3.408c0.596-1.24,1.23-2.564,1.865-3.887
							c0.691-1.3,1.382-2.6,2.03-3.818c0.328-0.607,0.63-1.201,0.973-1.735c0.338-0.537,0.658-1.044,0.952-1.513
							c1.189-1.867,2.013-3.084,2.013-3.084c0.074-0.11,0.225-0.14,0.334-0.065c0.103,0.069,0.135,0.203,0.079,0.31l-0.009,0.017
							c0,0-0.677,1.305-1.741,3.219c-0.269,0.478-0.559,0.994-0.866,1.541c-0.314,0.541-0.574,1.156-0.898,1.76
							c-0.624,1.221-1.289,2.522-1.954,3.824c-0.655,1.313-1.311,2.625-1.926,3.855c-0.609,1.233-1.228,2.359-1.735,3.336
							c-1.035,1.943-1.765,3.219-1.765,3.219c-0.066,0.116-0.214,0.156-0.329,0.09C398.505,333.929,398.463,333.797,398.51,333.686z
							"/>
					</g>
					<g>
						<path d="M409.184,285.071c0,0,0.16,1.152,0.332,2.886c0.041,0.434,0.086,0.902,0.133,1.399s0.157,1.006,0.221,1.542
							c0.151,1.066,0.311,2.204,0.473,3.342c0.175,1.146,0.35,2.291,0.514,3.364c0.163,1.072,0.278,2.085,0.395,2.948
							c0.215,1.731,0.316,2.89,0.316,2.89c0.012,0.133-0.087,0.25-0.22,0.262c-0.12,0.011-0.228-0.069-0.256-0.185l-0.001-0.005
							c0,0-0.27-1.132-0.612-2.837c-0.162-0.854-0.371-1.846-0.56-2.92c-0.187-1.073-0.386-2.218-0.585-3.363
							c-0.141-1.163-0.281-2.325-0.412-3.416c-0.063-0.544-0.137-1.072-0.15-1.571c-0.015-0.498-0.028-0.97-0.042-1.404
							c-0.043-1.741-0.026-2.904-0.026-2.904c0.002-0.133,0.111-0.239,0.244-0.238C409.068,284.862,409.168,284.954,409.184,285.071
							z"/>
					</g>
					<g>
						<path d="M414.57,307.389c0,0,0.243-0.253,0.67-0.696c0.216-0.219,0.478-0.484,0.777-0.789
							c0.292-0.312,0.641-0.647,1.053-0.988c0.804-0.697,1.728-1.536,2.794-2.317c1.042-0.819,2.202-1.617,3.348-2.439
							c1.174-0.772,2.348-1.545,3.448-2.269c1.108-0.706,2.143-1.365,3.029-1.93c1.774-1.125,2.957-1.875,2.957-1.875l0.005-0.003
							c0.112-0.071,0.262-0.038,0.333,0.075c0.066,0.105,0.04,0.242-0.055,0.318c0,0-0.277,0.217-0.762,0.598
							c-0.494,0.366-1.175,0.932-2.038,1.534c-0.861,0.607-1.854,1.337-2.944,2.071c-1.084,0.741-2.241,1.531-3.397,2.321
							c-1.145,0.8-2.314,1.567-3.353,2.358c-0.518,0.396-1.051,0.745-1.518,1.112c-0.47,0.366-0.914,0.712-1.323,1.032
							c-0.832,0.619-1.478,1.234-1.953,1.618c-0.472,0.394-0.742,0.618-0.742,0.618c-0.102,0.086-0.254,0.072-0.34-0.029
							C414.479,307.616,414.486,307.476,414.57,307.389z"/>
					</g>
					<g>
						<path d="M414.122,311.763c0,0,0.301,0.071,0.827,0.197c0.263,0.065,0.58,0.145,0.945,0.237
							c0.367,0.075,0.772,0.235,1.216,0.393c0.444,0.161,0.926,0.336,1.435,0.52c0.491,0.211,1.011,0.434,1.541,0.681
							c0.537,0.233,1.075,0.506,1.617,0.79c0.541,0.286,1.104,0.554,1.645,0.862c0.535,0.316,1.07,0.632,1.597,0.942
							c0.531,0.304,1.028,0.642,1.523,0.948c0.988,0.613,1.864,1.257,2.628,1.787c0.767,0.524,1.362,1.025,1.799,1.346
							c0.426,0.335,0.669,0.526,0.669,0.526c0.105,0.082,0.123,0.233,0.041,0.338c-0.076,0.098-0.216,0.118-0.318,0.055
							c0,0-1.051-0.645-2.625-1.613c-0.783-0.488-1.703-1.046-2.693-1.633c-0.495-0.293-0.994-0.619-1.524-0.907
							c-0.525-0.297-1.06-0.598-1.593-0.899c-0.531-0.307-1.075-0.586-1.603-0.876c-0.528-0.291-1.052-0.57-1.572-0.808
							c-0.518-0.244-1.012-0.495-1.48-0.733c-0.477-0.207-0.928-0.403-1.345-0.583c-0.421-0.173-0.79-0.365-1.152-0.481
							c-0.354-0.127-0.663-0.238-0.918-0.33c-0.507-0.191-0.796-0.299-0.796-0.299c-0.125-0.046-0.189-0.184-0.143-0.309
							C413.883,311.799,414.006,311.736,414.122,311.763z"/>
					</g>
					<path style="fill:#FFE966;" d="M401.959,309.314c0,5.481,3.148,9.924,8.627,9.924c5.478,0,9.662-4.442,9.662-9.924
						c0-5.48-4.184-9.924-9.662-9.924C405.107,299.39,401.959,303.833,401.959,309.314z"/>
				</g>
			</g>
		</g>
	</g>
</g>
<g id="OBJECTS">
	<g>
		<g>
			<path style="fill:#0C6817;" d="M134.75,335.156c-2.965-16.011-3.747-26.228-2.043-41.896c1.703-15.669,6.131-23.502-9.197-20.097
				c-15.328,3.406-49.389,37.127-39.512,65.739c9.878,28.611,34.062,44.28,41.896,47.687
				C133.728,389.994,136.453,344.352,134.75,335.156z"/>
			<path style="fill:#EDE396;" d="M125.213,284.403c1.616-1.615,18.393,2.044,18.734,4.088c0.341,2.043-16.008,11.921-17.712,10.559
				C124.532,297.687,122.488,287.128,125.213,284.403z"/>
			<path style="fill:#EDE396;" d="M126.027,313.821c1.271-1.897,18.439-1.568,19.171,0.371c0.731,1.938-13.387,14.804-15.323,13.799
				C127.939,326.985,123.883,317.025,126.027,313.821z"/>
			<g>
				<path d="M96.413,357.786c0,0-0.284-0.323-0.779-0.89c-0.245-0.285-0.543-0.631-0.884-1.028c-0.349-0.39-0.729-0.844-1.096-1.386
					c-0.381-0.53-0.795-1.104-1.232-1.711c-0.457-0.598-0.82-1.294-1.246-1.988c-0.409-0.704-0.869-1.411-1.221-2.191
					c-0.377-0.768-0.76-1.548-1.143-2.328c-0.309-0.814-0.618-1.626-0.922-2.426c-0.332-0.79-0.533-1.61-0.762-2.393
					c-0.209-0.788-0.47-1.534-0.58-2.275c-0.13-0.735-0.253-1.43-0.367-2.071c-0.053-0.321-0.12-0.626-0.153-0.921
					c-0.021-0.296-0.041-0.577-0.059-0.841c-0.037-0.527-0.068-0.987-0.095-1.365c-0.045-0.756-0.072-1.188-0.072-1.188
					c-0.008-0.133,0.093-0.246,0.226-0.255c0.125-0.007,0.233,0.082,0.252,0.204l0.004,0.023c0,0,0.063,0.423,0.174,1.162
					c0.052,0.369,0.114,0.817,0.187,1.332c0.061,0.516,0.154,1.092,0.309,1.713c0.138,0.622,0.287,1.296,0.445,2.009
					c0.134,0.718,0.436,1.436,0.641,2.203c0.234,0.761,0.439,1.558,0.776,2.325c0.308,0.777,0.62,1.566,0.933,2.355
					c0.365,0.767,0.729,1.533,1.088,2.288c0.333,0.768,0.773,1.467,1.164,2.161c0.414,0.679,0.741,1.387,1.157,1.983
					c0.399,0.609,0.777,1.185,1.126,1.718c0.675,1.078,1.383,1.91,1.811,2.522c0.443,0.608,0.696,0.956,0.696,0.956
					c0.079,0.107,0.055,0.259-0.053,0.337C96.635,357.896,96.494,357.878,96.413,357.786z"/>
			</g>
			<g>
				<path d="M130.527,325.418c0,0,0.474-0.424,1.222-1.004c0.368-0.293,0.83-0.609,1.346-0.921c0.511-0.315,1.06-0.659,1.624-0.954
					c0.57-0.283,1.14-0.566,1.682-0.816c0.533-0.266,1.07-0.434,1.516-0.605c0.902-0.321,1.514-0.495,1.514-0.495
					c0.128-0.036,0.262,0.039,0.298,0.167c0.03,0.107-0.016,0.218-0.107,0.272l-0.016,0.01c0,0-0.543,0.329-1.374,0.763
					c-0.418,0.212-0.906,0.453-1.414,0.747c-0.512,0.285-1.066,0.571-1.62,0.858c-0.556,0.281-1.079,0.603-1.598,0.867
					c-0.51,0.273-1.009,0.5-1.41,0.759c-0.821,0.473-1.393,0.751-1.393,0.751c-0.12,0.061-0.266,0.012-0.327-0.108
					C130.422,325.61,130.449,325.49,130.527,325.418z"/>
			</g>
			<g>
				<path d="M126.476,297.808c0,0,0.588-0.363,1.497-0.849c0.909-0.486,2.136-1.103,3.384-1.669c1.211-0.624,2.451-1.19,3.391-1.601
					c0.941-0.407,1.591-0.644,1.591-0.644l0.011-0.004c0.125-0.046,0.265,0.02,0.31,0.145c0.039,0.106-0.002,0.223-0.091,0.283
					c0,0-0.572,0.388-1.463,0.917c-0.892,0.525-2.095,1.208-3.326,1.832c-1.246,0.574-2.518,1.09-3.481,1.457
					c-0.963,0.367-1.624,0.571-1.624,0.571c-0.128,0.039-0.264-0.032-0.304-0.161C126.338,297.979,126.384,297.866,126.476,297.808z
					"/>
			</g>
		</g>
		<g>
			<path style="fill:#1C9B32;" d="M295.691,440.576c-16.86,0-73.063,0-97.076,0c-24.014,0-92.478-30.655-68.975-93.499
				c23.503-62.844,64.888-57.224,87.368-57.224c22.481,0,81.237-12.263,96.054,4.598c14.817,16.86,48.538,50.071,40.874,84.303
				C346.273,412.986,313.574,440.576,295.691,440.576z"/>
			<path style="fill:#EDE396;" d="M268.26,440.298c16.433,0,42.594-70.089,36.786-96.418c-5.809-26.332-44.918-42.983-73.573-27.106
				c-28.654,15.877-15.294,112.489-8.519,119.267C229.73,442.816,260.516,440.298,268.26,440.298z"/>
		</g>
		<g>
			<path style="fill:#168226;" d="M91.57,395.983c-3.508,0.573-12.496,4.085-14.653-6.274c-2.157-10.359,3.118-28.067,14.845-26.983
				C103.489,363.81,108.492,393.217,91.57,395.983z"/>
			<path style="fill:#168226;" d="M105.883,391.016c18.677,0,23.502-4.599,21.714-12.518c-1.789-7.92-5.876-21.459-19.415-21.459
				c-13.54,0-20.182,24.014-14.306,29.889C99.752,392.804,101.54,391.016,105.883,391.016z"/>
			<path style="fill:#168226;" d="M150.078,444.493c-9.537,0-51.09,0-54.155,0c-12.603,0-28.955-45.983-2.046-61.311
				c26.909-15.327,49.39,20.778,51.093,20.778C146.671,403.96,198.104,444.493,150.078,444.493z"/>
			<path style="fill:#47B547;" d="M118.395,412.918c0.37,14.786-5.522,26.929-16.295,27.198
				c-10.773,0.27-19.298-11.512-19.668-26.298c-0.37-14.784,7.555-26.978,18.327-27.247
				C111.533,386.301,118.025,398.134,118.395,412.918z"/>
			<g>
				<path d="M115.896,383.763c0,0,0.342,0.717,0.942,1.972c0.308,0.621,0.647,1.398,1.039,2.289
					c0.406,0.885,0.828,1.897,1.256,3.014c0.456,1.107,0.881,2.331,1.348,3.62c0.452,1.294,0.9,2.67,1.322,4.105
					c0.411,1.438,0.831,2.927,1.186,4.459c0.395,1.522,0.686,3.094,1.003,4.659c0.257,1.577,0.528,3.152,0.696,4.717
					c0.221,1.559,0.303,3.106,0.437,4.599c0.05,1.497,0.151,2.944,0.106,4.318c-0.009,0.686-0.017,1.354-0.025,2
					c-0.019,0.646-0.07,1.268-0.102,1.867c-0.041,0.598-0.059,1.172-0.114,1.715c-0.064,0.543-0.126,1.058-0.183,1.541
					c-0.106,0.968-0.215,1.808-0.349,2.494c-0.237,1.376-0.372,2.162-0.372,2.162c-0.022,0.132-0.147,0.22-0.278,0.197
					c-0.127-0.022-0.214-0.141-0.198-0.268l0.001-0.013c0,0,0.102-0.785,0.28-2.157c0.104-0.684,0.179-1.52,0.244-2.482
					c0.084-0.959,0.158-2.042,0.185-3.227c0.018-0.593,0.054-1.208,0.058-1.847c-0.006-0.638-0.014-1.298-0.021-1.977
					c0.016-1.356-0.131-2.784-0.181-4.263c-0.144-1.473-0.236-3-0.466-4.538c-0.177-1.545-0.457-3.1-0.723-4.656
					c-0.311-1.548-0.579-3.105-0.961-4.614c-0.339-1.518-0.744-2.994-1.14-4.423c-0.415-1.422-0.824-2.796-1.241-4.09
					c-0.433-1.288-0.825-2.513-1.252-3.62c-0.81-2.234-1.539-4.064-2.082-5.346c-0.546-1.278-0.859-2.009-0.859-2.009
					c-0.052-0.123,0.005-0.265,0.127-0.316C115.702,383.595,115.84,383.648,115.896,383.763z"/>
			</g>
			<g>
				<path d="M84.455,389.905c0,0,0.175-0.492,0.481-1.354c0.119-0.438,0.45-0.929,0.752-1.514c0.286-0.609,0.756-1.171,1.237-1.816
					c0.469-0.656,1.128-1.23,1.752-1.905c0.715-0.57,1.404-1.27,2.262-1.787c0.418-0.275,0.831-0.573,1.271-0.838
					c0.451-0.248,0.907-0.498,1.366-0.751c0.451-0.27,0.945-0.46,1.428-0.68c0.49-0.203,0.96-0.461,1.473-0.611l1.512-0.507
					c0.504-0.162,1.025-0.262,1.532-0.395c1.009-0.288,2.044-0.377,3.025-0.549c0.497-0.046,0.989-0.07,1.469-0.097
					c0.479-0.031,0.949-0.055,1.408-0.018c0.916,0.032,1.781,0.061,2.57,0.215c0.395,0.06,0.773,0.119,1.133,0.174
					c0.352,0.1,0.685,0.193,0.998,0.282c0.627,0.172,1.171,0.322,1.592,0.533c0.852,0.375,1.338,0.59,1.338,0.59
					c0.121,0.053,0.176,0.194,0.123,0.315c-0.051,0.116-0.182,0.172-0.299,0.13l-0.033-0.012c0,0-0.484-0.172-1.332-0.473
					c-0.412-0.181-0.946-0.295-1.557-0.425c-0.304-0.067-0.628-0.14-0.969-0.216c-0.348-0.039-0.714-0.08-1.096-0.122
					c-0.759-0.123-1.593-0.119-2.473-0.121c-0.44-0.02-0.891,0.019-1.352,0.065c-0.46,0.039-0.93,0.079-1.409,0.119
					c-0.944,0.18-1.938,0.272-2.907,0.564c-0.486,0.134-0.987,0.233-1.471,0.397l-1.451,0.504c-0.492,0.146-0.949,0.385-1.422,0.576
					c-0.466,0.206-0.946,0.383-1.382,0.638c-0.445,0.237-0.886,0.473-1.322,0.706c-0.426,0.249-0.824,0.531-1.228,0.789
					c-0.41,0.253-0.793,0.525-1.146,0.821c-0.363,0.284-0.719,0.563-1.065,0.833c-0.612,0.622-1.27,1.149-1.734,1.756
					c-0.471,0.599-0.96,1.118-1.249,1.654c-0.312,0.528-0.649,0.944-0.799,1.389c-0.369,0.838-0.58,1.316-0.58,1.316
					c-0.053,0.122-0.195,0.178-0.317,0.124C84.47,390.156,84.414,390.023,84.455,389.905z"/>
			</g>
			<g>
				<path d="M96.832,365.536c0,0-0.135,0.792-0.402,1.962c-0.069,0.292-0.144,0.608-0.222,0.942
					c-0.092,0.335-0.092,0.688-0.157,1.05c-0.095,0.726-0.218,1.492-0.341,2.259c-0.05,0.782-0.091,1.565-0.153,2.3
					c-0.014,0.367-0.086,0.723-0.075,1.06c0.007,0.338,0.013,0.657,0.019,0.951c0.012,1.181-0.022,1.982-0.022,1.982l-0.002,0.029
					c-0.005,0.133-0.118,0.236-0.25,0.23c-0.115-0.005-0.208-0.09-0.227-0.199c0,0-0.138-0.792-0.282-2.003
					c-0.034-0.304-0.07-0.632-0.108-0.979c-0.041-0.348-0.012-0.715-0.008-1.096c0.017-0.761,0.049-1.574,0.093-2.386
					c0.137-0.81,0.274-1.619,0.423-2.371c0.079-0.372,0.123-0.749,0.246-1.069c0.11-0.325,0.214-0.633,0.31-0.917
					c0.392-1.134,0.696-1.878,0.696-1.878c0.05-0.124,0.192-0.184,0.316-0.133C96.792,365.314,96.851,365.426,96.832,365.536z"/>
			</g>
		</g>
		<g>
			<path style="fill:#168226;" d="M383.94,396.132c3.498,0.622,12.438,4.262,14.743-6.065c2.304-10.327-2.72-28.109-14.463-27.191
				C372.479,363.793,367.059,393.126,383.94,396.132z"/>
			<path style="fill:#168226;" d="M369.698,390.961c-18.675-0.265-23.435-4.932-21.534-12.824
				c1.901-7.893,6.18-21.373,19.718-21.181c13.539,0.192,19.839,24.298,13.879,30.09
				C375.804,392.837,374.041,391.024,369.698,390.961z"/>
			<path style="fill:#168226;" d="M325.702,444.493c9.538,0,51.09,0,54.157,0c12.604,0,28.96-45.983,2.045-61.311
				c-26.909-15.327-49.389,20.778-51.092,20.778C329.108,403.96,277.675,444.493,325.702,444.493z"/>
			<path style="fill:#47B547;" d="M357.385,412.918c-0.37,14.786,5.522,26.929,16.294,27.198
				c10.774,0.27,19.301-11.512,19.671-26.298c0.37-14.784-7.556-26.978-18.33-27.247
				C364.247,386.301,357.755,398.134,357.385,412.918z"/>
			<g>
				<path d="M360.324,383.962c0,0-0.313,0.73-0.859,2.009c-0.544,1.282-1.272,3.111-2.083,5.346
					c-0.426,1.107-0.819,2.332-1.251,3.62c-0.417,1.294-0.826,2.668-1.241,4.09c-0.396,1.429-0.801,2.904-1.14,4.423
					c-0.381,1.509-0.65,3.066-0.96,4.614c-0.266,1.557-0.546,3.111-0.723,4.656c-0.23,1.538-0.322,3.065-0.466,4.538
					c-0.05,1.478-0.197,2.906-0.181,4.263c-0.007,0.679-0.014,1.339-0.021,1.977c0.004,0.639,0.04,1.254,0.058,1.847
					c0.027,1.185,0.101,2.267,0.185,3.227c0.065,0.962,0.14,1.798,0.244,2.482c0.178,1.372,0.28,2.157,0.28,2.157l0.001,0.013
					c0.017,0.132-0.076,0.253-0.208,0.27c-0.128,0.017-0.247-0.071-0.269-0.198c0,0-0.135-0.786-0.371-2.162
					c-0.134-0.686-0.243-1.526-0.349-2.494c-0.057-0.483-0.118-0.998-0.183-1.541c-0.055-0.543-0.073-1.117-0.114-1.715
					c-0.031-0.599-0.083-1.222-0.102-1.867c-0.008-0.646-0.017-1.314-0.025-2c-0.044-1.374,0.057-2.821,0.106-4.318
					c0.134-1.492,0.216-3.04,0.437-4.599c0.167-1.565,0.439-3.14,0.696-4.717c0.317-1.566,0.608-3.138,1.003-4.659
					c0.355-1.532,0.775-3.021,1.186-4.459c0.422-1.436,0.87-2.812,1.322-4.105c0.467-1.289,0.892-2.514,1.348-3.62
					c0.429-1.116,0.851-2.129,1.256-3.014c0.393-0.891,0.731-1.668,1.04-2.289c0.6-1.255,0.942-1.972,0.942-1.972
					c0.058-0.12,0.202-0.171,0.322-0.113C360.323,383.706,360.374,383.844,360.324,383.962z"/>
			</g>
			<g>
				<path d="M360.507,378.864c0,0,0.532-0.184,1.463-0.505c0.472-0.148,1.016-0.386,1.694-0.552
					c0.671-0.177,1.426-0.401,2.263-0.584c0.846-0.127,1.75-0.352,2.733-0.429c0.491-0.04,0.996-0.082,1.512-0.124
					c0.517-0.036,1.049,0.016,1.588,0.02c0.27,0.011,0.542,0.011,0.816,0.029c0.272,0.037,0.547,0.074,0.823,0.111
					c0.55,0.085,1.117,0.121,1.664,0.285c0.549,0.148,1.118,0.25,1.66,0.441l1.625,0.596l1.55,0.759
					c0.511,0.259,0.984,0.576,1.473,0.859c0.494,0.276,0.939,0.613,1.393,0.927c0.452,0.314,0.901,0.623,1.311,0.963
					c0.417,0.332,0.827,0.659,1.229,0.979c0.384,0.338,0.759,0.669,1.124,0.991c0.741,0.634,1.391,1.282,2.015,1.857
					c1.226,1.169,2.204,2.185,2.896,2.887c0.69,0.704,1.083,1.107,1.083,1.107c0.093,0.095,0.091,0.248-0.004,0.341
					c-0.092,0.09-0.238,0.091-0.332,0.005c0,0-1.657-1.527-4.173-3.764c-0.637-0.549-1.304-1.172-2.053-1.772
					c-0.37-0.306-0.751-0.619-1.14-0.94c-0.398-0.306-0.806-0.618-1.22-0.935c-0.406-0.329-0.846-0.623-1.287-0.924
					c-0.443-0.299-0.88-0.623-1.357-0.883c-0.473-0.266-0.933-0.569-1.424-0.811l-1.485-0.709l-1.536-0.576
					c-0.512-0.188-1.049-0.286-1.567-0.434c-0.516-0.163-1.053-0.2-1.574-0.287c-0.261-0.039-0.521-0.077-0.779-0.115
					c-0.26-0.022-0.52-0.023-0.777-0.036c-0.515-0.012-1.021-0.059-1.517-0.043c-0.497,0.024-0.983,0.049-1.457,0.072
					c-0.949,0.041-1.836,0.232-2.663,0.327c-0.814,0.169-1.561,0.324-2.223,0.463c-0.665,0.119-1.238,0.328-1.713,0.446
					c-0.948,0.267-1.49,0.419-1.49,0.419c-0.128,0.035-0.261-0.039-0.297-0.167C360.319,379.034,360.388,378.906,360.507,378.864z"
					/>
			</g>
			<g>
				<path d="M380.232,365.797c0,0,0.135,0.893,0.27,2.236c0.136,1.344,0.284,3.136,0.374,4.932c0.25,1.764,0.436,3.534,0.558,4.869
					c0.119,1.336,0.158,2.238,0.158,2.238l0.001,0.02c0.006,0.133-0.098,0.245-0.23,0.251c-0.117,0.005-0.219-0.075-0.245-0.186
					c0,0-0.208-0.878-0.459-2.214c-0.249-1.336-0.558-3.128-0.801-4.926c-0.099-1.796-0.137-3.594-0.143-4.944
					c-0.005-1.35,0.036-2.252,0.036-2.252c0.006-0.134,0.119-0.237,0.252-0.232C380.121,365.597,380.215,365.685,380.232,365.797z"
					/>
			</g>
		</g>
		<g>
			<path style="fill:#67CE67;" d="M182.096,432.572c0-7.315-31.337-57.906-27.931-92.309c3.406-34.401,17.712-53.478,24.865-55.18
				c7.153-1.702,65.739,1.704,63.014,14.647c-2.725,12.942-8.856,55.179-10.219,82.429c-1.362,27.249,2.726,67.442-0.341,70.508
				C228.419,455.733,182.096,437,182.096,432.572z"/>
			<path style="fill:#47B547;" d="M154.706,450.857c-2.392-0.282-14.917-24.74,5.94-32.912
				c20.856-8.172,42.395,33.125,40.125,34.915C198.503,454.65,159.103,451.375,154.706,450.857z"/>
			<path style="fill:#67CE67;" d="M185.533,453.243c-2.4-0.203-15.723-24.235,4.854-33.089
				c20.577-8.854,43.462,31.712,41.253,33.575C229.431,455.593,189.945,453.616,185.533,453.243z"/>
			<path style="fill:#EDE396;" d="M135.432,451.645c0,0,18.734,0,21.459,0c2.725,0-0.682-21.458-5.45-22.139
				C146.672,428.825,131.173,447.387,135.432,451.645z"/>
			<path style="fill:#EDE396;" d="M168.472,453.008c0,0,18.734,0,21.459,0c2.725,0-0.682-21.458-5.45-22.14
				C179.712,430.187,164.213,448.75,168.472,453.008z"/>
			<g>
				<path d="M136.783,450.042c0,0.001,1.171-0.14,2.931-0.284c0.44-0.033,0.917-0.07,1.421-0.108
					c0.501-0.056,1.044-0.034,1.599-0.037c1.113,0.006,2.301,0.011,3.488,0.017c1.183,0.092,2.362,0.218,3.469,0.318
					c0.553,0.055,1.088,0.102,1.59,0.189c0.5,0.101,0.974,0.197,1.41,0.286c1.744,0.365,2.89,0.648,2.89,0.648
					c0.129,0.032,0.208,0.162,0.176,0.291c-0.029,0.118-0.14,0.193-0.257,0.182l-0.025-0.002c0,0-1.173-0.114-2.907-0.346
					c-0.433-0.06-0.902-0.126-1.398-0.195c-0.498-0.058-1.031-0.057-1.575-0.108c-1.092-0.076-2.255-0.177-3.419-0.244
					c-1.165-0.028-2.33-0.057-3.422-0.084c-0.547,0-1.072-0.059-1.58-0.037c-0.505,0.006-0.984,0.013-1.425,0.019
					c-1.766,0.014-2.945-0.021-2.945-0.021c-0.133-0.005-0.238-0.116-0.234-0.249C136.574,450.154,136.667,450.056,136.783,450.042z
					"/>
			</g>
			<g>
				<path d="M169.467,451.406c0,0,1.223-0.223,3.065-0.49c0.922-0.123,1.995-0.294,3.15-0.43c1.154-0.14,2.386-0.288,3.618-0.438
					c1.241-0.096,2.481-0.191,3.645-0.281c0.582-0.041,1.142-0.094,1.68-0.088c0.536-0.005,1.042-0.009,1.51-0.013
					c1.871-0.005,3.113,0.034,3.113,0.034c0.133,0.005,0.238,0.115,0.233,0.249c-0.004,0.121-0.097,0.219-0.215,0.232l-0.015,0.002
					c0,0-1.236,0.132-3.082,0.266c-0.461,0.031-0.961,0.065-1.491,0.1c-0.529,0.023-1.085,0.121-1.661,0.164
					c-1.153,0.111-2.382,0.23-3.612,0.35c-1.233,0.125-2.466,0.251-3.621,0.368c-1.155,0.122-2.24,0.188-3.166,0.268
					c-1.856,0.138-3.098,0.186-3.098,0.186c-0.133,0.006-0.246-0.099-0.251-0.231C169.264,451.531,169.351,451.426,169.467,451.406z
					"/>
			</g>
			<g>
				<path d="M186.417,421.114c0,0,0.172-0.09,0.494-0.258c0.326-0.163,0.786-0.426,1.404-0.718c0.629-0.273,1.38-0.651,2.283-0.965
					c0.446-0.173,0.923-0.353,1.442-0.495c0.515-0.156,1.057-0.319,1.639-0.431c1.149-0.285,2.432-0.428,3.79-0.503
					c1.36-0.025,2.809,0.031,4.269,0.342c1.459,0.301,2.931,0.774,4.356,1.413c1.423,0.643,2.785,1.461,4.071,2.373
					c2.565,1.845,4.784,4.099,6.673,6.333c1.898,2.236,3.448,4.487,4.732,6.435c1.28,1.952,2.254,3.635,2.935,4.81
					c0.672,1.18,1.057,1.854,1.057,1.854c0.066,0.115,0.026,0.263-0.09,0.328c-0.113,0.065-0.257,0.025-0.325-0.084
					c0,0-0.411-0.655-1.13-1.803c-0.719-1.147-1.786-2.76-3.097-4.668c-1.311-1.907-2.921-4.075-4.803-6.256
					c-1.873-2.182-4.06-4.362-6.545-6.12c-1.238-0.882-2.535-1.683-3.89-2.305c-1.355-0.62-2.751-1.081-4.135-1.379
					c-1.386-0.297-2.758-0.386-4.058-0.396c-1.299,0.042-2.534,0.147-3.649,0.396c-0.564,0.092-1.091,0.242-1.596,0.375
					c-0.509,0.116-0.98,0.272-1.421,0.42c-0.896,0.269-1.634,0.603-2.26,0.842c-0.619,0.261-1.098,0.507-1.428,0.654
					c-0.329,0.154-0.504,0.236-0.504,0.236c-0.121,0.057-0.264,0.005-0.321-0.116C186.255,421.312,186.304,421.173,186.417,421.114z
					"/>
			</g>
			<g>
				<path d="M215.521,426.544c0,0,0.216,0.022,0.595,0.061c0.188,0.023,0.417,0.052,0.68,0.084c0.262,0.013,0.562,0.116,0.887,0.21
					c0.327,0.099,0.681,0.206,1.056,0.319c0.351,0.153,0.721,0.315,1.103,0.482c0.389,0.16,0.765,0.371,1.136,0.603
					c0.37,0.233,0.771,0.435,1.125,0.703c0.355,0.267,0.709,0.534,1.059,0.797c0.356,0.254,0.646,0.578,0.958,0.852
					c0.301,0.287,0.606,0.549,0.845,0.85c0.248,0.288,0.482,0.561,0.699,0.814c0.448,0.489,0.698,1.001,0.928,1.309
					c0.206,0.325,0.324,0.511,0.324,0.511c0.071,0.112,0.038,0.261-0.074,0.332c-0.1,0.063-0.229,0.044-0.306-0.041l-0.018-0.02
					c0,0-0.145-0.159-0.398-0.436c-0.259-0.272-0.573-0.699-1.041-1.135c-0.227-0.223-0.473-0.465-0.733-0.72
					c-0.247-0.268-0.569-0.486-0.862-0.752c-0.308-0.25-0.6-0.54-0.943-0.776c-0.336-0.245-0.677-0.495-1.018-0.744
					c-0.335-0.257-0.711-0.452-1.059-0.679c-0.352-0.221-0.693-0.446-1.053-0.608c-0.35-0.184-0.688-0.361-1.009-0.529
					c-0.329-0.131-0.639-0.256-0.926-0.37c-0.292-0.107-0.543-0.243-0.809-0.298c-0.256-0.068-0.479-0.129-0.662-0.178
					c-0.366-0.106-0.575-0.167-0.575-0.167c-0.128-0.036-0.204-0.169-0.167-0.298C215.296,426.605,215.407,426.533,215.521,426.544z
					"/>
			</g>
			<g>
				<path d="M216.719,350.046c0,0,0.193,0.398,0.53,1.094c0.165,0.35,0.366,0.773,0.597,1.261c0.239,0.481,0.492,1.035,0.715,1.668
					c0.239,0.625,0.497,1.303,0.771,2.02c0.286,0.716,0.512,1.481,0.771,2.273c0.52,1.583,1.015,3.277,1.523,4.972
					c0.498,1.69,0.962,3.396,1.486,4.955c0.267,0.778,0.461,1.557,0.728,2.261c0.257,0.708,0.5,1.378,0.724,1.996
					c0.212,0.625,0.438,1.183,0.661,1.668c0.212,0.49,0.398,0.917,0.551,1.27c0.3,0.709,0.471,1.113,0.471,1.113l0.008,0.021
					c0.052,0.122-0.005,0.263-0.128,0.315c-0.116,0.049-0.249-0.001-0.307-0.109c0,0-0.208-0.394-0.571-1.081
					c-0.179-0.346-0.396-0.767-0.646-1.249c-0.125-0.241-0.258-0.498-0.397-0.77c-0.126-0.276-0.24-0.575-0.369-0.883
					c-0.253-0.617-0.528-1.287-0.818-1.994c-0.298-0.707-0.538-1.474-0.809-2.261c-0.553-1.574-1.04-3.274-1.564-4.966
					c-0.492-1.695-0.957-3.401-1.452-4.973c-0.253-0.783-0.446-1.565-0.693-2.272c-0.238-0.713-0.463-1.387-0.67-2.01
					c-0.393-1.25-0.861-2.267-1.123-2.991c-0.276-0.724-0.434-1.137-0.434-1.137c-0.048-0.124,0.014-0.264,0.138-0.311
					C216.533,349.881,216.665,349.935,216.719,350.046z"/>
			</g>
		</g>
		<g>
			<path style="fill:#67CE67;" d="M322.182,432.572c0-7.315,31.337-57.906,27.931-92.309c-3.406-34.401-33.984-51.773-41.137-53.477
				c-7.153-1.702-41.385-1.361-38.66,11.581c2.725,12.942,9.463,36.264,10.826,63.514c1.363,27.249-11.415,87.721-8.349,90.786
				C275.859,455.733,322.182,437,322.182,432.572z"/>
			<path style="fill:#47B547;" d="M349.573,450.857c2.392-0.282,14.918-24.74-5.94-32.912
				c-20.857-8.172-42.395,33.125-40.126,34.915C305.776,454.65,345.175,451.375,349.573,450.857z"/>
			<path style="fill:#67CE67;" d="M318.745,453.243c2.4-0.203,15.722-24.235-4.855-33.089
				c-20.577-8.854-43.461,31.712-41.253,33.575C274.847,455.593,314.333,453.616,318.745,453.243z"/>
			<path style="fill:#EDE396;" d="M368.847,451.645c0,0-18.735,0-21.46,0c-2.725,0,0.682-21.458,5.45-22.139
				C357.607,428.825,373.104,447.387,368.847,451.645z"/>
			<path style="fill:#EDE396;" d="M335.807,453.008c0,0-18.734,0-21.459,0c-2.725,0,0.682-21.458,5.45-22.14
				C324.566,430.187,340.064,448.75,335.807,453.008z"/>
			<g>
				<path d="M315.958,451.745c0,0,1.109-0.09,2.773-0.159c0.831-0.037,1.804-0.073,2.852-0.024c1.046,0.035,2.165,0.055,3.28,0.107
					c1.109,0.096,2.219,0.192,3.26,0.283c1.041,0.077,2.005,0.241,2.832,0.357c1.653,0.251,2.747,0.459,2.747,0.459
					c0.131,0.025,0.217,0.151,0.192,0.282c-0.023,0.119-0.128,0.2-0.246,0.196h-0.01c0,0-1.112-0.039-2.768-0.158
					c-0.414-0.033-0.861-0.068-1.335-0.105c-0.473-0.044-0.976-0.043-1.493-0.086c-1.034-0.067-2.138-0.14-3.241-0.211
					c-1.101-0.06-2.202-0.118-3.234-0.174c-0.516-0.022-1.015-0.061-1.489-0.097c-0.477-0.016-0.928-0.029-1.344-0.042
					c-1.665-0.062-2.775-0.146-2.775-0.146c-0.133-0.01-0.233-0.126-0.224-0.259C315.745,451.848,315.841,451.754,315.958,451.745z"
					/>
			</g>
			<g>
				<path d="M348.998,450.042c0,0,1.085-0.087,2.715-0.149c0.815-0.021,1.765-0.073,2.783-0.08c1.018-0.01,2.104-0.021,3.19-0.03
					c1.088,0.053,2.176,0.106,3.196,0.157c1.02,0.051,1.97,0.136,2.785,0.189c1.629,0.128,2.712,0.255,2.712,0.255
					c0.133,0.015,0.228,0.135,0.212,0.268c-0.014,0.12-0.115,0.209-0.232,0.213c0,0-1.088,0.044-2.714,0.047
					c-0.813-0.009-1.761,0.003-2.776-0.023c-1.015-0.027-2.098-0.057-3.181-0.086c-1.086-0.013-2.172-0.025-3.19-0.037
					c-1.018-0.009-1.969-0.063-2.783-0.085c-1.629-0.066-2.716-0.155-2.716-0.155c-0.133-0.01-0.233-0.126-0.223-0.259
					C348.785,450.145,348.882,450.052,348.998,450.042z"/>
			</g>
			<g>
				<path d="M316.53,421.205c0,0-0.169-0.082-0.486-0.236c-0.319-0.144-0.778-0.4-1.377-0.645c-0.6-0.242-1.318-0.553-2.187-0.811
					c-0.425-0.152-0.889-0.274-1.381-0.39c-0.486-0.136-1.004-0.247-1.551-0.335c-1.085-0.216-2.283-0.293-3.544-0.315
					c-1.261,0.04-2.589,0.148-3.934,0.438c-1.341,0.298-2.702,0.726-4.023,1.315c-1.316,0.601-2.592,1.339-3.803,2.175
					c-2.421,1.682-4.529,3.798-6.232,5.988c-0.837,1.107-1.613,2.205-2.273,3.298c-0.668,1.087-1.234,2.154-1.718,3.158
					c-0.476,1.008-0.882,1.947-1.217,2.79c-0.326,0.848-0.591,1.594-0.783,2.217c-0.213,0.617-0.328,1.118-0.429,1.453
					c-0.094,0.337-0.144,0.517-0.144,0.517l-0.003,0.01c-0.036,0.128-0.169,0.203-0.297,0.167c-0.124-0.034-0.199-0.161-0.17-0.286
					c0,0,0.043-0.185,0.124-0.529c0.087-0.344,0.183-0.856,0.371-1.492c0.167-0.642,0.403-1.411,0.697-2.287
					c0.303-0.873,0.671-1.851,1.14-2.889c0.47-1.038,1.022-2.144,1.679-3.273c0.651-1.134,1.409-2.29,2.27-3.43
					c1.733-2.27,3.893-4.476,6.4-6.247c1.263-0.869,2.606-1.623,3.987-2.241c1.387-0.605,2.819-1.043,4.228-1.344
					c1.414-0.302,2.814-0.38,4.132-0.385c1.319,0.055,2.564,0.169,3.686,0.42c0.564,0.107,1.1,0.23,1.598,0.392
					c0.503,0.142,0.976,0.289,1.407,0.464c0.877,0.305,1.611,0.66,2.219,0.938c0.605,0.28,1.04,0.55,1.356,0.71
					c0.309,0.168,0.475,0.257,0.475,0.257c0.117,0.064,0.161,0.21,0.098,0.327C316.786,421.215,316.645,421.26,316.53,421.205z"/>
			</g>
			<g>
				<path d="M278.277,434.164c0,0,0.063-0.163,0.173-0.448c0.059-0.141,0.129-0.312,0.211-0.508
					c0.064-0.199,0.219-0.411,0.357-0.645c0.277-0.484,0.645-0.999,1.082-1.509c0.205-0.27,0.458-0.506,0.71-0.753
					c0.256-0.241,0.497-0.511,0.784-0.726c0.28-0.221,0.561-0.442,0.837-0.661c0.282-0.21,0.585-0.381,0.864-0.565
					c0.552-0.38,1.141-0.61,1.613-0.855c0.477-0.239,0.922-0.337,1.208-0.451c0.296-0.094,0.465-0.148,0.465-0.148
					c0.126-0.04,0.262,0.03,0.302,0.157c0.035,0.11-0.013,0.226-0.109,0.281l-0.022,0.013c0,0-0.149,0.086-0.41,0.236
					c-0.26,0.15-0.643,0.334-1.074,0.607c-0.215,0.135-0.449,0.281-0.695,0.436c-0.252,0.144-0.493,0.338-0.751,0.52
					c-0.525,0.355-1.052,0.775-1.567,1.209c-0.273,0.2-0.503,0.447-0.747,0.669c-0.236,0.232-0.497,0.434-0.697,0.676
					c-0.209,0.234-0.422,0.452-0.624,0.66c-0.193,0.212-0.341,0.427-0.498,0.619c-0.144,0.203-0.312,0.353-0.418,0.544
					c-0.114,0.179-0.214,0.335-0.296,0.464c-0.17,0.254-0.268,0.398-0.268,0.398c-0.074,0.112-0.224,0.143-0.335,0.069
					C278.272,434.389,278.237,434.267,278.277,434.164z"/>
			</g>
			<g>
				<path d="M281.331,373.558c0,0,0.475-1.478,1.25-3.671c0.777-2.186,1.813-5.103,2.848-8.018c0.487-1.465,0.974-2.93,1.431-4.304
					c0.212-0.691,0.486-1.341,0.655-1.982c0.183-0.637,0.357-1.239,0.516-1.795c0.649-2.223,1.125-3.699,1.125-3.699l0.005-0.017
					c0.041-0.126,0.176-0.195,0.303-0.155c0.118,0.038,0.186,0.159,0.162,0.277c0,0-0.31,1.522-0.838,3.797
					c-0.135,0.568-0.281,1.185-0.435,1.835c-0.143,0.655-0.373,1.321-0.586,2.019c-0.438,1.392-0.906,2.875-1.374,4.358
					c-0.544,1.456-1.088,2.911-1.598,4.275c-0.498,1.37-1.04,2.613-1.478,3.69c-0.896,2.146-1.535,3.561-1.535,3.561
					c-0.055,0.122-0.197,0.177-0.319,0.122C281.349,373.801,281.294,373.673,281.331,373.558z"/>
			</g>
		</g>
		<g>
			<path style="fill:#47B547;" d="M174.575,297.775c0,0-2.714,31.754,67.581,31.754s67.309-30.668,67.309-30.668L174.575,297.775z"
				/>
			<path style="fill:#EDE396;" d="M72.895,150.962c0,0,17.311,16.477,19.829,18.874c2.518,2.396,18.244-20.427,14.437-25.251
				C103.353,139.76,72.706,143.281,72.895,150.962z"/>
			<path style="fill:#EDE396;" d="M71.847,223.6c0,0,23.656,3.396,27.097,3.891c3.441,0.494,3.031-27.22-2.867-28.945
				C90.178,196.82,67.242,217.45,71.847,223.6z"/>
			<path style="fill:#EDE396;" d="M128.482,83.873c0,0,4.096,23.545,4.691,26.97c0.596,3.425,26.82-5.547,26.634-11.689
				C159.621,93.011,132.903,77.59,128.482,83.873z"/>
			<path style="fill:#EDE396;" d="M424.631,150.962c0,0-17.314,16.477-19.832,18.874c-2.519,2.396-18.247-20.427-14.44-25.251
				C394.167,139.76,424.819,143.281,424.631,150.962z"/>
			<path style="fill:#EDE396;" d="M425.679,223.6c0,0-23.66,3.396-27.102,3.891c-3.441,0.494-3.031-27.22,2.867-28.945
				C407.344,196.82,430.284,217.45,425.679,223.6z"/>
			<path style="fill:#EDE396;" d="M361.372,85.916c0,0-4.095,23.546-4.69,26.97c-0.596,3.425-26.821-5.547-26.635-11.689
				C330.232,95.055,356.95,79.634,361.372,85.916z"/>
			<path style="fill:#EDE396;" d="M257.748,44.394c0,0,6.246,23.068,7.155,26.423c0.909,3.355-26.65,6.316-29.08,0.671
				C233.394,65.843,251.084,40.571,257.748,44.394z"/>
			<path style="fill:#67CE67;" d="M159.105,279.59c0,0-22.527-2.714-27.684-20.355c-5.157-17.643,11.128-24.971,9.499-25.785
				c-1.628-0.814-20.084-2.714-29.041-2.985c-8.956-0.271-17.098,5.428-21.169,2.171c-4.071-3.257-7.871-9.771-5.156-15.742
				c2.713-5.971,8.413-8.956,7.327-11.399c-1.085-2.443-15.198-8.685-11.399-31.212c3.8-22.527,17.099-11.127,18.456-16.556
				c1.357-5.428-7.599-18.727,0-29.041c7.6-10.313,18.456-7.328,19.813-10.584c1.357-3.257-3.256-5.7,7.057-11.128
				c10.313-5.428,16.827-0.542,19.27-1.9c2.442-1.356,1.357-8.142,13.028-12.485c11.67-4.342,23.884-1.904,25.512-2.175
				c1.628-0.271,3.257-4.885,6.785-5.7c3.529-0.814,7.6,4.072,10.042,1.9c2.442-2.171,9.433-19.18,40.088-23.268
				c29.343-3.913,36.991,12.958,41.063,12.958c4.071,0,9.499-10.856,22.526-6.785c13.028,4.071,18.456,25.784,21.441,27.955
				c2.986,2.171,6.785-2.714,10.586,0.543c3.799,3.257,2.714,8.143,5.156,8.685c2.442,0.543,18.728-4.071,25.242,0.814
				c6.512,4.885,1.085,9.228,2.442,10.585c1.357,1.357,13.839-2.714,19.267,4.071c5.429,6.785,0.272,18.728,2.443,21.984
				c2.171,3.256,13.842,3.256,19.541,13.842c5.7,10.585-3.528,16.013-2.985,18.456c0.543,2.442,11.128,11.128,8.414,21.712
				c-2.715,10.584-16.285,12.485-16.557,14.656c-0.272,2.171,2.443,14.296-2.985,18.639c-5.428,4.343-23.612,0.271-28.496-0.814
				c-4.885-1.085-18.095-0.092-17.552,1.807c0.543,1.9,16.919,15.923,7.962,32.209c-8.956,16.284-32.75,14.927-32.75,14.927
				s1.512,15.064-17.486,21.85c-18.999,6.785-36.252,9.091-69.906,9.362c-33.655,0.271-66.953-9.523-73.833-15.153
				C153.825,286.453,159.105,279.59,159.105,279.59z"/>
			<path style="fill:#F36766;" d="M170.728,252.811c0,9.653-5.546,17.479-15.199,17.479c-9.652,0-17.02-7.825-17.02-17.479
				c0-9.653,7.369-17.477,17.02-17.477C165.181,235.335,170.728,243.158,170.728,252.811z"/>
			<path style="fill:#EDE396;" d="M172.947,189.482c-1.628-11.671,1.086-40.44,5.699-48.582c4.614-8.143,8.143-13.57,10.857-12.485
				c2.714,1.085,5.971,15.199,10.585,26.598c4.614,11.399,10.585,32.298,8.686,35.826c-1.9,3.529-8.143,15.47-21.713,12.756
				C173.49,200.881,173.375,192.547,172.947,189.482z"/>
			<path style="fill:#EDE396;" d="M278.253,189.482c-0.405-5.474,11.942-43.425,13.299-47.226
				c1.357-3.799,3.804-16.963,5.699-17.098c3.8-0.271,17.099,13.027,17.642,28.498c0.543,15.47,0.271,35.555-4.071,40.982
				C306.479,200.067,279.338,204.138,278.253,189.482z"/>
			<path style="fill:#EDE396;" d="M226.957,285.291c-6.831-7.367-1.628-33.655-1.357-37.727c0.271-4.071,8.413-38.269,16.284-47.497
				c7.871-9.228,12.213-11.399,14.113-10.042c1.9,1.357,2.442,27.955,4.614,39.897c2.171,11.942,18.184,33.113,15.742,47.769
				C273.91,292.346,240.798,300.218,226.957,285.291z"/>
			<path style="fill:#271E0D;" d="M217.729,295.604c-0.543-1.086-7.871-16.556-12.213-14.385s2.443,5.971,4.342,7.871
				C211.758,290.99,217.729,295.604,217.729,295.604z"/>
			<path style="fill:#271E0D;" d="M280.153,292.618c0,0,5.699-15.198,10.585-14.384c4.885,0.815-1.629,6.514-3.256,7.6
				C285.852,286.918,280.153,292.618,280.153,292.618z"/>
			<path style="fill:#FFFFFF;" d="M213.838,239.421c0,13.042-7.495,23.614-20.536,23.614c-13.04,0-22.997-10.571-22.997-23.614
				c0-13.041,9.956-23.613,22.997-23.613C206.343,215.808,213.838,226.38,213.838,239.421z"/>
			<path style="fill:#F36766;" d="M323.409,252.811c0,9.653,5.544,17.479,15.193,17.479c9.648,0,17.014-7.825,17.014-17.479
				c0-9.653-7.366-17.477-17.014-17.477C328.953,235.335,323.409,243.158,323.409,252.811z"/>
			<path style="fill:#271E0D;" d="M209.17,239.421c0,9.444-7.655,17.1-17.099,17.1c-9.443,0-17.099-7.656-17.099-17.1
				c0-9.443,7.656-17.099,17.099-17.099C201.515,222.322,209.17,229.978,209.17,239.421z"/>
			<path style="fill:#FFFFFF;" d="M209.17,231.686c0,5.171-4.192,9.363-9.363,9.363s-9.364-4.192-9.364-9.363
				c0-5.171,4.193-9.364,9.364-9.364S209.17,226.515,209.17,231.686z"/>
			<path style="fill:#FFFFFF;" d="M274.93,239.421c0,13.042,7.494,23.614,20.535,23.614c13.04,0,22.996-10.571,22.996-23.614
				c0-13.041-9.956-23.613-22.996-23.613C282.424,215.808,274.93,226.38,274.93,239.421z"/>
			<g>
				<path d="M169.343,239.375c0,0-0.007-0.281-0.021-0.808c-0.007-0.264-0.015-0.589-0.025-0.971
					c-0.004-0.191-0.009-0.396-0.015-0.616c0.018-0.232,0.038-0.478,0.058-0.739c0.046-0.526,0.096-1.108,0.151-1.742
					c0.094-0.619,0.238-1.276,0.372-1.988c0.314-1.41,0.794-2.985,1.531-4.625c0.338-0.834,0.835-1.633,1.279-2.5
					c0.539-0.807,1.066-1.673,1.722-2.477c1.268-1.647,2.862-3.186,4.689-4.555c1.875-1.292,3.938-2.501,6.234-3.247
					c2.284-0.723,4.698-1.283,7.139-1.301l0.456-0.02l0.228-0.01l0.114-0.005l0.028-0.001l0.134,0.002l0.053,0.003l0.839,0.048
					c0.571,0.042,1.092,0.041,1.702,0.118c1.264,0.19,2.536,0.376,3.68,0.752c2.337,0.672,4.54,1.765,6.375,3.191
					c1.854,1.393,3.405,3.048,4.553,4.795c0.634,0.837,1.074,1.753,1.555,2.602c0.404,0.885,0.792,1.742,1.098,2.582
					c0.604,1.688,0.979,3.277,1.215,4.69c0.098,0.71,0.204,1.372,0.27,1.985c0.033,0.615,0.064,1.18,0.091,1.691
					c0.085,1.016-0.025,1.818-0.018,2.359c-0.018,0.542-0.028,0.831-0.028,0.831c-0.018,0.532-0.464,0.948-0.995,0.93
					c-0.484-0.017-0.873-0.388-0.924-0.856l-0.008-0.074c0,0-0.03-0.271-0.087-0.781c-0.075-0.506-0.097-1.257-0.282-2.188
					c-0.081-0.465-0.17-0.98-0.267-1.541c-0.135-0.549-0.28-1.144-0.436-1.779c-0.341-1.257-0.824-2.639-1.456-4.083
					c-0.325-0.717-0.723-1.433-1.126-2.169c-0.48-0.688-0.875-1.467-1.458-2.132c-1.042-1.428-2.417-2.681-3.942-3.775
					c-1.519-1.121-3.328-1.894-5.229-2.424c-0.964-0.309-1.904-0.411-2.847-0.57c-0.497-0.064-1.101-0.062-1.646-0.096l-0.84-0.039
					l-0.667,0.042c-2.059-0.001-4.074,0.449-5.993,1.026c-1.917,0.617-3.685,1.539-5.304,2.576
					c-0.764,0.584-1.558,1.109-2.226,1.758c-0.34,0.317-0.714,0.593-1.018,0.933c-0.311,0.334-0.618,0.664-0.921,0.99
					c-0.606,0.653-1.088,1.379-1.609,2.041c-0.433,0.72-0.931,1.377-1.279,2.081c-0.744,1.383-1.305,2.724-1.716,3.947
					c-0.186,0.62-0.36,1.199-0.521,1.735c-0.114,0.537-0.219,1.03-0.313,1.476c-0.048,0.226-0.093,0.439-0.136,0.64
					c-0.026,0.218-0.05,0.421-0.073,0.611c-0.046,0.379-0.085,0.702-0.117,0.964c-0.063,0.523-0.097,0.802-0.097,0.802
					c-0.064,0.53-0.546,0.907-1.076,0.843C169.71,240.251,169.355,239.847,169.343,239.375z"/>
			</g>
			<g>
				<path d="M317.498,239.467c0,0-0.034-0.279-0.097-0.802c-0.032-0.262-0.071-0.585-0.117-0.964
					c-0.022-0.19-0.047-0.393-0.073-0.611c-0.043-0.201-0.088-0.414-0.136-0.64c-0.095-0.445-0.199-0.938-0.313-1.476
					c-0.161-0.536-0.334-1.116-0.52-1.735c-0.411-1.223-0.972-2.564-1.716-3.947c-0.348-0.704-0.846-1.361-1.278-2.081
					c-0.521-0.661-1.003-1.388-1.609-2.041c-0.303-0.326-0.609-0.656-0.92-0.99c-0.304-0.339-0.679-0.616-1.018-0.933
					c-0.668-0.649-1.462-1.175-2.227-1.758c-1.619-1.038-3.386-1.959-5.304-2.576c-1.919-0.577-3.935-1.028-5.994-1.026
					l-0.667-0.042l-0.84,0.039c-0.546,0.034-1.149,0.032-1.646,0.096c-0.943,0.159-1.883,0.26-2.847,0.57
					c-1.901,0.53-3.71,1.303-5.229,2.424c-1.525,1.094-2.899,2.347-3.942,3.775c-0.583,0.666-0.978,1.444-1.458,2.132
					c-0.403,0.736-0.801,1.452-1.126,2.169c-0.632,1.444-1.114,2.826-1.456,4.083c-0.156,0.635-0.301,1.229-0.435,1.779
					c-0.097,0.561-0.187,1.076-0.267,1.541c-0.185,0.931-0.207,1.681-0.282,2.188c-0.056,0.509-0.086,0.781-0.086,0.781
					l-0.008,0.073c-0.059,0.529-0.535,0.91-1.063,0.851c-0.482-0.054-0.841-0.454-0.856-0.924c0,0-0.01-0.289-0.028-0.831
					c0.007-0.541-0.103-1.343-0.018-2.359c0.028-0.511,0.058-1.076,0.091-1.691c0.066-0.613,0.172-1.275,0.27-1.985
					c0.236-1.414,0.61-3.003,1.215-4.69c0.305-0.84,0.693-1.697,1.098-2.582c0.48-0.849,0.92-1.765,1.554-2.602
					c1.148-1.748,2.7-3.402,4.553-4.795c1.835-1.426,4.038-2.518,6.375-3.191c1.144-0.376,2.416-0.561,3.68-0.752
					c0.61-0.077,1.131-0.076,1.702-0.118l0.839-0.048l0.053-0.003l0.133-0.002l0.029,0.001l0.114,0.005l0.229,0.01l0.456,0.02
					c2.441,0.018,4.855,0.578,7.138,1.3c2.296,0.746,4.36,1.956,6.234,3.247c1.827,1.37,3.421,2.908,4.689,4.555
					c0.656,0.804,1.184,1.67,1.722,2.477c0.443,0.868,0.94,1.666,1.278,2.5c0.737,1.64,1.217,3.215,1.532,4.625
					c0.134,0.712,0.278,1.369,0.372,1.988c0.055,0.634,0.105,1.216,0.151,1.742c0.02,0.261,0.04,0.507,0.058,0.739
					c-0.005,0.219-0.01,0.424-0.015,0.616c-0.01,0.382-0.018,0.707-0.025,0.971c-0.014,0.527-0.021,0.808-0.021,0.808
					c-0.014,0.533-0.457,0.955-0.991,0.941C317.948,240.304,317.555,239.935,317.498,239.467z"/>
			</g>
			<path style="fill:#271E0D;" d="M313.794,239.421c0,9.444-7.655,17.1-17.099,17.1c-9.443,0-17.099-7.656-17.099-17.1
				c0-9.443,7.656-17.099,17.099-17.099C306.139,222.322,313.794,229.978,313.794,239.421z"/>
			<path style="fill:#FFFFFF;" d="M313.794,231.686c0,5.171-4.193,9.363-9.364,9.363s-9.363-4.192-9.363-9.363
				c0-5.171,4.192-9.364,9.363-9.364S313.794,226.515,313.794,231.686z"/>
			<path style="fill:#271E0D;" d="M170.504,266.293c0,0-1.357-13.571-6.514-11.943c-5.157,1.629-4.614,9.771-2.443,10.586
				C163.719,265.75,170.504,266.293,170.504,266.293z"/>
			<g>
				<path d="M159.733,278.896c0,0,0.569-0.826,1.474-2.021c0.461-0.592,0.977-1.299,1.569-2.025
					c0.589-0.728,1.217-1.505,1.845-2.282c0.663-0.75,1.325-1.5,1.946-2.203c0.621-0.703,1.229-1.335,1.736-1.889
					c1.029-1.095,1.747-1.797,1.747-1.797c0.094-0.095,0.247-0.095,0.342-0.001c0.085,0.085,0.092,0.219,0.025,0.313
					c0,0-0.587,0.812-1.514,1.988c-0.472,0.581-1.005,1.273-1.607,1.99c-0.602,0.716-1.244,1.479-1.886,2.244
					c-0.646,0.762-1.292,1.524-1.898,2.239c-0.603,0.717-1.201,1.357-1.695,1.921c-1.006,1.113-1.71,1.827-1.71,1.827
					c-0.093,0.097-0.246,0.099-0.342,0.006C159.678,279.124,159.669,278.991,159.733,278.896z"/>
			</g>
			<path style="fill:#271E0D;" d="M313.287,265.984c0,0,1.531-13.57,7.348-11.942c5.818,1.629,5.206,9.771,2.756,10.585
				C320.941,265.441,313.287,265.984,313.287,265.984z"/>
			<g>
				<path d="M325.052,278.903c0,0-0.784-0.711-1.911-1.822c-0.556-0.564-1.224-1.202-1.904-1.92
					c-0.683-0.715-1.411-1.478-2.139-2.24c-0.725-0.763-1.45-1.526-2.13-2.242c-0.68-0.716-1.287-1.41-1.821-1.992
					c-1.054-1.178-1.727-1.992-1.727-1.992c-0.085-0.104-0.071-0.256,0.032-0.341c0.093-0.076,0.228-0.069,0.315,0.007
					c0,0,0.797,0.697,1.948,1.787c0.568,0.553,1.247,1.182,1.945,1.883c0.698,0.702,1.442,1.45,2.187,2.199
					c0.711,0.778,1.422,1.557,2.089,2.286c0.669,0.728,1.26,1.438,1.783,2.03c1.032,1.2,1.687,2.031,1.687,2.031
					c0.083,0.105,0.065,0.256-0.04,0.339C325.271,278.99,325.137,278.981,325.052,278.903z"/>
			</g>
			<g>
				<path d="M169.458,205.29c0,0-0.063-0.149-0.173-0.411c-0.052-0.132-0.115-0.292-0.187-0.476
					c-0.065-0.189-0.173-0.376-0.21-0.636c-0.052-0.252-0.107-0.524-0.167-0.813c-0.075-0.291-0.102-0.598-0.098-0.918
					c0.003-0.318-0.042-0.651,0.004-0.986c0.052-0.335,0.106-0.675,0.159-1.015c0.065-0.337,0.217-0.655,0.322-0.978
					c0.096-0.329,0.27-0.616,0.444-0.891c0.176-0.271,0.313-0.557,0.523-0.766c0.201-0.214,0.391-0.417,0.567-0.604
					c0.162-0.199,0.356-0.332,0.529-0.446c0.169-0.117,0.316-0.219,0.438-0.302c0.245-0.16,0.384-0.251,0.384-0.251
					c0.11-0.072,0.259-0.041,0.331,0.07c0.061,0.094,0.048,0.216-0.026,0.294l-0.029,0.031c0,0-0.108,0.115-0.297,0.315
					c-0.178,0.207-0.495,0.44-0.755,0.82c-0.136,0.183-0.283,0.38-0.439,0.589c-0.167,0.2-0.245,0.474-0.391,0.711
					c-0.14,0.244-0.269,0.501-0.344,0.789c-0.083,0.282-0.215,0.554-0.264,0.85c-0.052,0.296-0.104,0.591-0.154,0.883
					c-0.042,0.293-0.026,0.589-0.044,0.873c-0.016,0.286-0.027,0.561,0.01,0.816c0.021,0.26,0.04,0.505,0.059,0.732
					c0.005,0.225,0.081,0.45,0.105,0.643c0.036,0.194,0.068,0.363,0.094,0.502c0.046,0.28,0.072,0.44,0.072,0.44
					c0.021,0.132-0.069,0.257-0.201,0.278C169.608,205.454,169.501,205.391,169.458,205.29z"/>
			</g>
			<g>
				<path d="M210.779,186.281c0,0,0.161,0.059,0.441,0.162c0.139,0.054,0.308,0.121,0.501,0.197c0.194,0.068,0.405,0.221,0.635,0.36
					c0.223,0.151,0.501,0.293,0.729,0.489c0.234,0.193,0.483,0.398,0.731,0.619c0.26,0.211,0.466,0.485,0.702,0.741
					c0.23,0.261,0.47,0.522,0.658,0.822c0.196,0.293,0.393,0.586,0.586,0.874c0.157,0.31,0.311,0.615,0.46,0.911
					c0.159,0.289,0.276,0.586,0.361,0.879c0.095,0.287,0.184,0.558,0.267,0.809c0.099,0.244,0.111,0.493,0.151,0.703
					c0.034,0.211,0.063,0.395,0.087,0.547c0.041,0.302,0.064,0.474,0.064,0.474c0.018,0.131-0.075,0.252-0.206,0.27
					c-0.113,0.015-0.218-0.051-0.256-0.154l-0.012-0.032c0,0-0.059-0.157-0.161-0.432c-0.047-0.137-0.105-0.303-0.171-0.494
					c-0.073-0.188-0.124-0.407-0.237-0.629c-0.102-0.225-0.213-0.467-0.329-0.725c-0.104-0.262-0.251-0.52-0.409-0.784
					c-0.15-0.267-0.306-0.542-0.464-0.822c-0.184-0.263-0.371-0.531-0.558-0.798c-0.171-0.28-0.386-0.524-0.594-0.769
					c-0.217-0.235-0.386-0.511-0.614-0.712c-0.22-0.21-0.424-0.423-0.619-0.626c-0.192-0.208-0.404-0.337-0.585-0.496
					c-0.194-0.141-0.336-0.305-0.518-0.413c-0.177-0.109-0.331-0.205-0.457-0.283c-0.251-0.164-0.394-0.257-0.394-0.257
					c-0.113-0.072-0.146-0.222-0.074-0.335C210.554,186.281,210.675,186.244,210.779,186.281z"/>
			</g>
			<g>
				<path d="M183.602,215.405c0,0,0.243-0.406,0.667-1.117c0.108-0.177,0.227-0.372,0.357-0.585
					c0.135-0.211,0.335-0.416,0.521-0.647c0.393-0.448,0.79-1.019,1.38-1.454c0.28-0.237,0.572-0.483,0.874-0.739
					c0.32-0.23,0.682-0.426,1.039-0.65c0.695-0.491,1.555-0.753,2.403-1.108c0.893-0.211,1.807-0.496,2.771-0.549
					c0.955-0.151,1.935-0.082,2.907-0.057c0.966,0.128,1.934,0.24,2.854,0.507c0.94,0.188,1.804,0.57,2.664,0.857
					c0.814,0.398,1.637,0.715,2.331,1.176c0.355,0.214,0.701,0.422,1.035,0.623c0.324,0.217,0.62,0.451,0.913,0.663
					c0.288,0.22,0.577,0.411,0.826,0.626c0.242,0.223,0.472,0.435,0.688,0.634c0.438,0.391,0.805,0.744,1.072,1.072
					c0.551,0.633,0.866,0.995,0.866,0.995c0.087,0.1,0.077,0.252-0.023,0.339c-0.095,0.083-0.236,0.078-0.325-0.009l-0.019-0.019
					c0,0-0.334-0.326-0.917-0.897c-0.276-0.3-0.654-0.62-1.101-0.969c-0.433-0.365-0.933-0.76-1.521-1.135
					c-0.29-0.192-0.582-0.407-0.901-0.603c-0.328-0.181-0.667-0.367-1.016-0.559c-0.679-0.419-1.485-0.677-2.262-1.058
					c-0.824-0.26-1.651-0.618-2.545-0.782c-0.876-0.244-1.792-0.334-2.702-0.446c-0.912-0.023-1.834-0.111-2.724,0.023
					c-0.905,0.035-1.752,0.294-2.587,0.476c-0.782,0.332-1.598,0.534-2.256,0.965c-0.338,0.195-0.684,0.363-0.991,0.565
					c-0.291,0.227-0.572,0.447-0.842,0.658c-0.574,0.393-0.953,0.887-1.351,1.275c-0.188,0.206-0.385,0.374-0.532,0.574
					c-0.144,0.204-0.275,0.392-0.394,0.561c-0.481,0.674-0.756,1.059-0.756,1.059c-0.077,0.108-0.228,0.133-0.336,0.056
					C183.565,215.652,183.539,215.511,183.602,215.405z"/>
			</g>
			<g>
				<path d="M276.161,185.095c0,0-0.214,0.094-0.587,0.259c-0.189,0.079-0.423,0.17-0.648,0.312
					c-0.23,0.145-0.504,0.257-0.778,0.455c-0.272,0.195-0.589,0.37-0.867,0.633c-0.145,0.123-0.293,0.249-0.444,0.379
					c-0.138,0.142-0.278,0.288-0.421,0.436c-0.302,0.281-0.527,0.645-0.79,0.979c-0.227,0.361-0.452,0.729-0.606,1.13
					c-0.102,0.191-0.161,0.395-0.218,0.599c-0.059,0.203-0.135,0.402-0.147,0.61c-0.021,0.206-0.074,0.409-0.079,0.61
					c0.002,0.202,0.004,0.402,0.006,0.599c0.07,0.382,0.082,0.774,0.234,1.107c0.066,0.169,0.11,0.344,0.186,0.498
					c0.086,0.15,0.17,0.296,0.25,0.435c0.141,0.294,0.363,0.504,0.517,0.723c0.153,0.223,0.333,0.376,0.477,0.509
					c0.283,0.274,0.445,0.43,0.445,0.43l0.026,0.025c0.095,0.092,0.098,0.244,0.006,0.339c-0.083,0.086-0.213,0.096-0.308,0.031
					c0,0-0.199-0.137-0.547-0.377c-0.173-0.124-0.39-0.266-0.593-0.489c-0.204-0.219-0.484-0.427-0.674-0.755
					c-0.105-0.156-0.216-0.318-0.33-0.486c-0.104-0.174-0.177-0.375-0.27-0.571c-0.205-0.389-0.281-0.854-0.37-1.322
					c-0.012-0.239-0.025-0.482-0.038-0.728c-0.003-0.246,0.044-0.491,0.071-0.74c0.017-0.252,0.099-0.49,0.165-0.732
					c0.065-0.244,0.135-0.487,0.248-0.711c0.186-0.47,0.453-0.891,0.72-1.302c0.297-0.384,0.584-0.775,0.931-1.08
					c0.168-0.157,0.333-0.312,0.495-0.463c0.179-0.129,0.354-0.256,0.524-0.38c0.329-0.262,0.692-0.43,1.003-0.616
					c0.307-0.192,0.646-0.29,0.917-0.408c0.278-0.123,0.515-0.179,0.712-0.232c0.395-0.102,0.621-0.159,0.621-0.159
					c0.129-0.033,0.261,0.044,0.294,0.174C276.327,184.93,276.267,185.048,276.161,185.095z"/>
			</g>
			<g>
				<path d="M315.092,192.061c0,0,0.108,0.124,0.295,0.343c0.172,0.235,0.468,0.511,0.732,0.949
					c0.138,0.214,0.288,0.446,0.445,0.691c0.167,0.243,0.292,0.518,0.438,0.799c0.139,0.283,0.302,0.568,0.41,0.882
					c0.12,0.309,0.241,0.624,0.363,0.938c0.091,0.324,0.183,0.649,0.273,0.968c0.101,0.316,0.141,0.643,0.2,0.952
					c0.053,0.311,0.116,0.609,0.128,0.899c0.021,0.288,0.04,0.56,0.059,0.811c0.05,0.5-0.018,0.923-0.015,1.213
					c-0.019,0.291-0.03,0.458-0.03,0.458c-0.008,0.133-0.124,0.233-0.256,0.225c-0.114-0.007-0.204-0.093-0.222-0.201l-0.003-0.02
					c0,0-0.027-0.16-0.074-0.441c-0.046-0.279-0.081-0.68-0.178-1.151c-0.044-0.235-0.091-0.491-0.142-0.76
					c-0.04-0.271-0.142-0.545-0.201-0.837c-0.122-0.583-0.331-1.184-0.507-1.793c-0.226-0.593-0.421-1.198-0.674-1.738
					c-0.127-0.268-0.215-0.55-0.341-0.787c-0.12-0.244-0.233-0.474-0.337-0.687c-0.201-0.427-0.424-0.791-0.554-1.042
					c-0.132-0.256-0.208-0.402-0.208-0.402c-0.061-0.119-0.015-0.265,0.104-0.327C314.899,191.951,315.021,191.978,315.092,192.061z
					"/>
			</g>
			<g>
				<path d="M281.594,213.486c0,0,0.226-0.311,0.622-0.855c0.101-0.135,0.211-0.284,0.332-0.446
					c0.138-0.154,0.309-0.311,0.482-0.484c0.35-0.342,0.734-0.759,1.246-1.066c0.247-0.17,0.504-0.347,0.771-0.53
					c0.29-0.143,0.589-0.29,0.897-0.441c0.603-0.345,1.321-0.492,2.034-0.724c0.739-0.11,1.499-0.292,2.286-0.282
					c0.786-0.068,1.578,0.029,2.371,0.088c0.777,0.162,1.567,0.274,2.302,0.542c0.755,0.203,1.451,0.53,2.133,0.822
					c0.657,0.34,1.293,0.679,1.844,1.076c0.552,0.396,1.078,0.763,1.5,1.182c0.219,0.199,0.428,0.39,0.627,0.572
					c0.176,0.205,0.342,0.4,0.499,0.583c0.315,0.363,0.586,0.68,0.761,0.98c0.371,0.578,0.584,0.908,0.584,0.908
					c0.072,0.111,0.04,0.26-0.072,0.331c-0.105,0.067-0.241,0.043-0.317-0.052l-0.021-0.026c0,0-0.234-0.294-0.643-0.809
					c-0.185-0.27-0.469-0.552-0.794-0.872c-0.16-0.161-0.331-0.332-0.511-0.512c-0.198-0.161-0.406-0.331-0.623-0.508
					c-0.415-0.376-0.931-0.698-1.467-1.047c-0.533-0.352-1.155-0.628-1.771-0.948c-0.646-0.262-1.302-0.562-2.014-0.739
					c-0.692-0.242-1.432-0.33-2.157-0.473c-0.736-0.055-1.472-0.168-2.198-0.112c-0.731-0.025-1.429,0.138-2.114,0.224
					c-0.651,0.215-1.325,0.309-1.889,0.6c-0.291,0.125-0.573,0.246-0.846,0.364c-0.253,0.157-0.497,0.309-0.732,0.454
					c-0.493,0.269-0.851,0.611-1.198,0.892c-0.17,0.145-0.337,0.27-0.48,0.404c-0.134,0.152-0.256,0.292-0.367,0.419
					c-0.448,0.501-0.704,0.788-0.704,0.788c-0.089,0.1-0.241,0.108-0.341,0.02C281.535,213.725,281.522,213.585,281.594,213.486z"/>
			</g>
			<g>
				<path d="M108.998,209.62c0,0,2.009,0.864,4.993,2.221c0.745,0.341,1.553,0.71,2.406,1.102c0.859,0.377,1.736,0.846,2.652,1.308
					c1.828,0.935,3.778,1.932,5.728,2.929c1.93,1.024,3.859,2.049,5.668,3.009c0.901,0.487,1.771,0.958,2.597,1.405
					c0.832,0.431,1.619,0.838,2.345,1.213c2.902,1.51,4.822,2.556,4.822,2.555l0.011,0.006c0.117,0.064,0.16,0.21,0.096,0.327
					c-0.061,0.111-0.196,0.155-0.31,0.105c0-0.001-1.997-0.893-4.97-2.292c-1.489-0.695-3.215-1.525-5.029-2.477
					c-1.82-0.94-3.762-1.944-5.703-2.947c-1.931-1.013-3.861-2.027-5.671-2.977c-0.912-0.463-1.765-0.962-2.612-1.37
					c-0.84-0.42-1.634-0.817-2.367-1.183c-2.928-1.474-4.861-2.497-4.861-2.497c-0.118-0.062-0.164-0.207-0.103-0.325
					C108.748,209.618,108.884,209.572,108.998,209.62z"/>
			</g>
			<g>
				<path d="M144.587,231.621c0,0.001,0.18-0.225,0.486-0.506c0.306-0.282,0.732-0.631,1.191-0.932
					c0.509-0.262,1.062-0.459,1.471-0.589c0.413-0.127,0.697-0.169,0.697-0.169c0.134-0.02,0.259,0.073,0.279,0.207
					c0.012,0.083-0.018,0.161-0.074,0.214l-0.028,0.027c0,0-0.21,0.197-0.538,0.428c-0.329,0.231-0.769,0.503-1.24,0.73
					c-0.455,0.307-0.942,0.564-1.321,0.737c-0.378,0.174-0.655,0.252-0.655,0.253c-0.134,0.039-0.274-0.039-0.313-0.173
					C144.518,231.768,144.539,231.683,144.587,231.621z"/>
			</g>
			<g>
				<path d="M135.107,169.215c0,0,1.446,1.127,3.571,2.868c1.056,0.879,2.305,1.883,3.612,2.997c1.309,1.111,2.705,2.295,4.102,3.48
					c0.692,0.598,1.413,1.159,2.107,1.731c0.698,0.567,1.384,1.126,2.049,1.666c1.317,1.096,2.547,2.119,3.601,2.996
					c2.098,1.767,3.473,2.98,3.473,2.98l0.01,0.008c0.1,0.088,0.109,0.24,0.021,0.34c-0.083,0.094-0.223,0.107-0.322,0.035
					c0,0-1.481-1.079-3.668-2.749c-1.088-0.842-2.358-1.825-3.719-2.878c-0.674-0.534-1.371-1.085-2.08-1.646
					c-0.704-0.565-1.437-1.121-2.138-1.71c-1.381-1.203-2.762-2.405-4.057-3.532c-1.297-1.124-2.478-2.209-3.505-3.121
					c-2.04-1.839-3.372-3.1-3.372-3.1c-0.097-0.092-0.101-0.244-0.009-0.341C134.87,169.149,135.011,169.14,135.107,169.215z"/>
			</g>
			<g>
				<path d="M152.23,162.454c0,0,0.745,0.706,1.811,1.808c0.525,0.558,1.159,1.191,1.8,1.902c0.644,0.708,1.331,1.464,2.018,2.22
					c0.669,0.771,1.339,1.542,1.966,2.266c0.627,0.724,1.185,1.423,1.677,2.011c0.969,1.188,1.583,2.008,1.583,2.008
					c0.08,0.107,0.058,0.258-0.048,0.338c-0.096,0.072-0.23,0.06-0.314-0.021c0,0-0.743-0.707-1.81-1.809
					c-0.525-0.558-1.155-1.194-1.801-1.902c-0.645-0.708-1.332-1.463-2.02-2.219c-0.67-0.771-1.34-1.542-1.968-2.265
					c-0.63-0.72-1.185-1.423-1.677-2.01c-0.969-1.188-1.582-2.009-1.582-2.009c-0.08-0.107-0.058-0.258,0.049-0.338
					C152.013,162.362,152.146,162.374,152.23,162.454z"/>
			</g>
			<g>
				<path d="M161.756,144.578c-0.001,0,0.269,0.284,0.614,0.745c0.347,0.46,0.781,1.09,1.164,1.749
					c0.421,0.622,0.794,1.271,1.059,1.775c0.263,0.504,0.406,0.868,0.406,0.868l0.006,0.016c0.05,0.126-0.012,0.268-0.138,0.318
					c-0.091,0.036-0.19,0.013-0.257-0.049c0,0-0.285-0.267-0.665-0.71c-0.375-0.444-0.865-1.054-1.292-1.7
					c-0.39-0.656-0.729-1.341-0.962-1.868c-0.234-0.526-0.351-0.899-0.351-0.899c-0.041-0.13,0.031-0.269,0.162-0.31
					C161.595,144.482,161.692,144.511,161.756,144.578z"/>
			</g>
			<g>
				<path d="M238.387,167.783c0,0-0.199-2.199-0.451-5.499c-0.059-0.825-0.123-1.719-0.189-2.665
					c-0.071-0.945-0.055-1.952-0.07-2.989c-0.015-2.077-0.031-4.292-0.047-6.507c0.068-2.207,0.136-4.415,0.199-6.484
					c0.061-2.07,0.168-3.998,0.241-5.65c0.093-1.652,0.171-3.029,0.226-3.993c0.057-0.964,0.09-1.515,0.09-1.515
					c0.006-0.133,0.12-0.235,0.252-0.229c0.128,0.006,0.228,0.114,0.229,0.241c0,0,0,0.552-0.001,1.518
					c-0.004,0.966-0.009,2.346-0.015,4.001c-0.022,1.654-0.048,3.585-0.076,5.653c-0.041,2.066-0.085,4.271-0.128,6.475
					c-0.007,2.198-0.015,4.395-0.022,6.456c0.013,1.03-0.042,2.026-0.004,2.974c0.035,0.948,0.068,1.843,0.099,2.67
					c0.107,3.309,0.146,5.517,0.146,5.517c0.003,0.133-0.102,0.244-0.236,0.247C238.505,168.005,238.399,167.908,238.387,167.783z"
					/>
			</g>
			<g>
				<path d="M254.406,155.773c0,0,0.071-0.685,0.243-1.697c0.093-0.504,0.175-1.097,0.368-1.723
					c0.168-0.629,0.368-1.296,0.569-1.962c0.249-0.645,0.499-1.29,0.75-1.887c0.232-0.605,0.532-1.134,0.769-1.594
					c0.488-0.915,0.849-1.502,0.849-1.502c0.07-0.114,0.219-0.149,0.333-0.079c0.096,0.059,0.136,0.175,0.104,0.278l-0.005,0.015
					c0,0-0.205,0.656-0.565,1.607c-0.093,0.236-0.193,0.492-0.299,0.763c-0.114,0.267-0.185,0.569-0.298,0.865
					c-0.203,0.601-0.437,1.233-0.672,1.866c-0.202,0.64-0.4,1.28-0.607,1.875c-0.093,0.302-0.216,0.58-0.294,0.864
					c-0.083,0.282-0.162,0.549-0.234,0.795c-0.298,0.982-0.541,1.627-0.541,1.627c-0.047,0.126-0.187,0.189-0.313,0.142
					C254.456,155.985,254.395,155.879,254.406,155.773z"/>
			</g>
			<g>
				<path d="M333.439,175.751c0,0,0.849-1.078,2.172-2.649c0.669-0.779,1.43-1.706,2.282-2.666c0.849-0.962,1.755-1.989,2.661-3.016
					c0.926-1.008,1.853-2.016,2.721-2.961c0.869-0.944,1.708-1.802,2.413-2.549c1.425-1.481,2.407-2.441,2.406-2.441l0.006-0.005
					c0.095-0.093,0.248-0.091,0.341,0.004c0.086,0.088,0.091,0.225,0.017,0.319c0,0-0.853,1.073-2.181,2.641
					c-0.671,0.777-1.439,1.699-2.29,2.66c-0.852,0.96-1.761,1.986-2.669,3.01c-0.923,1.012-1.847,2.023-2.712,2.971
					c-0.863,0.951-1.703,1.807-2.405,2.557c-1.42,1.485-2.4,2.446-2.4,2.446c-0.095,0.094-0.248,0.094-0.341,0
					C333.372,175.984,333.366,175.846,333.439,175.751z"/>
			</g>
			<g>
				<path d="M345.976,186.564c0,0,0.462-0.396,1.191-0.935c0.728-0.539,1.717-1.23,2.737-1.872c1.016-0.647,2.065-1.241,2.862-1.672
					c0.798-0.428,1.353-0.679,1.353-0.679c0.123-0.055,0.267-0.001,0.322,0.122c0.046,0.101,0.017,0.217-0.064,0.286
					c0,0-0.463,0.395-1.192,0.933c-0.729,0.536-1.715,1.231-2.735,1.873c-1.016,0.648-2.063,1.246-2.861,1.674
					c-0.798,0.429-1.354,0.677-1.354,0.677c-0.123,0.055-0.267,0-0.322-0.123C345.867,186.748,345.896,186.633,345.976,186.564z"/>
			</g>
			<g>
				<path d="M359.254,198.792c0,0,0.26-0.317,0.692-0.739c0.432-0.423,1.027-0.962,1.659-1.454c0.667-0.465,1.373-0.879,1.908-1.172
					c0.538-0.291,0.916-0.448,0.916-0.448c0.125-0.052,0.268,0.007,0.32,0.132c0.038,0.092,0.016,0.194-0.048,0.262l-0.011,0.011
					c0,0-0.282,0.298-0.733,0.689c-0.454,0.389-1.068,0.884-1.72,1.328c-0.627,0.499-1.291,0.951-1.803,1.271
					c-0.512,0.321-0.881,0.499-0.881,0.499c-0.123,0.059-0.27,0.008-0.33-0.115C359.18,198.967,359.195,198.864,359.254,198.792z"/>
			</g>
			<g>
				<path d="M348.617,229.004c0,0-0.765-1.23-1.913-3.075c-0.312-0.436-0.649-0.909-1.006-1.409
					c-0.368-0.492-0.706-1.038-1.132-1.562c-0.418-0.526-0.851-1.07-1.291-1.623c-0.424-0.565-0.912-1.092-1.392-1.625
					c-0.475-0.537-0.933-1.091-1.416-1.605c-0.495-0.504-0.981-1-1.452-1.481c-0.462-0.49-0.947-0.921-1.395-1.345
					c-0.456-0.412-0.86-0.84-1.284-1.167c-0.413-0.342-0.792-0.656-1.127-0.934c-0.326-0.297-0.65-0.483-0.902-0.665
					c-0.51-0.358-0.801-0.563-0.801-0.563l-0.03-0.021c-0.108-0.076-0.134-0.226-0.058-0.334c0.071-0.101,0.207-0.13,0.313-0.072
					c0,0,0.323,0.179,0.887,0.493c0.276,0.166,0.639,0.339,0.991,0.61c0.363,0.261,0.773,0.555,1.22,0.876
					c0.454,0.315,0.882,0.726,1.37,1.124c0.476,0.41,1.004,0.818,1.476,1.315c0.488,0.481,0.992,0.979,1.504,1.484
					c0.501,0.516,0.977,1.071,1.47,1.61c0.486,0.546,0.968,1.096,1.393,1.678c0.438,0.571,0.869,1.132,1.286,1.676
					c0.43,0.532,0.755,1.125,1.105,1.649c0.339,0.532,0.659,1.035,0.955,1.5c0.282,0.468,0.488,0.92,0.692,1.313
					c0.199,0.395,0.373,0.738,0.516,1.021c0.28,0.569,0.44,0.895,0.44,0.895c0.059,0.119,0.011,0.264-0.109,0.323
					C348.818,229.148,348.683,229.107,348.617,229.004z"/>
			</g>
			<g>
				<path d="M364.303,227.781c0,0,0.603-0.051,1.502-0.06c0.9-0.01,2.098,0.008,3.292,0.086c1.201,0.192,2.395,0.456,3.28,0.667
					c0.886,0.215,1.461,0.399,1.461,0.398c0.127,0.04,0.197,0.176,0.157,0.303c-0.033,0.105-0.131,0.17-0.235,0.168l-0.026-0.001
					c0-0.001-0.605-0.015-1.489-0.097c-0.885-0.084-2.051-0.223-3.21-0.42c-1.195-0.07-2.386-0.199-3.277-0.319
					c-0.892-0.12-1.483-0.245-1.483-0.245c-0.132-0.027-0.216-0.157-0.189-0.288C364.108,227.866,364.199,227.79,364.303,227.781z"
					/>
			</g>
			<g>
				<path d="M239.315,315.505c0,0,1.533-0.111,3.834-0.212c1.15-0.043,2.492-0.095,3.93-0.148c1.437-0.039,2.97-0.081,4.502-0.123
					c1.53-0.054,3.059-0.108,4.493-0.159c0.716-0.039,1.413-0.021,2.068-0.069c0.655-0.043,1.275-0.083,1.847-0.12
					c2.29-0.138,3.826-0.189,3.826-0.189h0.014c0.133-0.005,0.244,0.1,0.249,0.232c0.004,0.124-0.086,0.229-0.206,0.246
					c0,0-1.522,0.221-3.817,0.49c-0.575,0.064-1.197,0.135-1.855,0.209c-0.659,0.078-1.354,0.107-2.075,0.147
					c-1.441,0.074-2.978,0.153-4.515,0.232c-1.536,0.019-3.072,0.037-4.512,0.055c-1.44,0.023-2.784-0.011-3.935-0.015
					c-2.303-0.03-3.839-0.094-3.839-0.094c-0.133-0.006-0.237-0.117-0.232-0.251C239.096,315.613,239.194,315.515,239.315,315.505z"
					/>
			</g>
			<g>
				<path d="M218.984,279.673c0,0-0.05-0.228-0.138-0.625c-0.063-0.404-0.239-0.952-0.294-1.665
					c-0.036-0.355-0.075-0.739-0.117-1.146c-0.058-0.409-0.036-0.836-0.043-1.28c0.007-0.443-0.027-0.904,0.038-1.369
					c0.045-0.466,0.091-0.939,0.137-1.411c0.094-0.467,0.188-0.934,0.281-1.393c0.075-0.463,0.238-0.898,0.374-1.323
					c0.146-0.422,0.255-0.841,0.441-1.208c0.175-0.369,0.34-0.719,0.492-1.042c0.137-0.328,0.312-0.605,0.477-0.845
					c0.158-0.241,0.296-0.452,0.409-0.626c0.232-0.341,0.365-0.536,0.365-0.536c0.074-0.109,0.224-0.139,0.333-0.063
					c0.099,0.066,0.132,0.194,0.083,0.299l-0.012,0.026c0,0-0.096,0.208-0.265,0.573c-0.157,0.368-0.459,0.852-0.679,1.499
					c-0.121,0.317-0.251,0.661-0.389,1.025c-0.151,0.357-0.211,0.771-0.341,1.172c-0.115,0.407-0.245,0.824-0.31,1.266
					c-0.083,0.436-0.166,0.881-0.249,1.324c-0.049,0.449-0.099,0.899-0.147,1.342c-0.063,0.442-0.058,0.883-0.08,1.308
					c-0.003,0.425-0.062,0.84-0.038,1.226c0.008,0.39,0.015,0.757,0.021,1.097c0.004,0.679,0.076,1.271,0.095,1.673
					c0.021,0.406,0.033,0.639,0.033,0.639c0.007,0.133-0.096,0.247-0.229,0.254C219.113,279.869,219.009,279.787,218.984,279.673z"
					/>
			</g>
			<g>
				<path d="M274.914,261.758c0,0,0.16,0.132,0.44,0.364c0.263,0.257,0.694,0.531,1.112,1.026c0.215,0.237,0.449,0.495,0.697,0.769
					c0.256,0.269,0.461,0.591,0.699,0.911c0.23,0.325,0.486,0.65,0.677,1.023c0.206,0.365,0.414,0.735,0.623,1.105
					c0.17,0.39,0.34,0.779,0.507,1.163c0.183,0.378,0.28,0.781,0.407,1.157c0.113,0.382,0.249,0.742,0.305,1.104
					c0.07,0.357,0.137,0.694,0.198,1.006c0.139,0.619,0.115,1.157,0.163,1.52c0.02,0.367,0.033,0.577,0.033,0.577
					c0.007,0.133-0.094,0.246-0.227,0.254c-0.118,0.007-0.221-0.072-0.247-0.183l-0.005-0.022c0,0-0.049-0.199-0.134-0.548
					c-0.089-0.347-0.165-0.85-0.347-1.433c-0.085-0.291-0.177-0.607-0.274-0.94c-0.08-0.339-0.251-0.668-0.368-1.027
					c-0.134-0.353-0.25-0.726-0.429-1.081c-0.163-0.36-0.33-0.727-0.496-1.093c-0.393-0.7-0.745-1.427-1.18-2.045
					c-0.215-0.309-0.385-0.642-0.597-0.908c-0.206-0.275-0.402-0.534-0.582-0.774c-0.346-0.487-0.728-0.868-0.951-1.146
					c-0.232-0.28-0.365-0.44-0.365-0.44c-0.086-0.103-0.071-0.255,0.032-0.34C274.696,261.682,274.826,261.685,274.914,261.758z"/>
			</g>
			<g>
				<path d="M247.838,296.089c0,0,0.54-0.079,1.349-0.132c0.202-0.011,0.421-0.022,0.653-0.035c0.235-0.004,0.464-0.061,0.71-0.079
					c0.488-0.061,1.007-0.103,1.527-0.145c0.521-0.081,1.041-0.163,1.534-0.222c0.244-0.041,0.488-0.039,0.71-0.09
					c0.224-0.042,0.435-0.082,0.63-0.118c0.785-0.138,1.327-0.19,1.327-0.19l0.022-0.002c0.133-0.013,0.252,0.084,0.264,0.218
					c0.011,0.106-0.05,0.204-0.144,0.245c0,0-0.501,0.219-1.28,0.489c-0.391,0.128-0.844,0.302-1.353,0.387
					c-0.504,0.106-1.046,0.203-1.589,0.296c-0.555,0.038-1.11,0.075-1.629,0.09c-0.258,0.007-0.515,0.028-0.743-0.001
					c-0.231-0.02-0.45-0.038-0.651-0.056c-0.807-0.077-1.344-0.173-1.344-0.173c-0.133-0.024-0.221-0.15-0.198-0.283
					C247.653,296.182,247.738,296.105,247.838,296.089z"/>
			</g>
			<g>
				<path d="M174.702,190.74c0,0-0.107-2.068-0.204-5.172c-0.038-1.552-0.114-3.362-0.123-5.306
					c-0.031-1.942-0.008-4.017,0.004-6.092c0.087-2.075,0.134-4.15,0.295-6.093c0.072-0.971,0.123-1.911,0.238-2.798
					c0.105-0.887,0.205-1.726,0.297-2.499c0.16-1.55,0.465-2.821,0.598-3.718c0.165-0.893,0.259-1.404,0.259-1.404
					c0.024-0.13,0.149-0.217,0.28-0.193c0.124,0.023,0.209,0.138,0.196,0.262l-0.002,0.013c0,0-0.056,0.513-0.154,1.412
					c-0.089,0.899-0.29,2.172-0.399,3.716c-0.064,0.77-0.134,1.605-0.207,2.488c-0.087,0.881-0.09,1.818-0.161,2.782
					c-0.138,1.928-0.16,3.993-0.222,6.055c-0.028,2.064-0.082,4.128-0.072,6.067c-0.015,1.939-0.029,3.75-0.041,5.301
					c-0.033,3.105-0.102,5.176-0.102,5.176c-0.004,0.133-0.116,0.237-0.249,0.233C174.809,190.964,174.708,190.863,174.702,190.74z"
					/>
			</g>
			<g>
				<path d="M311.29,188.346c0,0-0.035-1.579-0.02-3.945c0.018-1.183,0.001-2.563,0.104-4.043c0.082-1.48,0.17-3.059,0.258-4.638
					c0.099-1.57,0.198-3.141,0.29-4.614c0.032-0.736,0.125-1.448,0.134-2.122c0.022-0.674,0.044-1.312,0.064-1.9
					c0.089-2.355,0.191-3.931,0.191-3.931l0.001-0.017c0.008-0.133,0.123-0.233,0.255-0.225c0.124,0.008,0.22,0.109,0.225,0.23
					c0,0,0.07,1.578,0.111,3.954c0.008,0.594,0.016,1.238,0.025,1.919c0.019,0.682-0.028,1.395-0.059,2.136
					c-0.07,1.48-0.145,3.059-0.22,4.637c-0.202,3.139-0.478,6.271-0.592,8.638c-0.145,2.362-0.286,3.936-0.286,3.936
					c-0.011,0.133-0.127,0.231-0.26,0.22C311.387,188.571,311.292,188.467,311.29,188.346z"/>
			</g>
			<g>
				<path d="M226.82,278.32c0,0-0.097-0.444-0.268-1.221c-0.081-0.389-0.181-0.86-0.294-1.401c-0.119-0.541-0.252-1.149-0.316-1.838
					c-0.085-0.684-0.176-1.424-0.273-2.207c-0.121-0.784-0.131-1.609-0.182-2.466c-0.037-0.855-0.108-1.74-0.095-2.638
					c-0.004-0.897-0.009-1.81-0.013-2.723c0.067-1.818,0.123-3.64,0.217-5.339c0.1-1.698,0.194-3.282,0.274-4.642
					c0.159-2.714,0.265-4.523,0.265-4.523v-0.005c0.008-0.133,0.122-0.234,0.255-0.227c0.126,0.007,0.224,0.111,0.227,0.236
					c0,0,0.009,0.455,0.025,1.25c-0.003,0.794,0.047,1.935,0.011,3.297c-0.032,1.362-0.046,2.955-0.109,4.653
					c-0.072,1.7-0.103,3.508-0.146,5.317c-0.006,0.903-0.013,1.806-0.019,2.694c-0.025,0.89,0.034,1.761,0.058,2.605
					c0.048,0.842,0.021,1.667,0.106,2.43c0.063,0.77,0.122,1.496,0.176,2.166c0.096,1.344,0.322,2.472,0.412,3.257
					c0.104,0.788,0.163,1.238,0.163,1.238c0.018,0.132-0.075,0.254-0.207,0.271C226.962,278.524,226.847,278.44,226.82,278.32z"/>
			</g>
			<g>
				<path d="M230.595,285.911c0,0,0.353,0.207,0.97,0.569c0.307,0.185,0.68,0.408,1.107,0.664c0.214,0.128,0.441,0.265,0.681,0.408
					c0.246,0.128,0.509,0.243,0.781,0.373c0.543,0.256,1.131,0.534,1.753,0.827c0.608,0.316,1.334,0.485,2.031,0.767
					c0.712,0.249,1.431,0.557,2.212,0.707c0.769,0.188,1.55,0.378,2.331,0.569c0.795,0.116,1.59,0.233,2.373,0.348
					c0.78,0.152,1.561,0.143,2.314,0.173c0.752-0.002,1.484,0.114,2.173,0.047c0.691-0.046,1.344-0.088,1.946-0.128
					c0.302-0.02,0.591-0.04,0.867-0.059c0.271-0.047,0.529-0.091,0.77-0.133c0.485-0.083,0.909-0.156,1.257-0.216
					c0.701-0.113,1.102-0.179,1.102-0.179l0.029-0.005c0.131-0.021,0.254,0.068,0.275,0.199c0.02,0.123-0.059,0.239-0.177,0.271
					c0,0-0.399,0.103-1.098,0.284c-0.352,0.088-0.778,0.193-1.268,0.315c-0.245,0.061-0.506,0.125-0.782,0.193
					c-0.279,0.047-0.576,0.068-0.884,0.106c-0.619,0.068-1.289,0.142-1.998,0.22c-0.709,0.098-1.463,0.028-2.242,0.031
					c-0.778-0.02-1.586,0-2.394-0.144c-0.812-0.107-1.635-0.216-2.459-0.325c-0.805-0.207-1.609-0.415-2.402-0.619
					c-0.802-0.169-1.542-0.496-2.272-0.764c-0.722-0.294-1.446-0.501-2.072-0.863c-0.634-0.336-1.233-0.653-1.787-0.947
					c-0.273-0.149-0.545-0.28-0.786-0.427c-0.228-0.161-0.445-0.314-0.648-0.458c-0.407-0.287-0.762-0.538-1.054-0.745
					c-0.581-0.418-0.913-0.657-0.913-0.657c-0.108-0.078-0.132-0.229-0.054-0.337C230.351,285.876,230.489,285.849,230.595,285.911z
					"/>
			</g>
			<g>
				<path d="M73.455,222.175c0,0,0.645-0.045,1.607-0.046c0.962-0.001,2.243,0.028,3.521,0.118c1.277,0.081,2.551,0.227,3.504,0.353
					c0.954,0.129,1.587,0.257,1.587,0.257c0.131,0.026,0.217,0.155,0.19,0.286c-0.022,0.11-0.115,0.188-0.222,0.194
					c0,0-0.645,0.042-1.606,0.044c-0.962-0.002-2.244-0.027-3.521-0.116c-1.277-0.081-2.551-0.222-3.505-0.351
					c-0.954-0.129-1.586-0.259-1.586-0.259c-0.131-0.027-0.216-0.156-0.189-0.287C73.256,222.259,73.349,222.182,73.455,222.175z"/>
			</g>
			<g>
				<path d="M75.314,149.694c0,0,0.743,0.624,1.811,1.607c0.265,0.247,0.553,0.515,0.856,0.799c0.316,0.267,0.649,0.547,0.981,0.85
					c0.671,0.598,1.386,1.235,2.102,1.873c0.726,0.631,1.452,1.263,2.132,1.855c0.671,0.604,1.308,1.153,1.865,1.612
					c1.097,0.938,1.807,1.599,1.807,1.599l0.009,0.008c0.097,0.091,0.103,0.244,0.012,0.341c-0.081,0.087-0.211,0.1-0.308,0.038
					c0,0-0.815-0.527-2.004-1.371c-0.589-0.428-1.294-0.909-1.987-1.499c-0.702-0.58-1.45-1.199-2.198-1.817
					c-0.721-0.654-1.423-1.333-2.09-1.955c-0.679-0.615-1.251-1.241-1.736-1.779c-0.975-1.074-1.593-1.822-1.593-1.822
					c-0.085-0.102-0.071-0.255,0.032-0.34C75.094,149.617,75.226,149.621,75.314,149.694z"/>
			</g>
			<g>
				<path d="M133.83,104.254c0,0-0.236-1.031-0.524-2.587c-0.133-0.78-0.316-1.685-0.463-2.662c-0.15-0.977-0.311-2.018-0.472-3.06
					c-0.137-1.045-0.274-2.09-0.402-3.069c-0.128-0.979-0.21-1.899-0.3-2.684c-0.159-1.574-0.223-2.628-0.223-2.628
					c-0.008-0.133,0.093-0.248,0.227-0.256c0.12-0.007,0.225,0.077,0.251,0.19c0,0,0.233,1.032,0.521,2.587
					c0.134,0.779,0.313,1.686,0.464,2.662c0.151,0.976,0.312,2.018,0.473,3.059c0.138,1.045,0.275,2.089,0.404,3.069
					c0.133,0.979,0.21,1.899,0.301,2.685c0.159,1.573,0.221,2.628,0.221,2.628c0.008,0.133-0.094,0.248-0.227,0.255
					C133.961,104.451,133.856,104.367,133.83,104.254z"/>
			</g>
			<g>
				<path d="M401.415,224.561c0,0,1.244-0.27,3.121-0.61c0.939-0.159,2.031-0.377,3.214-0.536c1.182-0.167,2.441-0.347,3.701-0.525
					c1.256-0.17,2.512-0.341,3.689-0.5c0.588-0.09,1.163-0.134,1.699-0.22c0.537-0.085,1.045-0.164,1.514-0.237
					c1.878-0.284,3.143-0.433,3.143-0.433l0.014-0.002c0.132-0.016,0.252,0.079,0.268,0.211c0.015,0.121-0.065,0.232-0.18,0.261
					c0,0-1.233,0.317-3.103,0.733c-0.937,0.202-2.027,0.458-3.209,0.625c-1.18,0.183-2.439,0.378-3.698,0.573
					c-1.26,0.156-2.52,0.311-3.7,0.457c-1.184,0.137-2.288,0.264-3.235,0.373c-1.896,0.211-3.166,0.308-3.166,0.308
					c-0.133,0.011-0.249-0.088-0.26-0.221C401.216,224.695,401.299,224.587,401.415,224.561z"/>
			</g>
			<g>
				<path d="M412.554,158.862c0,0,0.486-0.442,1.254-1.05c0.393-0.293,0.836-0.655,1.278-1.054c0.45-0.395,0.946-0.794,1.436-1.202
					c0.472-0.435,0.944-0.869,1.4-1.264c0.22-0.206,0.462-0.375,0.654-0.573c0.199-0.192,0.387-0.374,0.56-0.542
					c0.701-0.665,1.205-1.085,1.205-1.085l0.015-0.013c0.102-0.085,0.255-0.072,0.341,0.031c0.071,0.085,0.073,0.206,0.012,0.294
					c0,0-0.379,0.537-1.001,1.309c-0.316,0.381-0.67,0.843-1.121,1.266c-0.437,0.439-0.915,0.893-1.395,1.348
					c-0.517,0.418-1.04,0.831-1.538,1.204c-0.487,0.395-0.983,0.677-1.4,0.931c-0.841,0.501-1.427,0.798-1.427,0.798
					c-0.12,0.061-0.267,0.013-0.327-0.106C412.449,159.053,412.475,158.934,412.554,158.862z"/>
			</g>
			<g>
				<path d="M356.937,103.243c0,0-0.037-0.229-0.065-0.645c0.006-0.416-0.028-1.099,0.024-1.795c0.045-0.712,0.07-1.547,0.17-2.432
					c0.085-0.887,0.193-1.831,0.313-2.774c0.128-0.941,0.301-1.878,0.443-2.758c0.146-0.879,0.36-1.69,0.504-2.389
					c0.152-0.698,0.357-1.268,0.463-1.67c0.124-0.399,0.195-0.627,0.195-0.627c0.04-0.128,0.175-0.198,0.302-0.159
					c0.115,0.036,0.184,0.149,0.167,0.264l-0.002,0.016c0,0-0.034,0.234-0.092,0.643c-0.064,0.406-0.154,0.987-0.264,1.683
					c-0.192,1.4-0.475,3.262-0.706,5.134c-0.258,1.869-0.516,3.737-0.709,5.139c-0.095,0.673-0.174,1.234-0.229,1.627
					c-0.025,0.418-0.04,0.656-0.04,0.656l-0.004,0.064c-0.008,0.13-0.12,0.229-0.25,0.222
					C357.043,103.435,356.953,103.35,356.937,103.243z"/>
			</g>
			<g>
				<path d="M260.547,63.075c0,0-0.253-0.566-0.569-1.434c-0.149-0.437-0.343-0.94-0.516-1.49c-0.173-0.551-0.37-1.13-0.509-1.735
					c-0.27-1.214-0.477-2.443-0.614-3.364c-0.134-0.923-0.182-1.541-0.182-1.541c-0.01-0.133,0.089-0.249,0.223-0.259
					c0.11-0.009,0.209,0.058,0.245,0.157l0.007,0.018c0,0,0.215,0.583,0.474,1.462c0.256,0.881,0.574,2.053,0.828,3.242
					c0.127,0.595,0.32,1.185,0.448,1.747c0.145,0.558,0.247,1.089,0.352,1.539c0.191,0.905,0.276,1.521,0.276,1.521l0,0.005
					c0.019,0.133-0.074,0.255-0.207,0.274C260.693,63.232,260.59,63.171,260.547,63.075z"/>
			</g>
			<g>
				<path style="fill:#FFFFFF;" d="M188.861,132.704c0,0,0.161,0.4,0.416,1.105c0.245,0.709,0.627,1.713,1.028,2.935
					c0.412,1.218,0.878,2.64,1.28,4.206c0.427,1.556,0.843,3.228,1.26,4.899c0.781,3.332,1.449,6.696,1.941,9.208
					c0.245,1.259,0.407,2.319,0.54,3.056c0.123,0.74,0.179,1.167,0.179,1.167l0.002,0.012c0.035,0.265-0.151,0.508-0.417,0.543
					c-0.229,0.03-0.442-0.105-0.519-0.314c0,0-0.147-0.405-0.381-1.119c-0.224-0.717-0.571-1.735-0.938-2.971
					c-0.761-2.469-1.608-5.782-2.396-9.115c-0.395-1.655-0.792-3.309-1.126-4.871c-0.183-0.778-0.314-1.537-0.492-2.253
					c-0.165-0.718-0.32-1.396-0.464-2.023c-0.286-1.253-0.475-2.311-0.63-3.045c-0.145-0.737-0.213-1.163-0.213-1.163
					c-0.043-0.264,0.137-0.513,0.401-0.556C188.561,132.369,188.778,132.499,188.861,132.704z"/>
			</g>
			<g>
				<path style="fill:#FFFFFF;" d="M298.638,128.465c0,0,0.259,0.278,0.689,0.78c0.421,0.509,1.051,1.216,1.757,2.099
					c0.353,0.442,0.734,0.921,1.138,1.428c0.406,0.503,0.762,1.109,1.156,1.706c0.784,1.203,1.591,2.51,2.389,3.82
					c0.688,1.36,1.374,2.721,1.985,4.012c0.302,0.647,0.625,1.257,0.846,1.875c0.228,0.614,0.442,1.195,0.641,1.73
					c0.393,1.073,0.678,1.981,0.896,2.608c0.208,0.631,0.314,0.996,0.314,0.996c0.074,0.256-0.074,0.524-0.33,0.598
					c-0.217,0.063-0.442-0.034-0.551-0.22l-0.017-0.029c0,0-0.191-0.327-0.502-0.908c-0.301-0.585-0.757-1.407-1.254-2.411
					c-0.247-0.502-0.514-1.046-0.796-1.622c-0.261-0.585-0.641-1.152-0.958-1.773c-0.678-1.222-1.367-2.541-2.055-3.861
					c-0.755-1.27-1.519-2.534-2.198-3.746c-0.361-0.596-0.643-1.202-1.005-1.742c-0.35-0.545-0.681-1.061-0.986-1.537
					c-0.609-0.953-1.076-1.776-1.422-2.339c-0.337-0.569-0.517-0.903-0.517-0.903c-0.127-0.236-0.039-0.531,0.197-0.658
					C298.25,128.261,298.491,128.307,298.638,128.465z"/>
			</g>
			<g>
				<path style="fill:#FFFFFF;" d="M82.003,145.65c0,0,0.738-0.381,1.882-0.812c0.568-0.225,1.237-0.461,2.007-0.63
					c0.757-0.191,1.576-0.361,2.395-0.519c0.821-0.096,1.642-0.191,2.414-0.245c0.77-0.078,1.497-0.055,2.118-0.026
					c1.242,0.046,2.063,0.173,2.063,0.173c0.267,0.041,0.451,0.291,0.41,0.558c-0.03,0.194-0.17,0.344-0.347,0.396l-0.032,0.009
					c0,0-0.796,0.232-1.98,0.438c-0.296,0.052-0.616,0.111-0.955,0.155c-0.34,0.038-0.692,0.142-1.062,0.195
					c-0.735,0.141-1.522,0.253-2.309,0.363c-0.776,0.133-1.547,0.28-2.283,0.372c-0.367,0.061-0.722,0.082-1.066,0.141
					c-0.343,0.065-0.67,0.114-0.974,0.157c-1.209,0.181-2.04,0.208-2.04,0.208c-0.272,0.009-0.501-0.205-0.51-0.477
					C81.729,145.909,81.839,145.735,82.003,145.65z"/>
			</g>
			<g>
				<path style="fill:#FFFFFF;" d="M80.225,210.181c0,0,0.157-0.467,0.505-1.074c0.084-0.153,0.179-0.317,0.289-0.482
					c0.098-0.168,0.266-0.341,0.42-0.511c0.311-0.352,0.676-0.702,1.043-1.045c0.401-0.279,0.803-0.557,1.198-0.786
					c0.196-0.117,0.381-0.237,0.581-0.307c0.193-0.083,0.383-0.146,0.557-0.206c0.694-0.242,1.184-0.309,1.183-0.309
					c0.276-0.038,0.531,0.156,0.569,0.432c0.02,0.143-0.023,0.282-0.108,0.386l-0.04,0.049c0,0-0.311,0.38-0.815,0.808
					c-0.126,0.108-0.261,0.225-0.412,0.335c-0.156,0.102-0.28,0.267-0.44,0.389c-0.3,0.274-0.641,0.533-0.982,0.79
					c-0.31,0.273-0.615,0.547-0.936,0.776c-0.152,0.13-0.32,0.209-0.468,0.349c-0.146,0.134-0.292,0.253-0.43,0.361
					c-0.543,0.439-0.98,0.669-0.98,0.669c-0.253,0.134-0.567,0.036-0.701-0.217C80.189,210.458,80.182,210.311,80.225,210.181z"/>
			</g>
			<g>
				<path style="fill:#FFFFFF;" d="M138.569,85.412c0,0,0.859,0.289,2.073,0.848c1.219,0.552,2.796,1.37,4.33,2.263
					c1.531,0.897,3.017,1.872,4.098,2.66c1.085,0.781,1.761,1.383,1.761,1.383c0.203,0.18,0.221,0.491,0.04,0.694
					c-0.136,0.152-0.345,0.2-0.526,0.138c0,0-0.857-0.292-2.071-0.853c-1.218-0.553-2.798-1.367-4.332-2.258
					c-1.532-0.895-3.021-1.866-4.101-2.655c-1.085-0.782-1.759-1.387-1.759-1.387c-0.202-0.181-0.219-0.492-0.038-0.695
					C138.182,85.398,138.389,85.351,138.569,85.412z"/>
			</g>
			<g>
				<path style="fill:#FFFFFF;" d="M245.229,57.957c0,0,0.209-0.605,0.642-1.429c0.426-0.829,1.068-1.879,1.787-2.877
					c0.842-0.949,1.757-1.84,2.485-2.454c0.723-0.621,1.265-0.96,1.265-0.96c0.231-0.145,0.536-0.075,0.681,0.157
					c0.092,0.147,0.097,0.324,0.029,0.471l-0.023,0.048c0,0-0.275,0.579-0.776,1.335c-0.496,0.763-1.213,1.708-2.004,2.596
					c-0.72,0.994-1.506,1.943-2.155,2.611c-0.642,0.673-1.149,1.066-1.149,1.066c-0.219,0.17-0.535,0.13-0.705-0.089
					C245.2,58.291,245.177,58.111,245.229,57.957z"/>
			</g>
			<g>
				<path style="fill:#FFFFFF;" d="M341.419,93.594c0,0,0.4-0.467,1.078-1.044c0.673-0.584,1.621-1.282,2.615-1.906
					c1.082-0.543,2.209-1.005,3.075-1.288c0.863-0.29,1.468-0.392,1.468-0.392c0.27-0.046,0.526,0.136,0.572,0.406
					c0.029,0.168-0.031,0.33-0.145,0.44l-0.036,0.034c0-0.001-0.444,0.424-1.155,0.923c-0.708,0.507-1.679,1.097-2.695,1.606
					c-0.995,0.622-2.037,1.171-2.855,1.522c-0.814,0.358-1.409,0.515-1.409,0.515c-0.27,0.071-0.546-0.09-0.617-0.359
					C341.271,93.886,341.316,93.715,341.419,93.594z"/>
			</g>
			<g>
				<path style="fill:#FFFFFF;" d="M408.082,144.613c0,0.001,0.608-0.197,1.525-0.346c0.229-0.04,0.477-0.08,0.739-0.11
					c0.257-0.044,0.56-0.034,0.858-0.037c0.603-0.01,1.248,0.023,1.892,0.056c0.627,0.102,1.253,0.206,1.833,0.338
					c0.585,0.108,1.109,0.303,1.553,0.48c0.892,0.342,1.447,0.658,1.448,0.658c0.237,0.135,0.32,0.438,0.186,0.676
					c-0.086,0.151-0.239,0.24-0.401,0.249l-0.046,0.003c0.001,0-0.636,0.034-1.533-0.047c-0.226-0.02-0.468-0.038-0.721-0.076
					c-0.252-0.043-0.528-0.025-0.804-0.061c-0.557-0.037-1.143-0.114-1.728-0.19c-0.579-0.044-1.157-0.087-1.701-0.168
					c-0.276-0.024-0.526-0.096-0.797-0.107c-0.264-0.018-0.514-0.047-0.744-0.077c-0.922-0.108-1.538-0.278-1.538-0.278
					c-0.268-0.073-0.426-0.35-0.352-0.618C407.798,144.791,407.928,144.665,408.082,144.613z"/>
			</g>
			<g>
				<path style="fill:#FFFFFF;" d="M414.054,209.642c0,0,0.545,0.286,1.258,0.817c0.721,0.525,1.613,1.293,2.444,2.123
					c0.827,0.832,1.592,1.729,2.118,2.447c0.533,0.713,0.821,1.255,0.821,1.255c0.131,0.246,0.037,0.551-0.208,0.682
					c-0.152,0.081-0.331,0.074-0.474,0c0,0-0.542-0.289-1.255-0.821c-0.719-0.527-1.614-1.291-2.447-2.119
					c-0.829-0.831-1.597-1.724-2.122-2.444c-0.531-0.714-0.817-1.258-0.817-1.258c-0.13-0.247-0.034-0.552,0.213-0.682
					C413.736,209.562,413.912,209.569,414.054,209.642z"/>
			</g>
			<g>
				<path style="fill:#FFFFFF;" d="M236.467,214.806c0,0,0.058-0.434,0.185-1.185c0.051-0.372,0.17-0.836,0.31-1.374
					c0.069-0.268,0.144-0.555,0.222-0.856c0.101-0.289,0.206-0.593,0.316-0.911c0.204-0.643,0.501-1.307,0.814-2.011
					c0.318-0.701,0.692-1.422,1.105-2.151c0.427-0.72,0.858-1.472,1.37-2.184c0.483-0.734,1.032-1.432,1.566-2.143
					c0.567-0.682,1.126-1.372,1.713-2.014c0.57-0.66,1.184-1.257,1.757-1.854c1.178-1.161,2.316-2.199,3.333-3.037
					c1.002-0.854,1.891-1.499,2.497-1.967c0.616-0.456,0.977-0.705,0.977-0.705c0.219-0.153,0.521-0.1,0.674,0.119
					c0.135,0.193,0.107,0.453-0.05,0.616c0,0-1.21,1.238-3.026,3.094c-0.906,0.923-1.937,2.019-3.025,3.2
					c-1.073,1.194-2.196,2.48-3.25,3.815c-0.512,0.677-1.055,1.333-1.52,2.025c-0.488,0.678-0.943,1.357-1.373,2.023
					c-0.412,0.675-0.816,1.326-1.165,1.961c-0.334,0.642-0.677,1.239-0.93,1.817c-0.277,0.574-0.517,1.097-0.698,1.567
					c-0.196,0.467-0.37,0.878-0.477,1.252c-0.239,0.724-0.39,1.134-0.39,1.134c-0.093,0.251-0.371,0.38-0.623,0.287
					C236.563,215.245,236.438,215.026,236.467,214.806z"/>
			</g>
			<g>
				<path style="fill:#FFFFFF;" d="M99.221,136.397c0,0,0.045-0.236,0.147-0.639c0.129-0.401,0.208-0.976,0.493-1.662
					c0.13-0.345,0.275-0.719,0.442-1.11c0.153-0.401,0.371-0.778,0.583-1.187c0.22-0.4,0.418-0.834,0.701-1.224
					c0.267-0.401,0.539-0.808,0.81-1.215c0.31-0.379,0.619-0.759,0.923-1.132c0.292-0.383,0.648-0.702,0.968-1.03
					c0.327-0.321,0.631-0.644,0.964-0.902c0.322-0.269,0.638-0.511,0.926-0.734c0.565-0.462,1.131-0.726,1.478-0.964
					c0.365-0.217,0.58-0.329,0.58-0.329c0.239-0.123,0.533-0.03,0.657,0.209c0.093,0.18,0.063,0.391-0.06,0.537l-0.026,0.03
					c0,0-0.153,0.182-0.433,0.478c-0.276,0.299-0.697,0.691-1.146,1.215c-0.229,0.257-0.473,0.536-0.743,0.817
					c-0.277,0.274-0.509,0.623-0.795,0.936c-0.566,0.633-1.091,1.372-1.651,2.08c-0.51,0.747-1.056,1.469-1.499,2.197
					c-0.217,0.363-0.479,0.695-0.662,1.031c-0.19,0.334-0.383,0.646-0.565,0.935c-0.365,0.569-0.65,1.12-0.859,1.47
					c-0.209,0.359-0.343,0.559-0.343,0.559c-0.151,0.225-0.458,0.285-0.683,0.133C99.262,136.784,99.186,136.585,99.221,136.397z"/>
			</g>
			<g>
				<path style="fill:#FFFFFF;" d="M122.701,114.666c0,0-0.022-0.104-0.043-0.281c-0.009-0.088-0.023-0.196-0.026-0.317
					c-0.015-0.114-0.012-0.259,0.037-0.446c0.062-0.366,0.188-0.791,0.404-1.157c0.097-0.198,0.208-0.396,0.365-0.561
					c0.15-0.168,0.283-0.369,0.459-0.512c0.178-0.142,0.356-0.284,0.531-0.424c0.18-0.13,0.382-0.213,0.563-0.315
					c0.364-0.207,0.746-0.278,1.057-0.362c0.154-0.048,0.308-0.043,0.437-0.058c0.13-0.013,0.246-0.012,0.34-0.014
					c0.188,0,0.296,0.01,0.296,0.01c0.284,0.027,0.492,0.279,0.465,0.563c-0.012,0.124-0.066,0.234-0.148,0.315l-0.047,0.047
					c0,0-0.073,0.073-0.2,0.182c-0.125,0.113-0.315,0.243-0.523,0.405c-0.102,0.085-0.209,0.178-0.329,0.259
					c-0.123,0.078-0.233,0.184-0.35,0.28c-0.244,0.188-0.477,0.392-0.7,0.603c-0.127,0.092-0.211,0.215-0.32,0.318
					c-0.107,0.105-0.217,0.203-0.296,0.319c-0.08,0.112-0.199,0.212-0.272,0.308c-0.064,0.097-0.14,0.185-0.218,0.27
					c-0.077,0.073-0.152,0.178-0.21,0.294c-0.058,0.106-0.119,0.195-0.168,0.27c-0.1,0.148-0.167,0.23-0.167,0.23
					c-0.188,0.228-0.524,0.261-0.752,0.074C122.788,114.889,122.726,114.78,122.701,114.666z"/>
			</g>
			<g>
				<path style="fill:#FFFFFF;" d="M149.953,103.757c0,0-0.016-0.118-0.027-0.32c0.003-0.211-0.046-0.465,0.037-0.845
					c0.033-0.188,0.074-0.393,0.133-0.607c0.048-0.224,0.138-0.417,0.229-0.634c0.095-0.211,0.172-0.444,0.316-0.643
					c0.132-0.205,0.26-0.419,0.402-0.622c0.165-0.186,0.329-0.371,0.491-0.553c0.154-0.19,0.36-0.321,0.532-0.474
					c0.349-0.303,0.732-0.502,1.055-0.668c0.32-0.171,0.625-0.24,0.824-0.304c0.205-0.056,0.324-0.077,0.324-0.077
					c0.276-0.05,0.54,0.132,0.591,0.409c0.025,0.139-0.008,0.275-0.083,0.382l-0.035,0.049c0,0-0.067,0.095-0.188,0.244
					c-0.117,0.153-0.307,0.334-0.504,0.572c-0.099,0.119-0.204,0.247-0.324,0.368c-0.125,0.116-0.219,0.276-0.345,0.408
					c-0.247,0.271-0.471,0.583-0.713,0.879c-0.217,0.314-0.457,0.612-0.646,0.921c-0.087,0.154-0.221,0.296-0.292,0.432
					c-0.078,0.138-0.165,0.266-0.251,0.386c-0.171,0.229-0.3,0.527-0.413,0.681c-0.109,0.17-0.182,0.264-0.182,0.264
					c-0.176,0.229-0.504,0.271-0.733,0.095C150.039,104.013,149.971,103.888,149.953,103.757z"/>
			</g>
			<g>
				<path style="fill:#FFFFFF;" d="M84.912,168.763c0,0,0.033-0.211,0.107-0.576c0.041-0.181,0.09-0.4,0.146-0.652
					c0.066-0.252,0.101-0.527,0.271-0.847c0.141-0.317,0.303-0.665,0.49-1.027c0.162-0.385,0.434-0.698,0.7-1.043
					c0.281-0.33,0.513-0.732,0.894-1c0.355-0.292,0.708-0.605,1.083-0.883c0.415-0.217,0.829-0.434,1.237-0.648
					c0.398-0.238,0.861-0.283,1.269-0.423c0.415-0.124,0.82-0.227,1.213-0.234c0.39-0.035,0.758-0.051,1.095-0.065
					c0.337-0.04,0.643,0.04,0.913,0.066c0.268,0.04,0.501,0.075,0.693,0.104c0.381,0.065,0.594,0.112,0.594,0.112
					c0.261,0.058,0.426,0.316,0.369,0.578c-0.043,0.196-0.2,0.337-0.385,0.372l-0.059,0.011c0,0-0.202,0.037-0.557,0.103
					c-0.174,0.025-0.385,0.057-0.627,0.093c-0.239,0.042-0.514,0.039-0.795,0.133c-0.285,0.076-0.589,0.158-0.911,0.227
					c-0.33,0.046-0.642,0.2-0.971,0.323c-0.32,0.144-0.688,0.213-0.992,0.418c-0.317,0.177-0.639,0.357-0.961,0.537
					c-0.291,0.226-0.581,0.452-0.867,0.674c-0.307,0.2-0.521,0.497-0.77,0.744c-0.23,0.26-0.51,0.483-0.664,0.752
					c-0.177,0.258-0.36,0.497-0.537,0.721c-0.186,0.203-0.308,0.489-0.437,0.707c-0.128,0.224-0.24,0.419-0.333,0.579
					c-0.19,0.319-0.309,0.497-0.309,0.497c-0.151,0.227-0.457,0.288-0.684,0.137C84.961,169.142,84.884,168.947,84.912,168.763z"/>
			</g>
			<g>
				<path style="fill:#FFFFFF;" d="M207.974,84.134c0,0,0.484-0.774,1.315-1.834c0.206-0.267,0.431-0.554,0.679-0.849
					c0.236-0.302,0.547-0.592,0.849-0.896c0.606-0.613,1.285-1.239,1.962-1.865c0.725-0.555,1.45-1.11,2.15-1.601
					c0.349-0.247,0.679-0.495,1.024-0.685c0.338-0.2,0.666-0.375,0.967-0.539c1.204-0.656,2.047-1.006,2.047-1.006
					c0.249-0.103,0.534,0.015,0.637,0.263c0.078,0.187,0.03,0.395-0.104,0.53l-0.026,0.026c0-0.001-0.641,0.647-1.664,1.488
					c-0.255,0.211-0.53,0.441-0.83,0.67c-0.304,0.223-0.581,0.519-0.901,0.776c-0.62,0.543-1.302,1.091-1.985,1.639
					c-0.647,0.576-1.293,1.153-1.928,1.667c-0.308,0.271-0.633,0.488-0.915,0.756c-0.282,0.262-0.558,0.501-0.814,0.72
					c-1.018,0.883-1.767,1.404-1.767,1.404c-0.223,0.155-0.529,0.101-0.685-0.122C207.872,84.509,207.873,84.295,207.974,84.134z"/>
			</g>
			<g>
				<path style="fill:#FFFFFF;" d="M258.221,66.982c0,0,0.293,0.057,0.797,0.183c0.251,0.064,0.557,0.143,0.906,0.233
					c0.35,0.077,0.745,0.195,1.174,0.371c0.431,0.159,0.898,0.335,1.388,0.536c0.493,0.196,0.971,0.451,1.481,0.706
					c0.506,0.257,1.039,0.509,1.535,0.837c0.505,0.314,1.019,0.633,1.532,0.952c0.488,0.355,0.976,0.709,1.456,1.059
					c0.489,0.338,0.916,0.738,1.352,1.095c0.429,0.365,0.851,0.712,1.215,1.078c0.367,0.363,0.713,0.706,1.033,1.023
					c0.645,0.626,1.095,1.236,1.449,1.62c0.338,0.4,0.521,0.638,0.521,0.638c0.164,0.213,0.123,0.519-0.09,0.682
					c-0.171,0.131-0.401,0.131-0.57,0.016l-0.017-0.012c0,0-0.245-0.168-0.655-0.479c-0.41-0.31-0.98-0.769-1.686-1.286
					c-0.347-0.264-0.723-0.55-1.121-0.853c-0.385-0.317-0.834-0.595-1.262-0.927c-0.863-0.659-1.824-1.295-2.766-1.959
					c-0.97-0.615-1.917-1.275-2.853-1.803c-0.467-0.262-0.904-0.564-1.333-0.791c-0.43-0.223-0.833-0.447-1.207-0.658
					c-0.726-0.435-1.441-0.734-1.891-0.972c-0.464-0.233-0.724-0.381-0.724-0.381c-0.235-0.133-0.317-0.431-0.184-0.666
					C257.809,67.034,258.021,66.944,258.221,66.982z"/>
			</g>
			<g>
				<path style="fill:#FFFFFF;" d="M285.679,76.939c0,0,0.301-0.482,0.846-1.093c0.134-0.155,0.282-0.32,0.446-0.485
					c0.146-0.174,0.381-0.327,0.594-0.489c0.434-0.331,0.927-0.65,1.419-0.967c0.52-0.24,1.042-0.469,1.544-0.654
					c0.25-0.094,0.487-0.194,0.73-0.239c0.24-0.054,0.472-0.089,0.684-0.123c0.849-0.138,1.419-0.131,1.419-0.131
					c0.274,0.003,0.493,0.228,0.49,0.502c-0.002,0.161-0.08,0.303-0.2,0.392l-0.056,0.041c0,0-0.456,0.336-1.147,0.691
					c-0.173,0.089-0.358,0.188-0.559,0.275c-0.202,0.084-0.389,0.239-0.602,0.344c-0.413,0.245-0.869,0.466-1.321,0.692
					c-0.419,0.256-0.838,0.512-1.259,0.719c-0.204,0.123-0.418,0.18-0.614,0.322c-0.194,0.128-0.386,0.24-0.564,0.34
					c-0.707,0.411-1.241,0.61-1.241,0.61c-0.263,0.099-0.557-0.035-0.655-0.299C285.577,77.234,285.6,77.068,285.679,76.939z"/>
			</g>
			<g>
				<path style="fill:#FFFFFF;" d="M330.921,99.993c0,0,0.248-0.196,0.627-0.345c0.19-0.08,0.402-0.156,0.684-0.176
					c0.271-0.038,0.564-0.034,0.856-0.03c0.558,0.079,1.108,0.218,1.48,0.461c0.378,0.215,0.592,0.447,0.592,0.447
					c0.212,0.23,0.198,0.589-0.033,0.801c-0.05,0.046-0.106,0.081-0.165,0.106l-0.055,0.022c0,0-0.29,0.12-0.665,0.166
					c-0.19,0.027-0.401,0.034-0.628,0.053c-0.226,0.017-0.459-0.003-0.692-0.023c-0.223-0.016-0.445-0.031-0.657-0.087
					c-0.11-0.015-0.2-0.062-0.319-0.079c-0.112-0.018-0.218-0.047-0.316-0.077c-0.392-0.108-0.659-0.278-0.659-0.278
					c-0.275-0.175-0.357-0.54-0.182-0.815C330.824,100.083,330.871,100.033,330.921,99.993z"/>
			</g>
			<g>
				<path style="fill:#FFFFFF;" d="M354.839,107.83c0,0,0.648-0.116,1.604-0.145c0.479-0.021,1.03-0.031,1.647,0.053
					c0.613,0.059,1.262,0.164,1.912,0.268c0.628,0.162,1.257,0.324,1.836,0.511c0.584,0.167,1.107,0.398,1.549,0.61
					c0.888,0.411,1.438,0.772,1.438,0.771c0.229,0.15,0.294,0.457,0.144,0.687c-0.098,0.149-0.261,0.228-0.427,0.225l-0.035-0.001
					c0,0-0.656-0.017-1.579-0.172c-0.231-0.038-0.481-0.077-0.74-0.135c-0.258-0.06-0.544-0.076-0.827-0.136
					c-0.573-0.091-1.173-0.226-1.773-0.36c-0.597-0.111-1.193-0.222-1.749-0.365c-0.283-0.058-0.54-0.151-0.811-0.203
					c-0.268-0.052-0.519-0.113-0.751-0.173c-0.93-0.227-1.539-0.476-1.539-0.476c-0.257-0.104-0.38-0.397-0.276-0.653
					C354.529,107.97,354.677,107.86,354.839,107.83z"/>
			</g>
			<g>
				<path style="fill:#FFFFFF;" d="M375.503,121.795c0,0,0.195-0.072,0.538-0.179c0.172-0.05,0.381-0.111,0.62-0.181
					c0.243-0.063,0.498-0.156,0.836-0.177c0.327-0.04,0.686-0.079,1.068-0.105c0.388-0.051,0.778-0.012,1.188,0.021
					c0.407,0.053,0.843,0.021,1.259,0.16c0.422,0.109,0.85,0.219,1.278,0.33c0.405,0.18,0.81,0.359,1.208,0.536
					c0.41,0.156,0.742,0.438,1.089,0.659c0.338,0.235,0.679,0.445,0.935,0.721c0.274,0.256,0.522,0.51,0.747,0.741
					c0.457,0.459,0.718,0.943,0.936,1.241c0.205,0.312,0.311,0.494,0.311,0.494c0.136,0.232,0.059,0.53-0.173,0.665
					c-0.172,0.101-0.381,0.085-0.532-0.025l-0.041-0.03c0,0-0.161-0.117-0.444-0.323c-0.287-0.194-0.63-0.54-1.113-0.85
					c-0.24-0.156-0.499-0.322-0.76-0.511c-0.249-0.207-0.576-0.321-0.871-0.501c-0.307-0.162-0.605-0.36-0.95-0.475
					c-0.333-0.137-0.672-0.276-1.01-0.414c-0.352-0.101-0.705-0.201-1.053-0.3c-0.341-0.123-0.705-0.14-1.045-0.214
					c-0.343-0.053-0.677-0.148-0.987-0.152c-0.313-0.02-0.61-0.053-0.891-0.088c-0.27-0.046-0.564-0.027-0.81-0.035
					c-0.249-0.006-0.466-0.012-0.645-0.016c-0.359-0.016-0.565-0.036-0.565-0.036c-0.272-0.026-0.471-0.267-0.445-0.539
					C375.2,122.018,375.331,121.859,375.503,121.795z"/>
			</g>
			<g>
				<path style="fill:#FFFFFF;" d="M402.546,152.683c0,0,0.565,0.596,1.285,1.564c0.726,0.967,1.627,2.29,2.425,3.684
					c0.732,1.455,1.385,2.954,1.812,4.1c0.434,1.144,0.633,1.939,0.633,1.939c0.066,0.262-0.093,0.528-0.354,0.594
					c-0.19,0.048-0.381-0.022-0.498-0.163l-0.022-0.028c0,0-0.521-0.635-1.17-1.636c-0.655-0.998-1.445-2.359-2.155-3.764
					c-0.376-0.7-0.794-1.389-1.131-2.06c-0.351-0.665-0.656-1.298-0.901-1.851c-0.5-1.1-0.75-1.884-0.75-1.884
					c-0.085-0.259,0.057-0.538,0.315-0.623C402.219,152.492,402.418,152.551,402.546,152.683z"/>
			</g>
			<g>
				<path style="fill:#FFFFFF;" d="M408.375,182.057c0,0,0.455,0.71,0.999,1.824c0.553,1.111,1.2,2.626,1.766,4.171
					c0.619,1.507,1.153,3.046,1.495,4.23c0.35,1.181,0.497,2.01,0.497,2.01l0.004,0.02c0.048,0.267-0.13,0.521-0.398,0.569
					c-0.194,0.035-0.384-0.051-0.489-0.204c0,0-0.479-0.691-1.071-1.792c-0.6-1.097-1.32-2.598-1.955-4.133
					c-0.564-1.546-1.046-3.121-1.34-4.327c-0.302-1.203-0.412-2.038-0.412-2.038c-0.036-0.27,0.154-0.518,0.424-0.554
					C408.091,181.808,408.275,181.901,408.375,182.057z"/>
			</g>
			<g>
				<path style="fill:#FFFFFF;" d="M391.98,215.346c0,0,0.441,0.356,0.982,0.969c0.137,0.151,0.283,0.318,0.426,0.501
					c0.151,0.172,0.282,0.411,0.418,0.638c0.281,0.459,0.545,0.972,0.808,1.485c0.191,0.531,0.378,1.063,0.521,1.571
					c0.167,0.5,0.227,0.995,0.265,1.418c0.09,0.845,0.053,1.412,0.053,1.412c-0.018,0.274-0.255,0.482-0.53,0.464
					c-0.161-0.01-0.299-0.097-0.382-0.221l-0.031-0.048c0,0-0.311-0.472-0.63-1.187c-0.081-0.179-0.17-0.371-0.247-0.578
					c-0.072-0.209-0.21-0.409-0.3-0.632c-0.212-0.435-0.401-0.91-0.59-1.385c-0.215-0.45-0.43-0.898-0.597-1.342
					c-0.101-0.217-0.147-0.437-0.256-0.648c-0.104-0.207-0.191-0.411-0.269-0.6c-0.322-0.751-0.454-1.303-0.454-1.303
					c-0.066-0.273,0.102-0.548,0.376-0.614C391.701,215.208,391.862,215.251,391.98,215.346z"/>
			</g>
		</g>
	</g>
</g>
</svg>
