<?xml version="1.0" encoding="utf-8"?>
<!-- Generator: Adobe Illustrator 27.5.0, SVG Export Plug-In . SVG Version: 6.00 Build 0)  -->
<svg version="1.1" xmlns="http://www.w3.org/2000/svg" xmlns:xlink="http://www.w3.org/1999/xlink" x="0px" y="0px"
	 viewBox="0 0 550 500" style="enable-background:new 0 0 550 500;" xml:space="preserve">
<g id="BACKGROUND">
	<g>
		<rect x="0.333" style="fill:#FFFFFF;" width="550" height="500"/>
		<path style="fill:#EEF2FF;" d="M488.577,252.586L362.025,94.015c-30.287-37.95-86.317-42.467-122.293-9.86L71.279,236.835
			c-37.847,34.303-36.656,94.138,2.524,126.908l64.922,54.301c19.788,16.551,46.075,23.111,71.319,17.8l230.082-48.41
			C501.439,374.534,527.659,301.556,488.577,252.586z"/>
	</g>
</g>
<g id="OBJECTS">
	<g>
		<g>
			<path style="fill:#A7CC48;" d="M93.793,441.989H465.82c0,0-38.976-112.194-192.387-108.424
				C104.939,337.706,93.793,441.989,93.793,441.989z"/>
			<ellipse style="fill:#8BA53A;" cx="267.327" cy="418.869" rx="28.602" ry="7.954"/>
			<path style="fill:#8BA53A;" d="M234.424,430.8c0,2.197-6.403,3.977-14.301,3.977c-7.898,0-14.301-1.781-14.301-3.977
				c0-2.197,6.403-3.977,14.301-3.977C228.022,426.823,234.424,428.604,234.424,430.8z"/>
			<path style="fill:#486B27;" d="M449.532,326.064c2.817-2.349,5.581-4.768,8.294-7.254c2.708-2.494,5.38-5.038,7.909-7.773
				c0.118-0.128,0.11-0.327-0.017-0.445c-0.098-0.09-0.238-0.107-0.351-0.052c-3.35,1.63-6.558,3.452-9.729,5.322
				c-3.165,1.878-6.281,3.824-9.344,5.841c-6.14,4.014-12.094,8.278-17.942,12.686c-5.602,4.224-11.115,8.567-16.506,13.075
				c0.135-0.139,0.272-0.275,0.407-0.414c5.452-5.632,10.727-11.417,15.884-17.304c5.156-5.888,10.177-11.892,14.962-18.1
				c2.401-3.096,4.737-6.25,7.008-9.459c2.264-3.215,4.48-6.472,6.519-9.881c0.089-0.149,0.041-0.342-0.108-0.431
				c-0.116-0.07-0.26-0.055-0.36,0.026c-3.077,2.513-5.977,5.178-8.829,7.885c-2.845,2.714-5.626,5.482-8.34,8.308
				c-5.447,5.636-10.658,11.477-15.734,17.433c-0.527,0.619-1.047,1.243-1.572,1.865c0.41-0.625,0.824-1.247,1.231-1.874
				c4.244-6.536,8.338-13.169,12.169-19.969c1.925-3.394,3.777-6.835,5.558-10.322c1.772-3.492,3.491-7.018,5.013-10.67
				c0.067-0.16-0.009-0.344-0.169-0.411c-0.125-0.052-0.265-0.017-0.352,0.077c-2.677,2.913-5.158,5.952-7.585,9.025
				c-2.419,3.078-4.767,6.202-7.041,9.373c-4.568,6.329-8.873,12.826-13.028,19.42c-0.329,0.523-0.652,1.05-0.98,1.574
				c0.695-1.47,1.389-2.941,2.073-4.417c3.487-7.53,6.813-15.133,9.854-22.866c1.532-3.861,2.983-7.759,4.358-11.692
				c1.366-3.937,2.674-7.9,3.77-11.96c0.045-0.167-0.054-0.339-0.221-0.384c-0.133-0.036-0.269,0.02-0.342,0.128
				c-2.343,3.491-4.475,7.08-6.548,10.694c-2.064,3.619-4.052,7.272-5.96,10.962c-3.838,7.37-7.391,14.87-10.782,22.443
				c-0.664,1.484-1.318,2.973-1.971,4.463c0.18-0.591,0.366-1.181,0.544-1.772c2.247-7.462,4.323-14.975,6.099-22.576
				c0.9-3.797,1.715-7.619,2.45-11.464c0.725-3.848,1.389-7.714,1.83-11.646c0.019-0.172-0.105-0.328-0.277-0.347
				c-0.135-0.015-0.259,0.058-0.316,0.173c-1.756,3.546-3.288,7.157-4.759,10.786c-1.462,3.632-2.842,7.288-4.139,10.968
				c-2.616,7.354-4.933,14.796-7.078,22.288c-0.206,0.718-0.403,1.439-0.605,2.158c0.124-0.803,0.254-1.606,0.375-2.409
				c1.162-7.74,2.148-15.504,2.824-23.313c0.35-3.903,0.613-7.818,0.793-11.745c0.17-3.929,0.277-7.866,0.154-11.837
				c-0.005-0.173-0.15-0.31-0.324-0.304c-0.136,0.004-0.249,0.095-0.289,0.217c-1.233,3.776-2.236,7.585-3.176,11.404
				c-0.93,3.82-1.776,7.651-2.536,11.496c-1.543,7.685-2.776,15.414-3.834,23.168c-1.056,7.755-1.958,15.531-2.629,23.341
				c-0.017,0.193-0.029,0.386-0.045,0.578c-0.137-7.026-0.479-14.036-0.97-21.034c-0.514-7.305-1.204-14.596-2.207-21.863
				c-0.489-3.634-1.066-7.262-1.727-10.883c-0.67-3.62-1.401-7.236-2.371-10.833c-0.045-0.168-0.218-0.267-0.386-0.222
				c-0.129,0.035-0.217,0.145-0.231,0.27c-0.404,3.704-0.569,7.389-0.673,11.069c-0.095,3.68-0.105,7.353-0.029,11.019
				c0.13,7.335,0.571,14.645,1.189,21.942c0.609,7.162,1.37,14.312,2.351,21.445c-1.295-4.967-2.72-9.892-4.252-14.783
				c-1.881-6-3.93-11.945-6.277-17.794c-1.162-2.928-2.408-5.83-3.734-8.705c-1.335-2.873-2.728-5.726-4.348-8.507
				c-0.088-0.151-0.282-0.202-0.433-0.114c-0.11,0.064-0.167,0.185-0.156,0.304c0.31,3.203,0.847,6.333,1.443,9.444
				c0.605,3.108,1.29,6.19,2.058,9.246c1.514,6.118,3.326,12.14,5.306,18.108c1.382,4.162,2.843,8.298,4.395,12.405
				c-1.316-2.362-2.672-4.699-4.062-7.017c-2.8-4.667-5.752-9.241-8.97-13.652c-1.599-2.212-3.273-4.377-5.018-6.499
				c-1.754-2.117-3.559-4.202-5.569-6.161c-0.126-0.123-0.328-0.12-0.451,0.006c-0.085,0.087-0.11,0.21-0.076,0.318
				c0.836,2.68,1.875,5.235,2.967,7.757c1.1,2.518,2.271,4.991,3.517,7.419c2.472,4.868,5.211,9.573,8.101,14.185
				c2.619,4.177,5.355,8.282,8.241,12.295c-2.456-2.475-4.962-4.892-7.55-7.215c-3.508-3.147-7.134-6.161-10.965-8.939
				c-1.908-1.398-3.874-2.73-5.895-4c-2.027-1.262-4.095-2.478-6.321-3.514c-0.161-0.075-0.353-0.005-0.428,0.156
				c-0.048,0.103-0.036,0.22,0.02,0.309c1.317,2.072,2.793,3.963,4.308,5.809c1.522,1.838,3.099,3.614,4.734,5.323
				c3.254,3.437,6.715,6.638,10.292,9.706c2.46,2.108,4.994,4.133,7.567,6.112c-2.534-1.304-5.096-2.542-7.687-3.715
				c-4.112-1.86-8.296-3.557-12.605-4.967c-2.15-0.716-4.335-1.352-6.553-1.911c-2.223-0.55-4.47-1.044-6.813-1.319
				c-0.177-0.021-0.338,0.106-0.359,0.284c-0.013,0.11,0.033,0.215,0.111,0.283c1.79,1.536,3.677,2.854,5.587,4.115
				c1.915,1.253,3.863,2.428,5.847,3.523c3.958,2.212,8.041,4.138,12.195,5.901c4.155,1.762,8.372,3.381,12.684,4.786
				c4.318,1.386,8.69,2.65,13.282,3.41c3.588,2.966,7.411,5.434,11.291,7.782c3.89,2.33,7.88,4.449,11.936,6.427
				c4.057,1.977,8.19,3.793,12.457,5.327c2.128,0.777,4.294,1.476,6.496,2.098c2.206,0.614,4.438,1.172,6.772,1.514
				c0.177,0.026,0.341-0.096,0.367-0.273c0.016-0.11-0.026-0.216-0.102-0.286c-1.745-1.587-3.593-2.958-5.467-4.274
				c-1.878-1.307-3.792-2.538-5.743-3.69c-3.892-2.325-7.919-4.367-12.021-6.249c-2.536-1.163-5.102-2.262-7.698-3.301
				c3.131,0.629,6.274,1.172,9.427,1.637c4.663,0.685,9.35,1.194,14.079,1.394c2.363,0.112,4.737,0.136,7.123,0.077
				c2.387-0.068,4.783-0.197,7.21-0.563c0.176-0.027,0.297-0.191,0.271-0.367c-0.017-0.112-0.091-0.203-0.188-0.246
				c-2.242-0.999-4.517-1.761-6.8-2.462c-2.284-0.692-4.579-1.3-6.887-1.822c-4.611-1.067-9.264-1.824-13.941-2.405
				c-3.379-0.419-6.77-0.753-10.175-0.981c4.846-0.455,9.665-1.077,14.461-1.831c5.376-0.847,10.724-1.869,16.019-3.2
				c2.65-0.654,5.285-1.393,7.906-2.216c2.62-0.832,5.229-1.725,7.799-2.854c0.161-0.071,0.235-0.259,0.164-0.421
				c-0.049-0.111-0.153-0.18-0.266-0.19c-2.798-0.23-5.556-0.224-8.304-0.157c-2.747,0.076-5.479,0.235-8.197,0.48
				c-5.44,0.467-10.828,1.243-16.187,2.193c-2.66,0.473-5.313,0.984-7.959,1.541c4.117-1.525,8.196-3.138,12.242-4.827
				c5.802-2.423,11.534-5.009,17.144-7.883c2.809-1.426,5.584-2.932,8.326-4.516c2.738-1.592,5.452-3.241,8.073-5.11
				c0.142-0.102,0.175-0.299,0.074-0.442c-0.074-0.104-0.199-0.15-0.317-0.127c-3.161,0.602-6.229,1.425-9.272,2.303
				c-3.04,0.888-6.046,1.852-9.018,2.897c-5.953,2.069-11.784,4.425-17.545,6.944c-4.695,2.055-9.346,4.212-13.943,6.496
				c6.025-3.942,11.919-8.061,17.722-12.303C438.109,335.246,443.914,330.781,449.532,326.064z"/>
			<path style="fill:#60801C;" d="M417.784,323.296c1.27-3.44,2.459-6.916,3.572-10.424c1.104-3.513,2.151-7.049,2.98-10.682
				c0.039-0.169-0.067-0.338-0.237-0.377c-0.13-0.03-0.26,0.026-0.331,0.13c-2.091,3.083-3.963,6.262-5.779,9.465
				c-1.807,3.207-3.537,6.447-5.186,9.722c-3.321,6.541-6.355,13.207-9.226,19.943c-2.749,6.455-5.362,12.968-7.787,19.564
				c0.048-0.187,0.099-0.374,0.146-0.562c1.917-7.601,3.604-15.245,5.139-22.92c1.533-7.675,2.892-15.383,3.943-23.15
				c0.538-3.882,0.989-7.78,1.358-11.694c0.359-3.916,0.656-7.844,0.724-11.816c0.003-0.173-0.135-0.316-0.309-0.319
				c-0.136-0.002-0.253,0.082-0.299,0.202c-1.414,3.713-2.598,7.469-3.721,11.238c-1.112,3.771-2.143,7.557-3.086,11.36
				c-1.911,7.602-3.515,15.262-4.945,22.957c-0.148,0.799-0.288,1.6-0.432,2.4c0.043-0.746,0.092-1.492,0.133-2.238
				c0.419-7.782,0.66-15.573,0.59-23.378c-0.024-3.902-0.135-7.808-0.33-11.718c-0.205-3.911-0.474-7.824-0.975-11.749
				c-0.022-0.172-0.179-0.294-0.351-0.272c-0.135,0.017-0.238,0.118-0.267,0.243c-0.868,3.86-1.503,7.731-2.074,11.605
				c-0.562,3.874-1.039,7.753-1.429,11.635c-0.804,7.764-1.295,15.543-1.608,23.33c-0.025,0.617-0.042,1.235-0.065,1.852
				c-0.131-1.621-0.263-3.242-0.406-4.862c-0.732-8.266-1.641-16.514-2.861-24.734c-0.598-4.111-1.284-8.213-2.053-12.308
				c-0.779-4.093-1.622-8.181-2.696-12.246c-0.044-0.168-0.216-0.267-0.383-0.223c-0.133,0.035-0.223,0.151-0.233,0.282
				c-0.29,4.195-0.348,8.368-0.343,12.535c0.015,4.166,0.114,8.324,0.3,12.474c0.349,8.302,1.009,16.574,1.846,24.83
				c0.164,1.618,0.34,3.235,0.517,4.852c-0.139-0.602-0.272-1.206-0.412-1.807c-1.774-7.589-3.721-15.136-5.971-22.61
				c-1.114-3.74-2.313-7.459-3.593-11.159c-1.29-3.697-2.642-7.379-4.221-11.007c-0.069-0.159-0.254-0.232-0.413-0.163
				c-0.124,0.054-0.196,0.18-0.188,0.308c0.246,3.949,0.719,7.843,1.254,11.722c0.544,3.877,1.17,7.734,1.882,11.571
				c1.4,7.679,3.103,15.285,4.979,22.849c0.18,0.725,0.368,1.448,0.551,2.172c-0.293-0.758-0.581-1.518-0.877-2.275
				c-2.852-7.288-5.87-14.51-9.178-21.616c-1.643-3.557-3.367-7.082-5.169-10.576c-1.812-3.49-3.682-6.957-5.769-10.337
				c-0.091-0.148-0.285-0.193-0.432-0.102c-0.116,0.071-0.168,0.206-0.142,0.332c0.814,3.888,1.845,7.69,2.935,11.468
				c1.099,3.775,2.276,7.518,3.534,11.229c2.495,7.431,5.28,14.745,8.23,21.994c2.952,7.248,6.048,14.439,9.361,21.543
				c0.082,0.175,0.167,0.349,0.249,0.524c-3.623-6.022-7.415-11.927-11.33-17.749c-4.088-6.076-8.322-12.051-12.815-17.85
				c-2.237-2.906-4.546-5.763-6.924-8.572c-2.386-2.804-4.823-5.573-7.457-8.208c-0.123-0.123-0.322-0.123-0.445,0
				c-0.094,0.094-0.116,0.234-0.066,0.349c1.497,3.412,3.192,6.688,4.937,9.93c1.753,3.237,3.575,6.426,5.47,9.566
				c3.77,6.293,7.798,12.409,11.973,18.426c4.099,5.904,8.324,11.723,12.732,17.416c-3.599-3.66-7.291-7.218-11.057-10.693
				c-4.622-4.263-9.363-8.394-14.315-12.294c-2.468-1.959-4.995-3.852-7.578-5.684c-2.589-1.824-5.22-3.604-8.011-5.205
				c-0.152-0.087-0.345-0.035-0.432,0.117c-0.064,0.111-0.053,0.244,0.017,0.341c1.866,2.622,3.893,5.067,5.96,7.466
				c2.074,2.392,4.205,4.723,6.395,6.988c4.363,4.548,8.937,8.865,13.629,13.049c3.273,2.918,6.602,5.775,9.995,8.561
				c-2.319-1.391-4.66-2.741-7.02-4.056c-4.755-2.649-9.594-5.142-14.583-7.36c-2.489-1.12-5.02-2.162-7.591-3.131
				c-2.576-0.961-5.18-1.867-7.9-2.564c-0.171-0.044-0.345,0.059-0.388,0.23c-0.03,0.117,0.01,0.236,0.092,0.313
				c2.061,1.906,4.236,3.602,6.44,5.245c2.209,1.634,4.458,3.194,6.749,4.677c4.57,2.987,9.29,5.699,14.095,8.256
				c4.353,2.314,8.772,4.508,13.275,6.547c-3.363-0.92-6.74-1.766-10.142-2.489c-4.61-0.978-9.256-1.783-13.962-2.281
				c-2.351-0.261-4.719-0.435-7.104-0.527c-2.387-0.083-4.785-0.106-7.231,0.106c-0.177,0.016-0.309,0.172-0.293,0.349
				c0.01,0.113,0.079,0.208,0.172,0.258c2.175,1.139,4.397,2.043,6.631,2.887c2.236,0.835,4.488,1.587,6.758,2.254
				c4.535,1.356,9.131,2.405,13.762,3.281c3.184,0.601,6.39,1.093,9.607,1.524c-2.846,0.133-5.685,0.338-8.516,0.613
				c-4.492,0.439-8.964,1.054-13.402,1.98c-2.22,0.451-4.431,0.99-6.633,1.612c-2.201,0.631-4.395,1.324-6.563,2.254
				c-0.164,0.07-0.24,0.261-0.17,0.425c0.044,0.102,0.136,0.17,0.237,0.19c2.318,0.439,4.61,0.64,6.895,0.781
				c2.284,0.131,4.559,0.178,6.825,0.138c4.534-0.056,9.033-0.423,13.513-0.966c4.48-0.545,8.943-1.245,13.381-2.176
				c4.434-0.952,8.854-2.036,13.213-3.668c4.589,0.782,9.133,1.014,13.667,1.115c4.534,0.08,9.049-0.073,13.551-0.381
				c4.503-0.31,8.991-0.796,13.454-1.595c2.232-0.387,4.458-0.862,6.677-1.421c2.218-0.568,4.431-1.197,6.625-2.064
				c0.166-0.066,0.248-0.254,0.182-0.42c-0.041-0.103-0.131-0.174-0.231-0.197c-2.305-0.505-4.59-0.772-6.87-0.978
				c-2.28-0.196-4.552-0.309-6.818-0.334c-4.533-0.074-9.042,0.163-13.536,0.578c-2.778,0.257-5.551,0.583-8.318,0.978
				c3.028-1.016,6.023-2.113,8.988-3.283c4.383-1.731,8.7-3.627,12.898-5.812c2.104-1.082,4.174-2.245,6.213-3.485
				c2.035-1.25,4.047-2.556,5.969-4.083c0.139-0.111,0.162-0.314,0.052-0.453c-0.07-0.089-0.18-0.13-0.285-0.12
				c-2.442,0.253-4.793,0.727-7.122,1.257c-2.325,0.539-4.618,1.157-6.878,1.855c-4.529,1.375-8.94,3.039-13.284,4.868
				c-3.138,1.322-6.244,2.723-9.309,4.223c3.974-2.811,7.84-5.753,11.621-8.799c4.238-3.415,8.363-6.968,12.289-10.761
				c1.971-1.888,3.886-3.843,5.748-5.864c1.856-2.028,3.672-4.103,5.337-6.363c0.104-0.142,0.074-0.342-0.068-0.446
				c-0.097-0.072-0.223-0.08-0.325-0.032c-2.539,1.196-4.927,2.577-7.276,4.005c-2.343,1.435-4.632,2.936-6.866,4.504
				c-4.482,3.118-8.766,6.477-12.937,9.973c-2.07,1.736-4.115,3.502-6.13,5.305c2.808-3.375,5.539-6.807,8.205-10.289
				c3.821-4.993,7.5-10.094,10.929-15.382c1.724-2.637,3.378-5.326,4.965-8.066c1.579-2.746,3.11-5.528,4.449-8.455
				c0.073-0.159,0.003-0.347-0.156-0.42c-0.116-0.053-0.247-0.03-0.338,0.048c-2.44,2.099-4.689,4.341-6.888,6.62
				c-2.192,2.285-4.317,4.62-6.372,7.008c-4.129,4.762-8.008,9.712-11.745,14.768c-3.045,4.122-6.001,8.312-8.847,12.583
				c3.257-6.421,6.311-12.931,9.226-19.501C412.461,336.952,415.266,330.186,417.784,323.296z"/>
			<path style="fill:#486B27;" d="M110.08,325.166c-2.816-2.349-5.58-4.768-8.294-7.254c-2.708-2.494-5.38-5.038-7.909-7.773
				c-0.118-0.128-0.11-0.327,0.017-0.445c0.098-0.09,0.238-0.107,0.351-0.052c3.35,1.63,6.558,3.451,9.729,5.322
				c3.165,1.879,6.281,3.824,9.344,5.841c6.14,4.014,12.094,8.278,17.942,12.686c5.602,4.224,11.115,8.567,16.505,13.075
				c-0.135-0.139-0.272-0.275-0.407-0.414c-5.452-5.632-10.727-11.417-15.884-17.304c-5.156-5.888-10.177-11.892-14.962-18.1
				c-2.401-3.096-4.737-6.25-7.008-9.459c-2.264-3.215-4.48-6.472-6.519-9.881c-0.089-0.149-0.041-0.342,0.108-0.431
				c0.117-0.07,0.26-0.055,0.36,0.026c3.077,2.513,5.977,5.178,8.829,7.885c2.844,2.714,5.626,5.482,8.34,8.308
				c5.447,5.636,10.658,11.476,15.734,17.433c0.527,0.619,1.047,1.243,1.572,1.865c-0.409-0.625-0.824-1.247-1.231-1.874
				c-4.244-6.537-8.338-13.169-12.169-19.97c-1.925-3.394-3.777-6.835-5.558-10.322c-1.772-3.492-3.491-7.018-5.013-10.67
				c-0.067-0.16,0.009-0.344,0.169-0.411c0.125-0.052,0.265-0.017,0.352,0.077c2.677,2.913,5.158,5.952,7.585,9.025
				c2.419,3.078,4.767,6.202,7.041,9.373c4.568,6.329,8.873,12.826,13.028,19.42c0.329,0.523,0.652,1.05,0.98,1.574
				c-0.695-1.47-1.389-2.941-2.073-4.417c-3.487-7.53-6.813-15.133-9.854-22.866c-1.531-3.862-2.983-7.759-4.358-11.692
				c-1.366-3.937-2.674-7.9-3.77-11.96c-0.045-0.167,0.054-0.339,0.221-0.384c0.133-0.036,0.269,0.02,0.342,0.128
				c2.343,3.491,4.475,7.08,6.548,10.694c2.064,3.619,4.052,7.272,5.96,10.962c3.838,7.37,7.391,14.87,10.782,22.443
				c0.664,1.484,1.319,2.973,1.972,4.463c-0.18-0.591-0.366-1.181-0.544-1.772c-2.247-7.463-4.323-14.975-6.099-22.576
				c-0.9-3.797-1.715-7.619-2.45-11.464c-0.725-3.848-1.39-7.714-1.83-11.646c-0.019-0.173,0.105-0.328,0.277-0.347
				c0.135-0.015,0.259,0.058,0.317,0.173c1.756,3.546,3.288,7.157,4.759,10.786c1.461,3.632,2.842,7.287,4.139,10.968
				c2.616,7.354,4.932,14.796,7.078,22.288c0.206,0.718,0.403,1.439,0.605,2.158c-0.124-0.803-0.254-1.606-0.375-2.409
				c-1.162-7.739-2.148-15.504-2.824-23.313c-0.35-3.903-0.613-7.818-0.793-11.745c-0.17-3.929-0.277-7.866-0.154-11.837
				c0.005-0.173,0.15-0.31,0.324-0.304c0.136,0.004,0.249,0.095,0.289,0.216c1.233,3.776,2.236,7.586,3.175,11.404
				c0.93,3.82,1.776,7.652,2.536,11.496c1.543,7.685,2.776,15.414,3.834,23.168c1.056,7.755,1.958,15.531,2.629,23.341
				c0.016,0.192,0.029,0.386,0.045,0.578c0.137-7.026,0.479-14.036,0.97-21.034c0.513-7.305,1.204-14.596,2.206-21.863
				c0.489-3.634,1.066-7.262,1.727-10.883c0.67-3.62,1.401-7.236,2.371-10.833c0.045-0.168,0.218-0.267,0.386-0.222
				c0.128,0.035,0.217,0.145,0.231,0.27c0.404,3.704,0.569,7.389,0.673,11.069c0.094,3.68,0.105,7.353,0.029,11.019
				c-0.13,7.335-0.571,14.645-1.189,21.942c-0.609,7.162-1.369,14.312-2.351,21.445c1.295-4.967,2.72-9.892,4.252-14.783
				c1.881-6,3.93-11.945,6.277-17.794c1.162-2.928,2.408-5.83,3.734-8.705c1.335-2.873,2.728-5.726,4.348-8.507
				c0.088-0.151,0.282-0.202,0.433-0.114c0.11,0.064,0.167,0.185,0.156,0.304c-0.31,3.203-0.848,6.333-1.443,9.444
				c-0.605,3.108-1.29,6.19-2.058,9.246c-1.514,6.118-3.326,12.14-5.306,18.108c-1.382,4.161-2.843,8.298-4.395,12.405
				c1.316-2.362,2.672-4.7,4.062-7.017c2.8-4.667,5.752-9.241,8.97-13.652c1.599-2.212,3.273-4.377,5.018-6.499
				c1.754-2.117,3.559-4.202,5.569-6.161c0.126-0.123,0.328-0.121,0.451,0.006c0.085,0.087,0.11,0.21,0.076,0.318
				c-0.835,2.68-1.875,5.234-2.967,7.757c-1.1,2.518-2.271,4.992-3.518,7.419c-2.472,4.868-5.211,9.573-8.101,14.185
				c-2.619,4.177-5.355,8.282-8.242,12.295c2.456-2.475,4.962-4.892,7.55-7.215c3.508-3.147,7.134-6.161,10.965-8.939
				c1.908-1.398,3.874-2.73,5.895-3.999c2.027-1.262,4.095-2.478,6.321-3.514c0.161-0.075,0.353-0.005,0.428,0.156
				c0.048,0.103,0.036,0.22-0.02,0.309c-1.317,2.072-2.793,3.963-4.308,5.809c-1.522,1.838-3.099,3.614-4.734,5.323
				c-3.254,3.437-6.715,6.638-10.292,9.706c-2.46,2.108-4.993,4.133-7.567,6.112c2.534-1.304,5.096-2.542,7.687-3.715
				c4.112-1.859,8.296-3.556,12.605-4.967c2.15-0.716,4.335-1.352,6.553-1.911c2.223-0.55,4.469-1.044,6.812-1.319
				c0.178-0.021,0.338,0.106,0.359,0.284c0.013,0.11-0.033,0.215-0.11,0.283c-1.79,1.537-3.676,2.854-5.587,4.115
				c-1.915,1.253-3.863,2.428-5.846,3.523c-3.958,2.212-8.041,4.138-12.195,5.901c-4.155,1.762-8.373,3.381-12.684,4.786
				c-4.318,1.386-8.69,2.65-13.282,3.41c-3.588,2.966-7.411,5.434-11.291,7.782c-3.89,2.33-7.88,4.449-11.936,6.427
				c-4.057,1.977-8.19,3.793-12.457,5.327c-2.128,0.778-4.294,1.476-6.496,2.098c-2.206,0.614-4.438,1.172-6.772,1.514
				c-0.177,0.026-0.341-0.096-0.367-0.273c-0.016-0.11,0.027-0.216,0.102-0.286c1.745-1.587,3.593-2.958,5.467-4.274
				c1.878-1.307,3.792-2.538,5.743-3.69c3.892-2.325,7.919-4.367,12.021-6.249c2.536-1.162,5.102-2.262,7.698-3.301
				c-3.131,0.629-6.274,1.172-9.427,1.637c-4.663,0.685-9.35,1.194-14.078,1.394c-2.363,0.111-4.737,0.136-7.123,0.077
				c-2.387-0.068-4.783-0.197-7.21-0.563c-0.176-0.027-0.297-0.191-0.271-0.367c0.017-0.112,0.092-0.203,0.188-0.246
				c2.243-0.999,4.517-1.761,6.8-2.462c2.284-0.692,4.579-1.3,6.887-1.822c4.611-1.067,9.264-1.824,13.941-2.405
				c3.379-0.419,6.77-0.753,10.175-0.981c-4.846-0.455-9.665-1.077-14.461-1.831c-5.376-0.847-10.723-1.869-16.019-3.2
				c-2.65-0.654-5.285-1.394-7.906-2.216c-2.62-0.832-5.229-1.725-7.8-2.854c-0.161-0.071-0.235-0.259-0.164-0.421
				c0.049-0.111,0.153-0.18,0.266-0.19c2.798-0.23,5.556-0.224,8.304-0.157c2.747,0.076,5.479,0.235,8.197,0.48
				c5.44,0.467,10.828,1.243,16.187,2.193c2.66,0.473,5.313,0.984,7.959,1.541c-4.117-1.525-8.196-3.138-12.242-4.827
				c-5.802-2.423-11.535-5.009-17.144-7.883c-2.809-1.426-5.584-2.932-8.326-4.516c-2.738-1.592-5.452-3.241-8.073-5.11
				c-0.142-0.102-0.175-0.299-0.074-0.442c0.074-0.104,0.2-0.15,0.317-0.127c3.161,0.602,6.229,1.425,9.272,2.303
				c3.04,0.887,6.046,1.852,9.018,2.897c5.953,2.069,11.784,4.425,17.545,6.944c4.695,2.055,9.346,4.212,13.943,6.496
				c-6.025-3.942-11.919-8.061-17.722-12.303C121.504,334.348,115.699,329.882,110.08,325.166z"/>
			<path style="fill:#60801C;" d="M149.603,322.398c-1.27-3.44-2.459-6.915-3.572-10.424c-1.104-3.513-2.151-7.049-2.979-10.682
				c-0.039-0.17,0.067-0.338,0.237-0.377c0.13-0.03,0.26,0.026,0.331,0.13c2.091,3.083,3.963,6.262,5.779,9.465
				c1.807,3.207,3.537,6.447,5.186,9.722c3.321,6.541,6.355,13.207,9.226,19.943c2.749,6.455,5.362,12.968,7.787,19.564
				c-0.048-0.188-0.099-0.374-0.146-0.562c-1.917-7.601-3.604-15.245-5.139-22.92c-1.533-7.674-2.892-15.383-3.943-23.15
				c-0.538-3.882-0.989-7.78-1.358-11.693c-0.359-3.916-0.656-7.844-0.723-11.816c-0.003-0.174,0.135-0.316,0.309-0.32
				c0.136-0.002,0.253,0.083,0.299,0.202c1.414,3.713,2.598,7.469,3.721,11.238c1.113,3.77,2.143,7.557,3.087,11.36
				c1.911,7.602,3.515,15.263,4.945,22.957c0.148,0.799,0.288,1.6,0.433,2.4c-0.043-0.746-0.092-1.492-0.133-2.238
				c-0.419-7.782-0.66-15.573-0.59-23.378c0.024-3.902,0.135-7.808,0.33-11.718c0.205-3.911,0.473-7.824,0.975-11.749
				c0.022-0.172,0.179-0.294,0.351-0.272c0.135,0.017,0.238,0.118,0.267,0.243c0.868,3.86,1.503,7.731,2.074,11.605
				c0.562,3.875,1.039,7.753,1.429,11.636c0.803,7.764,1.295,15.542,1.608,23.33c0.025,0.617,0.042,1.235,0.065,1.853
				c0.131-1.621,0.263-3.242,0.406-4.862c0.732-8.266,1.641-16.514,2.861-24.733c0.598-4.111,1.284-8.213,2.053-12.308
				c0.779-4.094,1.622-8.181,2.696-12.247c0.044-0.167,0.216-0.267,0.383-0.223c0.133,0.035,0.223,0.151,0.233,0.282
				c0.29,4.195,0.348,8.368,0.343,12.535c-0.015,4.166-0.114,8.324-0.3,12.474c-0.349,8.302-1.009,16.574-1.846,24.83
				c-0.164,1.618-0.34,3.235-0.517,4.852c0.139-0.602,0.272-1.206,0.412-1.807c1.774-7.589,3.721-15.136,5.971-22.61
				c1.114-3.74,2.313-7.459,3.593-11.158c1.29-3.697,2.642-7.38,4.221-11.007c0.069-0.159,0.254-0.232,0.413-0.163
				c0.124,0.054,0.196,0.18,0.188,0.308c-0.246,3.949-0.719,7.843-1.254,11.722c-0.544,3.877-1.17,7.734-1.882,11.571
				c-1.4,7.679-3.103,15.285-4.979,22.849c-0.18,0.725-0.368,1.448-0.551,2.173c0.293-0.758,0.58-1.518,0.876-2.275
				c2.852-7.288,5.87-14.51,9.178-21.616c1.643-3.557,3.367-7.082,5.169-10.576c1.812-3.49,3.682-6.957,5.77-10.337
				c0.091-0.148,0.285-0.193,0.432-0.102c0.116,0.071,0.169,0.206,0.142,0.332c-0.814,3.888-1.845,7.69-2.934,11.468
				c-1.099,3.775-2.276,7.518-3.534,11.229c-2.495,7.431-5.28,14.745-8.23,21.994c-2.952,7.248-6.048,14.439-9.361,21.543
				c-0.081,0.175-0.167,0.349-0.249,0.524c3.623-6.022,7.415-11.927,11.33-17.748c4.088-6.076,8.322-12.051,12.815-17.85
				c2.237-2.906,4.546-5.763,6.924-8.572c2.386-2.804,4.823-5.573,7.457-8.208c0.123-0.123,0.322-0.123,0.445,0
				c0.094,0.094,0.116,0.234,0.066,0.349c-1.497,3.412-3.192,6.688-4.937,9.93c-1.753,3.237-3.575,6.426-5.47,9.566
				c-3.77,6.293-7.798,12.409-11.973,18.426c-4.099,5.904-8.324,11.723-12.732,17.416c3.599-3.66,7.291-7.218,11.057-10.693
				c4.622-4.263,9.363-8.394,14.315-12.294c2.468-1.959,4.994-3.852,7.577-5.684c2.589-1.824,5.22-3.603,8.011-5.205
				c0.152-0.087,0.345-0.035,0.432,0.117c0.063,0.111,0.053,0.244-0.017,0.341c-1.866,2.622-3.893,5.067-5.96,7.466
				c-2.074,2.393-4.205,4.723-6.395,6.988c-4.363,4.548-8.937,8.865-13.629,13.049c-3.273,2.918-6.602,5.775-9.995,8.561
				c2.319-1.391,4.66-2.741,7.02-4.056c4.755-2.649,9.594-5.142,14.583-7.36c2.489-1.12,5.02-2.162,7.591-3.131
				c2.576-0.96,5.18-1.867,7.9-2.564c0.171-0.044,0.345,0.059,0.388,0.23c0.03,0.117-0.01,0.236-0.092,0.313
				c-2.061,1.906-4.236,3.602-6.44,5.245c-2.209,1.634-4.458,3.194-6.749,4.677c-4.57,2.987-9.291,5.699-14.095,8.256
				c-4.353,2.314-8.772,4.508-13.275,6.547c3.363-0.92,6.74-1.766,10.142-2.489c4.61-0.978,9.256-1.783,13.962-2.28
				c2.351-0.261,4.719-0.435,7.104-0.527c2.387-0.083,4.785-0.106,7.231,0.106c0.177,0.016,0.309,0.172,0.293,0.349
				c-0.01,0.113-0.079,0.208-0.172,0.258c-2.175,1.139-4.397,2.043-6.631,2.887c-2.236,0.835-4.488,1.587-6.758,2.254
				c-4.535,1.356-9.131,2.405-13.762,3.281c-3.184,0.601-6.389,1.093-9.607,1.524c2.846,0.133,5.685,0.338,8.516,0.613
				c4.492,0.439,8.964,1.054,13.402,1.98c2.22,0.451,4.431,0.99,6.633,1.612c2.201,0.631,4.395,1.324,6.563,2.254
				c0.164,0.07,0.24,0.261,0.17,0.425c-0.044,0.102-0.136,0.17-0.237,0.19c-2.318,0.439-4.61,0.64-6.895,0.781
				c-2.284,0.131-4.559,0.178-6.825,0.139c-4.534-0.056-9.033-0.423-13.513-0.966c-4.48-0.545-8.943-1.245-13.381-2.176
				c-4.434-0.952-8.854-2.036-13.213-3.668c-4.589,0.782-9.133,1.014-13.667,1.115c-4.534,0.08-9.049-0.073-13.552-0.381
				c-4.503-0.31-8.991-0.796-13.454-1.595c-2.232-0.387-4.458-0.862-6.677-1.421c-2.218-0.568-4.431-1.197-6.625-2.065
				c-0.166-0.066-0.248-0.254-0.182-0.42c0.041-0.103,0.131-0.174,0.232-0.197c2.304-0.505,4.59-0.772,6.87-0.978
				c2.279-0.196,4.552-0.309,6.818-0.334c4.533-0.074,9.042,0.163,13.536,0.578c2.778,0.257,5.551,0.583,8.318,0.977
				c-3.028-1.016-6.023-2.112-8.988-3.282c-4.383-1.731-8.7-3.627-12.898-5.812c-2.104-1.082-4.174-2.245-6.213-3.485
				c-2.035-1.25-4.047-2.556-5.969-4.083c-0.139-0.111-0.162-0.314-0.052-0.453c0.07-0.089,0.18-0.13,0.285-0.12
				c2.442,0.253,4.794,0.726,7.122,1.257c2.325,0.539,4.618,1.157,6.878,1.855c4.529,1.375,8.94,3.039,13.283,4.868
				c3.138,1.322,6.244,2.723,9.309,4.223c-3.974-2.811-7.84-5.753-11.622-8.798c-4.238-3.415-8.363-6.968-12.289-10.761
				c-1.971-1.888-3.886-3.843-5.748-5.864c-1.856-2.028-3.673-4.103-5.338-6.363c-0.104-0.142-0.074-0.342,0.068-0.446
				c0.097-0.072,0.223-0.08,0.325-0.032c2.54,1.196,4.927,2.577,7.276,4.005c2.343,1.435,4.632,2.936,6.866,4.504
				c4.482,3.118,8.766,6.477,12.937,9.973c2.07,1.736,4.115,3.502,6.13,5.305c-2.808-3.375-5.539-6.807-8.205-10.289
				c-3.821-4.993-7.5-10.094-10.929-15.382c-1.724-2.637-3.378-5.326-4.965-8.066c-1.579-2.746-3.11-5.528-4.449-8.455
				c-0.073-0.159-0.003-0.347,0.156-0.42c0.116-0.053,0.248-0.03,0.338,0.048c2.44,2.099,4.689,4.341,6.888,6.62
				c2.192,2.285,4.317,4.62,6.372,7.008c4.129,4.762,8.008,9.712,11.745,14.768c3.045,4.122,6.001,8.312,8.847,12.584
				c-3.257-6.421-6.311-12.931-9.226-19.501C154.926,336.053,152.121,329.288,149.603,322.398z"/>
			<g>
				<ellipse style="fill:#ABC5FF;" cx="282.815" cy="77.749" rx="15.885" ry="19.738"/>
				<path style="fill:#CADDFF;" d="M287.224,59.975c6.869,2.096,9.779,10.303,10.012,15.309c0.233,5.006-7.742,5.53-5.937-0.931
					C292.819,68.907,290.716,61.023,287.224,59.975z"/>
				<path style="fill:#80A2DD;" d="M285.41,58.297c-0.846-0.173-1.709-0.286-2.595-0.286c-8.773,0-15.885,8.837-15.885,19.738
					s7.112,19.738,15.885,19.738c1.907,0,3.728-0.439,5.422-1.205c0.053-1.074-0.543-2.198-2.003-3.36
					C277.478,85.955,278.851,63.006,285.41,58.297z"/>
				
					<ellipse transform="matrix(0.5475 -0.8368 0.8368 0.5475 63.4284 315.519)" style="fill:#ABC5FF;" cx="323.458" cy="99.111" rx="19.738" ry="15.884"/>
				<path style="fill:#CADDFF;" d="M337.73,89.313c2.804,7.607-6.209,24.448-12.806,23.594
					C318.327,112.053,340.214,97.695,337.73,89.313z"/>
				<path style="fill:#80A2DD;" d="M338.045,86.417c-0.985-1.504-2.236-2.813-3.78-3.824c-7.341-4.803-18.13-1.302-24.099,7.82
					c-5.523,8.441-4.971,18.727,0.958,24.023C314.296,95.88,324.877,86.663,338.045,86.417z"/>
				<path style="fill:#F28C8C;" d="M266.117,180.477c-55.095,72.719-31.445,103.11,0,107.994
					c31.445,4.884,48.552-16.325,48.552-16.325s-31.954-17.765-8.057-89.877C334.116,99.276,266.117,180.477,266.117,180.477z"/>
				<path style="fill:#C96D6D;" d="M237.194,230.83c31.514,0.221,53.74-15.37,62.725-23.012c0.248-1.347,0.516-2.715,0.813-4.115
					h-50.474C244.22,213.74,239.96,222.76,237.194,230.83z"/>
				<g>
					
						<ellipse transform="matrix(0.9207 -0.3902 0.3902 0.9207 -126.9373 105.5011)" style="fill:#F28C8C;" cx="196.217" cy="365.2" rx="33.941" ry="45.934"/>
					<path style="fill:#C96D6D;" d="M214.139,407.494c-17.259,7.314-39.275-5.693-49.173-29.051
						c-2.129-5.024-3.52-10.117-4.226-15.091c48.816,16.044,88.406,6.045,42.518-38.715c0.091,0.046,0.182,0.09,0.273,0.136
						l7.208,4.676c6.804,5.397,12.748,13.113,16.729,22.508C237.366,375.316,231.399,400.18,214.139,407.494z"/>
					<path style="fill:#F28C8C;" d="M157.281,406.771c12.199,12.198,34.674,13.36,45.135,2.9c10.46-10.46,4.944-28.581-7.255-40.779
						c-12.198-12.199-30.567-13.608-41.027-3.147C143.674,376.204,145.083,394.572,157.281,406.771z"/>
					<g>
						<path style="fill:#C96D6D;" d="M157.999,406.053c5.527,5.116,12.86,8.052,20.252,8.689c3.696,0.322,7.433,0.114,10.965-0.734
							c3.523-0.85,6.863-2.291,9.583-4.419c2.733-2.115,4.712-4.951,5.724-8.159c0.997-3.217,1.107-6.779,0.46-10.287
							c-0.65-3.509-1.933-6.972-3.644-10.229c-1.732-3.249-3.853-6.328-6.292-9.147c-2.439-2.819-5.199-5.267-8.37-7.195
							c-3.154-1.921-6.64-3.34-10.287-4.054c-3.641-0.718-7.44-0.737-11.078,0.088c-3.635,0.822-7.074,2.545-9.906,5.018
							c-2.84,2.469-5.012,5.699-6.326,9.263c-1.333,3.567-1.708,7.475-1.32,11.272C148.594,393.801,152.544,400.852,157.999,406.053
							z M156.564,407.489c-5.496-5.799-9.072-13.36-9.752-21.239c-0.361-3.926-0.024-7.945,1.223-11.726
							c1.244-3.778,3.449-7.247,6.352-10.013c2.89-2.788,6.521-4.802,10.406-5.918c3.888-1.132,8.027-1.365,12.051-0.82
							c8.086,1.056,15.633,5.316,21.22,11.214c2.82,2.9,5.321,6.138,7.34,9.697c2.027,3.547,3.632,7.405,4.439,11.536
							c0.805,4.103,0.872,8.549-0.496,12.755c-0.638,2.108-1.706,4.082-2.969,5.892c-0.662,0.88-1.437,1.668-2.159,2.493
							c-0.814,0.724-1.648,1.429-2.487,2.115c-3.517,2.547-7.584,4.04-11.664,4.738c-4.092,0.717-8.238,0.621-12.245-0.021
							C169.842,416.855,162.159,413.331,156.564,407.489z"/>
					</g>
					<path style="fill:#FFDBB3;" d="M165.68,400.914c7.051,7.051,20.044,7.723,26.09,1.676c6.047-6.047,2.858-16.521-4.194-23.573
						c-7.051-7.051-17.669-7.866-23.716-1.819C157.814,383.245,158.629,393.863,165.68,400.914z"/>
					<path style="fill:#FFA9A9;" d="M174.021,330.96c0.189,3.907,6.101,6.796,13.204,6.452c7.104-0.344,12.71-3.789,12.521-7.696
						c-0.189-3.907-6.101-6.796-13.205-6.452C179.438,323.607,173.832,327.053,174.021,330.96z"/>
				</g>
				<path style="fill:#F28C8C;" d="M297.142,405.466c80.174-10.299,101.809-59.856,86.113-107.831
					c-15.696-47.975-13.999-75.788,20.787-85.425c0,0-23.486-17.067-46.05,14.757c-19.272,27.18,12.961,84.645-13.552,98.742
					C317.925,339.807,297.142,405.466,297.142,405.466z"/>
				<path style="fill:#C96D6D;" d="M301.766,404.812c0.775-0.117,1.548-0.236,2.311-0.362c0.437-0.072,0.869-0.147,1.303-0.221
					c0.692-0.118,1.381-0.238,2.063-0.363c0.448-0.082,0.893-0.165,1.336-0.25c0.663-0.126,1.321-0.255,1.975-0.387
					c0.437-0.088,0.874-0.177,1.307-0.268c0.661-0.139,1.315-0.282,1.967-0.426c0.408-0.091,0.818-0.18,1.222-0.273
					c0.703-0.162,1.397-0.329,2.088-0.498c0.338-0.082,0.68-0.162,1.016-0.246c0.991-0.249,1.972-0.503,2.94-0.766
					c0.028-0.008,0.058-0.015,0.086-0.023c0.996-0.271,1.977-0.551,2.948-0.837c0.315-0.093,0.622-0.189,0.934-0.283
					c0.654-0.197,1.305-0.396,1.948-0.6c0.365-0.116,0.725-0.235,1.086-0.353c0.581-0.19,1.159-0.381,1.731-0.576
					c0.374-0.128,0.744-0.257,1.114-0.387c0.553-0.194,1.102-0.391,1.646-0.591c0.365-0.134,0.729-0.268,1.089-0.404
					c0.548-0.207,1.091-0.417,1.63-0.629c0.339-0.133,0.68-0.266,1.015-0.401c0.578-0.233,1.148-0.471,1.716-0.711
					c0.284-0.12,0.572-0.237,0.853-0.358c0.801-0.345,1.591-0.695,2.371-1.052c0.039-0.018,0.08-0.035,0.12-0.053
					c0.818-0.376,1.622-0.759,2.416-1.147c0.259-0.127,0.512-0.257,0.77-0.386c0.531-0.265,1.061-0.531,1.581-0.802
					c0.301-0.157,0.598-0.316,0.896-0.475c0.468-0.249,0.934-0.5,1.393-0.754c0.306-0.169,0.609-0.34,0.911-0.512
					c0.445-0.252,0.885-0.507,1.322-0.763c0.297-0.174,0.592-0.349,0.885-0.526c0.439-0.264,0.871-0.532,1.301-0.8
					c0.275-0.172,0.552-0.343,0.824-0.517c0.458-0.292,0.907-0.589,1.354-0.887c0.233-0.155,0.469-0.307,0.699-0.464
					c0.616-0.418,1.223-0.841,1.821-1.269c0.052-0.037,0.106-0.073,0.158-0.11c0.646-0.465,1.28-0.936,1.903-1.412
					c0.208-0.159,0.41-0.321,0.616-0.481c0.414-0.322,0.826-0.644,1.23-0.971c0.238-0.192,0.471-0.387,0.705-0.581
					c0.363-0.301,0.725-0.602,1.08-0.907c0.24-0.205,0.476-0.412,0.712-0.619c0.342-0.3,0.68-0.602,1.014-0.906
					c0.232-0.211,0.463-0.422,0.691-0.635c0.333-0.31,0.66-0.623,0.985-0.937c0.215-0.208,0.432-0.415,0.643-0.625
					c0.342-0.339,0.677-0.68,1.01-1.023c0.183-0.188,0.37-0.375,0.55-0.564c0.44-0.462,0.87-0.929,1.294-1.398
					c0.065-0.072,0.133-0.142,0.197-0.214c0.482-0.538,0.952-1.081,1.413-1.628c0.16-0.19,0.313-0.382,0.471-0.573
					c0.3-0.364,0.599-0.728,0.889-1.095c0.18-0.227,0.355-0.457,0.531-0.685c0.26-0.337,0.519-0.675,0.771-1.016
					c0.179-0.241,0.354-0.482,0.529-0.724c0.242-0.335,0.48-0.67,0.715-1.008c0.171-0.245,0.34-0.492,0.507-0.739
					c0.232-0.344,0.459-0.689,0.685-1.036c0.157-0.241,0.315-0.482,0.468-0.725c0.235-0.372,0.463-0.747,0.69-1.122
					c0.132-0.219,0.268-0.437,0.398-0.657c0.292-0.496,0.574-0.994,0.852-1.495c0.057-0.102,0.117-0.202,0.173-0.304
					c0.326-0.596,0.641-1.196,0.948-1.799c0.111-0.219,0.216-0.44,0.325-0.66c0.195-0.395,0.39-0.79,0.577-1.188
					c0.119-0.254,0.234-0.51,0.35-0.765c0.167-0.367,0.332-0.734,0.492-1.103c0.116-0.269,0.23-0.539,0.343-0.81
					c0.151-0.361,0.299-0.724,0.443-1.087c0.108-0.273,0.215-0.546,0.32-0.82c0.141-0.369,0.277-0.74,0.411-1.111
					c0.097-0.269,0.196-0.539,0.29-0.809c0.137-0.394,0.267-0.789,0.396-1.185c0.081-0.248,0.165-0.495,0.243-0.744
					c0.16-0.509,0.311-1.021,0.459-1.534c0.039-0.137,0.083-0.272,0.121-0.41c0.18-0.64,0.35-1.283,0.511-1.928
					c0.06-0.241,0.115-0.484,0.172-0.726c0.1-0.417,0.199-0.833,0.29-1.252c0.061-0.279,0.118-0.559,0.176-0.839
					c0.079-0.384,0.158-0.769,0.231-1.155c0.056-0.294,0.108-0.588,0.16-0.882c0.067-0.378,0.13-0.756,0.191-1.135
					c0.047-0.296,0.094-0.592,0.137-0.889c0.057-0.384,0.109-0.77,0.159-1.155c0.038-0.292,0.077-0.585,0.112-0.878
					c0.048-0.403,0.089-0.807,0.13-1.211c0.028-0.276,0.059-0.551,0.084-0.827c0.046-0.502,0.083-1.006,0.118-1.511
					c0.012-0.178,0.029-0.355,0.04-0.533c0.042-0.667,0.074-1.336,0.099-2.007c0.01-0.267,0.014-0.535,0.021-0.802
					c0.011-0.421,0.023-0.843,0.027-1.265c0.003-0.299,0.002-0.599,0.001-0.899c0-0.393-0.001-0.785-0.008-1.178
					c-0.005-0.312-0.013-0.624-0.021-0.936c-0.01-0.385-0.023-0.771-0.039-1.157c-0.013-0.314-0.027-0.627-0.043-0.941
					c-0.021-0.392-0.045-0.784-0.072-1.176c-0.02-0.307-0.04-0.614-0.064-0.921c-0.032-0.412-0.07-0.825-0.108-1.237
					c-0.027-0.289-0.051-0.577-0.08-0.865c-0.051-0.5-0.11-1.001-0.17-1.503c-0.024-0.2-0.044-0.4-0.069-0.6c0,0,0,0,0-0.001
					c-12.841,8.517-24.759,5.523-32.369-7.011c-0.912,6.558-3.245,11.981-8.045,15.571c-0.034,0.026-0.066,0.053-0.1,0.079
					c-0.288,0.212-0.589,0.413-0.894,0.612c-0.09,0.059-0.173,0.122-0.265,0.179c-0.395,0.248-0.804,0.486-1.229,0.712
					c-26.514,14.097-47.297,79.756-47.297,79.756c1.181-0.152,2.347-0.314,3.503-0.482
					C301.022,404.929,301.392,404.869,301.766,404.812z"/>
				<path style="fill:#F28C8C;" d="M353.296,343.363c0,43.722-35.444,64.18-79.166,64.18s-79.166-20.458-79.166-64.18
					s35.444-90.23,79.166-90.23S353.296,299.641,353.296,343.363z"/>
				<path style="fill:#C96D6D;" d="M287.821,310.121l-66.484,83.92c14.009,9.089,32.506,13.502,52.792,13.502
					c42.749,0,77.563-19.571,79.093-61.308C342.249,356.253,316.874,368.669,287.821,310.121z"/>
				<path style="fill:#FFDBB3;" d="M285.997,291.356c-23.327-31.626-3.182-80.821-3.182-80.821l-29.407,2.226
					c0,0-29.583,28.427-4.761,83.679C273.47,351.691,285.997,291.356,285.997,291.356z"/>
				<path style="fill:#DD9B9B;" d="M242.79,230.701c14.489-0.763,26.808-4.795,36.534-9.521c1.821-6.562,3.491-10.645,3.491-10.645
					l-29.407,2.226C253.409,212.761,247.135,218.796,242.79,230.701z"/>
				<path style="fill:#FFDBB3;" d="M310.4,350.58c0,36.417-25.084,53.456-56.026,53.456s-56.026-17.04-56.026-53.456
					c0-36.417,25.084-75.154,56.026-75.154S310.4,314.163,310.4,350.58z"/>
				<g>
					<ellipse style="fill:#C96D6D;" cx="206.16" cy="135.568" rx="25.754" ry="30.467"/>
					<path style="fill:#F28C8C;" d="M351.579,159.944c0,38.525-36.941,56.551-82.51,56.551s-82.51-18.026-82.51-56.551
						c0-38.525,36.941-79.504,82.51-79.504S351.579,121.419,351.579,159.944z"/>
					<path style="fill:#F28C8C;" d="M290.867,183.334c0,29.725-28.018,43.633-62.579,43.633s-62.579-13.908-62.579-43.633
						c0-29.725,28.018-61.344,62.579-61.344S290.867,153.609,290.867,183.334z"/>
					<g>
						<ellipse style="fill:#FFFFFF;" cx="277.624" cy="143.052" rx="27.397" ry="32.713"/>
						<path style="fill:#DAE8EF;" d="M250.278,144.257c0.535,17.504,12.556,31.509,27.346,31.509
							c15.131,0,27.397-14.646,27.397-32.713c0-1.24-0.07-2.46-0.182-3.664C293.337,153.413,271.184,172.308,250.278,144.257z"/>
						<ellipse style="fill:#293642;" cx="275.741" cy="144.596" rx="23.234" ry="28.847"/>
						<path style="fill:#FFB64D;" d="M291.205,151.647c-0.054,1.484-0.306,2.971-0.722,4.44c-0.452,1.451-1.064,2.883-1.877,4.232
							c-1.654,2.651-4.094,5.084-7.31,6.37c-1.59,0.649-3.331,1.011-5.086,1.027c-0.878-0.01-1.761-0.04-2.623-0.232
							c-0.879-0.117-1.706-0.41-2.543-0.681c-3.27-1.274-5.957-3.585-7.869-6.253c-3.824-5.398-5.038-12.072-4.087-18.195
							c0.464-3.073,1.475-6.061,3.08-8.675c1.567-2.613,3.718-4.906,6.315-6.3c-3.872,4.418-5.383,9.981-5.444,15.311
							c-0.065,5.352,1.493,10.652,4.497,14.621c1.496,1.978,3.418,3.507,5.506,4.403c1.054,0.423,2.15,0.699,3.283,0.787
							c1.131,0.083,2.281-0.023,3.422-0.306c2.299-0.548,4.489-1.96,6.44-3.78c0.953-0.938,1.855-1.978,2.692-3.111
							C289.726,154.174,290.453,152.936,291.205,151.647z"/>
						<path style="fill:#FFFFFF;" d="M298.721,130.27c1.368,7.904-2.427,15.16-8.477,16.208c-6.05,1.048-12.064-4.511-13.433-12.414
							c-1.368-7.904,2.427-15.16,8.477-16.208C291.339,116.808,297.353,122.366,298.721,130.27z"/>
					</g>
					<path style="fill:#AF5B5B;" d="M173.132,201.843c51.014,43.348,85.648-6.079,85.648-6.079s17.349,2.79,31.975-9.222
						l2.115,4.728c0,0-12.511,10.22-31.366,9.868c0,0-18.326,22.776-41.586,22.511C196.657,223.385,184.102,215.455,173.132,201.843
						z"/>
					<path style="fill:#AF5B5B;" d="M285.997,184.309l10.397,13.304C296.394,197.613,301.68,182.635,285.997,184.309z"/>
					<path style="fill:#C96D6D;" d="M243.177,127.38c13.745-31.794,42.556-28.622,52.864-20.957c0,0-9.516-14.273-30.529-10.969
						C244.499,98.758,243.177,127.38,243.177,127.38z"/>
					<path style="fill:#723838;" d="M185.913,171.183c0.956,5.522-0.735,10.425-3.777,10.951c-3.042,0.527-6.283-3.523-7.239-9.044
						c-0.956-5.522,0.735-10.425,3.777-10.951C181.716,161.612,184.957,165.661,185.913,171.183z"/>
					<path style="fill:#723838;" d="M220.573,171.183c-0.956,5.522,0.735,10.425,3.777,10.951c3.042,0.527,6.283-3.523,7.239-9.044
						c0.956-5.522-0.735-10.425-3.777-10.951C224.77,161.612,221.529,165.661,220.573,171.183z"/>
					<path style="fill:#FFA9A9;" d="M221.503,150.476c0,4.817-7.1,8.723-15.859,8.723c-8.759,0-15.859-3.905-15.859-8.723
						c0-4.817,7.1-8.722,15.859-8.722C214.403,141.754,221.503,145.659,221.503,150.476z"/>
				</g>
				<g>
					
						<ellipse transform="matrix(0.3902 -0.9207 0.9207 0.3902 -125.6186 540.7377)" style="fill:#F28C8C;" cx="345.403" cy="365.2" rx="45.934" ry="33.941"/>
					<path style="fill:#C96D6D;" d="M327.481,407.494c17.259,7.314,39.275-5.693,49.173-29.051
						c2.129-5.024,3.52-10.117,4.226-15.091c-48.816,16.044-88.406,6.045-42.519-38.715c-0.091,0.046-0.182,0.09-0.273,0.136
						l-7.208,4.676c-6.804,5.397-12.748,13.113-16.729,22.508C304.254,375.316,310.221,400.18,327.481,407.494z"/>
					<path style="fill:#F28C8C;" d="M384.338,406.771c-12.198,12.198-34.674,13.36-45.135,2.9
						c-10.46-10.46-4.944-28.581,7.255-40.779c12.198-12.199,30.567-13.608,41.027-3.147
						C397.946,376.204,396.537,394.572,384.338,406.771z"/>
					<g>
						<path style="fill:#C96D6D;" d="M385.056,407.489c-5.596,5.842-13.278,9.366-21.258,10.703
							c-4.007,0.642-8.152,0.738-12.245,0.021c-4.081-0.698-8.147-2.191-11.664-4.738c-0.84-0.686-1.673-1.391-2.487-2.115
							c-0.722-0.826-1.497-1.613-2.159-2.493c-1.263-1.811-2.331-3.785-2.969-5.892c-1.368-4.206-1.301-8.652-0.496-12.755
							c0.806-4.131,2.412-7.99,4.439-11.536c2.019-3.559,4.52-6.796,7.34-9.697c5.587-5.898,13.134-10.157,21.22-11.214
							c4.025-0.545,8.164-0.312,12.051,0.82c3.885,1.116,7.515,3.13,10.406,5.918c2.903,2.766,5.108,6.235,6.352,10.013
							c1.247,3.781,1.583,7.8,1.223,11.726C394.128,394.129,390.552,401.69,385.056,407.489z M383.62,406.053
							c5.456-5.2,9.406-12.251,10.241-19.895c0.388-3.797,0.013-7.705-1.32-11.272c-1.314-3.564-3.486-6.794-6.326-9.263
							c-2.833-2.473-6.271-4.195-9.906-5.018c-3.638-0.825-7.437-0.806-11.078-0.088c-3.647,0.715-7.133,2.133-10.287,4.054
							c-3.171,1.928-5.932,4.376-8.37,7.195c-2.44,2.818-4.56,5.897-6.292,9.147c-1.711,3.257-2.993,6.719-3.644,10.229
							c-0.648,3.509-0.537,7.07,0.46,10.287c1.011,3.208,2.99,6.045,5.724,8.159c2.721,2.128,6.06,3.569,9.583,4.419
							c3.532,0.849,7.269,1.056,10.965,0.734C370.76,414.105,378.093,411.169,383.62,406.053z"/>
					</g>
					<path style="fill:#FFDBB3;" d="M375.94,400.914c-7.052,7.051-20.044,7.723-26.09,1.676c-6.047-6.047-2.858-16.521,4.194-23.573
						c7.051-7.051,17.669-7.866,23.716-1.819C383.806,383.245,382.991,393.863,375.94,400.914z"/>
					<path style="fill:#FFA9A9;" d="M367.599,330.96c-0.189,3.907-6.101,6.796-13.204,6.452c-7.104-0.344-12.709-3.789-12.521-7.696
						c0.189-3.907,6.101-6.796,13.205-6.452C362.182,323.607,367.788,327.053,367.599,330.96z"/>
				</g>
				<g>
					<g>
						<path style="fill:#F28C8C;" d="M297.941,284.926l8.093,72.794c0,0-28.374,23.711-32.057,58.387c0,0,29.513,7.901,47.832,0
							l25.015-58.387l-23.365-77.99c-1.799-6.005-7.607-9.888-13.844-9.255l0,0C302.382,271.209,297.138,277.701,297.941,284.926z"
							/>
						<path style="fill:#FFB64D;" d="M284.613,400.342c-3.798-0.486-7.8,6.342-8.94,15.25c-0.039,0.306-0.065,0.605-0.096,0.908
							c2.434,0.571,7.45,1.642,13.621,2.369c0.084-0.499,0.162-1.003,0.227-1.517C290.565,408.444,288.41,400.828,284.613,400.342z"
							/>
						<path style="fill:#FFB64D;" d="M298.293,401.749c-3.819-0.271-7.43,6.771-8.066,15.73c-0.036,0.504-0.058,1.001-0.074,1.495
							c4.264,0.468,9.013,0.753,13.801,0.595c0.037-0.368,0.076-0.734,0.103-1.109C304.693,409.503,302.112,402.021,298.293,401.749
							z"/>
						<path style="fill:#FFB64D;" d="M320.333,416.693c-0.588-7.582-3.412-13.336-6.814-13.336c-3.803,0-6.887,7.186-6.928,16.084
							C311.376,419.111,316.106,418.279,320.333,416.693z"/>
						<polygon style="fill:#C96D6D;" points="346.823,357.72 326.931,291.321 350.592,354.818 						"/>
						<polygon style="fill:#C96D6D;" points="346.823,357.72 321.808,416.107 350.592,354.818 						"/>
					</g>
					<path style="fill:#FFA9A9;" d="M317.503,357.72c0,0,8.153-3.213,16.825-2.901C334.328,354.818,326.845,349.394,317.503,357.72z
						"/>
					<path style="fill:#FFA9A9;" d="M325.357,350.868c0,0,10.533-0.056,16.219,4.533
						C341.576,355.401,338.44,346.756,325.357,350.868z"/>
					<path style="fill:#FFA9A9;" d="M304.294,272.22c9.549-4.267,17.246,1.108,19.164,7.509
						C323.458,279.729,312.091,271.403,304.294,272.22z"/>
				</g>
				<g>
					<g>
						<path style="fill:#F28C8C;" d="M230.514,284.926l-8.093,72.794c0,0,28.374,23.711,32.057,58.387c0,0-29.513,7.901-47.831,0
							l-25.016-58.387l23.365-77.99c1.799-6.005,7.607-9.888,13.844-9.255l0,0C226.072,271.209,231.317,277.701,230.514,284.926z"/>
						<path style="fill:#FFB64D;" d="M243.842,400.342c3.798-0.486,7.8,6.342,8.94,15.25c0.039,0.306,0.065,0.605,0.096,0.908
							c-2.434,0.571-7.45,1.642-13.621,2.369c-0.084-0.499-0.162-1.003-0.227-1.517C237.89,408.444,240.044,400.828,243.842,400.342
							z"/>
						<path style="fill:#FFB64D;" d="M230.161,401.749c3.819-0.271,7.43,6.771,8.066,15.73c0.036,0.504,0.058,1.001,0.074,1.495
							c-4.265,0.468-9.013,0.753-13.801,0.595c-0.037-0.368-0.076-0.734-0.103-1.109
							C223.762,409.503,226.342,402.021,230.161,401.749z"/>
						<path style="fill:#FFB64D;" d="M208.121,416.693c0.588-7.582,3.412-13.336,6.814-13.336c3.803,0,6.887,7.186,6.928,16.084
							C217.079,419.111,212.348,418.279,208.121,416.693z"/>
						<polygon style="fill:#C96D6D;" points="181.631,357.72 201.524,291.321 177.863,354.818 						"/>
						<polygon style="fill:#C96D6D;" points="181.631,357.72 206.647,416.107 177.863,354.818 						"/>
					</g>
					<path style="fill:#FFA9A9;" d="M210.952,357.72c0,0-8.153-3.213-16.825-2.901C194.126,354.818,201.609,349.394,210.952,357.72z
						"/>
					<path style="fill:#FFA9A9;" d="M203.098,350.868c0,0-10.533-0.056-16.219,4.533
						C186.879,355.401,190.014,346.756,203.098,350.868z"/>
				</g>
				<path style="fill:#ABC5FF;" d="M250.966,81.104c4.709,9.831-2.158,11.958-10.07,15.748c-7.912,3.79-13.873,7.808-18.582-2.024
					c-4.709-9.831-2.113-20.873,5.799-24.663C236.025,66.375,246.257,71.273,250.966,81.104z"/>
				<path style="fill:#CADDFF;" d="M224.571,76.313c7.196-7.7,19.519,0.66,21.149,13c0,0,4.599-0.291,4.948-5.239
					c0,0-5.184-11.136-13.602-13.311C227.753,68.357,224.571,76.313,224.571,76.313z"/>
				<path style="fill:#80A2DD;" d="M250.668,91.239c-23.924,11.822-23.866-11.938-23.866-11.938c-1.68,5.365-5.861,8.964-6.81,4.582
					c-0.151,3.531,0.585,7.32,2.322,10.946c4.709,9.831,10.67,5.813,18.582,2.024C244.855,94.956,248.552,93.476,250.668,91.239
					L250.668,91.239z"/>
				<path style="fill:#ABC5FF;" d="M388.793,205.824c2.235,4.667-1.024,5.676-4.78,7.475c-3.756,1.799-6.585,3.706-8.82-0.961
					c-2.235-4.667-1.003-9.908,2.753-11.707S386.558,201.157,388.793,205.824z"/>
				<path style="fill:#CADDFF;" d="M385.811,210.621c3.649-1.505,2.328-6.558-1.785-8.382
					C384.026,202.239,386.703,206.314,385.811,210.621z"/>
				<path style="fill:#80A2DD;" d="M384.754,201.251c-2.168-1.326-4.666-1.646-6.808-0.62c-3.755,1.799-4.988,7.04-2.753,11.707
					c1.852,3.867,4.115,3.218,6.973,1.859c-1.224-2.533-2.882-6.111-3.379-7.883C378.041,203.65,379.164,200.713,384.754,201.251z"
					/>
				<path style="fill:#ABC5FF;" d="M369.087,220.088c4.321,2.846,2.049,5.391-0.241,8.869c-2.29,3.478-3.731,6.571-8.053,3.725
					c-4.322-2.846-5.968-7.972-3.678-11.45C359.405,217.754,364.765,217.242,369.087,220.088z"/>
				<path style="fill:#CADDFF;" d="M358.239,220.808c2.969-2.648,6.665-2.183,9.168-0.669c2.503,1.513,1.892,4.686-0.582,3.376
					C364.351,222.205,362.168,219.644,358.239,220.808z"/>
				<path style="fill:#80A2DD;" d="M369.748,227.608c-4.528-4.169-10.787-4.832-12.424-6.652c-0.069,0.093-0.144,0.179-0.208,0.277
					c-2.29,3.478-0.644,8.604,3.678,11.45c4.322,2.846,5.763-0.247,8.053-3.725C369.152,228.491,369.457,228.043,369.748,227.608z"
					/>
				<path style="fill:#ABC5FF;" d="M358.972,242.806c7.087,0.347,6.179,4.937,5.9,10.641c-0.279,5.704,0.176,10.36-6.911,10.014
					c-7.087-0.347-12.606-5.252-12.327-10.955C345.913,246.802,351.885,242.459,358.972,242.806z"/>
				<path style="fill:#CADDFF;" d="M346.423,251.135c2.173-5.161,8.304-7.451,13.621-7.451c5.317,0,3.26,4.385-1.358,3.725
					C354.067,246.75,348.518,248.38,346.423,251.135z"/>
				<path style="fill:#80A2DD;" d="M345.643,253.173c0.164,5.413,5.51,9.955,12.318,10.288c7.087,0.347,6.632-4.31,6.911-10.014
					c0.073-1.483,0.185-2.888,0.191-4.166C359.501,248.069,349.021,254.724,345.643,253.173z"/>
			</g>
			<path style="fill:#8BA53A;" d="M60.227,441.989h117.158c0,0-17.102-31.012-45.243-18.846
				C132.142,423.144,84.907,381.146,60.227,441.989z"/>
			<path style="fill:#8BA53A;" d="M345.126,441.989h144.647c0,0-14.281-45.331-49.362-45.331c-31.07,0-40.669,26.485-40.669,26.485
				s-16.764-8.404-28.872,7.857C370.871,431.001,354.736,418.497,345.126,441.989z"/>
		</g>
	</g>
</g>
</svg>
