<?xml version="1.0" encoding="utf-8"?>
<!-- Generator: Adobe Illustrator 27.5.0, SVG Export Plug-In . SVG Version: 6.00 Build 0)  -->
<svg version="1.1" xmlns="http://www.w3.org/2000/svg" xmlns:xlink="http://www.w3.org/1999/xlink" x="0px" y="0px"
	 viewBox="0 0 500 500" style="enable-background:new 0 0 500 500;" xml:space="preserve">
<g id="BACKGROUND">
	<g>
		<rect style="fill:#FFFFFF;" width="500" height="500"/>
	</g>
</g>
<g id="OBJECTS">
	<g style="opacity:0.58;">
		<g>
			<g style="opacity:0.3;">
				<path style="fill:#1190A5;" d="M399.113,281.28c-20.797-32.401,2.974-219.004-143.681-202.88
					c-96.714,10.633-85.618,100.29-145.055,104.675c-51.891,3.828-80.234,61.567-75.425,125.227
					c6.689,88.538,93.839,114.34,146.644,114.427s70.238-19.643,82.477-28.592c24.339-17.798,61.884-18.063,89.622-4.085
					c23.884,12.036,52.817,13.309,78.312,5.229c22.263-7.056,44.34-27.829,43.545-51.17
					C473.823,293.367,421.846,316.698,399.113,281.28z"/>
			</g>
			<path style="opacity:0.3;fill:#1190A5;" d="M159.231,111.57c3.949,10.548-41.062,50.901-55.048,45.208
				s-3.184-33.629,11.313-41.586S153.856,97.214,159.231,111.57z"/>
			<path style="opacity:0.3;fill:#1190A5;" d="M344.551,417.696c-2.434,10.997-62.162,20.318-70.79,7.926
				c-8.627-12.392,15.648-29.936,32.14-28.712S347.863,402.728,344.551,417.696z"/>
			<path style="opacity:0.3;fill:#1190A5;" d="M165.086,85.056c4.018-5.417,17.527-5.979,18.89,0
				c1.363,5.979-4.923,15.257-11.208,16.031C166.482,101.86,160.197,91.647,165.086,85.056z"/>
			<path style="opacity:0.3;fill:#1190A5;" d="M241.366,425.621c4.018-5.417,17.527-5.979,18.89,0s-4.923,15.257-11.208,16.031
				S236.477,432.213,241.366,425.621z"/>
			<path style="opacity:0.3;fill:#1190A5;" d="M141.123,88.179c-5.53,8.834-20.182,2.598-15.22-7.399
				C130.865,70.782,148.195,76.881,141.123,88.179z"/>
			<path style="opacity:0.3;fill:#1190A5;" d="M371.552,426.84c-5.53,8.834-20.182,2.598-15.22-7.399
				C361.294,409.443,378.624,415.542,371.552,426.84z"/>
			<path style="opacity:0.3;fill:#1190A5;" d="M73.703,152.61c4.16-1.015,15.709,6.761,12.325,11.718s-24.409,16.928-31.659,12.393
				C47.119,172.185,63.794,155.026,73.703,152.61z"/>
			<path style="opacity:0.3;fill:#1190A5;" d="M407.834,266.978c4.442,13.997,34.091,22.421,47.108,16.039
				c13.017-6.381,1.938-71.118-26.708-65.572C399.588,222.992,405.147,258.513,407.834,266.978z"/>
			<path style="opacity:0.3;fill:#1190A5;" d="M415.203,205.782c1.689,1.404,13.053,1.993,15.311-2.524s-5.826-17.58-11.787-14.437
				C412.767,191.964,410.863,202.175,415.203,205.782z"/>
			<path style="opacity:0.3;fill:#1190A5;" d="M265.468,440.158c1.558-2.397,7.673-4.859,9.463-3.325
				c1.79,1.535,9.616,7.417,7.11,10.997C279.534,451.411,262.143,445.273,265.468,440.158z"/>
			<circle style="opacity:0.3;fill:#1190A5;" cx="294.061" cy="441.652" r="2.957"/>
			<path style="opacity:0.3;fill:#1190A5;" d="M448.598,207.591c0,3.012-1.368,5.454-4.38,5.454s-5.454-2.442-5.454-5.454
				s2.442-5.454,5.454-5.454S448.598,204.579,448.598,207.591z"/>
		</g>
		<path style="opacity:0.3;fill:#1190A5;" d="M112.171,347.398c23.981-21.066,98.7-35.307,177.784-27.497
			s109.212,11.769,122.005,25.126c12.793,13.357-116.939,37.896-196.24,35.267S75.665,379.467,112.171,347.398z"/>
	</g>
	<g style="opacity:0.7;">
		
			<path style="fill:none;stroke:#1190A5;stroke-width:1.1841;stroke-linecap:round;stroke-linejoin:round;stroke-miterlimit:10;" d="
			M335.251,75.435c-33.438,36.773,17.615,141.224-22.091,196.519"/>
		<path style="fill:#1190A5;" d="M327.734,233.493c-8.886,1.179-24.285-5.943-20.55-12.511c4.119-7.244,16.885,3.092,20.893,10.504
			c5.235-6.878,20.361-17.223,25.829-7.707C358.598,231.942,338.637,237.22,327.734,233.493z"/>
		<path style="fill:#1190A5;" d="M328.818,211.01c-7.719,1.85-21.93-3.017-19.241-9.142c2.966-6.756,15.154,1.182,19.36,7.344
			c3.983-6.536,16.36-17.027,22.045-9.146C355.859,206.827,338.76,213.297,328.818,211.01z"/>
		<path style="fill:#1190A5;" d="M322.38,254.947c-8.875,2.808-30.349-5.23-22.649-14.748c5.888-7.278,17.009,5.648,23.102,12.506
			c8.571-4.223,24.254-16.123,30.07-5.252C357.894,256.779,333.433,261.756,322.38,254.947z"/>
		<path style="fill:#1190A5;" d="M314.666,235.574c3.053-3.115,9.499,2.227,10.548,8.465c0,0,5.189-11.203,12.207-7.313
			c6.425,3.562-3.071,9.917-12.492,8.342C315.509,243.494,311.866,238.431,314.666,235.574z"/>
		<path style="fill:#1190A5;" d="M318.845,214.686c2.211-2.893,8.099,0.874,9.606,5.936c0,0,3.155-9.814,9.368-7.308
			c5.688,2.295-1.531,8.532-9.498,8.19C320.353,221.162,316.817,217.339,318.845,214.686z"/>
		<path style="fill:#1190A5;" d="M328.067,187.749c-7.719,1.85-21.93-3.017-19.241-9.142c2.966-6.756,15.154,1.182,19.36,7.344
			c3.983-6.536,16.36-17.027,22.045-9.146C355.108,183.566,338.01,190.037,328.067,187.749z"/>
		<path style="fill:#1190A5;" d="M319.123,192.747c2.211-2.893,8.099,0.874,9.606,5.936c0,0,3.155-9.814,9.368-7.308
			c5.688,2.295-1.531,8.532-9.498,8.19C320.631,199.223,317.095,195.4,319.123,192.747z"/>
		<path style="fill:#1190A5;" d="M326.552,165.304c-7.186,1.722-20.417-2.809-17.913-8.511c2.762-6.29,14.108,1.1,18.024,6.837
			c3.708-6.084,15.23-15.852,20.523-8.514C351.727,161.41,335.808,167.434,326.552,165.304z"/>
		<path style="fill:#1190A5;" d="M317.501,170.266c2.211-2.893,8.099,0.874,9.606,5.936c0,0,3.155-9.814,9.368-7.308
			c5.688,2.295-1.531,8.532-9.498,8.19C319.009,176.742,315.474,172.919,317.501,170.266z"/>
		<path style="fill:#1190A5;" d="M324.399,142.412c-6.444,1.544-18.31-2.519-16.065-7.633c2.477-5.641,12.652,0.987,16.164,6.131
			c3.325-5.457,13.659-14.216,18.406-7.636C346.976,138.919,332.7,144.322,324.399,142.412z"/>
		<path style="fill:#1190A5;" d="M316.282,146.862c1.983-2.595,7.263,0.784,8.615,5.324c0,0,2.829-8.801,8.401-6.554
			c5.101,2.058-1.373,7.652-8.518,7.345S314.464,149.241,316.282,146.862z"/>
		<path style="fill:#1190A5;" d="M322.667,119.882c-5.333,1.278-15.153-2.085-13.295-6.317c2.049-4.668,10.47,0.816,13.377,5.074
			c2.752-4.516,11.303-11.765,15.232-6.319C341.35,116.992,329.536,121.463,322.667,119.882z"/>
		<path style="fill:#1190A5;" d="M315.583,124.824c1.641-2.147,6.011,0.649,7.129,4.405c0,0,2.342-7.283,6.952-5.423
			c4.222,1.703-1.136,6.332-7.049,6.078S314.078,126.793,315.583,124.824z"/>
		<path style="fill:#1190A5;" d="M324.895,96.996c-4.612-0.18-11.802-5.142-9.332-8.148c2.724-3.315,8.297,3.048,9.682,7.16
			c3.259-3.032,11.84-6.956,13.781-1.649C340.691,98.912,330.101,99.842,324.895,96.996z"/>
		<path style="fill:#1190A5;" d="M316.44,102.883c1.641-2.147,6.011,0.649,7.129,4.405c0,0,2.342-7.283,6.952-5.423
			c4.222,1.703-1.136,6.332-7.049,6.078C317.56,107.689,314.936,104.852,316.44,102.883z"/>
		<path style="fill:#1190A5;" d="M324.075,79.2c2.389-1.264,5.188,3.104,4.633,6.984c0,0,5.174-5.636,8.584-2.018
			c3.122,3.313-3.681,5.276-8.946,2.572S321.884,80.359,324.075,79.2z"/>
	</g>
	<g style="opacity:0.7;">
		
			<path style="fill:none;stroke:#1190A5;stroke-width:1.0134;stroke-linecap:round;stroke-linejoin:round;stroke-miterlimit:10;" d="
			M86.368,232.244c-22.167,24.378,0.622,87.992-6.155,134.759"/>
		<path style="fill:#1190A5;" d="M79.935,367.511c-7.605,1.009-20.783-5.086-17.587-10.707c3.525-6.2,14.451,2.646,17.881,8.989
			c4.48-5.886,17.425-14.739,22.105-6.596C106.348,366.185,89.265,370.702,79.935,367.511z"/>
		<path style="fill:#1190A5;" d="M80.862,348.27c-6.606,1.583-18.768-2.582-16.467-7.824c2.539-5.782,12.969,1.011,16.569,6.285
			c3.409-5.593,14.001-14.572,18.866-7.827C104.004,344.69,89.371,350.228,80.862,348.27z"/>
		<path style="fill:#1190A5;" d="M72.327,351.416c1.893-2.476,6.931,0.748,8.221,5.08c0,0,2.7-8.399,8.017-6.254
			c4.868,1.964-1.31,7.302-8.129,7.009C73.618,356.958,70.592,353.687,72.327,351.416z"/>
		<path style="fill:#1190A5;" d="M80.22,328.364c-6.606,1.583-18.768-2.582-16.467-7.824c2.539-5.782,12.969,1.011,16.569,6.285
			c3.409-5.593,14.001-14.572,18.866-7.827C103.362,324.784,88.729,330.322,80.22,328.364z"/>
		<path style="fill:#1190A5;" d="M72.565,332.641c1.893-2.476,6.931,0.748,8.221,5.08c0,0,2.7-8.399,8.017-6.254
			c4.868,1.964-1.31,7.302-8.129,7.009S70.83,334.911,72.565,332.641z"/>
		<path style="fill:#1190A5;" d="M78.923,309.155c-6.15,1.474-17.473-2.404-15.33-7.284c2.363-5.383,12.074,0.941,15.425,5.851
			c3.173-5.207,13.034-13.566,17.564-7.287C100.468,305.822,86.845,310.977,78.923,309.155z"/>
		<path style="fill:#1190A5;" d="M71.177,313.402c1.893-2.476,6.931,0.748,8.221,5.08c0,0,2.7-8.399,8.017-6.254
			c4.868,1.964-1.31,7.302-8.129,7.009S69.442,315.672,71.177,313.402z"/>
		<path style="fill:#1190A5;" d="M77.081,289.564c-5.515,1.322-15.67-2.156-13.749-6.533c2.119-4.828,10.828,0.844,13.834,5.247
			c2.846-4.67,11.69-12.167,15.752-6.535C96.402,286.575,84.185,291.198,77.081,289.564z"/>
		<path style="fill:#1190A5;" d="M70.134,293.372c1.697-2.221,6.216,0.671,7.373,4.556c0,0,2.422-7.532,7.19-5.609
			c4.366,1.761-1.175,6.548-7.29,6.286S68.578,295.408,70.134,293.372z"/>
		<path style="fill:#1190A5;" d="M75.598,270.283c-4.564,1.094-12.968-1.784-11.378-5.406c1.754-3.995,8.961,0.699,11.448,4.342
			c2.355-3.865,9.674-10.068,13.035-5.408C91.587,267.809,81.477,271.635,75.598,270.283z"/>
		<path style="fill:#1190A5;" d="M69.535,274.511c1.405-1.838,5.144,0.555,6.101,3.77c0,0,2.004-6.233,5.95-4.641
			c3.613,1.457-0.972,5.419-6.033,5.202C70.493,278.625,68.247,276.197,69.535,274.511z"/>
		<path style="fill:#1190A5;" d="M77.505,250.696c-3.947-0.154-10.1-4.401-7.986-6.973c2.332-2.837,7.101,2.608,8.286,6.127
			c2.789-2.594,10.132-5.953,11.794-1.411C91.024,252.336,81.96,253.132,77.505,250.696z"/>
		<path style="fill:#1190A5;" d="M70.269,255.734c1.405-1.838,5.144,0.555,6.101,3.77c0,0,2.004-6.233,5.95-4.641
			c3.613,1.457-0.972,5.419-6.033,5.202C71.227,259.848,68.982,257.419,70.269,255.734z"/>
		<path style="fill:#1190A5;" d="M76.803,235.467c2.045-1.082,4.44,2.656,3.965,5.977c0,0,4.428-4.823,7.346-1.727
			c2.672,2.835-3.15,4.515-7.656,2.201C75.952,239.603,74.928,236.458,76.803,235.467z"/>
	</g>
	<g>
		<g>
			<g>
				<path style="fill:#8D67F4;" d="M159.923,306.918c-1.916,8.086-7.59,34.912-8.385,37.353c-0.795,2.441-6.348,6.592-2.992,13.428
					c3.356,6.836,10.498,7.324,24.17,6.836c13.672-0.488,23.925-4.395,24.658-16.601c0.732-12.207-2.441-47.119-6.103-58.837
					S165.196,284.667,159.923,306.918z"/>
				<g>
					<path style="fill:#6F43D1;" d="M161.134,307.205c-1.911,8.84-3.673,17.76-5.516,26.65l-1.4,6.677l-0.752,3.366l-0.249,0.936
						c-0.151,0.409-0.327,0.812-0.496,1.091c-0.347,0.622-0.675,1.092-0.996,1.573c-1.273,1.83-2.226,3.533-2.345,5.308
						c-0.171,1.737,0.475,3.584,1.543,5.204c1.064,1.567,2.508,2.687,4.361,3.367c1.833,0.7,3.947,1.024,6.106,1.19
						c4.319,0.302,8.917,0.141,13.331-0.07c4.386-0.266,8.768-0.928,12.598-2.603c1.888-0.861,3.612-1.98,4.957-3.439
						c1.353-1.45,2.308-3.231,2.867-5.19l0.359-1.496l0.204-1.552c0.112-1.056,0.151-2.186,0.195-3.29
						c0.06-2.231,0.057-4.481,0.016-6.734c-0.079-4.508-0.299-9.028-0.592-13.542c-0.597-9.026-1.421-18.062-2.848-26.986
						c-0.385-2.223-0.793-4.445-1.338-6.618l-0.426-1.622c-0.07-0.272-0.177-0.502-0.262-0.756
						c-0.079-0.254-0.187-0.493-0.318-0.721c-0.461-0.941-1.135-1.773-1.988-2.378c-1.696-1.243-3.942-1.634-6.105-1.432
						c-2.179,0.191-4.323,0.885-6.3,1.895c-1.983,1.004-3.81,2.319-5.43,3.848c-1.599,1.552-3.013,3.283-4.227,5.136
						C163.672,298.749,162.12,302.934,161.134,307.205z M158.712,306.631c2.268-9.113,8.396-17.158,16.597-21.444
						c2.057-1.057,4.285-1.847,6.634-2.085c2.32-0.251,4.851,0.111,6.873,1.54c1.014,0.694,1.82,1.674,2.388,2.747
						c0.158,0.263,0.29,0.537,0.389,0.823c0.105,0.28,0.238,0.568,0.317,0.844l0.482,1.659c0.616,2.216,1.085,4.45,1.532,6.688
						c1.706,8.96,2.895,17.988,3.809,27.05c0.455,4.532,0.836,9.072,1.077,13.636c0.122,2.282,0.206,4.571,0.225,6.879
						c-0.006,1.163-0.002,2.307-0.085,3.51l-0.178,1.831c-0.106,0.609-0.255,1.216-0.385,1.825
						c-0.618,2.417-1.794,4.773-3.496,6.682c-1.693,1.919-3.818,3.372-6.04,4.419c-4.493,2.029-9.238,2.758-13.878,3.114
						c-2.347,0.151-4.596,0.2-6.902,0.247c-2.302,0.026-4.62,0.015-6.981-0.161c-2.355-0.186-4.784-0.52-7.203-1.433
						c-1.207-0.438-2.394-1.094-3.457-1.923c-1.072-0.831-1.965-1.873-2.697-2.975c-0.354-0.557-0.657-1.127-0.95-1.714
						c-0.242-0.618-0.545-1.194-0.7-1.863c-0.414-1.276-0.532-2.704-0.4-4.076c0.134-1.38,0.558-2.708,1.135-3.869
						c0.573-1.166,1.277-2.199,1.934-3.134c0.317-0.457,0.65-0.912,0.862-1.278c0.133-0.204,0.17-0.326,0.235-0.443l0.205-0.704
						l0.822-3.258l1.577-6.61C154.543,324.323,156.542,315.482,158.712,306.631z"/>
				</g>
				<path style="fill:#F2E9B3;" d="M150.939,352.68c3.48-1.797,7.663,1.608,6.622,5.487c-1.041,3.879-9.46,6.433-11.352,5.487
					S148.308,354.039,150.939,352.68z"/>
				<path style="fill:#F2E9B3;" d="M163.616,357.315c2.065-3.38,8.627-1.732,8.863,2.744s-6.593,9.271-8.296,9.082
					S161.535,360.721,163.616,357.315z"/>
				<path style="fill:#F2E9B3;" d="M178.09,358.019c0.406-2.74,6.338-3.92,8.609-0.893c2.27,3.027-1.892,12.823-3.595,12.823
					S177.144,364.399,178.09,358.019z"/>
			</g>
			<g>
				<path style="fill:#9D71FF;" d="M152.822,280.715c10.128,21.019,28.645,49.911,75.084,56.856
					c46.439,6.944,67.706-16.058,82.896-14.322c15.19,1.736,31.249,23.003,62.064,13.888c30.815-9.114,36.891-44.269,31.249-46.439
					c-5.642-2.17-12.586,28.211-36.457,25.173s-14.605-56.091-41.231-83.719c-26.626-27.629-78.022-36.296-129.977-8.411
					C167.145,239.468,144.527,263.5,152.822,280.715z"/>
				<path style="opacity:0.4;fill:#FFFDEE;" d="M267.163,227.567c62.003-20.909,66.482,39.491,75.015,63.29
					C350.711,314.656,364.514,325.941,381,319c12.136-5.109,19.575-15.674,23.829-27.755c-0.214-0.245-0.446-0.445-0.714-0.548
					c-5.642-2.17-12.586,28.211-36.457,25.173c-23.871-3.038-14.605-56.091-41.231-83.719c-15.6-16.188-39.71-25.851-67.447-25.482
					C267.467,220.073,253.227,232.267,267.163,227.567z"/>
				<path style="fill:#AD8FFF;" d="M372.329,334.368c-37.134,9.625-65.266-23.546-68.266-22.546c-31,3-66,30-88,2
					c-4.877-5.96,1.54-18.967-3.863-30.27c-4.569-9.558-20.723-17.897-27.137-19.73c-13.377-3.52-36.449,9.534-23.066,33.22
					c10.321,18.266,30.78,35.275,65.909,40.528c46.439,6.944,67.706-16.058,82.896-14.322c15.19,1.736,31.249,23.003,62.064,13.888
					c13.739-4.064,22.557-13.299,27.611-22.48C404.487,307.375,389.697,330.026,372.329,334.368z"/>
				<g>
					<path style="fill:#6F43D1;" d="M153.927,280.183c3.05,6.253,6.453,12.319,10.438,17.976c3.975,5.659,8.527,10.899,13.636,15.53
						c5.106,4.64,10.853,8.527,16.919,11.777l2.293,1.192c0.764,0.398,1.52,0.812,2.325,1.124l4.758,2.025
						c0.782,0.365,1.61,0.614,2.426,0.893l2.451,0.829c1.633,0.555,3.257,1.139,4.946,1.517l5.017,1.29
						c1.676,0.413,3.396,0.645,5.091,0.978c3.393,0.658,6.819,1.164,10.263,1.451c6.879,0.662,13.807,0.643,20.66-0.053
						c6.851-0.728,13.614-2.164,20.194-4.252c6.601-2.057,12.955-4.806,19.502-7.456c1.642-0.655,3.304-1.295,5.018-1.865
						c1.704-0.582,3.472-1.084,5.316-1.428c1.84-0.338,3.777-0.527,5.758-0.312c0.945,0.152,1.878,0.338,2.817,0.513
						c0.928,0.197,1.788,0.534,2.684,0.801c3.486,1.233,6.686,2.868,9.795,4.51c3.111,1.623,6.16,3.308,9.277,4.729
						c6.185,2.976,12.735,4.956,19.448,5.385c0.838,0.038,1.674,0.165,2.515,0.133l2.52-0.085c1.685,0.023,3.351-0.279,5.021-0.503
						l1.253-0.172l0.626-0.085l0.617-0.151l2.467-0.604l2.465-0.608c0.805-0.245,1.603-0.505,2.394-0.79
						c6.32-2.279,12.079-6.009,16.747-10.849c4.67-4.833,8.28-10.732,10.541-17.077c1.115-3.165,1.917-6.481,2.08-9.718
						c0.035-0.804,0.021-1.599-0.065-2.344c-0.079-0.737-0.256-1.455-0.484-1.88c-0.108-0.214-0.219-0.295-0.192-0.27
						c0.014,0.022,0.099,0.01,0.05,0.013c-0.157,0.005-0.783,0.463-1.268,1.012c-1.034,1.129-2.021,2.574-3.005,3.993
						c-0.985,1.433-1.975,2.899-3.014,4.344c-2.074,2.891-4.34,5.726-7.013,8.227c-2.661,2.497-5.765,4.654-9.259,6.012
						c-3.486,1.368-7.301,1.86-10.984,1.554c-0.463-0.025-0.919-0.094-1.378-0.14c-0.465-0.071-0.941-0.182-1.41-0.274
						c-0.953-0.141-1.856-0.505-2.763-0.842c-0.465-0.142-0.877-0.404-1.304-0.63c-0.419-0.24-0.86-0.45-1.258-0.72
						c-0.748-0.597-1.591-1.105-2.227-1.811c-2.753-2.652-4.563-5.939-5.972-9.242c-1.403-3.324-2.427-6.735-3.347-10.147
						c-0.914-3.414-1.711-6.839-2.493-10.257c-1.555-6.833-3.086-13.643-5.081-20.302c-0.994-3.33-2.137-6.605-3.407-9.826
						c-1.295-3.21-2.79-6.328-4.461-9.345c-1.719-2.988-3.659-5.84-5.838-8.499c-2.242-2.592-4.706-5.032-7.319-7.29
						c-10.522-9-23.473-14.955-36.982-17.992c-13.544-3.031-27.675-3.235-41.388-1.054c-13.734,2.144-27.081,6.557-39.575,12.657
						c-6.243,3.063-12.324,6.472-18.094,10.349c-5.772,3.864-11.291,8.12-16.31,12.89c-4.99,4.77-9.557,10.076-12.737,16.105
						c-1.596,3-2.724,6.224-3.17,9.507c-0.183,1.644-0.175,3.292,0.037,4.911C152.757,277.142,153.244,278.702,153.927,280.183z
						 M151.718,281.247c-0.784-1.703-1.341-3.507-1.638-5.359c-0.242-1.857-0.242-3.728-0.03-5.566
						c0.505-3.662,1.757-7.142,3.453-10.317c3.392-6.377,8.126-11.811,13.25-16.689c5.153-4.87,10.782-9.183,16.657-13.093
						c5.872-3.922,12.049-7.36,18.391-10.442c12.692-6.142,26.258-10.579,40.225-12.709c13.949-2.152,28.32-1.921,42.141,1.144
						c13.783,3.091,27.043,9.165,37.86,18.407c2.689,2.321,5.213,4.815,7.556,7.522c2.256,2.765,4.319,5.679,6.116,8.752
						c1.756,3.092,3.324,6.284,4.684,9.557c1.333,3.281,2.533,6.613,3.577,9.985c2.095,6.743,3.707,13.598,5.329,20.405
						c0.815,3.402,1.641,6.792,2.572,10.135c0.936,3.338,1.97,6.642,3.325,9.761c1.355,3.104,3.066,6.05,5.401,8.246
						c0.28,0.289,0.572,0.56,0.903,0.777l0.951,0.706c0.327,0.217,0.688,0.375,1.028,0.568c0.347,0.18,0.677,0.398,1.059,0.501
						c0.739,0.258,1.463,0.56,2.257,0.659c0.391,0.071,0.769,0.162,1.169,0.221c0.412,0.036,0.824,0.096,1.236,0.113
						c3.297,0.234,6.598-0.244,9.627-1.472c3.034-1.222,5.772-3.159,8.183-5.476c2.42-2.319,4.524-5.005,6.494-7.825
						c0.989-1.41,1.942-2.859,2.922-4.324c0.997-1.465,1.956-2.949,3.265-4.426c0.339-0.369,0.701-0.738,1.146-1.099
						c0.454-0.353,0.988-0.729,1.775-0.95c0.796-0.228,1.811-0.141,2.591,0.312c0.798,0.453,1.253,1.091,1.558,1.643
						c0.593,1.13,0.778,2.159,0.909,3.154c0.121,0.995,0.138,1.956,0.105,2.901c-0.168,3.77-1.029,7.337-2.208,10.779
						c-2.395,6.862-6.216,13.212-11.244,18.493c-2.512,2.638-5.327,4.999-8.385,6.997c-3.064,1.989-6.363,3.611-9.793,4.845
						c-0.858,0.308-1.724,0.589-2.596,0.853l-2.635,0.651l-2.638,0.638l-0.66,0.158l-0.675,0.093l-1.349,0.186
						c-1.8,0.24-3.592,0.553-5.421,0.533l-2.73,0.084c-0.91,0.031-1.818-0.101-2.727-0.145c-7.282-0.47-14.375-2.662-20.791-5.763
						c-3.256-1.492-6.339-3.205-9.435-4.825c-3.076-1.633-6.141-3.188-9.258-4.294c-0.782-0.228-1.559-0.545-2.342-0.714
						l-2.346-0.449c-1.509-0.177-3.098-0.044-4.697,0.239c-3.208,0.578-6.443,1.777-9.669,3.029
						c-6.451,2.558-12.995,5.338-19.794,7.406c-6.788,2.103-13.805,3.546-20.891,4.248c-7.089,0.671-14.235,0.639-21.296-0.089
						c-3.536-0.321-7.042-0.862-10.521-1.56c-1.738-0.352-3.496-0.605-5.217-1.04l-5.15-1.361c-1.731-0.402-3.402-1.013-5.081-1.596
						l-2.519-0.872c-0.838-0.294-1.688-0.558-2.494-0.939l-4.895-2.123c-0.827-0.329-1.607-0.76-2.394-1.177l-2.36-1.247
						c-6.244-3.399-12.158-7.464-17.396-12.289c-5.241-4.816-9.89-10.246-13.924-16.075
						C158.191,293.818,154.763,287.602,151.718,281.247z"/>
				</g>
			</g>
			<path style="opacity:0.5;fill:#6F43D1;" d="M239,292c30.999-14.904,42-40,43-68c0-2.596,11.736-5.773,17.286-9.985
				c-27.848-11.484-65.192-10.48-102.837,9.725c-29.305,15.729-51.923,39.761-43.628,56.975c1.985,4.119,5.082,9.643,7.817,14.147
				C166.299,304.184,213.945,304.046,239,292z"/>
			<g>
				<path style="fill:#8D67F4;" d="M220.204,314.222c-1.916,8.086-7.59,34.912-8.385,37.353c-0.795,2.441-6.348,6.592-2.992,13.428
					c3.356,6.836,10.498,7.324,24.17,6.836c13.672-0.488,23.925-4.394,24.658-16.601c0.732-12.207-2.441-47.118-6.103-58.837
					C247.89,284.682,225.477,291.971,220.204,314.222z"/>
				<g>
					<path style="fill:#6F43D1;" d="M217.749,330.416c-0.943,4.847-1.927,9.685-2.929,14.526l-0.765,3.634l-0.401,1.824
						c-0.161,0.633-0.228,1.164-0.558,2.004c-0.345,0.803-0.727,1.335-1.075,1.865c-0.356,0.531-0.687,1.016-0.997,1.509
						c-0.615,0.977-1.111,1.95-1.389,2.943c-0.557,1.971-0.224,4.028,0.868,5.919c0.488,0.977,1.18,1.759,1.918,2.47
						c0.756,0.696,1.679,1.197,2.65,1.635c2.01,0.788,4.318,1.157,6.681,1.324c2.368,0.166,4.799,0.156,7.237,0.107
						c2.448-0.055,4.905-0.131,7.275-0.341c2.389-0.196,4.747-0.558,7.007-1.143c4.503-1.133,8.714-3.352,10.801-7.136
						c1.048-1.867,1.649-4.025,1.822-6.295c0.173-2.353,0.23-4.81,0.226-7.249c-0.022-4.891-0.169-9.811-0.317-14.734
						c-0.02-0.621,0.467-1.141,1.088-1.162c0.584-0.019,1.079,0.418,1.154,0.985c0.614,4.92,1.077,9.859,1.285,14.838
						c0.098,2.495,0.2,4.981,0.059,7.555c-0.151,2.65-0.773,5.397-2.138,7.843c-1.347,2.452-3.408,4.493-5.722,5.915
						c-2.323,1.43-4.842,2.334-7.359,2.969c-5.04,1.28-10.187,1.412-15.115,1.5c-2.496,0.033-5.008,0.031-7.564-0.164
						c-2.546-0.209-5.185-0.581-7.758-1.664c-1.267-0.589-2.52-1.312-3.572-2.313c-1.025-1-1.942-2.143-2.544-3.389
						c-1.355-2.382-1.878-5.587-0.987-8.364c0.419-1.38,1.097-2.61,1.816-3.704c0.358-0.545,0.733-1.073,1.074-1.56
						c0.344-0.488,0.671-0.979,0.815-1.31c0.147-0.3,0.302-0.995,0.456-1.552l0.451-1.779l0.875-3.587l3.439-14.401
						c0.144-0.604,0.751-0.977,1.355-0.832C217.495,329.243,217.862,329.828,217.749,330.416z"/>
				</g>
				<path style="fill:#F2E9B3;" d="M211.22,359.984c3.48-1.797,7.663,1.608,6.622,5.487c-1.041,3.879-9.46,6.433-11.352,5.487
					C204.598,370.012,208.589,361.343,211.22,359.984z"/>
				<path style="fill:#F2E9B3;" d="M223.897,364.619c2.065-3.38,8.627-1.732,8.863,2.743c0.237,4.476-6.593,9.271-8.296,9.082
					C222.762,376.256,221.816,368.025,223.897,364.619z"/>
				<path style="fill:#F2E9B3;" d="M238.372,365.323c0.406-2.74,6.338-3.92,8.609-0.893c2.27,3.027-1.892,12.823-3.595,12.823
					S237.426,371.703,238.372,365.323z"/>
			</g>
			<g>
				<path style="fill:#8D67F4;" d="M294.383,297.461c-1.916,8.086-7.59,34.912-8.385,37.353c-0.795,2.441-6.348,6.592-2.992,13.428
					s10.498,7.324,24.17,6.836s23.925-4.394,24.658-16.601s-2.441-47.119-6.103-58.837
					C322.068,267.921,299.656,275.21,294.383,297.461z"/>
				<g>
					<path style="fill:#6F43D1;" d="M289.248,325.857l-1.204,5.739l-0.619,2.871l-0.155,0.718c-0.095,0.271-0.237,0.654-0.37,0.88
						c-0.272,0.523-0.557,0.953-0.825,1.364c-1.096,1.62-2.017,3.107-2.406,4.699c-0.201,0.786-0.243,1.578-0.196,2.368
						c0.103,0.788,0.275,1.578,0.617,2.345c0.654,1.553,1.648,2.964,2.923,3.94c1.274,1.001,2.877,1.621,4.611,1.998
						c3.496,0.71,7.318,0.726,11.119,0.667c3.841-0.092,7.631-0.207,11.295-0.788c1.819-0.325,3.637-0.681,5.337-1.28
						c0.876-0.249,1.671-0.642,2.501-0.969c0.767-0.422,1.576-0.787,2.272-1.289c2.937-1.843,4.876-4.744,5.668-8.157
						c0.131-0.416,0.201-0.852,0.253-1.295l0.199-1.323c0.093-0.927,0.148-1.871,0.209-2.819c0.134-1.898,0.17-3.814,0.265-5.736
						c0.029-0.622,0.557-1.103,1.179-1.073c0.562,0.026,1.008,0.462,1.068,1.004c0.211,1.936,0.314,3.88,0.401,5.842
						c0.036,0.982,0.036,1.967,0.018,2.967l-0.121,1.554c-0.035,0.52-0.092,1.039-0.217,1.557c-0.302,2.089-1.171,4.136-2.325,5.971
						c-1.15,1.866-2.81,3.368-4.571,4.551c-0.869,0.638-1.827,1.071-2.759,1.561c-0.964,0.382-1.916,0.827-2.901,1.104
						c-1.952,0.665-3.94,1.039-5.919,1.376c-3.973,0.597-7.923,0.678-11.795,0.743c-3.901,0.019-7.868,0.037-11.934-0.905
						c-2.016-0.487-4.104-1.309-5.848-2.738c-1.758-1.424-3.002-3.308-3.793-5.322c-0.416-1.011-0.654-2.126-0.76-3.253
						c-0.053-1.137,0.048-2.288,0.357-3.368c0.619-2.163,1.885-3.946,2.996-5.473c0.276-0.386,0.533-0.756,0.718-1.083
						c0.116-0.186,0.132-0.267,0.213-0.441l0.175-0.691l0.7-2.767l1.433-5.536l0.007-0.025c0.156-0.601,0.769-0.962,1.37-0.806
						C289.012,324.689,289.369,325.273,289.248,325.857z"/>
				</g>
				<path style="fill:#F2E9B3;" d="M285.399,343.223c3.48-1.797,7.663,1.608,6.622,5.487s-9.46,6.433-11.352,5.487
					S282.768,344.582,285.399,343.223z"/>
				<path style="fill:#F2E9B3;" d="M298.076,347.858c2.065-3.38,8.627-1.732,8.863,2.743s-6.593,9.271-8.296,9.082
					C296.941,359.494,295.995,351.264,298.076,347.858z"/>
				<path style="fill:#F2E9B3;" d="M312.55,348.562c0.406-2.74,6.338-3.92,8.609-0.893c2.271,3.027-1.892,12.823-3.595,12.823
					S311.604,354.941,312.55,348.562z"/>
			</g>
		</g>
		<g>
			<g>
				<path style="fill:#9D71FF;" d="M110.267,219.254c-10.348-10.484-21.768-35.834-17.65-65.25
					c4.118-29.417,28.24-81.484,103.841-74.13c75.601,7.354,101.781,56.48,102.664,85.308s-22.357,70.306-70.6,80.013
					C180.278,254.902,128.505,237.732,110.267,219.254z"/>
				<g>
					<path style="fill:#6F43D1;" d="M109.239,220.268c-2.267-2.324-4.208-4.883-5.995-7.529c-1.701-2.695-3.31-5.45-4.641-8.334
						c-2.733-5.734-4.791-11.769-6.209-17.948c-2.825-12.363-3.073-25.313-0.66-37.802c0.635-3.112,1.369-6.205,2.322-9.234
						c0.431-1.528,0.991-3.015,1.488-4.523c0.579-1.478,1.087-2.984,1.733-4.436c2.453-5.856,5.434-11.515,9.077-16.745
						c7.211-10.495,16.857-19.416,28.106-25.522c11.24-6.168,23.845-9.393,36.448-10.623c6.322-0.602,12.663-0.595,18.979-0.341
						l4.725,0.348c0.787,0.064,1.577,0.103,2.36,0.188l2.347,0.278c1.564,0.191,3.131,0.359,4.693,0.57l4.672,0.741
						c12.438,2.073,24.688,5.628,36.206,10.925c11.469,5.364,22.188,12.54,31.114,21.614c4.457,4.53,8.496,9.485,11.945,14.832
						c3.432,5.355,6.34,11.056,8.54,17.037c1.087,2.995,2.003,6.054,2.733,9.163c0.691,3.118,1.208,6.281,1.468,9.482
						c0.247,3.207,0.178,6.435-0.117,9.62c-0.284,3.189-0.828,6.344-1.584,9.438c-6.06,24.812-23.895,45.998-46.639,57.057
						c-5.678,2.783-11.638,4.972-17.745,6.562c-3.052,0.801-6.145,1.453-9.25,1.911l-4.653,0.756l-1.164,0.184l-1.172,0.114
						l-2.344,0.228c-12.497,1.309-25.111,0.977-37.553-0.53c-12.439-1.56-24.732-4.401-36.545-8.684l-4.395-1.706
						c-0.73-0.29-1.47-0.557-2.193-0.866l-2.15-0.975l-4.295-1.962l-4.183-2.212C119.21,228.256,113.839,224.803,109.239,220.268z
						 M111.294,218.239c4.251,4.284,9.411,7.701,14.721,10.752l4.053,2.2l4.183,1.964l2.095,0.977
						c0.705,0.311,1.429,0.58,2.143,0.872l4.298,1.721c1.437,0.563,2.917,1.014,4.373,1.528c1.467,0.482,2.913,1.033,4.403,1.444
						l4.463,1.26l2.231,0.63c0.749,0.191,1.506,0.351,2.258,0.528c3.017,0.676,6.015,1.449,9.074,1.924l4.568,0.813
						c1.523,0.268,3.066,0.407,4.598,0.618c12.267,1.605,24.727,1.743,37.001,0.383l2.304-0.241l1.152-0.12l1.142-0.19l4.564-0.778
						c3.054-0.473,6.058-1.132,9.024-1.934c5.935-1.594,11.708-3.766,17.195-6.507c5.491-2.732,10.692-6.043,15.456-9.896
						c4.767-3.844,9.169-8.153,12.997-12.933c1.959-2.354,3.7-4.877,5.398-7.42c1.621-2.593,3.205-5.214,4.541-7.965
						c1.37-2.731,2.603-5.532,3.635-8.403c1.065-2.859,1.936-5.787,2.615-8.753c0.701-2.961,1.194-5.967,1.439-8.984
						c0.256-3.017,0.293-6.038,0.036-9.042c-0.271-3.008-0.786-5.999-1.467-8.956c-0.721-2.95-1.618-5.858-2.681-8.71
						c-2.15-5.695-4.983-11.131-8.314-16.233c-3.348-5.095-7.263-9.813-11.577-14.122c-8.638-8.628-18.941-15.524-30.05-20.653
						c-11.149-5.072-23.048-8.482-35.182-10.454l-4.558-0.705c-1.525-0.2-3.057-0.357-4.584-0.538
						c-3.055-0.408-6.121-0.533-9.181-0.795c-6.128-0.254-12.268-0.272-18.357,0.298c-12.149,1.155-24.156,4.265-34.855,10.043
						c-10.715,5.719-19.922,14.101-26.889,24.078c-6.978,9.975-11.813,21.48-14.325,33.422c-2.422,11.954-2.306,24.441,0.311,36.388
						c1.312,5.972,3.247,11.814,5.824,17.349c1.253,2.787,2.773,5.434,4.368,8.02C107.412,213.646,109.227,216.079,111.294,218.239z
						"/>
				</g>
				<path style="fill:#9D71FF;" d="M273.679,198.928c0.435,0.043,0.874,0.072,1.321,0.072
					C274.555,198.96,274.116,198.939,273.679,198.928z"/>
				<path style="fill:#9D71FF;" d="M169.529,111.487c-0.123-1.159-0.296-2.323-0.529-3.487
					C169.099,109.185,169.279,110.35,169.529,111.487z"/>
				<path style="opacity:0.5;fill:#6F43D1;" d="M260,218c-4.798-11.515,3.958-16.96,14.339-16.691
					c-5.405-0.536-8.779-6.234-8.666-12.592c0.096-5.384,5.426-13.702,12.557-17.238c-12-2-21.164-2.02-26.164-14.02
					c-2-7-2.911-12.222,2.934-23.459c-12,6-23.441,12.192-33.441,3.192c-4-5-3.559-18.192-3.559-24.192
					c-6,9-16.186,18.406-27.186,18.406c-10.815,0.901-20.004-9.539-22.286-19.919c0.932,8.8-0.343,17.328-6.529,23.513
					c-11,10-24-2-32-10c2.6,9.621,8.023,16.675,2.313,24.235C124.859,159.105,114,161,105,160c14,8,16,23,2,33
					c-3.383,2.115-6.766,2.969-10.15,3.185c3.602,10.162,8.623,18.212,13.416,23.069c18.238,18.478,70.011,35.648,118.255,25.941
					c15.434-3.106,28.296-9.472,38.641-17.627C264.188,225.03,261.695,221.954,260,218z"/>
				<g>
					<g>
						<path style="fill:#6F43D1;" d="M164.453,96.912c1.93,3.874,3.335,7.917,4.537,12.042c1.18,4.127,2.106,8.336,2.765,12.595
							c0.173,1.064,0.286,2.135,0.432,3.204c0.149,1.069,0.274,2.141,0.35,3.217l0.277,3.229l0.138,3.239
							c0.135,2.163,0.05,4.325,0.06,6.495c-0.035,2.167-0.202,4.329-0.299,6.501c-0.065,1.462-1.304,2.594-2.765,2.529
							c-1.462-0.065-2.594-1.304-2.529-2.765c0.003-0.072,0.009-0.143,0.018-0.213l0.022-0.168c0.263-2.054,0.601-4.109,0.808-6.176
							c0.163-2.069,0.424-4.142,0.468-6.223l0.131-3.125l-0.005-3.128c0.015-1.045-0.019-2.088-0.076-3.131
							c-0.054-1.042-0.074-2.09-0.155-3.132c-0.29-4.173-0.843-8.335-1.652-12.455c-0.826-4.105-1.885-8.222-3.423-12.097
							l-0.012-0.03c-0.102-0.256,0.024-0.547,0.28-0.649C164.064,96.575,164.338,96.683,164.453,96.912z"/>
					</g>
					<g>
						<path style="fill:#6F43D1;" d="M220.57,99.27c-0.877,4.706-1.969,9.346-3.19,13.966c-1.225,4.617-2.608,9.196-4.133,13.735
							c-1.507,4.546-3.219,9.029-5.084,13.46c-1.836,4.446-3.982,8.769-6.232,13.054c-0.585,1.115-1.964,1.544-3.079,0.959
							c-1.115-0.585-1.544-1.964-0.959-3.079c0.021-0.04,0.043-0.079,0.066-0.117l0.036-0.059c2.423-3.993,4.773-8.06,6.836-12.29
							c2.091-4.214,4.048-8.511,5.811-12.895c1.78-4.376,3.43-8.815,4.927-13.309c1.492-4.492,2.866-9.043,4.02-13.627l0.003-0.013
							c0.067-0.268,0.339-0.43,0.607-0.363C220.458,98.759,220.617,99.013,220.57,99.27z"/>
					</g>
					<g>
						<path style="fill:#6F43D1;" d="M261.507,126.531c-2.406,3.782-5.054,7.369-7.852,10.864
							c-2.805,3.485-5.793,6.835-8.962,10.034c-3.208,3.162-6.622,6.14-10.275,8.875c-3.713,2.658-7.69,5.019-11.997,6.88
							c-1.253,0.541-2.708-0.036-3.249-1.289s0.036-2.708,1.289-3.249c0.053-0.023,0.107-0.044,0.161-0.063l0.077-0.027
							c3.967-1.382,7.814-3.278,11.502-5.525c3.64-2.329,7.136-4.943,10.474-7.779c3.304-2.875,6.47-5.935,9.48-9.156
							c2.999-3.224,5.89-6.591,8.52-10.12l0.009-0.013c0.165-0.221,0.478-0.267,0.7-0.102
							C261.595,126.019,261.646,126.313,261.507,126.531z"/>
					</g>
					<g>
						<path style="fill:#6F43D1;" d="M282.798,169.416c-3.151,2.332-6.632,3.969-10.22,5.384c-3.596,1.388-7.325,2.413-11.105,3.202
							c-1.896,0.355-3.798,0.717-5.718,0.928c-1.915,0.292-3.842,0.405-5.773,0.558c-1.931,0.157-3.863,0.129-5.801,0.201
							c-1.933-0.016-3.867-0.092-5.806-0.138c-1.25-0.029-2.24-1.067-2.211-2.317c0.029-1.25,1.067-2.24,2.317-2.211
							c0.056,0.001,0.112,0.005,0.167,0.01l0.135,0.014c1.843,0.184,3.69,0.402,5.541,0.562c1.851,0.072,3.71,0.246,5.567,0.238
							c1.856-0.004,3.721,0.033,5.574-0.106c1.863-0.058,3.709-0.266,5.563-0.465c3.69-0.477,7.363-1.185,10.94-2.256
							c3.55-1.085,7.112-2.451,10.228-4.403l0.042-0.026c0.233-0.146,0.541-0.076,0.688,0.158
							C283.063,168.972,283.004,169.262,282.798,169.416z"/>
					</g>
					<g>
						<path style="fill:#6F43D1;" d="M277.66,201.077c-2.869,0.737-5.753,1.046-8.673,1.203c-2.916,0.143-5.845,0.066-8.769-0.172
							c-2.913-0.297-5.836-0.679-8.71-1.32c-1.454-0.262-2.862-0.687-4.3-1.029c-1.424-0.386-2.826-0.845-4.246-1.267
							c-1.288-0.383-2.021-1.738-1.638-3.026c0.383-1.288,1.738-2.021,3.026-1.638c0.086,0.026,0.169,0.055,0.25,0.089l0.132,0.056
							c1.279,0.54,2.55,1.122,3.846,1.635c1.31,0.469,2.6,1.026,3.938,1.423c2.647,0.913,5.368,1.582,8.114,2.179
							c2.755,0.539,5.549,0.928,8.365,1.106c2.805,0.167,5.677,0.173,8.433-0.213l0.037-0.005c0.273-0.038,0.526,0.152,0.564,0.425
							C278.066,200.778,277.903,201.015,277.66,201.077z"/>
					</g>
					<g>
						<path style="fill:#6F43D1;" d="M122.281,120.664c3.589,2.106,6.873,4.612,9.972,7.374c3.084,2.773,5.914,5.856,8.418,9.221
							c2.55,3.337,4.589,7.081,6.223,11.011l1.137,2.997l0.837,3.105l0.407,1.562l0.245,1.595l0.481,3.205
							c0.196,1.302-0.702,2.516-2.004,2.712c-1.302,0.196-2.516-0.702-2.712-2.004c-0.009-0.057-0.015-0.114-0.02-0.171
							l-0.019-0.263l-0.215-2.884l-0.103-1.449l-0.262-1.428l-0.536-2.866l-0.828-2.807c-1.219-3.708-2.838-7.35-5.01-10.69
							c-2.124-3.364-4.609-6.537-7.389-9.452c-2.784-2.898-5.839-5.618-9.137-7.91l-0.024-0.017
							c-0.227-0.157-0.283-0.469-0.125-0.695C121.768,120.594,122.058,120.534,122.281,120.664z"/>
					</g>
					<g>
						<path style="fill:#6F43D1;" d="M100.486,157.875c2.743,0.367,5.409,0.981,8.064,1.746c2.646,0.782,5.264,1.727,7.797,2.939
							c2.523,1.232,4.969,2.704,7.24,4.521c2.226,1.875,4.23,4.118,5.804,6.752c0.699,1.169,0.317,2.684-0.852,3.383
							c-1.169,0.699-2.684,0.317-3.383-0.852c-0.047-0.079-0.09-0.16-0.127-0.242l-0.039-0.088c-0.971-2.162-2.355-4.205-4.07-6.052
							c-1.768-1.801-3.808-3.406-6.005-4.831c-2.21-1.408-4.584-2.608-7.031-3.665c-2.448-1.04-4.995-1.959-7.571-2.626
							l-0.019-0.005c-0.267-0.069-0.428-0.342-0.359-0.61C100,157.997,100.239,157.841,100.486,157.875z"/>
					</g>
				</g>
				<g style="opacity:0.8;">
					<ellipse style="fill:#6F43D1;" cx="181.871" cy="132.538" rx="3.519" ry="2.535"/>
					
						<ellipse transform="matrix(0.1356 -0.9908 0.9908 0.1356 42.1274 311.0972)" style="fill:#6F43D1;" cx="199.347" cy="131.406" rx="1.704" ry="2.365"/>
					
						<ellipse transform="matrix(0.686 -0.7276 0.7276 0.686 -35.9391 228.0885)" style="fill:#6F43D1;" cx="246.299" cy="155.684" rx="2.324" ry="3.226"/>
					
						<ellipse transform="matrix(0.991 -0.1335 0.1335 0.991 -23.4687 37.1943)" style="fill:#6F43D1;" cx="265.609" cy="193.594" rx="1.913" ry="2.656"/>
					
						<ellipse transform="matrix(0.7496 -0.6619 0.6619 0.7496 -39.571 210.8475)" style="fill:#6F43D1;" cx="258.883" cy="157.723" rx="1.427" ry="1.981"/>
					
						<ellipse transform="matrix(0.951 -0.3093 0.3093 0.951 -44.2421 89.7972)" style="fill:#6F43D1;" cx="261.091" cy="184.434" rx="1.427" ry="1.981"/>
					
						<ellipse transform="matrix(0.7496 -0.6619 0.6619 0.7496 -43.1042 207.7746)" style="fill:#6F43D1;" cx="253.055" cy="160.856" rx="0.912" ry="1.266"/>
					
						<ellipse transform="matrix(0.8453 -0.5343 0.5343 0.8453 -47.3413 165.5399)" style="fill:#6F43D1;" cx="262.173" cy="164.516" rx="0.912" ry="1.266"/>
					
						<ellipse transform="matrix(0.9717 -0.2361 0.2361 0.9717 -35.6304 68.958)" style="fill:#6F43D1;" cx="270.126" cy="183.258" rx="0.912" ry="1.266"/>
					
						<ellipse transform="matrix(0.7564 -0.6542 0.6542 0.7564 -33.1341 202.7232)" style="fill:#6F43D1;" cx="255.578" cy="145.842" rx="0.912" ry="1.266"/>
					
						<ellipse transform="matrix(0.8282 -0.5604 0.5604 0.8282 -51.0105 171.611)" style="fill:#6F43D1;" cx="254.437" cy="169.017" rx="1.427" ry="1.981"/>
					
						<ellipse transform="matrix(0.9999 -0.0119 0.0119 0.9999 -1.4696 2.2759)" style="fill:#6F43D1;" cx="190.147" cy="124.398" rx="2.586" ry="1.863"/>
					
						<ellipse transform="matrix(0.1556 -0.9878 0.9878 0.1556 54.3987 299.3699)" style="fill:#6F43D1;" cx="202.301" cy="117.867" rx="1.485" ry="2.061"/>
					
						<ellipse transform="matrix(0.0924 -0.9957 0.9957 0.0924 71.1561 288.4709)" style="fill:#6F43D1;" cx="193.825" cy="105.201" rx="1.045" ry="1.451"/>
					
						<ellipse transform="matrix(0.0185 -0.9998 0.9998 0.0185 69.226 304.0705)" style="fill:#6F43D1;" cx="189.495" cy="116.774" rx="1.045" ry="1.451"/>
					
						<ellipse transform="matrix(0.3322 -0.9432 0.9432 0.3322 33.2737 311.8407)" style="fill:#6F43D1;" cx="236.866" cy="132.422" rx="2.272" ry="3.154"/>
					
						<ellipse transform="matrix(0.4854 -0.8743 0.8743 0.4854 15.2717 286.0976)" style="fill:#6F43D1;" cx="250.66" cy="130.076" rx="1.485" ry="2.061"/>
					
						<ellipse transform="matrix(0.3608 -0.9326 0.9326 0.3608 36.5176 302.5856)" style="fill:#6F43D1;" cx="239.008" cy="124.652" rx="1.045" ry="1.451"/>
					
						<ellipse transform="matrix(0.3608 -0.9326 0.9326 0.3608 24.9884 284.5427)" style="fill:#6F43D1;" cx="220.08" cy="124.041" rx="1.045" ry="1.451"/>
					
						<ellipse transform="matrix(0.3608 -0.9326 0.9326 0.3608 37.3037 293.0124)" style="fill:#6F43D1;" cx="232.417" cy="119.292" rx="0.705" ry="0.979"/>
					
						<ellipse transform="matrix(0.3608 -0.9326 0.9326 0.3608 12.8761 285.8847)" style="fill:#6F43D1;" cx="215.003" cy="133.549" rx="0.705" ry="0.979"/>
					
						<ellipse transform="matrix(0.7592 -0.6508 0.6508 0.7592 -32.7066 207.7072)" style="fill:#6F43D1;" cx="264.365" cy="148.057" rx="0.705" ry="0.979"/>
					
						<ellipse transform="matrix(0.7592 -0.6508 0.6508 0.7592 -32.885 217.4165)" style="fill:#6F43D1;" cx="277.398" cy="153.153" rx="0.705" ry="0.979"/>
					
						<ellipse transform="matrix(0.7592 -0.6508 0.6508 0.7592 -38.3535 212.5125)" style="fill:#6F43D1;" cx="268.036" cy="158.091" rx="0.705" ry="0.979"/>
					
						<ellipse transform="matrix(0.7907 -0.6123 0.6123 0.7907 -45.5151 200.7053)" style="fill:#6F43D1;" cx="270.743" cy="166.912" rx="0.705" ry="0.979"/>
					
						<ellipse transform="matrix(0.9919 -0.1268 0.1268 0.9919 -22.285 37.1405)" style="fill:#6F43D1;" cx="280.554" cy="193.594" rx="0.705" ry="0.979"/>
					
						<ellipse transform="matrix(0.9919 -0.1268 0.1268 0.9919 -21.6982 36.2575)" style="fill:#6F43D1;" cx="273.913" cy="188.543" rx="0.705" ry="0.979"/>
					
						<ellipse transform="matrix(0.9919 -0.1268 0.1268 0.9919 -22.6014 36.0903)" style="fill:#6F43D1;" cx="272.148" cy="195.554" rx="0.479" ry="0.665"/>
					
						<ellipse transform="matrix(0.9919 -0.1268 0.1268 0.9919 -20.619 36.8188)" style="fill:#6F43D1;" cx="278.861" cy="180.348" rx="0.479" ry="0.665"/>
					
						<ellipse transform="matrix(0.3608 -0.9326 0.9326 0.3608 46.9749 299.8941)" style="fill:#6F43D1;" cx="242.273" cy="115.677" rx="0.705" ry="0.979"/>
					
						<ellipse transform="matrix(0.1387 -0.9903 0.9903 0.1387 86.1479 318.9909)" style="fill:#6F43D1;" cx="226.466" cy="109.968" rx="1.045" ry="1.451"/>
					
						<ellipse transform="matrix(0.5727 -0.8198 0.8198 0.5727 -14.8371 256.4454)" style="fill:#6F43D1;" cx="238.578" cy="142.455" rx="1.045" ry="1.451"/>
					
						<ellipse transform="matrix(0.6449 -0.7642 0.7642 0.6449 -74.6047 146.6399)" style="fill:#6F43D1;" cx="120.51" cy="153.609" rx="3.154" ry="2.272"/>
					
						<ellipse transform="matrix(0.7637 -0.6455 0.6455 0.7637 -70.751 109.1974)" style="fill:#6F43D1;" cx="113.795" cy="151.249" rx="2.061" ry="1.485"/>
					
						<ellipse transform="matrix(0.6679 -0.7442 0.7442 0.6679 -67.8734 131.2055)" style="fill:#6F43D1;" cx="113.087" cy="141.659" rx="1.451" ry="1.045"/>
					
						<ellipse transform="matrix(0.5038 -0.8638 0.8638 0.5038 -80.1589 167.6682)" style="fill:#6F43D1;" cx="105.868" cy="153.609" rx="0.979" ry="0.705"/>
					
						<ellipse transform="matrix(0.3091 -0.951 0.951 0.3091 -85.1386 227.192)" style="fill:#6F43D1;" cx="113.795" cy="172.193" rx="0.979" ry="0.705"/>
					<ellipse style="fill:#6F43D1;" cx="110.021" cy="178.38" rx="0.705" ry="0.979"/>
					
						<ellipse transform="matrix(0.6679 -0.7442 0.7442 0.6679 -73.7993 126.6599)" style="fill:#6F43D1;" cx="105.03" cy="146.026" rx="0.979" ry="0.705"/>
					
						<ellipse transform="matrix(0.415 -0.9098 0.9098 0.415 -91.3891 195.3007)" style="fill:#6F43D1;" cx="106.182" cy="168.72" rx="1.451" ry="1.045"/>
					
						<ellipse transform="matrix(0.8261 -0.5636 0.5636 0.8261 -70.2547 96.9975)" style="fill:#6F43D1;" cx="122.016" cy="162.317" rx="1.451" ry="1.045"/>
					
						<ellipse transform="matrix(0.9897 -0.1428 0.1428 0.9897 -14.5752 26.8375)" style="fill:#6F43D1;" cx="179.627" cy="114.93" rx="2.061" ry="1.485"/>
					
						<ellipse transform="matrix(0.9707 -0.2404 0.2404 0.9707 -27.5867 42.3673)" style="fill:#6F43D1;" cx="159.839" cy="134.241" rx="3.154" ry="2.272"/>
					
						<ellipse transform="matrix(0.9246 -0.3809 0.3809 0.9246 -39.2951 66.5003)" style="fill:#6F43D1;" cx="148.38" cy="132.538" rx="3.154" ry="2.272"/>
					
						<ellipse transform="matrix(0.9753 -0.2208 0.2208 0.9753 -22.9918 38.5379)" style="fill:#6F43D1;" cx="160.912" cy="122.128" rx="2.061" ry="1.485"/>
					
						<ellipse transform="matrix(0.9593 -0.2823 0.2823 0.9593 -25.34 46.9924)" style="fill:#6F43D1;" cx="150.391" cy="111.424" rx="1.451" ry="1.045"/>
					
						<ellipse transform="matrix(0.9358 -0.3525 0.3525 0.9358 -33.9628 61.05)" style="fill:#6F43D1;" cx="150.647" cy="123.779" rx="1.451" ry="1.045"/>
					
						<ellipse transform="matrix(0.8668 -0.4987 0.4987 0.8668 -43.9375 86.9705)" style="fill:#6F43D1;" cx="140.797" cy="125.714" rx="2.061" ry="1.485"/>
				</g>
			</g>
			<path style="fill:#9D71FF;" d="M272.762,243.847c8.287-31.228-13.616-43.192-16.339-56.322
				c-2.723-13.131-21.24-52.888-78.97-49.076c-57.73,3.812-68.078,55.007-68.622,70.256c-0.545,15.249-13.071,20.876-4.357,46.383
				s43.57,36.258,77.336,33.334C215.576,285.497,264.592,274.632,272.762,243.847z"/>
			<path style="opacity:0.4;fill:#FFFDEE;" d="M173.561,143.562c-8.153,0.994-18.257,6.105-15.257,10.105
				c10,10,41.659,4.7,47.408-1.329c3.527-3.698-5.749-7.627-16.667-9.883c31-1,60.184,24.456,69.954,54.545
				c0.819,2.523,3.18,3.84,5.365,4.984c-3.592-5.281-6.976-9.799-7.942-14.46c-2.723-13.131-21.24-52.888-78.97-49.076
				c-43.674,2.884-60.227,32.884-65.935,53.925C120.727,169.017,144.302,141.054,173.561,143.562z"/>
			<g>
				<path style="opacity:0.5;fill:#6F43D1;" d="M167.026,254.098c-12.094-4.728-26.071-2.976-36.229,5.202
					c3.798,6.913,9.805,15.2,18.039,18.746c2.95-2.072,13.336-6.784,30.441-10.454C177.358,261.703,173.49,256.733,167.026,254.098z
					"/>
				
					<ellipse transform="matrix(1 -0.0078 0.0078 1 -1.7668 1.8603)" style="opacity:0.5;fill:#6F43D1;" cx="237.666" cy="227.492" rx="7.001" ry="4.206"/>
				
					<ellipse transform="matrix(1 -0.0078 0.0078 1 -1.8105 1.9627)" style="opacity:0.5;fill:#6F43D1;" cx="250.771" cy="233.143" rx="3.458" ry="1.893"/>
				
					<ellipse transform="matrix(1 -0.0078 0.0078 1 -1.8427 1.8785)" style="opacity:0.5;fill:#6F43D1;" cx="239.963" cy="237.232" rx="3.458" ry="1.893"/>
				
					<ellipse transform="matrix(1 -0.0078 0.0078 1 -1.8185 1.7952)" style="opacity:0.5;fill:#6F43D1;" cx="229.293" cy="234.088" rx="2.437" ry="1.334"/>
				
					<ellipse transform="matrix(1 -0.0078 0.0078 1 -1.8585 1.948)" style="opacity:0.5;fill:#6F43D1;" cx="248.866" cy="239.285" rx="1.044" ry="0.571"/>
				
					<ellipse transform="matrix(1 -0.0078 0.0078 1 -1.874 1.828)" style="opacity:0.5;fill:#6F43D1;" cx="233.47" cy="241.215" rx="1.044" ry="0.571"/>
				
					<ellipse transform="matrix(1 -0.0078 0.0078 1 -2.7099 1.7813)" style="opacity:0.5;fill:#6F43D1;" cx="227.067" cy="348.389" rx="2.404" ry="1.316"/>
				
					<ellipse transform="matrix(1 -0.0078 0.0078 1 -2.764 1.7991)" style="opacity:0.5;fill:#6F43D1;" cx="229.317" cy="355.335" rx="3.458" ry="1.893"/>
				
					<ellipse transform="matrix(1 -0.0078 0.0078 1 -2.7399 1.7102)" style="opacity:0.5;fill:#6F43D1;" cx="217.924" cy="352.196" rx="1.714" ry="0.938"/>
				
					<ellipse transform="matrix(1 -0.0078 0.0078 1 -2.7379 1.8552)" style="opacity:0.5;fill:#6F43D1;" cx="236.522" cy="352.014" rx="1.714" ry="0.938"/>
				
					<ellipse transform="matrix(1 -0.0078 0.0078 1 -2.7798 1.8686)" style="opacity:0.5;fill:#6F43D1;" cx="238.22" cy="357.388" rx="1.044" ry="0.571"/>
				
					<ellipse transform="matrix(1 -0.0078 0.0078 1 -2.7953 1.7486)" style="opacity:0.5;fill:#6F43D1;" cx="222.824" cy="359.318" rx="1.044" ry="0.571"/>
				
					<ellipse transform="matrix(1 -0.0078 0.0078 1 -2.7518 1.9167)" style="opacity:0.5;fill:#6F43D1;" cx="244.409" cy="353.823" rx="1.044" ry="0.571"/>
				
					<ellipse transform="matrix(1 -0.0078 0.0078 1 -2.5732 2.3641)" style="opacity:0.5;fill:#6F43D1;" cx="301.859" cy="331.143" rx="2.404" ry="1.316"/>
				
					<ellipse transform="matrix(1 -0.0078 0.0078 1 -2.6273 2.3818)" style="opacity:0.5;fill:#6F43D1;" cx="304.109" cy="338.089" rx="3.458" ry="1.893"/>
				
					<ellipse transform="matrix(1 -0.0078 0.0078 1 -2.6032 2.2929)" style="opacity:0.5;fill:#6F43D1;" cx="292.716" cy="334.951" rx="1.714" ry="0.938"/>
				
					<ellipse transform="matrix(1 -0.0078 0.0078 1 -2.6012 2.4379)" style="opacity:0.5;fill:#6F43D1;" cx="311.315" cy="334.769" rx="1.714" ry="0.938"/>
				
					<ellipse transform="matrix(1 -0.0078 0.0078 1 -2.643 2.4513)" style="opacity:0.5;fill:#6F43D1;" cx="313.012" cy="340.143" rx="1.044" ry="0.571"/>
				
					<ellipse transform="matrix(1 -0.0078 0.0078 1 -2.6585 2.3313)" style="opacity:0.5;fill:#6F43D1;" cx="297.616" cy="342.073" rx="1.044" ry="0.571"/>
				
					<ellipse transform="matrix(1 -0.0078 0.0078 1 -2.615 2.4995)" style="opacity:0.5;fill:#6F43D1;" cx="319.201" cy="336.578" rx="1.044" ry="0.571"/>
				
					<ellipse transform="matrix(1 -0.0078 0.0078 1 -2.643 1.326)" style="opacity:0.5;fill:#6F43D1;" cx="168.715" cy="339.575" rx="2.404" ry="1.316"/>
				
					<ellipse transform="matrix(1 -0.0078 0.0078 1 -2.6971 1.3438)" style="opacity:0.5;fill:#6F43D1;" cx="170.964" cy="346.521" rx="3.458" ry="1.893"/>
				
					<ellipse transform="matrix(1 -0.0078 0.0078 1 -2.673 1.2548)" style="opacity:0.5;fill:#6F43D1;" cx="159.572" cy="343.383" rx="1.714" ry="0.938"/>
				
					<ellipse transform="matrix(1 -0.0078 0.0078 1 -2.671 1.3999)" style="opacity:0.5;fill:#6F43D1;" cx="178.17" cy="343.201" rx="1.714" ry="0.938"/>
				
					<ellipse transform="matrix(1 -0.0078 0.0078 1 -2.7128 1.4133)" style="opacity:0.5;fill:#6F43D1;" cx="179.868" cy="348.575" rx="1.044" ry="0.571"/>
				
					<ellipse transform="matrix(1 -0.0078 0.0078 1 -2.7283 1.2933)" style="opacity:0.5;fill:#6F43D1;" cx="164.472" cy="350.505" rx="1.044" ry="0.571"/>
				
					<ellipse transform="matrix(1 -0.0078 0.0078 1 -2.6848 1.4614)" style="opacity:0.5;fill:#6F43D1;" cx="186.057" cy="345.009" rx="1.044" ry="0.571"/>
				
					<ellipse transform="matrix(1 -0.0078 0.0078 1 -1.7859 2.33)" style="opacity:0.5;fill:#6F43D1;" cx="297.888" cy="230.174" rx="7.001" ry="4.206"/>
				
					<ellipse transform="matrix(1 -0.0078 0.0078 1 -1.8296 2.4324)" style="opacity:0.5;fill:#6F43D1;" cx="310.993" cy="235.825" rx="3.458" ry="1.893"/>
				
					<ellipse transform="matrix(1 -0.0078 0.0078 1 -1.8618 2.3482)" style="opacity:0.5;fill:#6F43D1;" cx="300.184" cy="239.913" rx="3.458" ry="1.893"/>
				
					<ellipse transform="matrix(1 -0.0078 0.0078 1 -1.8376 2.2649)" style="opacity:0.5;fill:#6F43D1;" cx="289.515" cy="236.77" rx="2.437" ry="1.334"/>
				
					<ellipse transform="matrix(1 -0.0078 0.0078 1 -1.8775 2.4177)" style="opacity:0.5;fill:#6F43D1;" cx="309.087" cy="241.967" rx="1.044" ry="0.571"/>
				
					<ellipse transform="matrix(1 -0.0078 0.0078 1 -1.8931 2.2977)" style="opacity:0.5;fill:#6F43D1;" cx="293.691" cy="243.897" rx="1.044" ry="0.571"/>
				
					<ellipse transform="matrix(1 -0.0078 0.0078 1 -1.8065 0.9061)" style="opacity:0.5;fill:#6F43D1;" cx="115.293" cy="232.103" rx="5.062" ry="3.04"/>
				
					<ellipse transform="matrix(1 -0.0078 0.0078 1 -1.876 0.9265)" style="opacity:0.5;fill:#6F43D1;" cx="117.868" cy="241.02" rx="3.458" ry="1.893"/>
				
					<ellipse transform="matrix(1 -0.0078 0.0078 1 -1.8518 0.8432)" style="opacity:0.5;fill:#6F43D1;" cx="107.199" cy="237.876" rx="2.437" ry="1.334"/>
				
					<ellipse transform="matrix(1 -0.0078 0.0078 1 -1.8917 0.996)" style="opacity:0.5;fill:#6F43D1;" cx="126.772" cy="243.074" rx="1.044" ry="0.571"/>
				
					<ellipse transform="matrix(1 -0.0078 0.0078 1 -1.9072 0.876)" style="opacity:0.5;fill:#6F43D1;" cx="111.376" cy="245.004" rx="1.044" ry="0.571"/>
			</g>
			<path style="fill:#6F43D1;" d="M220.835,253.055c-0.173-1.364-0.826-2.692-1.732-3.76c-0.909-1.075-2.086-1.889-3.342-2.371
				c-1.258-0.486-2.571-0.725-3.907-0.572c-0.108,0.013-0.208,0.08-0.257,0.186c-0.074,0.162-0.003,0.353,0.159,0.427l0.03,0.014
				c1.695,0.776,3.26,1.641,4.497,2.742c-1.464,2.345-3.302,4.436-5.443,6.181c-2.419,1.956-5.162,3.498-8.019,4.763
				c-2.858,1.274-5.853,2.249-8.896,3.033c-1.512,0.428-3.059,0.73-4.593,1.075c-1.547,0.305-3.091,0.57-4.654,0.85
				c-6.291,1.055-12.55,2.365-18.712,4.096c-3.081,0.866-6.139,1.825-9.157,2.935c-2.416,0.915-4.784,1.845-7.132,3.105
				c-0.368-0.792-0.776-1.576-1.064-2.402c-0.331-0.985-0.71-1.966-0.892-2.996c-0.502-2.032-0.632-4.153-0.497-6.262
				c0.129-2.112,0.557-4.227,1.275-6.253c0.707-2.024,1.68-3.997,2.912-5.752l0.013-0.018c0.075-0.107,0.057-0.256-0.045-0.342
				c-0.108-0.091-0.27-0.077-0.36,0.031c-1.444,1.72-2.6,3.634-3.523,5.68c-0.928,2.041-1.576,4.225-1.911,6.472
				c-0.341,2.242-0.401,4.563-0.048,6.835c0.107,1.152,0.419,2.259,0.696,3.381c0.104,0.406,0.236,0.803,0.374,1.197
				c-1.819-1.044-3.539-2.292-5.141-3.704c-2.294-2.1-4.335-4.499-6.201-7.036c-1.851-2.553-3.474-5.281-4.956-8.084
				c-1.357-2.605-2.599-5.299-3.631-8.041c0.228-0.152,0.444-0.318,0.686-0.462c0.512-0.3,1.107-0.564,1.701-0.817l0.122-0.052
				c0.099-0.042,0.184-0.12,0.234-0.224c0.11-0.229,0.013-0.505-0.216-0.615c-0.824-0.395-1.662-0.416-2.496-0.275
				c-0.833,0.138-1.612,0.507-2.289,0.984c-0.677,0.482-1.228,1.101-1.632,1.789c-0.39,0.697-0.649,1.454-0.665,2.279
				c-0.001,0.069,0.015,0.142,0.05,0.207c0.11,0.203,0.364,0.278,0.567,0.168l0.036-0.019c0.36-0.195,0.638-0.42,0.91-0.638
				c0.292-0.198,0.53-0.428,0.788-0.625c0.44-0.354,0.841-0.702,1.247-1.029c0.934,2.749,2.044,5.406,3.283,8.023
				c1.402,2.912,2.955,5.763,4.764,8.469c1.826,2.692,3.853,5.272,6.203,7.591c2.391,2.275,5.094,4.272,8.139,5.753
				c0.346,0.165,0.773,0.162,1.126-0.051l0.11-0.067h0c2.43-1.595,5.414-2.852,8.299-3.997c2.921-1.142,5.909-2.145,8.925-3.058
				c6.035-1.826,12.202-3.247,18.416-4.417c1.557-0.311,3.139-0.615,4.7-0.956c1.557-0.382,3.122-0.722,4.659-1.19
				c3.089-0.862,6.135-1.921,9.055-3.292c2.917-1.362,5.729-3.015,8.213-5.107c2.134-1.809,3.97-3.967,5.427-6.353
				c0.093,0.104,0.19,0.205,0.278,0.313c0.665,0.814,1.218,1.718,1.58,2.762c0.236,0.502,0.325,1.065,0.505,1.62
				c0.154,0.565,0.215,1.155,0.404,1.766l0.019,0.061c0.035,0.109,0.121,0.2,0.239,0.235c0.19,0.057,0.39-0.051,0.447-0.24
				c0.186-0.619,0.343-1.265,0.413-1.926C220.93,254.411,221.001,253.726,220.835,253.055z"/>
			<path style="fill:#6F43D1;" d="M176.448,246.374c3.044,2.041-1.187,5.935-3.969,5.134
				C169.698,250.707,173.404,244.334,176.448,246.374z"/>
			<path style="fill:#6F43D1;" d="M139.277,250.203c1.244-0.498,0.249-5.225-1.99-4.23
				C135.048,246.969,138.033,250.7,139.277,250.203z"/>
			<g>
				<path style="fill:#6F43D1;" d="M137.996,236.648c3.521-2.193,7.447-3.791,11.536-4.673c4.082-0.922,8.307-1.218,12.487-0.929
					c4.178,0.302,8.311,1.156,12.245,2.54c3.927,1.41,7.628,3.344,11.076,5.605c0.148,0.097,0.19,0.296,0.093,0.445
					c-0.089,0.135-0.262,0.182-0.404,0.115l-0.008-0.004c-3.711-1.72-7.469-3.23-11.327-4.388
					c-3.875-1.095-7.833-1.826-11.824-2.079c-3.989-0.266-8.006-0.059-11.961,0.596c-3.956,0.659-7.842,1.79-11.581,3.391
					l-0.008,0.003c-0.178,0.076-0.385-0.006-0.461-0.185C137.79,236.923,137.851,236.738,137.996,236.648z"/>
			</g>
			<g>
				<path style="fill:#6F43D1;" d="M144.025,228.344c-0.237-1.065-0.322-2.201-0.085-3.319c0.25-1.103,0.708-2.191,1.425-3.108
					c0.738-0.886,1.622-1.671,2.643-2.216c1.02-0.53,2.115-0.936,3.242-1.112c2.253-0.376,4.563-0.147,6.678,0.536
					c1.966,0.623,3.9,1.143,5.802,1.286c1.914,0.142,3.583-0.339,5.35-1.336l1.361-0.754c0.244-0.128,0.447-0.254,0.724-0.384
					c0.312-0.127,0.626-0.263,0.943-0.361c1.299-0.328,2.57-0.113,3.685,0.32c1.119,0.443,2.12,1.143,2.888,2.067
					c0.751,0.934,1.259,2.08,1.378,3.27c0.172,2.426-1.021,4.56-2.526,6.056c-0.152,0.151-0.397,0.15-0.547-0.001
					c-0.13-0.131-0.147-0.331-0.053-0.48l0.011-0.018l0.808-1.274c0.198-0.453,0.433-0.887,0.597-1.34
					c0.279-0.917,0.427-1.859,0.238-2.74c-0.201-0.87-0.603-1.671-1.214-2.322c-0.624-0.637-1.417-1.107-2.245-1.391
					c-0.827-0.276-1.728-0.35-2.455-0.111l-0.508,0.218c-0.193,0.094-0.432,0.248-0.645,0.369l-1.351,0.806
					c-0.923,0.539-1.957,1.082-3.102,1.391c-1.141,0.317-2.332,0.403-3.467,0.346c-2.27-0.127-4.386-0.753-6.379-1.417
					c-1.844-0.603-3.782-0.908-5.66-0.671c-1.881,0.183-3.671,0.977-4.983,2.301c-0.639,0.676-1.14,1.482-1.468,2.379
					c-0.31,0.907-0.38,1.886-0.354,2.886l0.001,0.032c0.005,0.205-0.156,0.375-0.361,0.38
					C144.217,228.639,144.063,228.514,144.025,228.344z"/>
			</g>
			<g>
				
					<ellipse transform="matrix(0.9959 -0.0902 0.0902 0.9959 -18.173 20.1464)" style="fill:#312C2B;" cx="213.899" cy="211.217" rx="8.734" ry="11.56"/>
				<g style="opacity:0.75;">
					<circle style="fill:#FFFFFF;" cx="213.402" cy="205.725" r="3.134"/>
				</g>
			</g>
			<g>
				
					<ellipse transform="matrix(0.12 -0.9928 0.9928 0.12 -93.3933 320.9018)" style="fill:#312C2B;" cx="134.313" cy="213.131" rx="11.56" ry="8.734"/>
				<g style="opacity:0.75;">
					<circle style="fill:#FFFFFF;" cx="134.975" cy="207.656" r="3.134"/>
				</g>
			</g>
			<g>
				<g>
					<path style="fill:#6F43D1;" d="M128.12,176.087c-0.768-0.775-1.445-1.691-1.839-2.764c-0.376-1.067-0.567-2.232-0.449-3.39
						c0.153-1.143,0.483-2.278,1.057-3.283c0.581-0.992,1.292-1.919,2.152-2.668c1.707-1.518,3.784-2.554,5.938-3.103
						c1.996-0.52,3.909-1.11,5.596-2.002c1.696-0.899,2.852-2.195,3.816-3.98l0.751-1.363c0.138-0.238,0.243-0.453,0.408-0.71
						c0.196-0.274,0.389-0.556,0.606-0.808c0.924-0.969,2.115-1.464,3.289-1.692c1.183-0.22,2.403-0.162,3.545,0.212
						c1.133,0.391,2.174,1.09,2.908,2.034c1.438,1.962,1.564,4.403,1.087,6.471c-0.048,0.208-0.256,0.338-0.464,0.29
						c-0.18-0.041-0.301-0.202-0.3-0.378l0-0.021l0.006-1.508c-0.074-0.489-0.106-0.982-0.208-1.452
						c-0.252-0.925-0.628-1.801-1.258-2.445c-0.633-0.629-1.401-1.093-2.264-1.318c-0.867-0.207-1.789-0.182-2.641,0.018
						c-0.846,0.207-1.649,0.624-2.137,1.214l-0.314,0.455c-0.113,0.182-0.233,0.44-0.35,0.656l-0.714,1.401
						c-0.494,0.948-1.08,1.958-1.885,2.829c-0.797,0.876-1.759,1.583-2.75,2.139c-1.989,1.102-4.113,1.698-6.154,2.197
						c-1.882,0.472-3.685,1.246-5.148,2.446c-1.494,1.156-2.587,2.782-2.992,4.601c-0.181,0.913-0.176,1.861,0.024,2.795
						c0.221,0.932,0.683,1.799,1.238,2.632l0.018,0.027c0.114,0.17,0.067,0.401-0.103,0.514
						C128.439,176.235,128.242,176.211,128.12,176.087z"/>
				</g>
				<path style="fill:#F2E9B3;" d="M148.731,85.594c5.951,4.587,22.438,5.703,30.744-4.959c1.822-7.314-13.265-17.381-18.719-18.099
					C155.425,64.643,146.5,78.279,148.731,85.594z"/>
				<path style="fill:#ECD585;" d="M174.504,70.588c0.922,2.137,1.351,4.275,0.496,6.412c-2,5-10,7-16,5
					c-3.463-0.693-6.922-4.266-7.726-8.722c-2.243,4.288-3.565,8.965-2.543,12.315c5.951,4.587,22.438,5.703,30.744-4.959
					C180.263,77.474,177.89,73.8,174.504,70.588z"/>
				<path style="fill:#F2E9B3;" d="M207.228,81.503c3.204,6.796,17.37,15.307,29.623,9.606c4.957-5.679-1.88-20.517-6.407-23.644
					C224.739,66.91,208.578,73.976,207.228,81.503z"/>
				<path style="fill:#ECD585;" d="M230.445,67.465C229.893,67.411,233.892,81.633,228,85c-5.684,2.842-11.907,1.826-20.772-3.497
					c3.204,6.796,17.37,15.307,29.623,9.606C241.808,85.43,234.972,70.591,230.445,67.465z"/>
				<path style="fill:#F2E9B3;" d="M261.229,102.001c-1.534,16.625,9.969,24.874,23.949,25.934
					c2.898-6.136,6.197-19.08,2.332-25.934C279.827,97.56,266.375,98.956,261.229,102.001z"/>
				<path style="fill:#ECD585;" d="M287.509,102c-0.047-0.027-0.099-0.048-0.146-0.075c-0.742,6.755-1.989,13.771-7.363,16.074
					c-8.021,2.406-16.036-4.196-18.897-12.578c0.251,14.338,11.091,21.528,24.075,22.513
					C288.075,121.798,291.375,108.855,287.509,102z"/>
				<path style="fill:#F2E9B3;" d="M295.519,149.235c-5.622,5.478-6.252,23.21,1.009,30.563c8.794-0.577,17.088-12.831,17.011-18.02
					C312.386,157.807,305.466,151.974,295.519,149.235z"/>
				<path style="fill:#ECD585;" d="M294,161c-1.358-1.358-1.791-4.101-1.305-6.974c-2.717,7.599-1.922,19.943,3.833,25.771
					c8.794-0.577,17.088-12.831,17.011-18.02c-0.05-0.173-0.126-0.354-0.198-0.534C306.643,164.643,299.422,166.422,294,161z"/>
				<path style="fill:#F2E9B3;" d="M294.165,191.407c4.445,5.06,5.482,13.586,4.333,15.693c-1.149,2.107-7.307,5.267-15.906,4.803
					C281.741,206.238,286.624,193.406,294.165,191.407z"/>
				<path style="fill:#ECD585;" d="M286.562,197.9c-2.935,4.664-4.479,10.614-3.969,14.002c8.599,0.464,14.757-2.696,15.906-4.803
					c0.146-0.268,0.256-0.641,0.329-1.095C293.014,205.39,286.848,202.769,286.562,197.9z"/>
				<path style="fill:#F2E9B3;" d="M121.876,99.343c1.556,14.085-9.449,26.826-20.569,28.66c-3.569-5.617-4.935-19.228-1.907-25.647
					C105.007,98.573,112.332,97.939,121.876,99.343z"/>
				<path style="fill:#ECD585;" d="M106,116c-4.588-1.529-6.25-6.568-7.227-11.984c-2.163,6.871-0.753,18.813,2.534,23.987
					c10.994-1.813,21.867-14.288,20.609-28.182C120.345,109.144,114.781,118.195,106,116z"/>
				<path style="fill:#F2E9B3;" d="M94.773,143.476c3.584,8.138,0.543,23.541-2.207,27.529c-6.051-2.888-14.238-9.764-14.238-16.64
					C80.426,147.626,89.54,143.222,94.773,143.476z"/>
				<path style="fill:#ECD585;" d="M85,159c-2.43-0.81-4.841-2.946-6.208-5.849c-0.179,0.395-0.336,0.8-0.465,1.213
					c0,6.876,8.187,13.752,14.238,16.64c2.011-2.917,4.174-11.936,3.792-19.756C94.355,156.279,90.69,160.423,85,159z"/>
				<path style="fill:#F2E9B3;" d="M95.566,192.276c7.105,2.592,11.651,15.564,10.086,21.371
					c-3.424,1.538-10.088-1.331-13.897-5.253C90.727,202.297,92.208,195.684,95.566,192.276z"/>
				<path style="fill:#ECD585;" d="M99.823,195.283c0.743,2.988,1.097,5.958,0.177,8.717c-0.747,3.735-5.398,2.446-8.539-0.528
					c-0.071,1.631,0.019,3.295,0.293,4.923c3.809,3.922,10.473,6.791,13.897,5.253C106.875,209.11,104.367,200.199,99.823,195.283z"
					/>
				<path style="fill:#F2E9B3;" d="M144.677,165.432c6.678-6.662,2.659-17.429-4.727-22.451
					c-7.385-5.022-12.998-16.543-16.248-14.771c-3.25,1.772-6.321,24.067,3.545,35.449
					C132.378,169.579,141.177,168.924,144.677,165.432z"/>
				<path style="fill:#ECD585;" d="M139.95,142.981c-1.023-0.695-2.01-1.518-2.963-2.41c1.878,6.272,2.468,12.966-2.987,15.011
					c-6.524,1.957-10.918-2.896-13.186-8.728c0.631,6.009,2.504,12.272,6.433,16.806c5.131,5.919,13.929,5.264,17.429,1.773
					C151.354,158.77,147.335,148.003,139.95,142.981z"/>
				<g>
					<path style="fill:#6F43D1;" d="M203.29,158.294c0.164-1.078,0.495-2.169,1.121-3.125c0.632-0.938,1.453-1.787,2.452-2.382
						c1.008-0.559,2.116-0.971,3.266-1.11c1.142-0.126,2.311-0.108,3.425,0.136c2.237,0.464,4.307,1.513,6.033,2.914
						c1.608,1.291,3.223,2.475,4.945,3.297c1.733,0.824,3.463,0.98,5.471,0.688l1.541-0.211c0.274-0.031,0.509-0.075,0.814-0.096
						c0.336-0.006,0.679-0.019,1.01,0.004c1.329,0.164,2.437,0.824,3.32,1.63c0.883,0.818,1.564,1.832,1.945,2.971
						c0.362,1.143,0.422,2.395,0.102,3.547c-0.716,2.324-2.601,3.882-4.545,4.733c-0.196,0.086-0.424-0.003-0.51-0.199
						c-0.074-0.169-0.018-0.362,0.125-0.467l0.017-0.012l1.214-0.895c0.348-0.351,0.725-0.671,1.041-1.033
						c0.592-0.754,1.071-1.578,1.212-2.468c0.127-0.884,0.042-1.776-0.293-2.604c-0.352-0.819-0.921-1.544-1.59-2.109
						c-0.671-0.556-1.484-0.951-2.249-0.991l-0.553,0.02c-0.214,0.018-0.492,0.075-0.735,0.111l-1.551,0.263
						c-1.056,0.169-2.216,0.301-3.395,0.175c-1.178-0.117-2.32-0.467-3.357-0.931c-2.071-0.939-3.817-2.288-5.435-3.628
						c-1.501-1.228-3.198-2.214-5.034-2.672c-1.819-0.509-3.776-0.417-5.478,0.344c-0.84,0.4-1.598,0.969-2.229,1.687
						c-0.616,0.733-1.036,1.621-1.374,2.563l-0.011,0.03c-0.069,0.193-0.281,0.293-0.474,0.224
						C203.362,158.638,203.264,158.466,203.29,158.294z"/>
				</g>
				<path style="fill:#F2E9B3;" d="M224.525,165.799c9.326-1.414,12.463-12.471,9.486-20.891c-2.977-8.42-0.678-21.028-4.346-21.524
					c-3.668-0.496-19.345,15.651-18.135,30.665C212.159,161.858,219.637,166.54,224.525,165.799z"/>
				<path style="fill:#ECD585;" d="M234.011,144.908c-0.156-0.44-0.294-0.894-0.422-1.355c-0.919,4.7-2.539,8.907-7.354,9.918
					c-7.62,1.705-10.918-5.339-12.15-12.437c-1.812,4.14-2.908,8.625-2.554,13.016c0.629,7.808,8.107,12.49,12.995,11.749
					C233.851,164.385,236.988,153.328,234.011,144.908z"/>
			</g>
			<g>
				<path style="fill:#F2E9B3;" d="M149.722,223.399c5.577,6.287,21.974,6.518,24.88-2.502c0.006-6.518-5.91-8.855-7.622-13.599
					c-2.543-7.048-2.422-13.866-5.326-15.022C155.456,193.275,145.255,211.541,149.722,223.399z"/>
				<path style="fill:#ECD585;" d="M169.05,210.694c-0.596,3.465-2.144,6.562-5.05,8.306c-3,1-7,1-10-2
					c-3.353-4.694-2.209-9.839-1.393-15.131c-3.339,6.471-5.353,14.977-2.884,21.53c5.577,6.287,21.974,6.518,24.88-2.502
					C174.607,216.112,171.423,213.579,169.05,210.694z"/>
			</g>
			<g>
				<path style="fill:#6F43D1;" d="M156.584,289.026c-6.356-0.595-12.683-1.789-18.83-3.684c-6.131-1.922-12.119-4.518-17.554-8.124
					c-5.406-3.608-10.269-8.254-13.737-13.902c-1.749-2.79-3.119-5.892-4.07-8.995c-0.982-3.083-1.777-6.25-2.256-9.499
					c-0.453-3.248-0.597-6.589-0.201-9.896c0.369-3.308,1.273-6.541,2.418-9.565c1.136-3.035,2.421-5.904,3.389-8.79
					c0.977-2.909,1.538-5.772,1.611-8.886c0.165-3.175,0.375-6.4,0.929-9.608c0.539-3.206,1.39-6.369,2.54-9.393
					c2.297-6.059,5.464-11.648,8.88-17.012c0.297-0.466,0.915-0.603,1.381-0.306c0.452,0.288,0.595,0.879,0.331,1.34l-0.006,0.01
					c-3.13,5.446-6.099,11.002-8.1,16.859c-0.995,2.926-1.746,5.91-2.201,8.952c-0.468,3.039-0.615,6.144-0.719,9.286
					c-0.018,0.767-0.063,1.604-0.111,2.441c-0.079,0.83-0.168,1.66-0.307,2.482c-0.27,1.644-0.676,3.259-1.166,4.823
					c-0.971,3.14-2.295,6.048-3.345,8.949c-1.073,2.895-1.859,5.81-2.175,8.796c-0.338,2.981-0.192,6.014,0.245,9.022
					c0.464,3.009,1.229,5.993,2.185,8.929c0.942,2.929,2.086,5.685,3.686,8.268c3.119,5.181,7.571,9.535,12.638,12.979
					c5.055,3.489,10.705,6.164,16.591,8.164c5.883,2.03,12,3.431,18.198,4.376c0.546,0.082,0.922,0.592,0.84,1.138
					C157.587,288.706,157.107,289.073,156.584,289.026z"/>
			</g>
		</g>
		<g>
			<g>
				<g>
					<path style="fill:#6F43D1;" d="M221.761,300.242c-2.367,5.336-3.082,10.994-4.003,16.725c-0.9,5.598-1.946,11.16-3.252,16.678
						c-0.37,1.564,2.052,2.23,2.407,0.664c1.225-5.404,2.192-10.843,2.959-16.331c0.81-5.793,0.895-11.841,2.456-17.497
						C222.419,300.154,221.907,299.912,221.761,300.242L221.761,300.242z"/>
				</g>
			</g>
			<g>
				<g>
					<path style="fill:#6F43D1;" d="M212.645,302.103c-0.558,3.291-0.175,6.382,0.512,9.627c0.651,3.072,2.387,5.434,4.416,7.783
						c0.889,1.029,2.667-0.326,1.896-1.463c-1.57-2.315-3.36-4.168-4.2-6.902c-0.885-2.881-1.802-5.872-1.646-8.912
						C213.652,301.684,212.74,301.544,212.645,302.103L212.645,302.103z"/>
				</g>
			</g>
			<g>
				<g>
					<path style="fill:#6F43D1;" d="M301.389,282.026c-5.176,5.698-7.702,12.568-9.242,20.031
						c-1.812,8.784-4.081,17.653-5.352,26.528c-0.138,0.961,1.279,1.414,1.499,0.413c1.816-8.266,3.449-16.61,4.9-24.947
						c1.327-7.621,3.5-15.653,8.398-21.821C301.706,282.088,301.517,281.885,301.389,282.026L301.389,282.026z"/>
				</g>
			</g>
			<g>
				<g>
					<path style="fill:#6F43D1;" d="M289.098,288.204c-0.508,4.18-0.954,8.338-0.625,12.552c0.127,1.626,0.333,3.247,0.627,4.852
						c0.218,1.191,0.323,3.307,1.226,4.21c0.237,0.237,0.576,0.252,0.862,0.111c0.052-0.025,0.104-0.051,0.156-0.076
						c0.6-0.293,0.314-1.295-0.341-1.259c0.27-0.015-0.625-3.809-0.713-4.288c-0.358-1.951-0.587-3.92-0.702-5.901
						c-0.198-3.412,0.017-6.802,0.306-10.202C289.939,287.686,289.158,287.705,289.098,288.204L289.098,288.204z"/>
				</g>
			</g>
			<g>
				<g>
					<path style="fill:#6F43D1;" d="M271.028,213.594c3.989,7.774,4.003,17.92,1.899,26.213
						c-2.719,10.716-9.369,20.033-18.417,26.354c-8.182,5.716-18.172,9.069-27.511,12.465c-7.912,2.877-16.017,5.02-24.349,6.263
						c-14.884,2.219-29.802,1.979-44.788,2.477c-1.038,0.035-1.028,1.543,0,1.605c8.144,0.494,16.35,0.172,24.503,0.091
						c5.997-0.06,12-0.522,17.946-1.292c8.933-1.156,17.64-3.22,26.127-6.235c9.622-3.419,20.027-6.884,28.501-12.643
						c9.233-6.275,16.336-15.422,19.483-26.19c2.907-9.947,2.2-20.362-2.737-29.492C271.451,212.777,270.805,213.16,271.028,213.594
						L271.028,213.594z"/>
				</g>
			</g>
			<g>
				<g>
					<path style="fill:#6F43D1;" d="M252.025,299.827c1.224,6.052,2.162,12.168,2.901,18.298c0.727,6.027,0.812,12.084,1.402,18.111
						c0.094,0.96,1.493,0.998,1.523,0c0.185-6.052-0.813-12.302-1.699-18.277c-0.912-6.15-2.199-12.223-3.578-18.283
						C252.493,299.316,251.953,299.47,252.025,299.827L252.025,299.827z"/>
				</g>
			</g>
			<g>
				<g>
					<path style="fill:#6F43D1;" d="M326.081,279.423c3.23,16.777,4.891,33.67,4.987,50.753c0.006,1.121,1.74,1.123,1.742,0
						c0.035-17.223-2.203-34.169-6.112-50.923C326.605,278.848,326.004,279.022,326.081,279.423L326.081,279.423z"/>
				</g>
			</g>
		</g>
	</g>
</g>
</svg>
