<?xml version="1.0" encoding="utf-8"?>
<!-- Generator: Adobe Illustrator 27.5.0, SVG Export Plug-In . SVG Version: 6.00 Build 0)  -->
<svg version="1.1" xmlns="http://www.w3.org/2000/svg" xmlns:xlink="http://www.w3.org/1999/xlink" x="0px" y="0px"
	 viewBox="0 0 500 500" style="enable-background:new 0 0 500 500;" xml:space="preserve">
<g id="BACKGROUND">
	<rect y="0" style="fill:#FFFFFF;" width="500" height="500"/>
</g>
<g id="OBJECTS">
	<g>
		<g>
			<g>
				<circle style="fill:#FFF7D0;" cx="322.41" cy="241.364" r="134.051"/>
				<circle style="fill:#FFF7D0;" cx="184.644" cy="198.122" r="147.166"/>
			</g>
			<g>
				<g>
					<path style="fill:none;stroke:#5EBD7E;stroke-width:2.188;stroke-miterlimit:10;" d="M361.532,295.675
						c-1.517,40.224-9.496,80.197-23.538,117.92"/>
					<g>
						<path style="fill:#80ABC8;" d="M361.114,294.373c0.268-0.135,0.039-1.456,0.028-1.666c-0.157-3.11,0.453-6.254,1.74-9.088
							c0.564-1.242,1.244-2.812,2.376-3.615c0.97-0.687,2.493-1.205,3.437-0.155c0.517,0.574,0.589,1.416,0.557,2.188
							c-0.107,2.598-1.101,5.11-2.56,7.262C365.232,291.45,363.321,293.263,361.114,294.373z"/>
						<path style="fill:#80ABC8;" d="M361.114,294.373c-0.357,0.031-2.181-2.611-2.502-2.974c-0.891-1.008-1.807-1.994-2.747-2.957
							c-1.702-1.742-3.651-3.267-6.089-3.827c-0.786-0.18-1.764-0.185-2.221,0.479c-0.274,0.398-0.27,0.922-0.201,1.4
							c0.473,3.271,3.555,5.221,6.35,6.48C356.074,294.042,358.652,294.584,361.114,294.373z"/>
						<path style="fill:#80ABC8;" d="M361.114,294.373c0.114-2.879,0.559-5.521,0.225-8.383c-0.403-3.463-0.908-7.026-3.713-9.432
							c-0.615-0.527-1.316-0.982-2.105-1.165c-0.789-0.184-1.677-0.063-2.3,0.454c-0.91,0.755-1.033,2.099-0.936,3.278
							c0.25,3.034,1.69,5.429,3.016,8.056C356.679,289.906,358.884,292.322,361.114,294.373z"/>
						<path style="opacity:0.3;fill:#1D1D1B;" d="M357.846,285.983c-0.122-0.215-0.275-0.4-0.429-0.338
							c-0.195,0.078-0.115,0.577-0.103,0.726c0.073,0.91,0.264,1.831,0.635,2.668c0.439,0.99,0.878,1.979,1.316,2.969
							c0.079,0.178,0.219,0.446,0.46,0.39c0.188-0.043,0.323-0.316,0.311-0.496c-0.014-0.208-0.158-0.407-0.243-0.591
							c-0.109-0.238-0.202-0.484-0.292-0.729c-0.358-0.979-0.617-1.99-0.964-2.972c-0.135-0.383-0.284-0.761-0.457-1.129
							C358.044,286.398,357.958,286.178,357.846,285.983z"/>
						<path style="opacity:0.3;fill:#1D1D1B;" d="M364.08,288.85c0.337-0.572,0.663-1.151,0.966-1.742
							c0.072-0.141,0.58-1.448,0.809-1.167c0.098,0.12-0.031,0.158-0.065,0.253c-0.11,0.308-0.194,0.627-0.293,0.94
							c-0.208,0.656-0.439,1.304-0.699,1.94c-0.525,1.287-1.177,2.534-1.967,3.657c-0.586,0.818-1.178,0.444-0.799-0.31
							C362.592,291.267,363.355,290.087,364.08,288.85z"/>
						<path style="opacity:0.3;fill:#1D1D1B;" d="M359.865,287.314c-0.069-0.54-0.144-1.079-0.232-1.617
							c-0.073-0.446-0.221-0.917-0.218-1.372c0.003-0.389,0.167-0.405,0.355-0.068c0.181,0.325,0.219,0.712,0.326,1.063
							c0.173,0.566,0.33,1.136,0.471,1.711c0.418,1.704,0.679,3.456,0.725,5.187c0.022,1.267-0.678,1.344-0.824,0.289
							C360.223,290.908,360.095,289.12,359.865,287.314z"/>
						<path style="opacity:0.3;fill:#1D1D1B;" d="M351.501,287.965c0.054-0.064,0.166-0.077,0.297-0.011
							c0.317,0.16,0.6,0.432,0.9,0.625c0.604,0.39,1.209,0.778,1.813,1.169c1.214,0.787,2.423,1.585,3.599,2.428
							c0.607,0.435,0.662,0.85,0.377,0.948c0.542,0.016,1.08,0.043,1.608,0.099c0.577,0.061,0.538,0.752,0.021,0.839
							c-0.761,0.129-1.543,0.009-2.287-0.164c-0.4-0.093-0.794-0.206-1.188-0.321c-0.163-0.047-0.912-0.152-0.944-0.351
							c-0.04-0.249,0.926-0.129,1.08-0.128c0.449,0.005,0.898,0.008,1.347,0.017c-0.091-0.025-0.192-0.065-0.302-0.122
							c-1.34-0.693-2.551-1.619-3.713-2.574c-0.614-0.504-1.215-1.023-1.814-1.544c-0.212-0.184-0.623-0.408-0.769-0.642
							C351.451,288.118,351.453,288.022,351.501,287.965z"/>
						<path style="fill:#5BC980;" d="M361.45,295.667c0.777-0.681,2.118-1.43,2.675-2.3c0.284-0.443,0.518-1.075,0.145-1.445
							c-0.354-0.352-0.98-0.146-1.326,0.213c-0.347,0.359-0.56,0.841-0.951,1.153c-0.168-0.963-0.907-1.803-1.84-2.094
							c-0.262-0.081-0.572-0.113-0.787,0.057c-0.193,0.154-0.246,0.423-0.267,0.669c-0.065,0.742,0.029,1.499,0.274,2.203
							c-0.372-0.139-0.775-0.253-1.163-0.169c-0.388,0.084-0.747,0.426-0.72,0.823c0.035,0.514,0.624,0.779,1.126,0.892
							C359.722,295.915,360.213,295.92,361.45,295.667z"/>
					</g>
					<path style="fill:#5BC980;" d="M339.938,333.08c0,0,16.021,19.222,9.654,43.11C349.592,376.19,338.412,364.536,339.938,333.08z
						"/>
				</g>
				<g>
					<path style="fill:none;stroke:#5EBD7E;stroke-width:2.188;stroke-miterlimit:10;" d="M390.696,431.908
						c10.01-21.986,25.185-43.206,42.408-60.146"/>
					<path style="fill:#5BC980;" d="M404.625,406.68c0,0,29.989-22.157,30.76-7.397C436.156,414.044,404.625,406.68,404.625,406.68z
						"/>
					<path style="fill:#5BC980;" d="M404.625,406.68c0,0,18.013-36.771,5.276-35.314C397.164,372.824,404.625,406.68,404.625,406.68
						z"/>
					<g>
						<g>
							<g>
								<path style="fill:#FED269;" d="M436.251,367.427c0.166,0.495,0.716,0.784,1.287,0.668c1.649-0.337,3.319-0.56,4.967-0.909
									c1.932-0.41,3.867-1.011,5.487-2.099s2.898-2.722,3.096-4.505c0.198-1.783-0.873-3.649-2.714-4.174
									c-2.188-0.625-4.578,0.685-6.364,2.139c-1.709,1.391-3.228,2.978-4.506,4.706c-0.538,0.728-1.041,1.496-1.278,2.334
									C436.062,366.168,436.038,366.79,436.251,367.427z"/>
							</g>
							<g>
								<path style="fill:#FED269;" d="M436.596,365.701c2.798-3.511,4.325-7.812,4.271-12.029c-0.022-1.69-0.404-3.545-1.893-4.485
									c-1.367-0.864-3.382-0.662-4.818,0.254c-1.436,0.916-2.329,2.426-2.694,3.962c-0.365,1.536-0.252,3.108-0.031,4.637
									c0.316,2.184,0.852,4.331,1.598,6.407c0.225,0.625,0.501,1.282,1.099,1.641
									C434.725,366.446,435.956,366.504,436.596,365.701z"/>
							</g>
							<g>
								<path style="fill:#FED269;" d="M434.206,366.565c-0.417-2.428-1.048-4.876-2.527-6.884c-1.479-2.007-3.95-3.52-6.679-3.426
									c-1.613,0.055-3.357,0.793-4.042,2.154c-0.486,0.966-0.358,2.092,0.113,3.015c0.472,0.923,1.254,1.674,2.078,2.354
									c1.875,1.548,4.034,2.813,6.373,3.736c0.631,0.249,1.294,0.477,1.997,0.472S432.978,367.699,434.206,366.565z"/>
							</g>
							<g>
								<path style="fill:#FED269;" d="M434.395,368.648c0.169-0.723-0.36-1.388-1.154-1.469c-3.102-0.315-6.304-0.087-9.379,0.671
									c-1.379,0.34-2.8,0.826-3.766,1.809c-1.102,1.122-1.407,2.805-0.798,4.128c0.608,1.322,2.075,2.235,3.671,2.344
									c1.654,0.113,3.297-0.565,4.761-1.365c1.799-0.983,3.467-2.176,4.947-3.538
									C433.427,370.539,434.162,369.648,434.395,368.648z"/>
							</g>
							<g>
								<path style="fill:#FED269;" d="M437.247,367.384c4.218,0.35,8.599,0.748,12.117,2.756c1.536,0.877,2.973,2.355,2.578,4.026
									c-0.279,1.179-1.435,2.097-2.681,2.536c-2.479,0.873-5.271,0.138-7.278-1.278c-2.007-1.416-3.384-3.424-4.722-5.392
									c-0.292-0.43-0.591-0.875-0.671-1.384C436.511,368.139,436.693,367.338,437.247,367.384z"/>
							</g>
							<g>
								<path style="fill:#FED269;" d="M436.409,367.249c-0.88-0.142-1.778,0.325-2.367,0.992c-0.589,0.667-0.923,1.51-1.221,2.343
									c-0.839,2.338-1.493,4.788-1.374,7.257c0.059,1.218,0.342,2.495,1.196,3.371c0.863,0.885,2.162,1.213,3.408,1.315
									c1.307,0.108,2.791-0.065,3.633-1.065c0.739-0.877,0.761-2.126,0.673-3.257
									C440.124,375.204,437.289,367.391,436.409,367.249z"/>
							</g>
						</g>
						<path style="fill:#FF8C8A;" d="M438.996,368.118c0.009,0.001,0.017,0,0.026,0.001c1.228,0.084,1.573-1.44,0.538-2.005
							c-0.144-0.079-0.289-0.127-0.433-0.163c0.191-0.219,0.375-0.448,0.544-0.698c0.545-0.804-0.23-2.061-1.224-1.604
							c-0.184,0.085-0.366,0.175-0.549,0.261c0.007-0.028,0.016-0.054,0.022-0.082c0.205-0.887-1.005-1.524-1.671-0.971
							c-0.148,0.122-0.279,0.249-0.407,0.377c0.018-1.066-1.606-1.629-1.988-0.462c-0.113,0.345-0.192,0.685-0.255,1.024
							c-0.843-0.242-1.813,0.888-1.118,1.66c0.201,0.223,0.415,0.424,0.625,0.633c-0.316,0.073-0.633,0.145-0.949,0.218
							c-1.192,0.274-1.171,1.77-0.012,2.075c0.31,0.082,0.618,0.129,0.926,0.157c-0.145,0.174-0.29,0.347-0.435,0.521
							c-0.778,0.933,0.528,2.126,1.467,1.465c0.257-0.181,0.514-0.362,0.771-0.542c0.005,0.161,0.01,0.323,0.014,0.485
							c0.03,1.029,1.705,1.255,2.006,0.27c0.119-0.39,0.24-0.77,0.302-1.175c0.006-0.037,0.008-0.096,0.008-0.163
							c0.135,0.145,0.256,0.296,0.337,0.401c0.699,0.911,2.327,0.065,1.803-1.025C439.237,368.546,439.119,368.329,438.996,368.118z
							"/>
						<path style="fill:#FED269;" d="M436.385,365.717c-0.669-0.242-1.577,0.018-1.821,0.76l-0.017,0.051
							c-0.228,0.692,0.016,1.552,0.76,1.821c0.669,0.242,1.577-0.018,1.821-0.76l0.017-0.051
							C437.373,366.846,437.129,365.985,436.385,365.717z"/>
					</g>
				</g>
				<g>
					<path style="fill:none;stroke:#5EBD7E;stroke-width:2.188;stroke-miterlimit:10;" d="M433.925,301.437
						c0,0-41.126,47.936-69.72,125.408"/>
					<path style="fill:#5BC980;" d="M409.901,334.912c0,0,31.496-18.533,33.703-7.021
						C445.811,339.402,409.901,334.912,409.901,334.912z"/>
					<path style="fill:#5BC980;" d="M409.901,334.912c0,0,11.606-33.848-0.379-26.933
						C397.536,314.893,409.901,334.912,409.901,334.912z"/>
					<path style="fill:#5BC980;" d="M381.478,386.044c0,0,0.749-28.753-9.979-23.957S381.478,386.044,381.478,386.044z"/>
					<path style="fill:#5BC980;" d="M381.478,386.044c0,0,17.63-18.177,17.587-7.343
						C399.021,389.535,381.478,386.044,381.478,386.044z"/>
					<g>
						<g>
							<g>
								<path style="fill:#FED269;" d="M433.244,301.53c0.241,0.322,0.713,0.401,1.103,0.178c1.125-0.644,2.294-1.21,3.416-1.863
									c1.315-0.766,2.586-1.673,3.51-2.859c0.924-1.186,1.465-2.691,1.18-4.044c-0.285-1.352-1.519-2.46-2.993-2.4
									c-1.752,0.071-3.185,1.605-4.142,3.101c-0.915,1.43-1.645,2.958-2.163,4.53c-0.218,0.663-0.401,1.345-0.373,2.017
									C432.802,300.654,432.934,301.115,433.244,301.53z"/>
							</g>
							<g>
								<path style="fill:#FED269;" d="M433.08,300.184c1.201-3.245,1.281-6.76,0.224-9.833c-0.424-1.232-1.15-2.497-2.467-2.826
									c-1.209-0.302-2.635,0.331-3.465,1.348s-1.12,2.338-1.016,3.549c0.103,1.212,0.565,2.336,1.096,3.401
									c0.758,1.522,1.668,2.964,2.714,4.303c0.315,0.403,0.676,0.818,1.2,0.936C431.891,301.18,432.805,300.926,433.08,300.184z"
									/>
							</g>
							<g>
								<path style="fill:#FED269;" d="M431.539,301.392c-0.891-1.676-1.943-3.316-3.509-4.428s-3.74-1.623-5.714-0.897
									c-1.167,0.43-2.266,1.39-2.438,2.551c-0.122,0.824,0.242,1.617,0.81,2.179c0.568,0.562,1.321,0.923,2.088,1.222
									c1.745,0.68,3.631,1.086,5.565,1.197c0.522,0.03,1.062,0.037,1.575-0.136C430.429,302.908,430.914,302.518,431.539,301.392z
									"/>
							</g>
							<g>
								<path style="fill:#FED269;" d="M432.18,302.871c-0.051-0.57-0.598-0.929-1.199-0.797c-2.346,0.518-4.634,1.456-6.702,2.753
									c-0.927,0.582-1.85,1.28-2.32,2.232c-0.536,1.087-0.353,2.392,0.411,3.213c0.764,0.821,2.058,1.135,3.252,0.83
									c1.238-0.316,2.277-1.209,3.155-2.147c1.079-1.153,2.013-2.429,2.767-3.783C431.927,304.488,432.251,303.66,432.18,302.871z
									"/>
							</g>
							<g>
								<path style="fill:#FED269;" d="M433.963,301.258c3.171-0.761,6.474-1.526,9.533-0.905c1.335,0.271,2.744,1.006,2.857,2.325
									c0.08,0.93-0.544,1.88-1.35,2.502c-1.604,1.237-3.825,1.372-5.635,0.82s-3.302-1.689-4.757-2.807
									c-0.318-0.244-0.644-0.498-0.825-0.851C433.606,301.988,433.546,301.358,433.963,301.258z"/>
							</g>
							<g>
								<path style="fill:#FED269;" d="M433.316,301.361c-0.679,0.108-1.223,0.666-1.493,1.297c-0.27,0.63-0.311,1.328-0.329,2.009
									c-0.05,1.913,0.062,3.864,0.745,5.642c0.337,0.877,0.852,1.743,1.688,2.179c0.845,0.44,1.875,0.366,2.811,0.141
									c0.982-0.236,2.027-0.721,2.402-1.656c0.329-0.82,0.044-1.739-0.293-2.546C437.954,306.288,433.995,301.253,433.316,301.361
									z"/>
							</g>
						</g>
						<path style="fill:#FF8C8A;" d="M435.42,301.374c0.007-0.002,0.012-0.004,0.019-0.006c0.919-0.235,0.804-1.433-0.09-1.597
							c-0.125-0.023-0.242-0.023-0.356-0.015c0.087-0.206,0.166-0.418,0.23-0.642c0.205-0.72-0.665-1.453-1.282-0.879
							c-0.114,0.106-0.225,0.216-0.339,0.323c-0.002-0.022-0.001-0.043-0.003-0.066c-0.064-0.699-1.103-0.873-1.457-0.308
							c-0.079,0.125-0.144,0.249-0.207,0.374c-0.244-0.785-1.568-0.805-1.566,0.141c0.001,0.28,0.024,0.547,0.06,0.811
							c-0.675,0.026-1.112,1.087-0.418,1.484c0.201,0.115,0.406,0.21,0.61,0.313c-0.214,0.13-0.428,0.259-0.642,0.389
							c-0.806,0.488-0.43,1.578,0.492,1.522c0.247-0.015,0.484-0.055,0.716-0.109c-0.064,0.162-0.128,0.324-0.192,0.486
							c-0.344,0.87,0.9,1.429,1.427,0.719c0.144-0.194,0.289-0.389,0.433-0.583c0.042,0.117,0.085,0.234,0.127,0.351
							c0.27,0.746,1.55,0.507,1.533-0.286c-0.007-0.314-0.01-0.622-0.062-0.933c-0.005-0.028-0.018-0.072-0.033-0.121
							c0.134,0.074,0.259,0.154,0.344,0.212c0.731,0.498,1.719-0.514,1.072-1.185C435.699,301.629,435.561,301.499,435.42,301.374z"
							/>
						<path style="fill:#FED269;" d="M432.93,300.246c-0.548-0.015-1.15,0.394-1.15,0.995v0.041c0,0.561,0.386,1.132,0.995,1.15
							c0.548,0.015,1.15-0.394,1.15-0.995v-0.041C433.925,300.834,433.539,300.263,432.93,300.246z"/>
					</g>
				</g>
				<g>
					<path style="fill:none;stroke:#5EBD7E;stroke-width:2.188;stroke-miterlimit:10;" d="M416.77,242.637
						c-28.591,56.523-55.783,113.611-71.329,180.961"/>
					<path style="fill:#5BC980;" d="M387.263,306.31c0,0,5.718-55.97-10.152-48.009C361.241,266.261,387.263,306.31,387.263,306.31z
						"/>
					<path style="fill:#5BC980;" d="M387.595,302.432c0,0,23.004-34.42,27.43-20.515
						C419.452,295.823,387.595,302.432,387.595,302.432z"/>
					<path style="fill:#5BC980;" d="M365.765,355.8c0,0,0.376-43.589-13.364-34.821C338.661,329.747,365.765,355.8,365.765,355.8z"
						/>
					<path style="fill:#5BC980;" d="M365.765,355.8c0,0,20.262-24.785,21.831-15.207S365.765,355.8,365.765,355.8z"/>
					<g>
						<g>
							<g>
								<path style="fill:#FED269;" d="M415.777,242.637c0.389,0.521,1.153,0.649,1.783,0.289c1.819-1.042,3.709-1.957,5.522-3.012
									c2.126-1.238,4.181-2.704,5.675-4.623c1.493-1.918,2.368-4.351,1.907-6.538c-0.461-2.187-2.456-3.977-4.838-3.881
									c-2.833,0.114-5.149,2.596-6.696,5.013c-1.48,2.313-2.659,4.782-3.497,7.325c-0.353,1.071-0.648,2.175-0.603,3.26
									C415.062,241.221,415.277,241.968,415.777,242.637z"/>
							</g>
							<g>
								<path style="fill:#FED269;" d="M415.512,240.462c1.942-5.246,2.071-10.93,0.363-15.898c-0.685-1.991-1.86-4.037-3.988-4.569
									c-1.954-0.489-4.26,0.535-5.602,2.18c-1.342,1.644-1.81,3.779-1.643,5.739c0.167,1.959,0.913,3.776,1.771,5.498
									c1.226,2.461,2.697,4.793,4.389,6.958c0.509,0.652,1.092,1.322,1.94,1.513C413.589,242.073,415.068,241.661,415.512,240.462
									z"/>
							</g>
							<g>
								<path style="fill:#FED269;" d="M413.021,242.415c-1.44-2.71-3.141-5.361-5.674-7.16c-2.532-1.799-6.046-2.624-9.238-1.45
									c-1.887,0.695-3.663,2.247-3.942,4.125c-0.198,1.333,0.392,2.615,1.31,3.524c0.918,0.909,2.136,1.492,3.376,1.975
									c2.822,1.1,5.87,1.756,8.998,1.936c0.844,0.049,1.718,0.059,2.547-0.221C411.226,244.865,412.01,244.236,413.021,242.415z"
									/>
							</g>
							<g>
								<path style="fill:#FED269;" d="M414.057,244.806c-0.082-0.921-0.967-1.503-1.938-1.288
									c-3.794,0.837-7.493,2.355-10.836,4.451c-1.499,0.94-2.991,2.069-3.75,3.609c-0.866,1.757-0.571,3.868,0.665,5.195
									c1.235,1.327,3.327,1.835,5.258,1.342c2.001-0.511,3.681-1.954,5.102-3.472c1.745-1.864,3.254-3.927,4.474-6.116
									C413.648,247.421,414.171,246.081,414.057,244.806z"/>
							</g>
							<g>
								<path style="fill:#FED269;" d="M416.939,242.199c5.127-1.23,10.467-2.468,15.412-1.464c2.159,0.438,4.436,1.627,4.62,3.759
									c0.13,1.504-0.88,3.04-2.183,4.046c-2.593,2-6.184,2.219-9.11,1.326c-2.927-0.893-5.339-2.731-7.69-4.539
									c-0.514-0.395-1.041-0.805-1.333-1.377C416.362,243.379,416.265,242.361,416.939,242.199z"/>
							</g>
							<g>
								<path style="fill:#FED269;" d="M415.894,242.365c-1.097,0.175-1.978,1.078-2.414,2.096
									c-0.437,1.019-0.503,2.147-0.532,3.248c-0.081,3.093,0.1,6.248,1.204,9.122c0.544,1.418,1.378,2.819,2.729,3.523
									c1.366,0.711,3.031,0.592,4.545,0.228c1.588-0.382,3.277-1.166,3.884-2.677c0.533-1.326,0.071-2.812-0.473-4.116
									C423.393,250.33,416.991,242.191,415.894,242.365z"/>
							</g>
						</g>
						<path style="fill:#FF8C8A;" d="M419.295,242.386c0.011-0.003,0.02-0.006,0.031-0.009c1.486-0.379,1.3-2.317-0.145-2.582
							c-0.201-0.037-0.391-0.037-0.576-0.024c0.141-0.333,0.269-0.677,0.371-1.038c0.331-1.164-1.076-2.349-2.073-1.421
							c-0.185,0.172-0.364,0.35-0.548,0.523c-0.003-0.036-0.002-0.07-0.006-0.106c-0.104-1.13-1.783-1.411-2.356-0.498
							c-0.127,0.202-0.233,0.403-0.335,0.605c-0.395-1.269-2.535-1.302-2.533,0.228c0.001,0.452,0.039,0.885,0.097,1.311
							c-1.091,0.042-1.799,1.758-0.676,2.4c0.325,0.185,0.657,0.34,0.986,0.505c-0.346,0.209-0.692,0.419-1.038,0.628
							c-1.304,0.789-0.696,2.551,0.795,2.46c0.399-0.024,0.782-0.089,1.157-0.176c-0.104,0.262-0.207,0.524-0.311,0.786
							c-0.557,1.407,1.454,2.31,2.308,1.162c0.234-0.314,0.467-0.628,0.701-0.942c0.069,0.189,0.137,0.378,0.206,0.568
							c0.437,1.205,2.506,0.82,2.479-0.463c-0.011-0.508-0.016-1.005-0.1-1.508c-0.008-0.046-0.028-0.117-0.053-0.196
							c0.217,0.119,0.419,0.25,0.556,0.343c1.182,0.805,2.779-0.831,1.734-1.916C419.746,242.798,419.522,242.587,419.295,242.386z"
							/>
						<path style="fill:#FED269;" d="M415.269,240.562c-0.886-0.025-1.859,0.637-1.859,1.609v0.067c0,0.907,0.624,1.831,1.609,1.859
							c0.886,0.025,1.859-0.637,1.859-1.609v-0.067C416.878,241.513,416.254,240.59,415.269,240.562z"/>
					</g>
				</g>
				<g>
					<path style="fill:none;stroke:#5EBD7E;stroke-width:2.188;stroke-miterlimit:10;" d="M114.056,193.628
						c23.973,72.425,39.115,147.768,44.983,223.831"/>
					<g>
						<g>
							<g>
								<path style="fill:#FED269;" d="M115.035,196.097c0.356,0.476,1.054,0.593,1.63,0.264c1.663-0.952,3.391-1.789,5.048-2.754
									c1.944-1.132,3.822-2.472,5.187-4.226c1.365-1.753,2.164-3.977,1.743-5.976c-0.421-1.999-2.245-3.635-4.423-3.547
									c-2.59,0.104-4.707,2.373-6.121,4.582c-1.353,2.114-2.43,4.372-3.196,6.695c-0.323,0.979-0.592,1.988-0.551,2.98
									C114.382,194.803,114.578,195.485,115.035,196.097z"/>
							</g>
							<g>
								<path style="fill:#FED269;" d="M114.793,194.108c1.775-4.795,1.893-9.991,0.332-14.532c-0.626-1.82-1.7-3.69-3.646-4.176
									c-1.786-0.447-3.894,0.489-5.121,1.992c-1.227,1.503-1.655,3.455-1.502,5.246c0.153,1.791,0.835,3.452,1.619,5.026
									c1.121,2.25,2.465,4.381,4.011,6.36c0.466,0.596,0.999,1.209,1.773,1.383C113.035,195.581,114.387,195.205,114.793,194.108z
									"/>
							</g>
							<g>
								<path style="fill:#FED269;" d="M112.516,195.894c-1.317-2.477-2.872-4.9-5.186-6.544c-2.315-1.644-5.527-2.399-8.444-1.325
									c-1.725,0.635-3.348,2.054-3.603,3.77c-0.181,1.218,0.358,2.39,1.197,3.221c0.839,0.831,1.953,1.364,3.086,1.806
									c2.58,1.005,5.365,1.605,8.225,1.77c0.772,0.044,1.57,0.054,2.328-0.202C110.875,198.134,111.592,197.558,112.516,195.894z"
									/>
							</g>
							<g>
								<path style="fill:#FED269;" d="M113.463,198.08c-0.075-0.842-0.884-1.373-1.771-1.178c-3.468,0.765-6.849,2.152-9.905,4.069
									c-1.37,0.859-2.734,1.891-3.428,3.299c-0.792,1.606-0.522,3.536,0.608,4.749s3.041,1.678,4.806,1.227
									c1.829-0.467,3.365-1.786,4.663-3.173c1.595-1.704,2.974-3.589,4.089-5.59C113.089,200.47,113.567,199.245,113.463,198.08z"
									/>
							</g>
							<g>
								<path style="fill:#FED269;" d="M116.097,195.696c4.687-1.125,9.567-2.256,14.088-1.338c1.974,0.401,4.055,1.487,4.223,3.436
									c0.119,1.375-0.804,2.779-1.996,3.698c-2.37,1.828-5.652,2.028-8.327,1.212c-2.675-0.816-4.88-2.497-7.03-4.149
									c-0.47-0.361-0.951-0.736-1.219-1.258C115.57,196.775,115.481,195.844,116.097,195.696z"/>
							</g>
							<g>
								<path style="fill:#FED269;" d="M115.142,195.849c-1.003,0.16-1.808,0.985-2.207,1.916c-0.399,0.931-0.46,1.962-0.486,2.969
									c-0.074,2.827,0.092,5.711,1.1,8.339c0.498,1.296,1.259,2.577,2.495,3.22c1.248,0.65,2.771,0.541,4.155,0.208
									c1.452-0.349,2.996-1.066,3.55-2.447c0.487-1.212,0.065-2.57-0.433-3.763C121.996,203.129,116.145,195.689,115.142,195.849z
									"/>
							</g>
						</g>
						<path style="fill:#FF8C8A;" d="M118.25,195.867c0.01-0.003,0.018-0.006,0.028-0.008c1.359-0.347,1.188-2.118-0.133-2.36
							c-0.184-0.034-0.357-0.034-0.527-0.022c0.129-0.305,0.246-0.618,0.339-0.949c0.303-1.064-0.983-2.147-1.895-1.299
							c-0.169,0.157-0.333,0.32-0.501,0.478c-0.003-0.033-0.002-0.064-0.005-0.097c-0.095-1.033-1.63-1.29-2.154-0.455
							c-0.116,0.185-0.213,0.369-0.306,0.553c-0.361-1.16-2.318-1.19-2.315,0.208c0.001,0.413,0.036,0.809,0.089,1.198
							c-0.998,0.039-1.644,1.607-0.617,2.193c0.297,0.17,0.6,0.311,0.901,0.462c-0.316,0.191-0.633,0.383-0.949,0.574
							c-1.192,0.721-0.636,2.332,0.727,2.249c0.365-0.022,0.715-0.081,1.058-0.16c-0.095,0.239-0.189,0.479-0.284,0.718
							c-0.509,1.286,1.329,2.111,2.11,1.062c0.214-0.287,0.427-0.574,0.641-0.861c0.063,0.173,0.125,0.346,0.188,0.519
							c0.399,1.102,2.291,0.749,2.266-0.423c-0.01-0.464-0.015-0.919-0.092-1.379c-0.007-0.042-0.026-0.107-0.049-0.179
							c0.198,0.109,0.383,0.228,0.508,0.314c1.08,0.736,2.54-0.759,1.585-1.751C118.663,196.244,118.459,196.051,118.25,195.867z"/>
						<path style="fill:#FED269;" d="M114.57,194.2c-0.81-0.023-1.699,0.582-1.699,1.471v0.061c0,0.829,0.57,1.674,1.471,1.699
							c0.81,0.023,1.699-0.582,1.699-1.471v-0.061C116.041,195.069,115.471,194.225,114.57,194.2z"/>
					</g>
					<path style="fill:#5BC980;" d="M129.036,243.474c0,0,5.215-42.413,13.367-33.059
						C150.556,219.768,129.036,243.474,129.036,243.474z"/>
					<path style="fill:#5BC980;" d="M139.403,285.583c0,0,5.354-36.851,16.425-24.71
						C166.899,273.014,139.403,285.583,139.403,285.583z"/>
					<path style="fill:#5BC980;" d="M129.036,243.474c0,0-21.829-24.375-26.251-14.551
						C98.364,238.747,129.036,243.474,129.036,243.474z"/>
					<path style="fill:#5BC980;" d="M139.403,285.583c0,0-15.143-21.091-20.183-12.349
						C114.18,281.976,139.403,285.583,139.403,285.583z"/>
				</g>
				<g>
					<path style="fill:none;stroke:#5EBD7E;stroke-width:2.188;stroke-miterlimit:10;" d="M59.039,249.078
						c27.701,55.314,48.517,114.072,61.815,174.488"/>
					<g>
						<g>
							<g>
								<path style="fill:#FED269;" d="M59.808,250.764c0.269,0.299,0.747,0.336,1.115,0.079c1.064-0.743,2.178-1.412,3.237-2.164
									c1.242-0.881,2.427-1.899,3.241-3.165c0.814-1.265,1.218-2.814,0.812-4.136s-1.735-2.315-3.198-2.123
									c-1.74,0.228-3.03,1.886-3.849,3.462c-0.784,1.508-1.373,3.096-1.748,4.71c-0.158,0.68-0.279,1.377-0.19,2.043
									C59.288,249.931,59.462,250.379,59.808,250.764z"/>
							</g>
							<g>
								<path style="fill:#FED269;" d="M59.523,249.438c0.905-3.342,0.67-6.853-0.66-9.821c-0.533-1.189-1.371-2.385-2.713-2.595
									c-1.232-0.193-2.597,0.567-3.332,1.655c-0.736,1.088-0.906,2.43-0.694,3.629c0.212,1.199,0.773,2.277,1.398,3.291
									c0.893,1.449,1.929,2.805,3.092,4.045c0.35,0.373,0.747,0.754,1.28,0.825C58.428,250.537,59.316,250.202,59.523,249.438z"/>
							</g>
							<g>
								<path style="fill:#FED269;" d="M58.096,250.78c-1.039-1.59-2.234-3.13-3.895-4.098c-1.661-0.968-3.873-1.282-5.775-0.38
									c-1.125,0.533-2.133,1.589-2.201,2.762c-0.048,0.833,0.387,1.59,1.003,2.099c0.616,0.509,1.4,0.801,2.191,1.03
									c1.801,0.521,3.716,0.756,5.654,0.693c0.523-0.017,1.062-0.059,1.558-0.278C57.126,252.39,57.574,251.959,58.096,250.78z"/>
							</g>
							<g>
								<path style="fill:#FED269;" d="M58.868,252.197c-0.102-0.563-0.68-0.872-1.266-0.687c-2.292,0.727-4.488,1.868-6.432,3.346
									c-0.872,0.663-1.729,1.442-2.111,2.433c-0.436,1.131-0.137,2.416,0.698,3.166c0.835,0.75,2.153,0.947,3.316,0.535
									c1.205-0.426,2.161-1.409,2.952-2.424c0.972-1.246,1.788-2.601,2.418-4.018C58.761,253.831,59.009,252.976,58.868,252.197z"
									/>
							</g>
							<g>
								<path style="fill:#FED269;" d="M60.5,250.429c3.092-1.043,6.315-2.103,9.419-1.759c1.355,0.15,2.825,0.756,3.057,2.06
									c0.164,0.92-0.373,1.923-1.121,2.615c-1.487,1.377-3.688,1.711-5.542,1.324c-1.854-0.388-3.443-1.387-4.993-2.371
									c-0.339-0.215-0.686-0.439-0.898-0.775C60.209,251.189,60.093,250.566,60.5,250.429z"/>
							</g>
							<g>
								<path style="fill:#FED269;" d="M59.865,250.59c-0.667,0.169-1.159,0.774-1.372,1.427c-0.212,0.652-0.191,1.351-0.147,2.032
									c0.122,1.911,0.409,3.846,1.249,5.557c0.414,0.844,1.006,1.661,1.878,2.02c0.881,0.362,1.902,0.196,2.815-0.112
									c0.958-0.324,1.956-0.901,2.246-1.866c0.255-0.847-0.112-1.737-0.521-2.511C64.93,255.083,60.531,250.421,59.865,250.59z"/>
							</g>
						</g>
						<path style="fill:#FF8C8A;" d="M61.962,250.413c0.007-0.002,0.012-0.005,0.018-0.007c0.895-0.316,0.672-1.5-0.233-1.583
							c-0.126-0.012-0.243-0.001-0.356,0.017c0.069-0.213,0.128-0.432,0.171-0.661c0.139-0.736-0.794-1.388-1.357-0.761
							c-0.104,0.116-0.205,0.236-0.309,0.353c-0.004-0.022-0.005-0.043-0.009-0.065c-0.127-0.691-1.178-0.771-1.48-0.176
							c-0.067,0.132-0.121,0.262-0.173,0.391c-0.314-0.76-1.635-0.662-1.548,0.281c0.026,0.279,0.073,0.543,0.133,0.803
							c-0.67,0.087-1.011,1.184-0.283,1.517c0.21,0.096,0.424,0.173,0.636,0.257c-0.202,0.148-0.403,0.297-0.605,0.445
							c-0.76,0.559-0.287,1.611,0.627,1.472c0.245-0.037,0.477-0.098,0.704-0.173c-0.049,0.167-0.099,0.334-0.148,0.502
							c-0.265,0.898,1.025,1.343,1.487,0.588c0.127-0.207,0.253-0.413,0.38-0.62c0.053,0.113,0.106,0.226,0.159,0.339
							c0.336,0.719,1.591,0.366,1.503-0.423c-0.035-0.313-0.066-0.619-0.146-0.924c-0.007-0.028-0.024-0.07-0.044-0.118
							c0.14,0.061,0.272,0.131,0.362,0.181c0.773,0.431,1.667-0.667,0.962-1.277C62.264,250.642,62.114,250.525,61.962,250.413z"/>
						<path style="fill:#FED269;" d="M59.379,249.513c-0.547,0.034-1.11,0.496-1.056,1.095l0.004,0.041
							c0.05,0.559,0.486,1.094,1.095,1.056c0.547-0.034,1.11-0.496,1.056-1.095l-0.004-0.041
							C60.424,250.01,59.988,249.475,59.379,249.513z"/>
					</g>
					<path style="fill:#5BC980;" d="M80.676,296.316c0,0,2.97-51.33,13.258-38.861C104.221,269.923,80.676,296.316,80.676,296.316z"
						/>
					<path style="fill:#5BC980;" d="M80.676,296.316c0,0-24.862-28.335-31.477-13.999C42.583,296.652,80.676,296.316,80.676,296.316
						z"/>
					<path style="fill:#5BC980;" d="M103.03,358.369c0,0-33.96-26.426-36.346-11.703C64.298,361.39,103.03,358.369,103.03,358.369z"
						/>
					<path style="fill:#5BC980;" d="M114.803,398.199c0,0-25.738-23.396-29.19-7.353
						C82.162,406.889,114.803,398.199,114.803,398.199z"/>
					<path style="fill:#5BC980;" d="M103.03,358.369c0,0,1.514-39.999,14.093-28.583C129.702,341.202,103.03,358.369,103.03,358.369
						z"/>
					<path style="fill:#5BC980;" d="M114.803,398.199c0,0,12.166-39.805,19.552-26.138
						C141.742,385.728,114.803,398.199,114.803,398.199z"/>
				</g>
				<g>
					<path style="fill:none;stroke:#5EBD7E;stroke-width:2.188;stroke-miterlimit:10;" d="M444.828,401.757
						c-14.652,7.481-27.567,18.34-37.452,31.491"/>
					<g>
						<path style="fill:#80ABC8;" d="M443.866,401.444c0.151,0.259,1.456-0.048,1.665-0.071c3.095-0.343,6.269,0.078,9.176,1.193
							c1.274,0.489,2.882,1.073,3.751,2.155c0.744,0.927,1.352,2.416,0.36,3.422c-0.542,0.55-1.378,0.672-2.151,0.687
							c-2.599,0.049-5.167-0.793-7.402-2.121C447.03,405.381,445.106,403.582,443.866,401.444z"/>
						<path style="fill:#80ABC8;" d="M443.866,401.444c-0.052-0.354,2.475-2.333,2.819-2.676c0.953-0.95,1.883-1.923,2.787-2.919
							c1.637-1.803,3.043-3.84,3.455-6.307c0.133-0.795,0.079-1.771-0.611-2.189c-0.413-0.25-0.937-0.214-1.41-0.116
							c-3.237,0.668-4.999,3.861-6.088,6.727C443.895,396.394,443.507,399,443.866,401.444z"/>
						<path style="fill:#80ABC8;" d="M443.866,401.444c2.881-0.058,5.545,0.227,8.382-0.277c3.433-0.61,6.959-1.327,9.193-4.271
							c0.49-0.645,0.901-1.372,1.037-2.171c0.136-0.798-0.037-1.677-0.591-2.268c-0.809-0.863-2.157-0.905-3.328-0.738
							c-3.014,0.431-5.318,2.012-7.861,3.493C448.059,396.75,445.779,399.097,443.866,401.444z"/>
						<path style="opacity:0.3;fill:#1D1D1B;" d="M452.045,397.681c0.207-0.135,0.383-0.299,0.312-0.448
							c-0.09-0.19-0.583-0.08-0.73-0.059c-0.904,0.127-1.812,0.374-2.625,0.794c-0.962,0.497-1.923,0.995-2.885,1.492
							c-0.173,0.089-0.432,0.245-0.362,0.483c0.054,0.185,0.334,0.303,0.514,0.281c0.207-0.026,0.397-0.182,0.576-0.278
							c0.231-0.123,0.471-0.231,0.71-0.335c0.956-0.416,1.95-0.735,2.909-1.14c0.374-0.158,0.743-0.329,1.1-0.524
							C451.643,397.903,451.857,397.804,452.045,397.681z"/>
						<path style="opacity:0.3;fill:#1D1D1B;" d="M449.556,404.075c0.591,0.302,1.189,0.593,1.797,0.86
							c0.146,0.064,1.48,0.492,1.213,0.737c-0.114,0.105-0.16-0.021-0.256-0.049c-0.314-0.091-0.638-0.156-0.956-0.237
							c-0.667-0.168-1.328-0.361-1.979-0.582c-1.316-0.447-2.6-1.023-3.769-1.745c-0.852-0.536-0.513-1.149,0.261-0.816
							C447.055,402.734,448.278,403.425,449.556,404.075z"/>
						<path style="opacity:0.3;fill:#1D1D1B;" d="M450.837,399.776c0.535-0.101,1.069-0.208,1.6-0.328
							c0.441-0.1,0.902-0.276,1.356-0.3c0.388-0.021,0.414,0.143,0.089,0.351c-0.314,0.201-0.698,0.261-1.042,0.389
							c-0.554,0.206-1.114,0.398-1.679,0.573c-1.676,0.519-3.409,0.885-5.134,1.034c-1.263,0.098-1.382-0.596-0.338-0.805
							C447.271,400.348,449.048,400.113,450.837,399.776z"/>
						<path style="opacity:0.3;fill:#1D1D1B;" d="M449.687,391.465c0.067,0.05,0.087,0.161,0.029,0.296
							c-0.141,0.326-0.395,0.625-0.57,0.936c-0.353,0.626-0.704,1.254-1.059,1.879c-0.713,1.259-1.437,2.514-2.208,3.738
							c-0.398,0.632-0.809,0.712-0.924,0.433c0.017,0.542,0.022,1.081-0.002,1.611c-0.027,0.58-0.718,0.582-0.836,0.072
							c-0.174-0.752-0.101-1.54,0.027-2.293c0.069-0.404,0.158-0.805,0.249-1.205c0.038-0.166,0.097-0.92,0.294-0.963
							c0.247-0.055,0.185,0.917,0.192,1.071c0.022,0.449,0.046,0.897,0.064,1.346c0.02-0.092,0.053-0.196,0.103-0.309
							c0.612-1.379,1.463-2.644,2.347-3.861c0.467-0.643,0.949-1.274,1.432-1.903c0.171-0.222,0.37-0.646,0.595-0.806
							C449.531,391.425,449.627,391.421,449.687,391.465z"/>
						<path style="fill:#5BC980;" d="M442.595,401.858c0.726,0.734,1.555,2.028,2.456,2.532c0.459,0.257,1.104,0.452,1.451,0.058
							c0.331-0.374,0.087-0.987-0.292-1.311c-0.379-0.325-0.873-0.509-1.207-0.88c0.951-0.225,1.746-1.013,1.98-1.962
							c0.066-0.266,0.079-0.578-0.104-0.782c-0.165-0.184-0.437-0.22-0.684-0.227c-0.745-0.021-1.494,0.118-2.182,0.405
							c0.117-0.38,0.206-0.789,0.099-1.171c-0.107-0.383-0.47-0.72-0.864-0.669c-0.511,0.066-0.741,0.669-0.823,1.178
							C442.243,400.148,442.268,400.638,442.595,401.858z"/>
					</g>
					<path style="fill:#5BC980;" d="M412.594,426.845c0,0,20.749-13.987,43.867-5.23
						C456.461,421.615,443.733,431.554,412.594,426.845z"/>
				</g>
				<g>
					<path style="fill:none;stroke:#5EBD7E;stroke-width:2.188;stroke-miterlimit:10;" d="M143.381,421.983
						c-8.21-76.963-30.937-152.352-66.633-221.029"/>
					<g>
						<path style="fill:#80ABC8;" d="M78.947,205.318c0.315-0.234-0.276-1.885-0.337-2.153c-0.9-3.972-0.817-8.158,0.205-12.098
							c0.448-1.727,0.972-3.902,2.251-5.189c1.095-1.103,2.942-2.111,4.394-0.97c0.794,0.624,1.076,1.693,1.208,2.694
							c0.444,3.371-0.273,6.83-1.671,9.929C83.598,200.63,81.542,203.394,78.947,205.318z"/>
						<path style="fill:#80ABC8;" d="M78.947,205.318c-0.453,0.119-3.395-2.875-3.89-3.271c-1.374-1.099-2.775-2.164-4.202-3.194
							c-2.583-1.863-5.436-3.391-8.702-3.565c-1.053-0.056-2.313,0.157-2.754,1.114c-0.264,0.574-0.141,1.249,0.055,1.849
							c1.343,4.108,5.75,5.929,9.633,6.925C72.38,206.021,75.823,206.143,78.947,205.318z"/>
						<path style="fill:#80ABC8;" d="M78.947,205.318c-0.498-3.735-0.518-7.238-1.588-10.851c-1.295-4.371-2.744-8.848-6.897-11.32
							c-0.91-0.542-1.915-0.97-2.973-1.03c-1.057-0.06-2.174,0.294-2.861,1.1c-1.003,1.177-0.86,2.936-0.471,4.432
							c1.002,3.853,3.393,6.615,5.692,9.703C72.233,200.558,75.615,203.176,78.947,205.318z"/>
						<path style="opacity:0.3;fill:#1D1D1B;" d="M72.857,195.242c-0.206-0.249-0.444-0.453-0.628-0.34
							c-0.233,0.144-0.019,0.769,0.03,0.958c0.298,1.156,0.751,2.3,1.416,3.295c0.787,1.177,1.574,2.353,2.361,3.53
							c0.142,0.212,0.382,0.525,0.68,0.399c0.232-0.098,0.345-0.479,0.289-0.709c-0.065-0.265-0.295-0.489-0.446-0.707
							c-0.194-0.282-0.369-0.578-0.539-0.874c-0.68-1.181-1.24-2.426-1.908-3.613c-0.26-0.463-0.537-0.917-0.842-1.352
							C73.205,195.733,73.045,195.469,72.857,195.242z"/>
						<path style="opacity:0.3;fill:#1D1D1B;" d="M81.531,197.539c0.306-0.813,0.597-1.632,0.854-2.461
							c0.062-0.198,0.423-1.995,0.78-1.684c0.153,0.133-0.004,0.211-0.027,0.34c-0.072,0.421-0.11,0.852-0.167,1.277
							c-0.12,0.891-0.274,1.778-0.466,2.656c-0.388,1.776-0.948,3.528-1.715,5.153c-0.572,1.185-1.418,0.836-1.098-0.22
							C80.155,200.986,80.874,199.295,81.531,197.539z"/>
						<path style="opacity:0.3;fill:#1D1D1B;" d="M75.757,196.505c-0.21-0.68-0.427-1.358-0.661-2.031
							c-0.194-0.559-0.491-1.132-0.589-1.718c-0.084-0.501,0.125-0.559,0.443-0.167c0.307,0.378,0.442,0.868,0.659,1.297
							c0.349,0.69,0.68,1.39,0.99,2.098c0.92,2.101,1.649,4.3,2.096,6.52c0.312,1.627-0.572,1.884-0.996,0.557
							C77.023,201.055,76.458,198.78,75.757,196.505z"/>
						<path style="opacity:0.3;fill:#1D1D1B;" d="M65.126,199.218c0.055-0.094,0.197-0.136,0.38-0.08
							c0.445,0.135,0.87,0.422,1.299,0.604c0.866,0.367,1.732,0.732,2.597,1.1c1.741,0.742,3.477,1.499,5.181,2.322
							c0.879,0.424,1.044,0.947,0.698,1.137c0.702-0.101,1.401-0.187,2.093-0.233c0.758-0.051,0.861,0.848,0.216,1.076
							c-0.952,0.336-1.986,0.357-2.984,0.301c-0.536-0.03-1.069-0.087-1.603-0.147c-0.221-0.025-1.209,0.009-1.295-0.241
							c-0.107-0.312,1.164-0.374,1.363-0.407c0.58-0.094,1.159-0.191,1.739-0.28c-0.123-0.012-0.262-0.04-0.416-0.089
							c-1.882-0.593-3.65-1.514-5.361-2.484c-0.903-0.512-1.794-1.046-2.683-1.582c-0.314-0.189-0.894-0.387-1.134-0.655
							C65.097,199.426,65.077,199.301,65.126,199.218z"/>
						<path style="fill:#5BC980;" d="M79.67,206.91c0.848-1.051,2.408-2.317,2.931-3.563c0.266-0.634,0.426-1.5-0.137-1.895
							c-0.535-0.375-1.295,0.031-1.661,0.572c-0.366,0.541-0.533,1.209-0.967,1.698c-0.432-1.203-1.573-2.12-2.84-2.285
							c-0.355-0.046-0.763-0.018-1.001,0.25c-0.215,0.242-0.222,0.6-0.195,0.922c0.082,0.971,0.373,1.924,0.846,2.776
							c-0.511-0.096-1.055-0.152-1.536,0.043c-0.482,0.195-0.866,0.716-0.743,1.221c0.16,0.654,0.978,0.864,1.651,0.897
							C77.5,207.618,78.133,207.514,79.67,206.91z"/>
					</g>
					<path style="fill:#5BC980;" d="M94.637,200.406c0,0-6.672,26.378,3.467,48.925C98.103,249.331,108.947,235.758,94.637,200.406z
						"/>
				</g>
				<g>
					<path style="fill:none;stroke:#5EBD7E;stroke-width:2.188;stroke-miterlimit:10;" d="M158.123,237.902
						c-2.01,61.414,1.808,123.017,11.387,183.713"/>
					<g>
						<path style="fill:#80ABC8;" d="M158.13,238.436c0.262-0.069,0.306-1.278,0.335-1.465c0.44-2.774,1.564-5.433,3.227-7.695
							c0.729-0.991,1.621-2.25,2.769-2.747c0.984-0.426,2.424-0.599,3.062,0.503c0.349,0.603,0.256,1.359,0.084,2.034
							c-0.578,2.272-1.923,4.304-3.611,5.931C162.308,236.624,160.285,237.868,158.13,238.436z"/>
						<path style="fill:#80ABC8;" d="M158.13,238.436c-0.32-0.039-1.438-2.71-1.654-3.09c-0.598-1.056-1.223-2.096-1.873-3.12
							c-1.177-1.854-2.613-3.563-4.66-4.51c-0.66-0.305-1.522-0.491-2.049,0.009c-0.316,0.3-0.41,0.764-0.438,1.198
							c-0.192,2.974,2.165,5.268,4.397,6.9C153.745,237.206,155.918,238.165,158.13,238.436z"/>
						<path style="fill:#80ABC8;" d="M158.13,238.436c0.637-2.519,1.521-4.768,1.76-7.355c0.289-3.131,0.507-6.368-1.52-9.014
							c-0.444-0.58-0.978-1.111-1.64-1.42c-0.662-0.309-1.468-0.368-2.114-0.028c-0.944,0.497-1.302,1.66-1.436,2.718
							c-0.344,2.724,0.48,5.104,1.162,7.67C155.049,233.67,156.545,236.212,158.13,238.436z"/>
						<path style="opacity:0.3;fill:#1D1D1B;" d="M156.809,230.425c-0.068-0.212-0.169-0.404-0.315-0.378
							c-0.186,0.033-0.209,0.488-0.226,0.621c-0.105,0.816-0.108,1.665,0.064,2.473c0.203,0.955,0.406,1.91,0.609,2.865
							c0.036,0.172,0.11,0.434,0.333,0.43c0.174-0.003,0.344-0.218,0.367-0.38c0.027-0.186-0.064-0.388-0.104-0.567
							c-0.052-0.23-0.088-0.464-0.122-0.698c-0.133-0.93-0.173-1.871-0.297-2.802c-0.048-0.363-0.109-0.725-0.193-1.081
							C156.906,230.828,156.871,230.618,156.809,230.425z"/>
						<path style="opacity:0.3;fill:#1D1D1B;" d="M161.776,234.116c0.404-0.442,0.8-0.892,1.177-1.358
							c0.09-0.111,0.782-1.17,0.931-0.879c0.064,0.124-0.057,0.134-0.104,0.211c-0.154,0.251-0.288,0.517-0.434,0.775
							c-0.305,0.54-0.63,1.068-0.978,1.582c-0.703,1.038-1.51,2.016-2.417,2.861c-0.67,0.613-1.122,0.172-0.647-0.422
							C160.012,235.971,160.905,235.072,161.776,234.116z"/>
						<path style="opacity:0.3;fill:#1D1D1B;" d="M158.343,231.976c0.04-0.489,0.074-0.979,0.097-1.47
							c0.019-0.408-0.025-0.851,0.063-1.251c0.075-0.342,0.223-0.326,0.326,0.007c0.1,0.321,0.061,0.669,0.09,0.999
							c0.047,0.531,0.08,1.064,0.097,1.597c0.051,1.581-0.044,3.176-0.326,4.712c-0.216,1.122-0.848,1.06-0.781,0.102
							C157.989,235.214,158.209,233.612,158.343,231.976z"/>
						<path style="opacity:0.3;fill:#1D1D1B;" d="M150.841,230.993c0.059-0.046,0.161-0.037,0.264,0.046
							c0.25,0.2,0.449,0.493,0.678,0.719c0.46,0.457,0.922,0.912,1.382,1.369c0.925,0.921,1.843,1.849,2.724,2.813
							c0.454,0.497,0.426,0.873,0.156,0.907c0.475,0.115,0.945,0.239,1.4,0.387c0.498,0.162,0.335,0.763-0.137,0.744
							c-0.696-0.028-1.363-0.28-1.988-0.571c-0.335-0.156-0.662-0.33-0.989-0.504c-0.135-0.072-0.777-0.304-0.768-0.486
							c0.011-0.227,0.841,0.058,0.977,0.088c0.395,0.088,0.791,0.174,1.185,0.266c-0.076-0.039-0.157-0.093-0.244-0.164
							c-1.053-0.861-1.95-1.904-2.797-2.962c-0.447-0.559-0.881-1.129-1.313-1.7c-0.153-0.201-0.473-0.476-0.559-0.71
							C150.769,231.119,150.788,231.034,150.841,230.993z"/>
						<path style="fill:#5BC980;" d="M158.186,239.641c0.812-0.456,2.135-0.868,2.788-1.531c0.333-0.338,0.657-0.852,0.397-1.248
							c-0.247-0.377-0.837-0.311-1.21-0.059c-0.373,0.252-0.651,0.638-1.054,0.84c0.031-0.881-0.464-1.76-1.234-2.19
							c-0.216-0.12-0.484-0.207-0.705-0.096c-0.199,0.1-0.296,0.327-0.361,0.541c-0.196,0.643-0.254,1.328-0.168,1.994
							c-0.303-0.192-0.637-0.367-0.995-0.365c-0.358,0.002-0.738,0.237-0.788,0.592c-0.065,0.46,0.405,0.804,0.828,0.997
							C156.615,239.538,157.047,239.634,158.186,239.641z"/>
					</g>
					<path style="fill:#5BC980;" d="M166.25,246.951c0,0-12.821,23.998-8.404,48.322
						C157.846,295.273,171.636,284.706,166.25,246.951z"/>
				</g>
				<g>
					<path style="fill:none;stroke:#5EBD7E;stroke-width:2.188;stroke-miterlimit:10;" d="M71.871,362.843
						c12.479,20.328,23.105,41.793,31.703,64.042"/>
					<g>
						<path style="fill:#80ABC8;" d="M73.429,364.217c0.188-0.189-0.378-1.241-0.446-1.415c-1.01-2.583-1.38-5.41-1.092-8.168
							c0.126-1.208,0.258-2.726,0.988-3.723c0.625-0.854,1.766-1.72,2.86-1.1c0.598,0.339,0.896,1.03,1.087,1.691
							c0.642,2.225,0.511,4.627-0.116,6.856C76.084,360.587,74.981,362.657,73.429,364.217z"/>
						<path style="fill:#80ABC8;" d="M73.429,364.217c-0.293,0.126-2.578-1.591-2.952-1.807c-1.037-0.601-2.089-1.175-3.154-1.723
							c-1.929-0.992-4.006-1.731-6.222-1.516c-0.714,0.069-1.542,0.341-1.742,1.03c-0.12,0.413,0.032,0.855,0.225,1.239
							c1.322,2.63,4.475,3.408,7.191,3.684C69.078,365.358,71.409,365.09,73.429,364.217z"/>
						<path style="fill:#80ABC8;" d="M73.429,364.217c-0.715-2.465-1.084-4.821-2.173-7.145c-1.317-2.812-2.747-5.679-5.795-6.921
							c-0.668-0.272-1.388-0.458-2.106-0.391s-1.434,0.419-1.815,1.032c-0.556,0.895-0.281,2.064,0.133,3.033
							c1.067,2.493,2.958,4.109,4.819,5.955C68.424,361.694,70.968,363.113,73.429,364.217z"/>
						<path style="opacity:0.3;fill:#1D1D1B;" d="M68.304,358.051c-0.164-0.147-0.345-0.26-0.458-0.165
							c-0.143,0.121,0.065,0.52,0.118,0.642c0.318,0.748,0.74,1.473,1.289,2.075c0.65,0.712,1.299,1.425,1.949,2.137
							c0.117,0.128,0.31,0.315,0.499,0.2c0.146-0.089,0.184-0.358,0.123-0.507c-0.07-0.172-0.248-0.299-0.372-0.431
							c-0.159-0.17-0.307-0.352-0.452-0.534c-0.578-0.726-1.082-1.507-1.652-2.239c-0.222-0.285-0.455-0.563-0.704-0.825
							C68.588,358.346,68.453,358.184,68.304,358.051z"/>
						<path style="opacity:0.3;fill:#1D1D1B;" d="M74.378,358.716c0.123-0.578,0.236-1.16,0.325-1.744
							c0.021-0.14,0.082-1.387,0.354-1.214c0.116,0.074,0.018,0.142,0.017,0.232c-0.006,0.291,0.013,0.585,0.017,0.877
							c0.009,0.612-0.004,1.225-0.044,1.836c-0.081,1.236-0.28,2.472-0.631,3.644c-0.265,0.856-0.87,0.707-0.762-0.036
							C73.802,361.177,74.114,359.965,74.378,358.716z"/>
						<path style="opacity:0.3;fill:#1D1D1B;" d="M70.384,358.606c-0.21-0.437-0.426-0.871-0.651-1.3
							c-0.188-0.357-0.446-0.713-0.571-1.097c-0.107-0.329,0.027-0.389,0.281-0.157c0.245,0.223,0.386,0.54,0.575,0.806
							c0.305,0.429,0.599,0.867,0.88,1.312c0.833,1.321,1.548,2.728,2.074,4.177c0.376,1.064-0.194,1.327-0.614,0.477
							C71.7,361.541,71.088,360.067,70.384,358.606z"/>
						<path style="opacity:0.3;fill:#1D1D1B;" d="M63.502,361.514c0.027-0.069,0.119-0.112,0.248-0.093
							c0.313,0.046,0.629,0.196,0.936,0.274c0.62,0.159,1.241,0.317,1.861,0.477c1.248,0.323,2.494,0.656,3.725,1.037
							c0.635,0.196,0.799,0.531,0.586,0.695c0.462-0.139,0.924-0.268,1.386-0.37c0.505-0.111,0.666,0.483,0.255,0.703
							c-0.607,0.323-1.301,0.442-1.979,0.506c-0.364,0.034-0.729,0.05-1.094,0.064c-0.151,0.006-0.813,0.129-0.897-0.031
							c-0.104-0.2,0.746-0.371,0.877-0.412c0.381-0.122,0.761-0.246,1.143-0.365c-0.084,0.005-0.181-0.001-0.289-0.018
							c-1.327-0.208-2.612-0.648-3.862-1.127c-0.66-0.253-1.314-0.522-1.968-0.793c-0.23-0.095-0.641-0.169-0.83-0.326
							C63.503,361.657,63.477,361.575,63.502,361.514z"/>
						<path style="fill:#5BC980;" d="M74.078,365.215c0.464-0.794,1.386-1.805,1.611-2.697c0.115-0.454,0.134-1.054-0.285-1.262
							c-0.398-0.198-0.869,0.153-1.061,0.554c-0.192,0.401-0.236,0.869-0.478,1.242c-0.413-0.766-1.274-1.268-2.145-1.25
							c-0.244,0.005-0.515,0.065-0.648,0.27c-0.12,0.185-0.088,0.426-0.037,0.641c0.154,0.646,0.447,1.258,0.852,1.783
							c-0.354-0.013-0.726,0.005-1.03,0.185c-0.304,0.18-0.511,0.571-0.376,0.898c0.174,0.424,0.747,0.483,1.203,0.436
							C72.688,365.912,73.104,365.778,74.078,365.215z"/>
					</g>
					<path style="fill:#5BC980;" d="M62.596,380.253c0,0,24.773,11.251,36.061,33.245C98.658,413.498,81.285,413.498,62.596,380.253
						z"/>
				</g>
			</g>
			<g>
				<path style="fill:#FFFFFF;" d="M129.104,128.315c-9.594,0-10.765,14.964-1.078,14.964
					C137.62,143.279,138.791,128.315,129.104,128.315z"/>
				<path style="fill:#FFFFFF;" d="M132.387,111.32c-0.801-0.949-2.2-1.727-3.463-1.763c-1.27-0.036-2.624,0.278-3.585,1.166
					c-0.948,0.876-1.763,2.125-1.763,3.463v0.885c0,1.316,0.294,2.553,1.166,3.585c0.801,0.948,2.2,1.727,3.463,1.763
					c1.27,0.036,2.624-0.278,3.585-1.166c0.948-0.876,1.763-2.125,1.763-3.463v-0.885
					C133.553,113.588,133.258,112.352,132.387,111.32z"/>
				<path style="fill:#FFFFFF;" d="M107.565,111.054c-4.477,0-5.024,6.983-0.503,6.983
					C111.539,118.037,112.085,111.054,107.565,111.054z"/>
				<path style="fill:#FFFFFF;" d="M422.091,191.795c-7.675,0-8.612,11.971-0.862,11.971
					C428.903,203.766,429.84,191.795,422.091,191.795z"/>
				<path style="fill:#FFFFFF;" d="M55.501,213.932c-7.675,0-8.612,11.971-0.863,11.971
					C62.314,225.903,63.251,213.932,55.501,213.932z"/>
			</g>
		</g>
		<ellipse style="fill:#F5D99C;" cx="249.888" cy="437.104" rx="164.041" ry="25.058"/>
		<path style="opacity:0.2;fill:#1D1D1B;" d="M210.03,392.17c-7-1-13-2-19-4c-28-8-51-25-71-46c-13-14-22-29-28-45
			c-2.961-7.501-5.76-15.002-8.417-22.511c-7.927,6.92,5.389,34.377,29.777,75.141c24.84,41.52,72.03,61.65,116.07,62.28
			c10.8,0.15,21.14-1.09,30.84-3.67c29.87-7.91,53.69-28.38,66.03-59.24c7.409-18.523,7.456-39.349,5.3-56.607
			C325.976,351.371,272.224,400.93,210.03,392.17z"/>
		<path style="opacity:0.2;fill:#1D1D1B;" d="M204.03,228.17c-9.848-48.346-18.886-107.909,15.926-144.252
			c-6.867,3.598-12.813,8.01-17.546,12.992c-23.91,25.17-6.46,132.4-5.39,150.07c0.799,13.069-3.112,36.668-20.793,50.028
			C199.553,287.423,208.669,256.007,204.03,228.17z"/>
		<g>
			<g>
				<path style="fill:#F17983;" d="M307.49,328.643c0.907,0.018,16.33,5.572,20.649,15.42c3.686,8.406,2.869,19.809,3.002,28.764
					c0.076,5.125,0.052,10.251-0.041,15.375c-0.01,0.565-0.631,6.788-0.187,7.04c3.99-4.057,9.816-7.176,14.689-10.152
					c4.613-2.817,9.617-5.204,14.979-5.883c5.266-0.667,10.821-0.821,15.762,1.528c1.733,0.824,3.449,2.206,3.658,4.113
					c0.146,1.33-0.499,2.65-1.425,3.615c-0.914,0.953-2.098,1.558-3.164,2.28c3.266,3.309,3.802,7.77,0.622,11.111
					c-4.829,5.074-10.99,9.343-16.757,13.271c-11.89,8.099-24.922,14.524-38.598,18.992c-2.748,0.898-5.669,1.725-8.493,1.105
					c-5.358-1.175-8.414-6.895-9.017-11.948c-0.576-4.828,0.723-7.366-3.287-10.989c-7.629-6.894-15.583-13.639-21.156-22.416
					C271.172,377.97,256.474,327.653,307.49,328.643z"/>
				<path style="opacity:0.2;fill:#1D1D1B;" d="M373.459,379.653c-4.163-1.188-8.616-0.986-12.879-0.446
					c-5.362,0.679-10.366,3.066-14.979,5.883c-4.873,2.976-10.699,6.095-14.689,10.152c-0.444-0.252,0.177-6.474,0.187-7.04
					c0.094-5.124,0.118-10.251,0.041-15.375c-0.033-2.192-0.009-4.533-0.007-6.938c-2.177,13.754-5.457,26.957-8.755,40.15
					C336.584,395.892,355.364,381.632,373.459,379.653z"/>
				<path style="opacity:0.2;fill:#1D1D1B;" d="M329.532,348.151c-0.374-1.418-0.825-2.792-1.393-4.087
					c-4.319-9.849-19.743-15.403-20.649-15.42c-51.016-0.99-36.317,49.327-28.762,61.226c3.292,5.185,7.422,9.653,11.818,13.869
					C308.413,389.422,322.361,370.258,329.532,348.151z"/>
				<path style="fill:#C4595B;" d="M374.694,389.476c-4.535-0.16-8.745,1.106-12.462,3.701c-1.057,0.738,0.243,2.26,1.29,1.529
					c3.276-2.287,7.04-3.375,11.028-3.234C375.833,391.517,375.986,389.522,374.694,389.476z"/>
			</g>
			<g>
				<path style="fill:#1595B3;" d="M89.682,286.235c4.485-1.578,8.969-3.157,13.454-4.735c1.213-0.427,2.546-0.855,3.755-0.417
					c1.387,0.503,2.143,1.969,2.701,3.334c2.086,5.104,3.245,10.584,3.405,16.095c2.651-1.129,4.11-3.31,6.013-5.473
					c1.903-2.163,4.792-4.082,7.506-3.114c1.6,0.571,2.706,2.016,3.63,3.441c2.76,4.255,4.754,9.006,5.858,13.956
					c1.881-1.491,2.226-4.278,2.978-6.558s1.31-4.658,2.54-6.721s3.321-3.809,5.721-3.841c2.1-0.028,3.983,1.224,5.651,2.501
					c4.206,3.221,8.039,6.929,11.398,11.026c0.47-6.323,1.394-13.227,1.863-19.549c0.121-1.632,0.335-3.451,1.597-4.492
					c1.562-1.288,3.879-0.737,5.807-0.121c6.11,1.952,12.22,3.905,18.33,5.857c-6.93-11.51-14.308-23.743-19.896-35.961
					c-0.873-1.909-1.749-4.02-1.205-6.048c0.744-2.776,3.753-4.187,6.427-5.239c8.026-3.16,16.052-6.32,24.078-9.48
					c-12.354-5.504-24.263-13.569-32.773-24.082c-2.375-2.935-4.639-6.241-4.907-10.007c-0.463-6.518,5.126-11.882,10.867-15.004
					s12.294-5.216,16.692-10.049c-13.157-7.722-24.197-19.33-31.056-32.957c-1.821-3.616-3.252-8.321-0.648-11.421
					c1.588-1.891,4.191-2.51,6.607-3.021c9.553-2.019,19.106-4.038,28.658-6.056c-6.547-12.458-9.899-27.23-10.629-41.285
					c-0.257-4.956,0.173-10.612,4.021-13.745c3.705-3.017,9.092-2.472,13.756-1.437c12.314,2.732,24.108,7.788,34.577,14.823
					c3.991-10.385,8.532-20.894,12.524-31.279c1.098-2.858,2.518-6.039,5.412-7.038c3.171-1.095,6.507,0.974,9.092,3.112
					c11.416,9.444,19.865,22.425,23.879,36.687c11.512-10.206,24.917-18.612,39.066-24.651c1.192-0.509,2.629-0.985,3.715-0.278
					c1.177,0.767,1.229,2.44,1.153,3.843c-0.83,15.198-1.661,30.396-2.491,45.594c-21.887-8.893-46.51-14.444-69.692-9.893
					s-45.064,20.332-52.173,42.861c-5.689,18.028-1.576,37.48,1.856,56.07c4.668,25.284,7.948,51.715,0.788,76.409
					c-7.16,24.694-27.21,47.281-52.78,49.97C132.018,320.472,106.375,304.748,89.682,286.235z"/>
				<path style="opacity:0.2;fill:#1D1D1B;" d="M287.365,77.94c-1.536-5.456-3.725-10.723-6.477-15.678
					c-12.601-3.077-25.531-3.988-37.877-2.161c-2.23,5.462-4.466,10.926-6.553,16.356c-5.267-3.54-10.871-6.576-16.707-9.07
					c-5.956,3.017-11.578,6.911-16.721,11.783c-6.424,6.267-11.496,13.05-15.439,20.232c1.723,6.532,4.078,12.87,7.142,18.699
					c-5.213,1.102-10.426,2.203-15.639,3.305c-3.045,12.266-3.851,25.233-3.253,38.463c4.635,4.489,9.792,8.436,15.331,11.687
					c-3.593,3.948-8.622,6.068-13.473,8.413c1.903,14.173,4.907,28.391,8.023,42.135c4.947,3.339,10.217,6.207,15.571,8.593
					c-4.193,1.651-8.386,3.302-12.579,4.953c2.344,13.274,1.564,28.034-3.668,40.301c2.278,3.883,4.584,7.72,6.844,11.475
					c-3.705-1.184-7.41-2.368-11.115-3.552c-3.858,5.753-9.039,10.551-15.73,13.827c-0.284,2.719-0.559,5.426-0.752,8.029
					c-1.626-1.983-3.368-3.871-5.205-5.661c-1.31,0.413-2.651,0.793-4.056,1.1c-5.401,1.013-10.686,1.331-15.936,1.246
					c-0.037,0.116-0.073,0.233-0.112,0.349c-0.752,2.28-1.097,5.067-2.978,6.558c-0.543-2.435-1.304-4.82-2.262-7.123
					c-6.528-0.42-13.039-1.335-19.683-2.237c-0.335,0.201-0.683,0.388-1.062,0.549c-0.007-0.232-0.026-0.464-0.036-0.697
					c-1.635-0.22-3.277-0.439-4.931-0.646c-2.352-0.336-4.591-1.014-6.793-1.838c15.824,13.184,35.962,22.595,55.571,20.533
					c25.57-2.689,45.62-25.276,52.78-49.97c7.16-24.694,3.88-51.126-0.788-76.409c-3.432-18.59-7.545-38.042-1.856-56.07
					c7.109-22.529,28.991-38.31,52.173-42.861c23.182-4.551,47.805,1,69.692,9.893c0.289-5.28,0.577-10.56,0.866-15.841
					c-8.967-7.332-19.283-13.538-30.259-18.184C295.224,71.391,291.182,74.556,287.365,77.94z"/>
				<g style="opacity:0.3;">
					<path style="fill:#1D1D1B;" d="M257.801,67.392c-0.732-4.265-2.155-8.303-4.281-12.074c-0.945-1.676-3.663-0.403-2.714,1.281
						c2.009,3.563,3.354,7.309,4.046,11.343C255.179,69.849,258.127,69.297,257.801,67.392z"/>
					<path style="fill:#1D1D1B;" d="M261.607,55.057c0.126-1.925-2.866-2.149-2.993-0.216c-0.263,4.021-0.195,8.026,0.17,12.038
						c0.175,1.924,3.123,1.359,2.949-0.55C261.392,62.57,261.361,58.822,261.607,55.057z"/>
					<path style="fill:#1D1D1B;" d="M266.313,55.228c-1.423,3.256-2.232,6.664-2.453,10.209c-0.12,1.925,2.872,2.149,2.993,0.216
						c0.206-3.301,0.974-6.418,2.297-9.447C269.922,54.438,267.083,53.465,266.313,55.228z"/>
					<path style="fill:#1D1D1B;" d="M310.981,67.209c-0.044,4.078-0.626,8.042-1.797,11.951c-0.552,1.842,2.281,2.835,2.837,0.978
						c1.244-4.153,1.906-8.377,1.953-12.713C313.995,65.504,311.002,65.272,310.981,67.209z"/>
					<path style="fill:#1D1D1B;" d="M319.701,69.29c-2.365,3.239-4.397,6.663-6.164,10.261c-0.848,1.726,1.994,2.693,2.837,0.978
						c1.647-3.354,3.6-6.526,5.802-9.543C323.314,69.426,320.839,67.731,319.701,69.29z"/>
					<path style="fill:#1D1D1B;" d="M325.313,73.993c-3.422,2.546-6.615,5.354-9.578,8.422c-1.33,1.378,0.595,3.681,1.935,2.293
						c2.963-3.069,6.156-5.876,9.578-8.422C328.801,75.132,326.856,72.846,325.313,73.993z"/>
					<path style="fill:#1D1D1B;" d="M203.164,85.443c-3.096-2.477-6.753-3.922-10.693-4.312c-1.922-0.19-2.14,2.803-0.216,2.993
						c3.451,0.341,6.509,1.63,9.212,3.793C202.976,89.124,204.665,86.644,203.164,85.443z"/>
					<path style="fill:#1D1D1B;" d="M207.023,84.054c-1.627-3.026-3.467-5.924-5.511-8.685c-1.151-1.555-3.437,0.39-2.293,1.935
						c1.893,2.558,3.584,5.228,5.091,8.031C205.222,87.032,207.938,85.756,207.023,84.054z"/>
					<path style="fill:#1D1D1B;" d="M211.061,81.908c-0.959-2.986-1.547-6.048-1.669-9.185c-0.074-1.907-3.068-2.148-2.993-0.216
						c0.133,3.41,0.668,6.698,1.713,9.951C208.696,84.275,211.652,83.745,211.061,81.908z"/>
					<path style="fill:#1D1D1B;" d="M182.506,147.5c-3.628,0.293-7.168,0.955-10.657,1.993c-1.834,0.546-1.301,3.5,0.55,2.949
						c3.488-1.038,7.029-1.7,10.657-1.993C184.981,150.293,184.414,147.345,182.506,147.5z"/>
					<path style="fill:#1D1D1B;" d="M182.207,141.791c-2.986-0.927-6.016-1.646-9.094-2.186c-1.899-0.333-2.105,2.661-0.216,2.993
						c2.823,0.495,5.595,1.18,8.332,2.03C183.068,145.199,184.059,142.366,182.207,141.791z"/>
					<path style="fill:#1D1D1B;" d="M182.786,137.713c-3.172-1.842-5.766-4.299-7.79-7.357c-1.065-1.609-3.347,0.344-2.293,1.935
						c2.153,3.253,5.015,5.939,8.388,7.897C182.75,141.151,184.459,138.684,182.786,137.713z"/>
					<path style="fill:#1D1D1B;" d="M184.984,193.766c-1.835-0.546-3.65-1.148-5.434-1.846c-1.475-0.577-4.136-1.192-5.031-2.5
						c-1.09-1.595-3.373,0.356-2.293,1.935c1.013,1.481,3.245,2.122,4.827,2.786c2.27,0.954,4.594,1.76,6.954,2.462
						C185.85,197.151,186.842,194.318,184.984,193.766z"/>
					<path style="fill:#1D1D1B;" d="M185.684,199.671l-8.06,0.771c-1.924,0.184-1.36,3.132,0.55,2.949l8.06-0.771
						C188.159,202.436,187.595,199.488,185.684,199.671z"/>
					<path style="fill:#1D1D1B;" d="M186.577,205.11c-2.804,1.25-5.18,3.11-7.138,5.466c-1.233,1.484,1.249,3.171,2.475,1.696
						c1.614-1.944,3.642-3.422,5.944-4.449C189.625,207.035,188.339,204.324,186.577,205.11z"/>
					<path style="fill:#1D1D1B;" d="M191.567,248.742c-2.876-1.318-5.823-2.424-8.855-3.326c-1.843-0.548-2.836,2.285-0.978,2.837
						c3.032,0.901,5.979,2.008,8.855,3.326C192.341,252.382,193.312,249.541,191.567,248.742z"/>
					<path style="fill:#1D1D1B;" d="M189.72,256.469c-1.598-0.239-3.12-0.727-4.587-1.4c-1.751-0.803-2.722,2.037-0.978,2.837
						c1.708,0.783,3.492,1.278,5.349,1.555C191.414,259.747,191.624,256.753,189.72,256.469z"/>
					<path style="fill:#1D1D1B;" d="M189.708,264.499c-1.795-0.018-3.589-0.173-5.348-0.536c-0.799-0.165-1.61,0.096-1.907,0.93
						c-0.246,0.688,0.137,1.744,0.93,1.907c2.025,0.418,4.04,0.671,6.11,0.691C191.413,267.511,191.646,264.518,189.708,264.499z"/>
					<path style="fill:#1D1D1B;" d="M176.301,291.678c-0.479-1.497-0.654-2.976-0.5-4.54c0.19-1.922-2.802-2.14-2.993-0.216
						c-0.178,1.795-0.007,3.588,0.543,5.306c0.249,0.777,0.881,1.352,1.75,1.199C175.823,293.301,176.547,292.448,176.301,291.678z"
						/>
					<path style="fill:#1D1D1B;" d="M173.192,294.587c-0.718-1.282-1.436-2.564-2.154-3.846c-0.94-1.679-3.658-0.406-2.714,1.281
						c0.718,1.282,1.436,2.564,2.154,3.846C171.418,297.547,174.136,296.274,173.192,294.587z"/>
					<path style="fill:#1D1D1B;" d="M150.975,298.179c-0.704-0.243-1.724,0.136-1.907,0.93c-0.338,1.464-0.675,2.928-1.013,4.392
						c-0.182,0.789,0.106,1.623,0.93,1.907c0.704,0.243,1.724-0.136,1.907-0.93c0.338-1.464,0.675-2.928,1.013-4.392
						C152.087,299.297,151.799,298.463,150.975,298.179z"/>
					<path style="fill:#1D1D1B;" d="M146.89,302.817l-1.611-3.295c-0.849-1.737-3.562-0.456-2.714,1.281
						c0.537,1.098,1.074,2.196,1.611,3.295C145.026,305.835,147.739,304.553,146.89,302.817z"/>
					<path style="fill:#1D1D1B;" d="M126.513,296.195c-0.644-0.4-1.668-0.34-2.085,0.389c-0.465,0.815-0.931,1.629-1.396,2.443
						c-0.388,0.68-0.338,1.633,0.389,2.085c0.644,0.4,1.668,0.34,2.085-0.389c0.465-0.814,0.931-1.629,1.396-2.443
						C127.29,297.601,127.241,296.648,126.513,296.195z"/>
					<path style="fill:#1D1D1B;" d="M105.076,286.43c-0.848-0.293-1.544,0.202-1.907,0.93l-0.273,0.547
						c-0.363,0.725,0.236,1.668,0.93,1.907c0.848,0.293,1.544-0.202,1.907-0.93l0.273-0.547
						C106.368,287.612,105.769,286.669,105.076,286.43z"/>
				</g>
			</g>
			<path style="fill:#F17983;" d="M323.863,273.234c0,0,16.553,5.643,23.602,13.639c7.049,7.996,11.614,17.04,9.214,18.597
				c-2.4,1.557-12.187-7.787-12.187-7.787s12.103,14.273,9.226,16.255c-2.877,1.982-13.409-10.486-13.409-10.486
				s8.548,14.819,4.107,17.03s-6.606-8.391-11.146-12.503c-4.54-4.112-24.857-12.52-24.857-12.52S319.515,289.932,323.863,273.234z"
				/>
			<path style="fill:#F17983;" d="M391.75,218.32c-20.13,35.86-68.56,37.75-68.56,37.75s4.9,13.11,7.73,31.35
				c2.81,18.14,3.57,41.35-4.59,61.75c-12.34,30.86-36.16,51.33-66.03,59.24c-9.7,2.58-20.04,3.82-30.84,3.67
				c-44.04-0.63-91.23-20.76-116.07-62.28c-24.84-41.52-38.21-69.25-29.33-75.52c0,0,29.45,36.94,67.99,32.13
				c38.55-4.82,46.05-41.76,44.97-59.43c-1.07-17.67-18.52-124.9,5.39-150.07c23.9-25.16,78.63-35.85,127.7,0
				C379.17,132.77,411.88,182.47,391.75,218.32z"/>
			<g>
				<path style="fill:#F9D887;" d="M326.33,349.17c-12.34,30.86-36.16,51.33-66.03,59.24c-2.67-13.89-7.3-50.98,10.28-84.48
					c16.65-31.75,46.54-36.23,60.34-36.51C333.73,305.56,334.49,328.77,326.33,349.17z"/>
				<g>
					<path style="fill:#FEA49A;" d="M326.349,315.649c-9.146-0.263-17.762-2.583-25.757-7.052c-1.018-0.569-2.37,0.102-2.326,1.325
						c0.04,1.114,1.545,1.854,2.403,2.263c0.57,0.271,1.171,0.407,1.751,0.685c0.722,0.346,1.451,0.678,2.186,0.995
						c2.914,1.258,5.928,2.286,9.007,3.058c4.096,1.027,8.301,1.597,12.521,1.718C328.057,318.697,328.286,315.705,326.349,315.649z
						"/>
					<path style="fill:#FEA49A;" d="M323.936,340.261c-13.845,0.822-27.286-3.036-38.665-10.936
						c-1.586-1.101-3.284,1.372-1.696,2.474c12.083,8.388,26.245,12.281,40.911,11.41
						C326.411,343.096,325.841,340.148,323.936,340.261z"/>
					<path style="fill:#FEA49A;" d="M312.703,364.309c-15.166,0.443-29.716-5.096-40.599-15.706
						c-1.372-1.338-3.675,0.588-2.293,1.935c11.446,11.16,26.671,17.231,42.677,16.764
						C314.399,367.246,314.638,364.252,312.703,364.309z"/>
					<path style="fill:#FEA49A;" d="M297.018,382.942c-10.329-1.296-19.688-5.487-27.609-12.223
						c-1.469-1.249-3.155,1.234-1.696,2.474c8.332,7.085,18.247,11.381,29.089,12.741
						C298.719,386.175,298.933,383.182,297.018,382.942z"/>
					<path style="fill:#FEA49A;" d="M275.105,397.262c-2.985-1.399-5.847-3.006-8.612-4.799c-1.617-1.049-3.32,1.422-1.696,2.474
						c2.99,1.939,6.104,3.65,9.33,5.162C275.871,400.916,276.841,398.075,275.105,397.262z"/>
				</g>
			</g>
			<g>
				<path style="opacity:0.3;fill:#1D1D1B;" d="M257.911,303.967c3.625,4.299,7.25,8.598,10.875,12.898
					c1.77,2.1,3.54,4.2,5.311,6.299c1.786,2.117,2.713,3.858,3.785,6.449c1.023,2.472,2.195,5.12,4.521,6.443
					c1.167,0.664,2.752,0.878,3.783,0.019c0.977-0.815,1.104-2.243,1.157-3.515c0.093-2.241,0.185-4.503-0.212-6.71
					c-1.018-5.65-6.456-8.392-10.725-11.568C270.727,310.057,264.493,306.574,257.911,303.967z"/>
				<path style="fill:#F17983;" d="M277.941,285.583c0,0,14.871,9.203,19.953,18.573s7.508,19.206,4.82,20.187
					s-10.136-10.316-10.136-10.316s8.604,16.619,5.356,17.907s-10.723-13.22-10.723-13.22s5.016,16.356,0.193,17.517
					s-4.561-9.656-8.067-14.68c-3.505-5.024-21.427-17.763-21.427-17.763S269.968,300.885,277.941,285.583z"/>
			</g>
			<g>
				<path style="fill:#F17983;" d="M237.134,350.609c0.738,0.528,10.312,13.834,8.301,24.398
					c-1.717,9.017-8.843,17.957-13.799,25.416c-2.837,4.269-5.757,8.482-8.734,12.654c-0.328,0.46-4.361,5.24-4.138,5.699
					c5.585-1.088,12.154-0.363,17.855-0.06c5.397,0.287,10.874,1.15,15.679,3.624c4.72,2.43,9.387,5.446,12.132,10.178
					c0.963,1.66,1.595,3.77,0.689,5.461c-0.632,1.179-1.91,1.903-3.22,2.174c-1.292,0.268-2.611,0.098-3.899,0.09
					c0.821,4.577-1.261,8.558-5.773,9.514c-6.853,1.452-14.348,1.485-21.325,1.461c-14.386-0.05-28.767-2.125-42.571-6.18
					c-2.773-0.815-5.65-1.786-7.628-3.894c-3.753-4-3.036-10.446-0.674-14.954c2.257-4.307,4.764-5.665,3.508-10.92
					c-2.39-10.001-5.132-20.063-4.761-30.453C179.279,370.732,195.629,320.927,237.134,350.609z"/>
				<path style="opacity:0.2;fill:#1D1D1B;" d="M218.764,418.775c-0.223-0.459,3.809-5.238,4.138-5.699
					c2.977-4.172,5.897-8.385,8.734-12.654c4.956-7.459,12.083-16.399,13.799-25.416c2.011-10.565-7.563-23.871-8.301-24.398
					c-1.905-1.363-3.757-2.555-5.557-3.594c4.445,3.655,7.453,8.431,7.453,15.155c0,23-16,41-27,60
					c10.232-0.89,6.735-3.395,34.803-1.933c-3.308-0.917-6.776-1.339-10.213-1.522C230.918,418.412,224.349,417.688,218.764,418.775
					z"/>
				<path style="fill:#C4595B;" d="M257.852,438.399c-2.262-4.614-7.306-5.504-11.994-5.222c-1.283,0.077-0.903,2.042,0.367,1.966
					c3.75-0.226,7.992,0.385,9.818,4.109C256.61,440.41,258.419,439.556,257.852,438.399z"/>
			</g>
			<g>
				<path style="opacity:0.2;fill:#1D1D1B;" d="M328.578,255.562c-40.296-5.004-81.196-23.25-95.548-64.392
					c4.024,51.645,48.086,77.196,95.676,84.503c-2.624-11.859-5.516-19.603-5.516-19.603S325.203,255.991,328.578,255.562z"/>
				<circle style="opacity:0.3;fill:#1D1D1B;" cx="266.569" cy="169.49" r="14.566"/>
				<path style="fill:#C4595B;" d="M362.071,192.221c-3.028-2.262-6.811-2.776-10.358-1.613c-1.834,0.601-0.531,3.308,1.281,2.714
					c1.853-0.607,3.854-0.442,5.63,0.337c0.612,0.269,2.736,1.641,3.633,2.887c-0.269,0.085-0.537,0.227-0.797,0.45
					c-2.4,2.064,0.931,5.279,3.221,3.332C367.475,197.952,364.115,193.747,362.071,192.221z"/>
				<path style="fill:#C4595B;" d="M386.845,197.614c-2.26-1.895-5.351-2.527-8.134-1.45c-1.879,0.727-5.33,3.201-3.827,5.574
					c1.264,1.996,4.217,0.786,3.757-1.54c-0.036-0.183-0.093-0.344-0.159-0.493c0.088-0.069,0.177-0.138,0.265-0.208
					c0.73-0.494,1.553-0.773,2.425-0.842c1.544-0.122,2.816,0.459,3.977,1.433C386.627,201.329,388.313,198.846,386.845,197.614z"/>
				<path style="fill:#FFFFFF;" d="M305.871,210.027c0,0-1.741,21.936,1.045,24.199c2.785,2.263,18.28-9.923,18.28-9.923
					s-5.223,15.668-2.785,17.061s14.624-10.968,14.624-10.968s-2.823,14.165,1.113,15.526c3.936,1.361,12.68-10.826,12.68-10.826
					s-0.285,12.259,2.571,12.709c2.856,0.449,12.347-10.785,12.347-10.785s-14.538-1.622-30.88-8.685
					C318.523,221.271,305.871,210.027,305.871,210.027z"/>
				<path style="fill:#4E4C61;" d="M297.173,121.116c-10.596-0.563-15.084,14.721-17.009,22.557
					c-0.456,1.857,2.375,2.858,2.837,0.978c1.56-6.351,4.231-16.959,10.821-19.843c11.509-5.036,10.552,15.33,10.854,21.45
					c0.094,1.903,3.088,2.146,2.993,0.216C307.286,138.724,308.765,121.732,297.173,121.116z"/>
				<path style="fill:#C4595B;" d="M324.096,255.142c-20.067-3.417-39.405-7.719-56.126-19.952
					c-14.761-10.8-26.216-25.52-34.449-41.755c-0.874-1.723-3.588-0.444-2.714,1.281c8.474,16.711,20.276,31.836,35.466,42.949
					c17.133,12.535,37.047,16.97,57.606,20.47C325.782,258.458,325.989,255.464,324.096,255.142z"/>
				<path style="opacity:0.3;fill:#1D1D1B;" d="M267.709,110.805c1.07,0.637,2.388,0.649,3.633,0.609
					c7.18-0.233,14.379-1.644,20.878-4.704c1.088-0.512,2.187-1.095,2.946-2.029c0.759-0.933,1.1-2.303,0.528-3.361
					c-0.712-1.317-2.436-1.636-3.931-1.716c-5.274-0.281-10.597,0.632-15.501,2.584
					C274.123,103.039,262.738,107.848,267.709,110.805z"/>
				<g>
					<path style="fill:#1595B3;" d="M268.996,104.809c-0.661,0.548-1.365,1.262-1.267,2.115c0.08,0.692,0.698,1.224,1.366,1.421
						c0.668,0.197,1.382,0.127,2.074,0.055c8.07-0.835,16.518-1.804,23.207-6.394c0.981-0.673,2.017-1.661,1.83-2.837
						c-0.2-1.255-1.646-1.85-2.895-2.087C284.646,95.443,275.537,99.384,268.996,104.809z"/>
					<path style="opacity:0.3;fill:#1D1D1B;" d="M296.207,99.17c-0.2-1.255-1.646-1.85-2.895-2.087
						c-0.36-0.068-0.721-0.112-1.082-0.161c-6.151,6.583-14.988,9.931-24.341,10.498c0.24,0.446,0.709,0.779,1.207,0.926
						c0.668,0.197,1.382,0.127,2.074,0.055c8.07-0.835,16.518-1.804,23.207-6.394C295.358,101.333,296.394,100.345,296.207,99.17z"
						/>
				</g>
				<path style="fill:#C4595B;" d="M374.16,235.544c-13.926-0.131-27.5-4.577-40.41-9.482c-12.276-4.664-22.919-12.137-31.47-22.103
					c-0.094-0.11-0.199-0.182-0.306-0.238c0.568-0.536,1.115-1.102,1.629-1.708c0.832-0.981-0.824-2.104-1.65-1.131
					c-2.095,2.47-4.771,4.235-7.824,5.293c-1.217,0.422-0.351,2.227,0.854,1.809c2.056-0.713,3.92-1.748,5.59-3.055
					c0.039,0.108,0.089,0.216,0.178,0.32c8.353,9.735,18.759,17.301,30.688,22.06c13.454,5.368,27.975,10.093,42.578,10.23
					C375.297,237.551,375.452,235.556,374.16,235.544z"/>
			</g>
			<g>
				<g style="opacity:0.3;">
					<path style="fill:#FFFFFF;" d="M228.295,378.549c1.116-0.76,2.554-1.374,3.783-0.815c0.883,0.401,1.431,1.343,1.573,2.302
						c0.142,0.959-0.067,1.936-0.357,2.86c-0.793,2.524-2.203,4.835-3.969,6.805c-2.638,2.943-7.005,4.137-7.078-0.989
						C222.188,384.488,224.916,380.85,228.295,378.549z"/>
					<path style="fill:#FFFFFF;" d="M230.482,364.925c0.114-0.452,0.256-0.908,0.531-1.284c0.275-0.376,0.706-0.666,1.172-0.664
						c0.854,0.003,1.405,0.902,1.655,1.718c0.503,1.638,0.498,3.397,0.254,5.093c-0.093,0.651-0.227,1.312-0.567,1.874
						c-0.34,0.562-0.925,1.015-1.582,1.037C229.114,372.793,230.112,366.39,230.482,364.925z"/>
					<path style="fill:#FFFFFF;" d="M221.572,367.478c0.415-0.496,0.963-1.001,1.607-0.942c0.8,0.074,1.243,0.955,1.443,1.733
						c0.662,2.582,0.281,5.415-1.039,7.731c-0.613,1.075-1.657,2.139-2.882,1.966C216.02,377.301,220.157,369.165,221.572,367.478z"
						/>
					<path style="fill:#FFFFFF;" d="M220.93,397.29c0.803,0.609,0.781,1.823,0.525,2.798c-0.679,2.588-2.505,4.852-4.889,6.065
						c-0.622,0.316-1.393,0.557-1.992,0.2c-1.85-1.103-0.215-5.056,0.817-6.302C216.415,398.814,219.295,396.049,220.93,397.29z"/>
					<path style="fill:#FFFFFF;" d="M217.371,392.264c-0.271,0.457-0.647,0.915-1.17,1.009c-0.566,0.102-1.138-0.28-1.406-0.789
						c-0.268-0.509-0.285-1.114-0.221-1.685c0.102-0.91,0.397-1.799,0.859-2.59c0.646-1.106,2.401-1.858,2.961-0.25
						C218.804,389.138,217.952,391.285,217.371,392.264z"/>
				</g>
				<g style="opacity:0.3;">
					<path style="fill:#FFFFFF;" d="M189.724,295.744c-0.305,1.551-0.233,3.535,1.183,4.237c1.416,0.703,3.029-0.433,4.143-1.553
						c2.651-2.666,4.963-5.701,6.577-9.097c0.403-0.847,0.766-1.735,0.832-2.67c0.337-4.776-5.796-3.105-7.957-1.09
						C191.963,287.937,190.367,292.476,189.724,295.744z"/>
					<path style="fill:#FFFFFF;" d="M206.263,274.186c1.644-2.305,2.506-5.157,2.412-7.987c-0.084-2.552-1.571-3.123-3.636-1.923
						c-2.314,1.344-3.937,5.401-4.17,7.984C200.556,275.732,204.318,276.913,206.263,274.186z"/>
					<path style="fill:#FFFFFF;" d="M208.205,285.736c-0.02,0.809,0.078,1.742,0.744,2.202c0.906,0.626,2.137-0.072,2.901-0.865
						c1.694-1.759,2.764-4.107,2.98-6.54c0.068-0.768,0.049-1.566-0.256-2.274c-0.305-0.708-0.946-1.309-1.712-1.39
						C209.173,276.482,208.262,283.402,208.205,285.736z"/>
				</g>
				<g style="opacity:0.3;">
					<path style="fill:#FFFFFF;" d="M213.501,95.984c-0.347,0.92-0.576,2.011-0.048,2.841c0.395,0.62,1.146,0.946,1.88,0.988
						c0.734,0.042,1.459-0.163,2.152-0.408c4.027-1.424,7.516-4.318,9.66-8.012c0.574-0.99,1.015-2.353,0.228-3.183
						c-0.494-0.521-1.288-0.6-2.005-0.581C220.041,87.775,215.382,90.999,213.501,95.984z"/>
					<path style="fill:#FFFFFF;" d="M203.268,117.969c0.434,1.184,1.614,2.133,2.872,2.045c0.953-0.067,1.774-0.676,2.492-1.307
						c1.917-1.686,3.538-3.708,4.766-5.947c0.442-0.806,0.839-1.656,0.958-2.568c0.119-0.911-0.073-1.899-0.689-2.581
						C209.627,103.143,201.857,114.122,203.268,117.969z"/>
					<path style="fill:#FFFFFF;" d="M219.52,109.727c0.544,0.467,1.341,0.546,2.034,0.361c0.692-0.184,1.299-0.598,1.867-1.035
						c2.026-1.56,3.746-3.517,5.033-5.727c0.631-1.085,1.128-2.55,0.317-3.508c-0.462-0.545-1.244-0.738-1.951-0.64
						C224.214,99.54,216.341,106.998,219.52,109.727z"/>
					<path style="fill:#FFFFFF;" d="M246.6,83.093c0.619-0.553,1.221-1.272,1.164-2.1c-0.05-0.721-0.613-1.328-1.273-1.623
						c-0.659-0.295-1.403-0.33-2.125-0.325c-2.011,0.016-13.832,2.281-11.15,6.016c1.053,1.466,5.319,1.219,6.837,1.006
						C242.46,85.731,244.784,84.717,246.6,83.093z"/>
					<path style="fill:#FFFFFF;" d="M234.059,97.8c1.043,0.021,2.055-0.338,3.02-0.736c0.91-0.375,1.823-0.804,2.522-1.496
						c0.699-0.692,1.155-1.701,0.955-2.665c-0.757-3.649-5.668-1.563-7.569-0.403C230.472,94.035,230.381,97.727,234.059,97.8z"/>
				</g>
				<g style="opacity:0.3;">
					<path style="fill:#FFFFFF;" d="M117.67,327.779c0.303,0.863,0.531,1.854,0.103,2.662c-0.384,0.725-1.236,1.118-2.056,1.117
						s-1.605-0.345-2.292-0.793c-2.411-1.575-3.735-4.365-4.564-7.123c-0.82-2.726,0.626-5.657,3.578-3.899
						C114.764,321.127,116.814,325.341,117.67,327.779z"/>
					<path style="fill:#FFFFFF;" d="M103.172,307.68c-0.122-0.923-0.032-2.088,0.821-2.461c0.703-0.307,1.502,0.136,2.086,0.634
						c1.401,1.193,2.438,2.809,2.936,4.58c0.251,0.891,0.366,1.854,0.087,2.736c-0.279,0.883-1.021,1.662-1.94,1.772
						C104.517,315.257,103.404,309.44,103.172,307.68z"/>
					<path style="fill:#FFFFFF;" d="M121.788,332.55c0.498,1.045,1.229,1.992,2.501,1.651c0.579-0.155,1.004-0.684,1.166-1.261
						s0.096-1.194-0.04-1.778c-0.288-1.227-0.889-2.379-1.731-3.317c-0.56-0.623-1.418-1.185-2.187-0.854
						c-1.556,0.669-0.774,2.942-0.319,4.07C121.349,331.483,121.539,332.029,121.788,332.55z"/>
				</g>
			</g>
		</g>
	</g>
</g>
</svg>
