<?xml version="1.0" encoding="utf-8"?>
<!-- Generator: Adobe Illustrator 27.5.0, SVG Export Plug-In . SVG Version: 6.00 Build 0)  -->
<svg version="1.1" xmlns="http://www.w3.org/2000/svg" xmlns:xlink="http://www.w3.org/1999/xlink" x="0px" y="0px"
	 viewBox="0 0 2000 2000" style="enable-background:new 0 0 2000 2000;" xml:space="preserve">
<g id="BACKGROUND">
	<rect style="fill:#F2E0BD;" width="2000" height="2000"/>
</g>
<g id="OBJECTS">
	<g>
		<g>
			<g>
				<polygon style="fill:#B0C1D9;" points="0,1579.832 0,1711.387 288.613,2000 420.168,2000 				"/>
				<g>
					<g>
						<polygon style="fill:#B0C1D9;" points="0,1863.927 0,1909.123 90.876,2000 136.073,2000 						"/>
						<polygon style="fill:#8C5871;" points="0,1776.762 0,1798.553 201.446,2000 223.238,2000 						"/>
					</g>
					<g>
						<polygon style="fill:#B0C1D9;" points="0,1382.095 0,1427.292 572.708,2000 617.905,2000 						"/>
						<polygon style="fill:#8C5871;" points="0,1492.667 0,1514.457 485.543,2000 507.333,2000 						"/>
					</g>
				</g>
			</g>
			<g>
				<polygon style="fill:#B0C1D9;" points="0,759.83 0,891.385 1108.615,2000 1240.17,2000 				"/>
				<g>
					<g>
						<polygon style="fill:#B0C1D9;" points="0,1043.925 0,1089.122 910.878,2000 956.075,2000 						"/>
						<polygon style="fill:#8C5871;" points="0,956.76 0,978.55 1021.45,2000 1043.24,2000 						"/>
					</g>
					<g>
						<polygon style="fill:#B0C1D9;" points="0,562.093 0,607.29 1392.71,2000 1437.906,2000 						"/>
						<polygon style="fill:#8C5871;" points="0,672.665 0,694.455 1305.545,2000 1327.335,2000 						"/>
					</g>
				</g>
			</g>
			<g>
				<polygon style="fill:#B0C1D9;" points="60.171,0 0,0 0,71.383 1928.617,2000 2000,2000 2000,1939.828 				"/>
				<g>
					<g>
						<polygon style="fill:#B0C1D9;" points="0,223.923 0,269.12 1730.88,2000 1776.076,2000 						"/>
						<polygon style="fill:#8C5871;" points="0,136.758 0,158.548 1841.451,2000 1863.241,2000 						"/>
					</g>
					<g>
						<polygon style="fill:#B0C1D9;" points="2000,1742.092 257.908,0 212.711,0 2000,1787.288 						"/>
						<polygon style="fill:#8C5871;" points="2000,1852.662 147.336,0 125.546,0 2000,1874.453 						"/>
					</g>
				</g>
			</g>
			<g>
				<polygon style="fill:#B0C1D9;" points="2000,1119.827 880.173,0 748.618,0 2000,1251.382 				"/>
				<g>
					<g>
						<polygon style="fill:#B0C1D9;" points="2000,1403.922 596.078,0 550.881,0 2000,1449.118 						"/>
						<polygon style="fill:#8C5871;" points="2000,1316.757 683.243,0 661.453,0 2000,1338.547 						"/>
					</g>
					<g>
						<polygon style="fill:#B0C1D9;" points="2000,922.09 1077.91,0 1032.713,0 2000,967.287 						"/>
						<polygon style="fill:#8C5871;" points="2000,1032.662 967.338,0 945.548,0 2000,1054.452 						"/>
					</g>
				</g>
			</g>
			<g>
				<polygon style="fill:#B0C1D9;" points="2000,299.825 1700.175,0 1568.62,0 2000,431.38 				"/>
				<g>
					<g>
						<polygon style="fill:#B0C1D9;" points="2000,583.92 1416.08,0 1370.883,0 2000,629.117 						"/>
						<polygon style="fill:#8C5871;" points="2000,496.755 1503.245,0 1481.455,0 2000,518.545 						"/>
					</g>
					<g>
						<polygon style="fill:#B0C1D9;" points="2000,102.088 1897.911,0 1852.715,0 2000,147.285 						"/>
						<polygon style="fill:#8C5871;" points="2000,212.66 1787.34,0 1765.55,0 2000,234.45 						"/>
					</g>
				</g>
			</g>
		</g>
		<g style="opacity:0.85;">
			<g>
				<polygon style="fill:#B0C1D9;" points="1700.068,2000 2000,1700.068 2000,1568.513 1568.513,2000 				"/>
				<g>
					<g>
						<polygon style="fill:#B0C1D9;" points="1897.805,2000 2000,1897.805 2000,1852.608 1852.608,2000 						"/>
						<polygon style="fill:#8C5871;" points="1787.233,2000 2000,1787.233 2000,1765.442 1765.441,2000 						"/>
					</g>
					<g>
						<polygon style="fill:#B0C1D9;" points="1415.973,2000 2000,1415.973 2000,1370.777 1370.776,2000 						"/>
						<polygon style="fill:#8C5871;" points="1503.138,2000 2000,1503.138 2000,1481.347 1481.346,2000 						"/>
					</g>
				</g>
			</g>
			<g>
				<polygon style="fill:#B0C1D9;" points="880.067,2000 2000,880.067 2000,748.512 748.511,2000 				"/>
				<g>
					<g>
						<polygon style="fill:#B0C1D9;" points="1077.803,2000 2000,1077.803 2000,1032.607 1032.606,2000 						"/>
						<polygon style="fill:#8C5871;" points="967.231,2000 2000,967.232 2000,945.44 945.44,2000 						"/>
					</g>
					<g>
						<polygon style="fill:#B0C1D9;" points="595.971,2000 2000,595.972 2000,550.775 550.775,2000 						"/>
						<polygon style="fill:#8C5871;" points="683.136,2000 2000,683.137 2000,661.345 661.345,2000 						"/>
					</g>
				</g>
			</g>
			<g>
				<polygon style="fill:#B0C1D9;" points="1928.51,0 0,1928.51 0,2000 60.065,2000 2000,60.065 2000,0 				"/>
				<g>
					<g>
						<polygon style="fill:#B0C1D9;" points="257.801,2000 2000,257.802 2000,212.605 212.605,2000 						"/>
						<polygon style="fill:#8C5871;" points="147.23,2000 2000,147.23 2000,125.438 125.438,2000 						"/>
					</g>
					<g>
						<polygon style="fill:#B0C1D9;" points="0,1775.97 1775.97,0 1730.773,0 0,1730.773 						"/>
						<polygon style="fill:#8C5871;" points="0,1863.135 1863.135,0 1841.343,0 0,1841.343 						"/>
					</g>
				</g>
			</g>
			<g>
				<polygon style="fill:#B0C1D9;" points="0,1240.063 1240.063,0 1108.508,0 0,1108.508 				"/>
				<g>
					<g>
						<polygon style="fill:#B0C1D9;" points="0,1437.8 1437.8,0 1392.603,0 0,1392.603 						"/>
						<polygon style="fill:#8C5871;" points="0,1327.228 1327.228,0 1305.436,0 0,1305.437 						"/>
					</g>
					<g>
						<polygon style="fill:#B0C1D9;" points="0,955.968 955.968,0 910.771,0 0,910.772 						"/>
						<polygon style="fill:#8C5871;" points="0,1043.133 1043.133,0 1021.341,0 0,1021.342 						"/>
					</g>
				</g>
			</g>
			<g>
				<polygon style="fill:#B0C1D9;" points="0,420.062 420.061,0 288.506,0 0,288.507 				"/>
				<g>
					<g>
						<polygon style="fill:#B0C1D9;" points="0,617.798 617.798,0 572.601,0 0,572.602 						"/>
						<polygon style="fill:#8C5871;" points="0,507.227 507.226,0 485.435,0 0,485.435 						"/>
					</g>
					<g>
						<polygon style="fill:#B0C1D9;" points="0,135.967 135.967,0 90.77,0 0,90.77 						"/>
						<polygon style="fill:#8C5871;" points="0,223.132 223.131,0 201.34,0 0,201.34 						"/>
					</g>
				</g>
			</g>
		</g>
	</g>
</g>
</svg>
